<?xml version="1.0" standalone="no"?>
<!DOCTYPE svg PUBLIC "-//W3C//DTD SVG 1.1//EN" "http://www.w3.org/Graphics/SVG/1.1/DTD/svg11.dtd" >
<svg xmlns="http://www.w3.org/2000/svg" xmlns:xlink="http://www.w3.org/1999/xlink" version="1.1">
<metadata>
Created by FontForge 20170910 at Wed Jan 25 07:14:41 2017
 By jimmywarting
Astakhov Type Drawing Office - Dmitry Astakhov 2017. Russia, Penza.
</metadata>
<defs>
<font id="AstakhovFirstSimple" horiz-adv-x="1073" >
  <font-face 
    font-family="Astakhov First Simple"
    font-weight="400"
    font-stretch="normal"
    units-per-em="2048"
    panose-1="2 0 5 0 0 0 0 0 0 0"
    ascent="1638"
    descent="-410"
    x-height="1862"
    cap-height="1862"
    bbox="-283 -527 2213 2438"
    underline-thickness="150"
    underline-position="-292"
    unicode-range="U+001D-FFFC"
  />
<missing-glyph horiz-adv-x="1567" 
d="M926 1802q-76 0 -87 -148v-522q0 -18 4 -46q22 -102 103 -102q117 0 117 148v527q-12 143 -87 143h-50zM546 1782v-773l4 -10q73 13 73 31v393h3q7 -55 64 -383q0 -30 76 -41q7 0 7 10v773l-3 10q-70 -21 -70 -31v-414h-4q-13 98 -66 404q0 24 -80 41zM919 1633
q26 46 30 46h4q30 -39 30 -46v-481q-23 -41 -27 -41h-10q-27 35 -27 41v481zM227 878q-97 0 -97 -194v-424q0 -200 110 -200h7q109 0 109 153v302q0 9 -6 11h-110q7 -113 17 -113h20v-194q0 -41 -27 -41h-20q-20 12 -20 71v456q0 61 30 61h7q25 0 30 -46v-87q0 -11 73 -26
q6 0 6 11v102q0 33 -6 72q-26 86 -90 86h-33zM423 858v-772q0 -11 7 -11h190l6 5q-11 108 -20 108h-103v650q0 10 -77 30zM916 868q-7 -5 -73 -20q-10 0 -57 -282h-3q-43 240 -47 251q0 46 -83 46h-3l93 -465v-312q0 -11 7 -11h66q7 0 7 11v301q0 17 96 471zM973 868
q-6 0 -7 -10v-772l3 -11q77 13 77 31v307h23q26 0 57 15q60 43 60 144v143q0 153 -123 153h-90zM1243 858v-772l3 -11q76 14 76 31v307h67v-307q0 -15 73 -31q7 0 7 11v772l-3 10q-77 -20 -77 -30v-312h-67v312q0 10 -76 30zM1073 751q25 -31 33 -57v-102q0 -24 -23 -61h-37
v220h27zM1547 1862v-1862h-1527v1862h1527z" />
    <glyph glyph-name=".notdef" horiz-adv-x="1567" 
d="M926 1802q-76 0 -87 -148v-522q0 -18 4 -46q22 -102 103 -102q117 0 117 148v527q-12 143 -87 143h-50zM546 1782v-773l4 -10q73 13 73 31v393h3q7 -55 64 -383q0 -30 76 -41q7 0 7 10v773l-3 10q-70 -21 -70 -31v-414h-4q-13 98 -66 404q0 24 -80 41zM919 1633
q26 46 30 46h4q30 -39 30 -46v-481q-23 -41 -27 -41h-10q-27 35 -27 41v481zM227 878q-97 0 -97 -194v-424q0 -200 110 -200h7q109 0 109 153v302q0 9 -6 11h-110q7 -113 17 -113h20v-194q0 -41 -27 -41h-20q-20 12 -20 71v456q0 61 30 61h7q25 0 30 -46v-87q0 -11 73 -26
q6 0 6 11v102q0 33 -6 72q-26 86 -90 86h-33zM423 858v-772q0 -11 7 -11h190l6 5q-11 108 -20 108h-103v650q0 10 -77 30zM916 868q-7 -5 -73 -20q-10 0 -57 -282h-3q-43 240 -47 251q0 46 -83 46h-3l93 -465v-312q0 -11 7 -11h66q7 0 7 11v301q0 17 96 471zM973 868
q-6 0 -7 -10v-772l3 -11q77 13 77 31v307h23q26 0 57 15q60 43 60 144v143q0 153 -123 153h-90zM1243 858v-772l3 -11q76 14 76 31v307h67v-307q0 -15 73 -31q7 0 7 11v772l-3 10q-77 -20 -77 -30v-312h-67v312q0 10 -76 30zM1073 751q25 -31 33 -57v-102q0 -24 -23 -61h-37
v220h27zM1547 1862v-1862h-1527v1862h1527z" />
    <glyph glyph-name="NULL" horiz-adv-x="0" 
 />
    <glyph glyph-name="NULL" horiz-adv-x="0" 
 />
    <glyph glyph-name="nonmarkingreturn" horiz-adv-x="508" 
 />
    <glyph glyph-name="space" unicode=" " horiz-adv-x="508" 
 />
    <glyph glyph-name="space" unicode="&#xa0;" horiz-adv-x="508" 
 />
    <glyph glyph-name="exclam" unicode="!" horiz-adv-x="565" 
d="M443 1862l-21 -1359h-281l-21 1309zM120 308h323v-308h-323v308z" />
    <glyph glyph-name="quotedbl" unicode="&#x22;" horiz-adv-x="968" 
d="M552 1940l296 25l-34 -629l-228 -25zM120 1940l296 25l-34 -629l-228 -25z" />
    <glyph glyph-name="numbersign" unicode="#" horiz-adv-x="1349" 
d="M284 838l51 244h-213l50 145h194l132 636l237 -47l-133 -589h245l132 636l237 -47l-133 -589h184l-50 -145h-165l-51 -244h224l-50 -145h-205l-144 -693l-237 47l145 646h-245l-144 -693l-237 47l145 646h-173l50 145h154zM571 1082l-51 -244h245l51 244h-245z" />
    <glyph glyph-name="dollar" unicode="$" horiz-adv-x="1053" 
d="M120 1537q0 343 289 387v119l232 50v-169q290 -44 290 -387v-253l-283 50v203q0 126 -122 127h-2q-122 0 -122 -127v-171q0 -126 265 -307q264 -182 264 -435v-238q0 -344 -290 -387v-179l-232 -50v229q-289 44 -289 387v253l282 -50v-203q0 -127 123 -127t123 127v214
q0 137 -264 319t-264 442v176z" />
    <glyph glyph-name="percent" unicode="%" horiz-adv-x="1697" 
d="M1570 233q0 -232 -238 -232h-2q-235 0 -235 232v674q0 232 237 232q238 0 238 -232v-674zM1279 1863l-720 -1863h-176l721 1863h175zM1317 966l-57 -59v-674l56 -59h33l56 59v674l-58 59h-30zM600 1069q0 -232 -238 -232h-2q-235 0 -235 232v674q0 232 237 232
q238 0 238 -232v-674zM347 1802l-57 -59v-674l56 -59h33l56 59v674l-58 59h-30z" />
    <glyph glyph-name="ampersand" unicode="&#x26;" horiz-adv-x="1183" 
d="M447 290q24 -11 77 -11q12 0 26 1l100 133v460h-124q-26 -1 -46 -9q-77 -30 -77 -124v-327q0 -105 44 -123zM650 1152v84l283 50v-134h130l50 -279h-180v-460q0 -396 -345 -411q-34 -1 -65 -1q-61 0 -106 5q-297 35 -297 407v327q0 193 155 273q-155 80 -155 273v295
q0 383 317 410q43 3 88 3q38 0 78 -2q330 -22 330 -411v-84l-283 50v34l-70 131q-24 4 -51 4q-23 0 -48 -3q-78 -9 -78 -132v-295q0 -94 77 -125q20 -8 46 -9h124z" />
    <glyph glyph-name="quotesingle" unicode="'" horiz-adv-x="536" 
d="M120 1940l296 25l-34 -629l-228 -25z" />
    <glyph glyph-name="parenleft" unicode="(" horiz-adv-x="544" 
d="M512 -247q-392 5 -392 396v1566q0 390 392 395l-50 -223l-60 -128v-1655l60 -127z" />
    <glyph glyph-name="parenright" unicode=")" horiz-adv-x="544" 
d="M80 -23l60 127v1655l-60 128l-50 223q392 -5 392 -395v-1566q0 -391 -392 -396z" />
    <glyph glyph-name="asterisk" unicode="*" horiz-adv-x="1012" 
d="M534 1662q125 133 187 161q33 17 61 17q67 0 99 -96q12 -36 12 -65q0 -81 -100 -96q-16 -2 -37 -2q-71 0 -202 26q167 -78 212 -127q38 -41 38 -80q0 -51 -64 -98q-51 -37 -91 -37q-55 0 -90 71q-31 62 -51 235q-23 -183 -56 -241q-35 -64 -89 -64q-38 0 -88 34
q-67 48 -67 98q0 41 44 85q49 49 207 120q-130 -25 -201 -25q-27 0 -45 4q-94 18 -94 98q0 27 11 61q30 98 98 98q30 0 68 -20q62 -32 179 -159q-88 160 -96 227q-1 12 -1 23q0 104 126 105h4q125 0 125 -99q0 -16 -3 -34q-12 -70 -96 -220z" />
    <glyph glyph-name="plus" unicode="+" horiz-adv-x="1047" 
d="M408 866h-239l-50 233h289v238l232 50v-288h238l50 -233h-288v-238l-232 -50v288z" />
    <glyph glyph-name="comma" unicode="," horiz-adv-x="591" 
d="M120 327h351v-288l-108 -366h-183l58 328h-118v326z" />
    <glyph glyph-name="hyphen" unicode="-" horiz-adv-x="786" 
d="M50 841l50 235h636l-50 -235h-636z" />
    <glyph glyph-name="hyphen" unicode="&#xad;" horiz-adv-x="786" 
d="M50 841l50 235h636l-50 -235h-636z" />
    <glyph glyph-name="period" unicode="." horiz-adv-x="565" 
d="M120 327h325v-327h-325v327z" />
    <glyph glyph-name="slash" unicode="/" horiz-adv-x="748" 
d="M686 1863l-390 -1863h-236l390 1863h236z" />
    <glyph glyph-name="zero" unicode="0" horiz-adv-x="1053" 
d="M931 361q0 -392 -406 -392q-405 0 -405 392v1140q0 393 405 393q406 0 406 -393v-1140zM649 1501q0 127 -123 127h-2q-122 0 -122 -127v-1140q0 -127 123 -127q124 0 124 127v1140z" />
    <glyph glyph-name="one" unicode="1" 
d="M677 1862v-1597h264l-50 -265h-761l50 265h214v1332h-214l-50 265h547z" />
    <glyph glyph-name="two" unicode="2" 
d="M130 400q0 252 264 431q265 180 266 305v366q0 126 -122 126h-2q-123 0 -123 -126v-203l-283 -47v250q0 392 406 392q407 0 407 -392v-373q0 -256 -265 -437q-265 -179 -265 -315v-112h530l-50 -265h-763v400z" />
    <glyph glyph-name="three" unicode="3" 
d="M662 701q0 102 -45 121q-24 10 -74 10h-46v265h68q40 0 60 11q37 20 37 114v278q0 102 -45 121q-24 9 -77 9q-14 0 -29 -1q-102 -3 -102 -129v-198l-279 -50v250q0 270 165 351q114 57 235 57q112 0 228 -49q183 -76 183 -359v-281q0 -184 -155 -260q155 -76 155 -260
v-339q0 -244 -132 -333q-83 -56 -259 -60h-24q-156 0 -242 48q-154 83 -154 345v250l279 -50v-201q0 -130 126 -130q127 0 127 130v340z" />
    <glyph glyph-name="four" unicode="4" 
d="M907 1862v-1141h109l-50 -265h-59v-456l-282 50v406h-573v236l495 1170h360zM330 721h295v711z" />
    <glyph glyph-name="five" unicode="5" 
d="M659 360v529q0 99 -44 117q-24 11 -77 11q-13 0 -27 -1q-86 -4 -96 -73l-3 -75h-282l42 994h769l-50 -265h-448l-20 -401q72 79 196 79q17 0 35 -2q147 -12 224 -113q63 -82 63 -271v-529q0 -353 -297 -386q-45 -5 -105 -5q-31 0 -65 1q-344 14 -344 390v221l282 -50
v-171q0 -122 99 -126h20q59 0 84 9q44 19 44 117z" />
    <glyph glyph-name="six" unicode="6" 
d="M413 1048q79 67 195 67q21 0 43 -1q136 -14 213 -93q79 -80 79 -290v-370q0 -392 -407 -392q-406 0 -406 392v1140q0 393 406 393q407 0 407 -393v-250l-283 48v202q0 127 -123 127h-2q-122 0 -122 -127v-453zM510 859l-97 -47v-531l95 -47h56l96 47v531l-98 47h-52z" />
    <glyph glyph-name="seven" unicode="7" 
d="M171 1597l-50 265h837v-191l-396 -1671l-290 47l378 1550h-479z" />
    <glyph glyph-name="eight" unicode="8" 
d="M941 1502v-281q0 -184 -155 -260q155 -76 155 -260v-339q0 -244 -132 -333q-83 -56 -259 -60h-24q-156 0 -242 48q-154 83 -154 345v339q0 184 155 260q-155 76 -155 260v281q0 270 165 351q114 57 235 57q112 0 228 -49q183 -76 183 -359zM508 1630l-99 -41v-457l97 -40
h58l98 40v457l-100 41h-54zM508 769l-99 -41v-457l97 -40h58l98 40v457l-100 41h-54z" />
    <glyph glyph-name="nine" unicode="9" 
d="M659 815q-81 -68 -198 -68q-19 0 -40 2q-135 13 -212 92q-79 81 -79 290v370q0 392 406 393q405 0 405 -393v-1140q0 -392 -406 -392q-405 0 -405 392v251h282v-251q0 -126 123 -127h2q122 0 122 127v454zM509 1628l-97 -47v-531l95 -46h56l96 46v531l-98 47h-52z" />
    <glyph glyph-name="colon" unicode=":" horiz-adv-x="564" 
d="M120 1331h324v-326h-324v326zM120 327h324v-327h-324v327z" />
    <glyph glyph-name="semicolon" unicode=";" horiz-adv-x="591" 
d="M120 327h351v-288l-108 -366h-183l58 328h-118v326zM120 1331h325v-326h-325v326z" />
    <glyph glyph-name="semicolon" unicode="&#x37e;" horiz-adv-x="591" 
d="M120 327h351v-288l-108 -366h-183l58 328h-118v326zM120 1331h325v-326h-325v326z" />
    <glyph glyph-name="less" unicode="&#x3c;" horiz-adv-x="1047" 
d="M120 1058l805 414l-50 -252l-536 -293l536 -284l50 -251l-805 400v266z" />
    <glyph glyph-name="equal" unicode="=" horiz-adv-x="1047" 
d="M120 1029l50 200h755l-50 -200h-755zM120 633l50 199h755l-50 -199h-755z" />
    <glyph glyph-name="greater" unicode="&#x3e;" horiz-adv-x="1047" 
d="M925 792l-805 -400l50 251l536 284l-536 293l-50 252l805 -414v-266z" />
    <glyph glyph-name="question" unicode="?" horiz-adv-x="1053" 
d="M236 309h324v-309h-324v309zM931 1315q0 -237 -199 -425q-198 -188 -198 -328v-42l-282 50v15q0 233 198 420q199 187 199 316v181q0 126 -122 126h-2q-123 0 -123 -126v-200l-282 -50v250q0 392 406 392q405 0 405 -392v-187z" />
    <glyph glyph-name="at" unicode="@" horiz-adv-x="1483" 
d="M1350 1238v-75q0 -258 -267 -258h-108v-327q0 -259 -268 -259q-267 0 -267 259v244q0 257 267 257h82v249q0 83 -81 83h-2q-80 0 -80 -83v-16l-186 -50v66q0 258 267 258q268 0 268 -258v-249h108q81 0 81 84v177q0 391 -423 391q-424 0 -424 -404v-761q0 -391 424 -391
q423 0 423 403v41h187v-41q0 -577 -610 -577q-611 0 -611 565v761q0 578 611 578q610 0 610 -565v-102h-1zM691 905l-81 -83v-244l81 -84l82 84v327h-82z" />
    <glyph glyph-name="A" unicode="A" horiz-adv-x="1051" 
d="M917 661l92 -661l-285 50l-55 345h-289l-56 -345l-284 -50l92 658l199 1204h388zM416 661h216l-78 557h-60z" />
    <glyph glyph-name="B" unicode="B" horiz-adv-x="1043" 
d="M130 1862l435 -1q376 0 376 -391v-280q0 -183 -155 -259q155 -76 155 -259v-281q0 -390 -376 -390q-6 0 -18 -1h-417v1862zM412 1597v-533h89l158 126v280l-123 127h-124zM412 798v-533h124l123 126v281l-158 126h-89z" />
    <glyph glyph-name="C" unicode="C" horiz-adv-x="1023" 
d="M921 361q0 -392 -406 -393q-405 0 -405 393v1140q0 392 405 392q406 0 406 -392v-251l-282 50v201q0 126 -123 127h-2q-122 0 -122 -127v-1140q0 -127 123 -127q124 0 124 127v201l282 50v-251z" />
    <glyph glyph-name="D" unicode="D" horiz-adv-x="1053" 
d="M130 1862l436 -1q377 0 377 -391v-1079q0 -390 -377 -390q-6 0 -18 -1h-418v1862zM413 1597v-1332h124l123 126v1079l-123 127h-124z" />
    <glyph glyph-name="E" unicode="E" horiz-adv-x="944" 
d="M130 1862h732l-50 -265h-400v-533h337v-266h-337v-533h400l50 -265h-732v1862z" />
    <glyph glyph-name="F" unicode="F" horiz-adv-x="924" 
d="M130 1862h732l-50 -265h-400v-533h337v-266h-337v-748l-282 -50v1862z" />
    <glyph glyph-name="G" unicode="G" horiz-adv-x="1033" 
d="M921 361q0 -392 -406 -393q-405 0 -405 393v1140q0 392 405 392q406 0 406 -392v-251l-282 48v203q0 126 -123 127h-2q-122 0 -122 -127v-1140q0 -127 123 -127q124 0 124 127v437h-93l-50 266h425v-703z" />
    <glyph glyph-name="H" unicode="H" 
d="M130 1862l282 -50v-748h247v748l282 50v-1862l-282 50v748h-247v-748l-282 -50v1862z" />
    <glyph glyph-name="I" unicode="I" horiz-adv-x="553" 
d="M135 1812l281 50v-1862h-281v1812z" />
    <glyph glyph-name="J" unicode="J" horiz-adv-x="973" 
d="M30 470l282 -50v-60q0 -126 124 -126q123 0 123 126v1452l282 50v-1502q0 -392 -405 -392q-406 1 -406 392v110z" />
    <glyph glyph-name="K" unicode="K" horiz-adv-x="1057" 
d="M642 931l373 -931l-302 50l-301 778v-778l-282 -50v1862l282 -50v-779l301 779l302 50z" />
    <glyph glyph-name="L" unicode="L" horiz-adv-x="904" 
d="M130 0v1862l282 -50v-1547h400l50 -265h-732z" />
    <glyph glyph-name="M" unicode="M" horiz-adv-x="1418" 
d="M745 587l328 1225l283 50v-1862l-271 50v995l-241 -995h-192l-248 995v-995l-274 -50v1862l283 -50z" />
    <glyph glyph-name="N" unicode="N" 
d="M130 1862l283 -50l268 -1030v1030l262 50v-1862l-283 50l-258 996v-996l-272 -50v1862z" />
    <glyph glyph-name="O" unicode="O" horiz-adv-x="1033" 
d="M921 361q0 -392 -406 -393q-405 0 -405 393v1140q0 392 405 392q406 0 406 -392v-1140zM489 1600l-97 -100v-1140l95 -99h56l96 99v1140l-98 100h-52z" />
    <glyph glyph-name="P" unicode="P" horiz-adv-x="999" 
d="M130 1862l411 -1q376 0 376 -391v-280q0 -288 -270 -372q-65 -20 -189 -20h-46v-748l-282 -50v1862zM412 1597v-533h65q59 0 81 7l77 119v280l-123 127h-100z" />
    <glyph glyph-name="Q" unicode="Q" horiz-adv-x="1033" 
d="M921 350q0 -352 -309 -389q5 -61 259 -63l50 -226q-250 0 -344 47q-122 59 -125 239q-342 24 -342 392v1149q0 394 405 394q406 0 406 -394v-1149zM489 1600l-97 -100v-1140l95 -99h56l96 99v1140l-98 100h-52z" />
    <glyph glyph-name="R" unicode="R" horiz-adv-x="1044" 
d="M130 1862l411 -1q376 0 376 -391v-280q0 -246 -222 -324l317 -866l-309 50l-255 769l-36 -5v-764l-282 -50v1862zM412 1597v-533h65q59 0 81 7l77 119v280l-123 127h-100z" />
    <glyph glyph-name="S" unicode="S" horiz-adv-x="1033" 
d="M110 1501q0 392 405 392q406 0 406 -392v-251l-282 50v201q0 126 -123 127h-2q-122 0 -122 -127v-169q0 -124 265 -305q264 -180 264 -431v-235q0 -393 -405 -393q-406 1 -406 393v251l282 -50v-201q0 -127 124 -127q123 0 123 127v213q0 135 -265 315q-264 180 -264 437
v175z" />
    <glyph glyph-name="T" unicode="T" horiz-adv-x="913" 
d="M861 1862l-50 -265h-214v-1597h-283v1597h-214l-50 265h811z" />
    <glyph glyph-name="U" unicode="U" horiz-adv-x="1053" 
d="M931 360q0 -391 -406 -392q-405 0 -405 392v1502l282 -50v-1452q0 -126 123 -126q124 0 124 126v1452l282 50v-1502z" />
    <glyph glyph-name="V" unicode="V" horiz-adv-x="1051" 
d="M719 0h-388l-199 1203l-92 659l285 -50l199 -1385l200 1385l285 50l-92 -661z" />
    <glyph glyph-name="W" unicode="W" horiz-adv-x="1732" 
d="M1205 427l199 1385l286 50l-92 -661l-199 -1201h-387l-147 961l-146 -961h-387l-200 1203l-92 659l285 -50l199 -1385l200 1385h281z" />
    <glyph glyph-name="X" unicode="X" horiz-adv-x="1017" 
d="M324 1815l184 -477l183 477l284 47l-325 -931l325 -931l-284 47l-183 477l-184 -477l-284 -47l325 931l-325 931z" />
    <glyph glyph-name="Y" unicode="Y" horiz-adv-x="1066" 
d="M339 1812l193 -676l193 676l299 50l-342 -1056l-8 -23v-783h-283v783l-9 23l-342 1056z" />
    <glyph glyph-name="Z" unicode="Z" horiz-adv-x="880" 
d="M781 1701l-383 -1436h350l50 -265h-718v161l383 1436h-320l-50 265h688v-161z" />
    <glyph glyph-name="bracketleft" unicode="[" horiz-adv-x="547" 
d="M515 2010l-50 -213h-103v-1830h103l50 -214h-385v2257h385z" />
    <glyph glyph-name="backslash" unicode="\" horiz-adv-x="748" 
d="M296 1863l390 -1863h-236l-390 1863h236z" />
    <glyph glyph-name="bracketright" unicode="]" horiz-adv-x="547" 
d="M415 2010v-2257h-385l50 214h103v1830h-103l-50 213h385z" />
    <glyph glyph-name="asciicircum" unicode="^" horiz-adv-x="1157" 
d="M706 1981l351 -809l-254 50l-225 468l-224 -468l-254 -50l351 809h255z" />
    <glyph glyph-name="underscore" unicode="_" horiz-adv-x="1032" 
d="M0 -318l50 213h982l-50 -213h-982z" />
    <glyph glyph-name="grave" unicode="`" horiz-adv-x="756" 
d="M352 2060l274 -255h-222l-274 178z" />
    <glyph glyph-name="a" unicode="a" horiz-adv-x="1051" 
d="M917 661l92 -661l-285 50l-55 345h-289l-56 -345l-284 -50l92 658l199 1204h388zM416 661h216l-78 557h-60z" />
    <glyph glyph-name="b" unicode="b" horiz-adv-x="1043" 
d="M130 1862l435 -1q376 0 376 -391v-280q0 -183 -155 -259q155 -76 155 -259v-281q0 -390 -376 -390q-6 0 -18 -1h-417v1862zM412 1597v-533h89l158 126v280l-123 127h-124zM412 798v-533h124l123 126v281l-158 126h-89z" />
    <glyph glyph-name="c" unicode="c" horiz-adv-x="1023" 
d="M921 361q0 -392 -406 -393q-405 0 -405 393v1140q0 392 405 392q406 0 406 -392v-251l-282 50v201q0 126 -123 127h-2q-122 0 -122 -127v-1140q0 -127 123 -127q124 0 124 127v201l282 50v-251z" />
    <glyph glyph-name="d" unicode="d" horiz-adv-x="1053" 
d="M130 1862l436 -1q377 0 377 -391v-1079q0 -390 -377 -390q-6 0 -18 -1h-418v1862zM413 1597v-1332h124l123 126v1079l-123 127h-124z" />
    <glyph glyph-name="e" unicode="e" horiz-adv-x="944" 
d="M130 1862h732l-50 -265h-400v-533h337v-266h-337v-533h400l50 -265h-732v1862z" />
    <glyph glyph-name="f" unicode="f" horiz-adv-x="924" 
d="M130 1862h732l-50 -265h-400v-533h337v-266h-337v-748l-282 -50v1862z" />
    <glyph glyph-name="g" unicode="g" horiz-adv-x="1033" 
d="M921 361q0 -392 -406 -393q-405 0 -405 393v1140q0 392 405 392q406 0 406 -392v-251l-282 48v203q0 126 -123 127h-2q-122 0 -122 -127v-1140q0 -127 123 -127q124 0 124 127v437h-93l-50 266h425v-703z" />
    <glyph glyph-name="h" unicode="h" 
d="M130 1862l282 -50v-748h247v748l282 50v-1862l-282 50v748h-247v-748l-282 -50v1862z" />
    <glyph glyph-name="i" unicode="i" horiz-adv-x="553" 
d="M135 1812l281 50v-1862h-281v1812z" />
    <glyph glyph-name="j" unicode="j" horiz-adv-x="973" 
d="M30 470l282 -50v-60q0 -126 124 -126q123 0 123 126v1452l282 50v-1502q0 -392 -405 -392q-406 1 -406 392v110z" />
    <glyph glyph-name="k" unicode="k" horiz-adv-x="1057" 
d="M642 931l373 -931l-302 50l-301 778v-778l-282 -50v1862l282 -50v-779l301 779l302 50z" />
    <glyph glyph-name="l" unicode="l" horiz-adv-x="904" 
d="M130 0v1862l282 -50v-1547h400l50 -265h-732z" />
    <glyph glyph-name="m" unicode="m" horiz-adv-x="1418" 
d="M745 587l328 1225l283 50v-1862l-271 50v995l-241 -995h-192l-248 995v-995l-274 -50v1862l283 -50z" />
    <glyph glyph-name="n" unicode="n" 
d="M130 1862l283 -50l268 -1030v1030l262 50v-1862l-283 50l-258 996v-996l-272 -50v1862z" />
    <glyph glyph-name="o" unicode="o" horiz-adv-x="1033" 
d="M921 361q0 -392 -406 -393q-405 0 -405 393v1140q0 392 405 392q406 0 406 -392v-1140zM489 1600l-97 -100v-1140l95 -99h56l96 99v1140l-98 100h-52z" />
    <glyph glyph-name="p" unicode="p" horiz-adv-x="999" 
d="M130 1862l411 -1q376 0 376 -391v-280q0 -288 -270 -372q-65 -20 -189 -20h-46v-748l-282 -50v1862zM412 1597v-533h65q59 0 81 7l77 119v280l-123 127h-100z" />
    <glyph glyph-name="q" unicode="q" horiz-adv-x="1033" 
d="M921 350q0 -352 -309 -389q5 -61 259 -63l50 -226q-250 0 -344 47q-122 59 -125 239q-342 24 -342 392v1149q0 394 405 394q406 0 406 -394v-1149zM489 1600l-97 -100v-1140l95 -99h56l96 99v1140l-98 100h-52z" />
    <glyph glyph-name="r" unicode="r" horiz-adv-x="1044" 
d="M130 1862l411 -1q376 0 376 -391v-280q0 -246 -222 -324l317 -866l-309 50l-255 769l-36 -5v-764l-282 -50v1862zM412 1597v-533h65q59 0 81 7l77 119v280l-123 127h-100z" />
    <glyph glyph-name="s" unicode="s" horiz-adv-x="1033" 
d="M110 1501q0 392 405 392q406 0 406 -392v-251l-282 50v201q0 126 -123 127h-2q-122 0 -122 -127v-169q0 -124 265 -305q264 -180 264 -431v-235q0 -393 -405 -393q-406 1 -406 393v251l282 -50v-201q0 -127 124 -127q123 0 123 127v213q0 135 -265 315q-264 180 -264 437
v175z" />
    <glyph glyph-name="t" unicode="t" horiz-adv-x="913" 
d="M861 1862l-50 -265h-214v-1597h-283v1597h-214l-50 265h811z" />
    <glyph glyph-name="u" unicode="u" horiz-adv-x="1053" 
d="M931 360q0 -391 -406 -392q-405 0 -405 392v1502l282 -50v-1452q0 -126 123 -126q124 0 124 126v1452l282 50v-1502z" />
    <glyph glyph-name="v" unicode="v" horiz-adv-x="1051" 
d="M719 0h-388l-199 1203l-92 659l285 -50l199 -1385l200 1385l285 50l-92 -661z" />
    <glyph glyph-name="w" unicode="w" horiz-adv-x="1732" 
d="M1205 427l199 1385l286 50l-92 -661l-199 -1201h-387l-147 961l-146 -961h-387l-200 1203l-92 659l285 -50l199 -1385l200 1385h281z" />
    <glyph glyph-name="x" unicode="x" horiz-adv-x="1017" 
d="M324 1815l184 -477l183 477l284 47l-325 -931l325 -931l-284 47l-183 477l-184 -477l-284 -47l325 931l-325 931z" />
    <glyph glyph-name="y" unicode="y" horiz-adv-x="1066" 
d="M339 1812l193 -676l193 676l299 50l-342 -1056l-8 -23v-783h-283v783l-9 23l-342 1056z" />
    <glyph glyph-name="z" unicode="z" horiz-adv-x="880" 
d="M781 1701l-383 -1436h350l50 -265h-718v161l383 1436h-320l-50 265h688v-161z" />
    <glyph glyph-name="braceleft" unicode="{" horiz-adv-x="545" 
d="M513 -247q-392 5 -392 396v543q0 126 -111 128v223q111 3 111 128v544q0 390 392 395l-50 -223q-61 -2 -61 -128v-543q0 -191 -78 -284q78 -94 78 -285v-543q0 -125 61 -127z" />
    <glyph glyph-name="bar" unicode="|" horiz-adv-x="512" 
d="M140 2190h234v-2517h-234v2517z" />
    <glyph glyph-name="braceright" unicode="}" horiz-adv-x="545" 
d="M80 -23q61 2 61 127v543q0 191 78 285q-78 93 -78 284v543q0 126 -61 128l-50 223q392 -5 392 -395v-544q0 -125 111 -128v-223q-111 -2 -111 -128v-543q0 -391 -392 -396z" />
    <glyph glyph-name="asciitilde" unicode="~" horiz-adv-x="1100" 
d="M268 831l-168 111l54 83q99 156 231 156h10q88 -4 224 -108q68 -51 112 -51q31 0 49 24l62 80l156 -126l-62 -78q-90 -116 -203 -116h-12q-88 4 -222 107q-79 60 -96 63q-4 1 -9 1q-34 0 -72 -60z" />
    <glyph glyph-name="exclamdown" unicode="&#xa1;" horiz-adv-x="565" 
d="M120 -183l21 1309h281l21 -1359zM120 1629h323v-308h-323v308z" />
    <glyph glyph-name="cent" unicode="&#xa2;" 
d="M931 316q0 -347 -406 -348q-95 0 -167 19l-2 -8l-97 -306l-139 9l113 355l2 7q-115 86 -115 272v1011q0 347 405 347q130 0 218 -36l68 214l140 -9l-92 -286q72 -84 72 -230v-223l-206 32l-12 -40l-277 -867q30 -25 89 -25q124 0 124 112v178l282 45v-223zM526 1439h-2
q-122 0 -122 -112v-759l246 773q-7 97 -122 98z" />
    <glyph glyph-name="sterling" unicode="&#xa3;" horiz-adv-x="1126" 
d="M535 872v-348q0 -168 -62 -259h462l50 -265h-875l-50 265h69q124 0 124 127v480h-193l50 150h143v480q0 392 405 392q406 0 406 -392v-250l-282 50v200q0 126 -123 126h-2q-122 0 -122 -126v-480h330l-50 -150h-280z" />
    <glyph glyph-name="currency" unicode="&#xa4;" horiz-adv-x="1398" 
d="M1106 849q0 -57 -7 -106l169 -169l-170 -121l-110 61q-97 -78 -289 -78t-288 77l-110 -60l-171 121l169 169q-6 48 -6 106v267q0 48 4 89l-167 168l171 120l100 -50q96 87 298 87t299 -87l100 50l170 -120l-167 -168q5 -41 5 -89v-267zM823 1116l-123 133h-2l-122 -133
v-267l123 -133l124 133v267z" />
    <glyph glyph-name="yen" unicode="&#xa5;" horiz-adv-x="1186" 
d="M403 926l-303 936l299 -50l193 -675l193 675l299 50l-303 -936h214l-50 -150h-211v-151h261l-50 -150h-211v-475h-283v475h-261l50 150h211v151h-261l50 150h163z" />
    <glyph glyph-name="brokenbar" unicode="&#xa6;" horiz-adv-x="512" 
d="M140 1679l232 50v-743h-232v693zM140 734l232 50v-784h-232v734z" />
    <glyph glyph-name="section" unicode="&#xa7;" horiz-adv-x="1053" 
d="M528 -327q-385 0 -385 364v101l282 -50v-51q0 -118 113 -118q110 0 110 118q0 183 -264 336t-264 482q0 261 188 331q-188 120 -188 367q0 341 402 341q385 0 385 -341v-95l-282 50v45q0 110 -112 110q-111 0 -111 -110q0 -172 265 -315q264 -144 264 -452
q0 -273 -240 -325q240 -142 240 -424q0 -364 -403 -364zM654 843q0 137 -135 138h-2q-134 0 -134 -138v-39q0 -138 135 -138q136 0 136 138v39z" />
    <glyph glyph-name="dieresis" unicode="&#xa8;" horiz-adv-x="899" 
d="M130 2050h242v-244h-242v244zM526 2050h243v-244h-243v244z" />
    <glyph glyph-name="copyright" unicode="&#xa9;" horiz-adv-x="1463" 
d="M1341 578q0 -577 -611 -577q-610 0 -610 565v761q0 578 610 578q611 0 611 -565v-762zM1154 1340q0 391 -423 391q-424 0 -424 -404v-761q0 -391 423 -391q424 0 424 403v762zM1003 574q0 -261 -271 -261q-270 0 -270 261v758q0 260 270 260q271 0 271 -260v-73l-189 50
v23q0 84 -81 85q-83 0 -83 -85v-758q0 -85 82 -85t82 85v22l189 50v-72z" />
    <glyph glyph-name="ordfeminine" unicode="&#xaa;" horiz-adv-x="761" 
d="M67 521l50 195h569l-50 -195h-569zM640 1293l61 -368l-189 28l-36 192h-191l-37 -192l-188 -28l61 366l131 671h257zM309 1293h143l-52 310h-40z" />
    <glyph glyph-name="guillemotleft" unicode="&#xab;" horiz-adv-x="1305" 
d="M636 1180l-174 -190l174 -184l50 -321l-556 518l556 508zM1125 1180l-174 -190l174 -184l50 -321l-556 518l556 508z" />
    <glyph glyph-name="logicalnot" unicode="&#xac;" horiz-adv-x="1067" 
d="M180 866l-50 234h807v-522l-232 50v238h-525z" />
    <glyph glyph-name="registered" unicode="&#xae;" horiz-adv-x="1463" 
d="M1341 578q0 -577 -611 -577q-610 0 -610 565v761q0 578 610 578q611 0 611 -565v-762zM1154 1340q0 391 -423 391q-424 0 -424 -404v-761q0 -391 423 -391q424 0 424 403v762zM457 1573l278 -1h12q251 0 251 -260v-187q0 -122 -103 -172q103 -50 103 -173v-447l-188 50
v397q0 59 -51 79q-15 6 -55 6h-59v-482l-188 -50v1240zM645 1397v-356h59q40 0 55 6l51 78v187l-82 85h-83z" />
    <glyph glyph-name="macron" unicode="&#xaf;" horiz-adv-x="1208" 
d="M0 1752l50 213h1158l-50 -213h-1158z" />
    <glyph glyph-name="degree" unicode="&#xb0;" horiz-adv-x="877" 
d="M748 1743q0 -309 -309 -309q-308 0 -308 309q0 308 308 308q309 0 309 -308zM439 1868q-125 0 -125 -125q0 -126 125 -126q126 0 126 126q0 125 -126 125z" />
    <glyph glyph-name="plusminus" unicode="&#xb1;" horiz-adv-x="1047" 
d="M408 866h-288l50 234h238v237l232 50v-287h287l-50 -234h-237v-237l-232 -50v287zM925 372l-50 -212h-755l50 212h755z" />
    <glyph glyph-name="uni00B2" unicode="&#xb2;" horiz-adv-x="674" 
d="M100 1066q0 148 153 254q154 105 155 179v214q0 75 -71 75h-1q-72 0 -72 -75v-121l-164 -25v146q0 231 236 231t236 -231v-218q0 -151 -154 -257t-154 -185v-66h286l22 -156h-472v235z" />
    <glyph glyph-name="uni00B3" unicode="&#xb3;" horiz-adv-x="679" 
d="M413 1242q0 61 -26 72q-15 6 -44 6h-57v157h70q23 0 35 7q22 12 22 68v165q0 60 -26 71q-15 6 -46 6q-8 0 -17 -1q-60 -2 -60 -76v-123l-164 -25v149q0 161 97 208q67 34 138 34q66 0 134 -30q108 -44 108 -212v-167q0 -110 -91 -155q91 -45 91 -154v-201
q0 -145 -78 -198q-48 -33 -152 -36h-14q-92 0 -142 29q-91 50 -91 205v148l164 -25v-124q0 -77 74 -77q75 0 75 77v202z" />
    <glyph glyph-name="acute" unicode="&#xb4;" horiz-adv-x="756" 
d="M626 1983l-274 -178h-222l274 255z" />
    <glyph glyph-name="mu" unicode="&#xb5;" horiz-adv-x="1063" 
d="M413 380q0 -132 123 -132q124 0 124 133v1204l283 50v-1825l-283 50v119q-18 -4 -36 -6q-19 -2 -37 -2q-93 0 -174 53v-301l-283 -50v1962l283 -50v-1205z" />
    <glyph glyph-name="paragraph" unicode="&#xb6;" horiz-adv-x="1170" 
d="M1038 1863v-1863l-201 50v1622h-222v-1622l-201 -50v969q-193 0 -245 37q-69 49 -69 237v336q0 189 71 242q55 42 243 42h624z" />
    <glyph glyph-name="periodcentered" unicode="&#xb7;" horiz-adv-x="508" 
d="M120 1123h276v-280h-276v280z" />
    <glyph glyph-name="periodcentered" unicode="&#x2219;" horiz-adv-x="508" 
d="M120 1123h276v-280h-276v280z" />
    <glyph glyph-name="cedilla" unicode="&#xb8;" horiz-adv-x="634" 
d="M299 -86q37 20 69 20q31 0 57 -20q28 -20 28 -70v-99q0 -85 -103 -93q-15 -2 -34 -2q-10 0 -20 1q-119 3 -119 94v29l118 -25v-4q0 -15 20 -15t20 15v99q0 17 -18 18h-2q-17 0 -24 -17h-113l31 156h121z" />
    <glyph glyph-name="uni00B9" unicode="&#xb9;" 
d="M445 1912v-928h152l-25 -154h-442l25 154h127v774h-127l-25 154h315z" />
    <glyph glyph-name="ordmasculine" unicode="&#xba;" horiz-adv-x="777" 
d="M655 1100q0 -208 -268 -208q-267 0 -267 208v604q0 208 267 208q268 0 268 -208v-604zM130 506l50 177h466l-50 -177h-466zM370 1757l-64 -53v-604l63 -53h37l63 53v604l-65 53h-34z" />
    <glyph glyph-name="guillemotright" unicode="&#xbb;" horiz-adv-x="1305" 
d="M130 1511l556 -508l-556 -518l50 321l174 184l-174 190zM619 1511l556 -508l-556 -518l50 321l174 184l-174 190z" />
    <glyph glyph-name="onequarter" unicode="&#xbc;" horiz-adv-x="1609" 
d="M1384 1082v-663h63l-25 -154h-38v-265l-161 25v240h-328v137l283 680h206zM1054 419h169v413zM1277 1863l-722 -1863h-176l723 1863h175zM435 1912v-928h152l-25 -154h-442l25 154h127v774h-127l-25 154h315z" />
    <glyph glyph-name="onehalf" unicode="&#xbd;" horiz-adv-x="1685" 
d="M435 1912v-928h152l-25 -154h-442l25 154h127v774h-127l-25 154h315zM1110 235q0 148 153 254q154 105 155 179v214q0 75 -71 75h-1q-72 0 -72 -75v-121l-164 -25v146q0 231 236 231t236 -231v-218q0 -151 -154 -257t-154 -185v-66h286l22 -156h-472v235zM1277 1863
l-722 -1863h-176l723 1863h175z" />
    <glyph glyph-name="threequarters" unicode="&#xbe;" horiz-adv-x="1549" 
d="M413 1242q0 61 -26 72q-15 6 -44 6h-57v157h70q23 0 35 7q22 12 22 68v165q0 60 -26 71q-15 6 -46 6q-8 0 -17 -1q-60 -2 -60 -76v-123l-164 -25v149q0 161 97 208q67 34 138 34q66 0 134 -30q108 -44 108 -212v-167q0 -110 -91 -155q91 -45 91 -154v-201
q0 -145 -78 -198q-48 -33 -152 -36h-14q-92 0 -142 29q-91 50 -91 205v148l164 -25v-124q0 -77 74 -77q75 0 75 77v202zM1384 1082v-663h63l-25 -154h-38v-265l-161 25v240h-328v137l283 680h206zM1054 419h169v413zM1277 1863l-722 -1863h-176l723 1863h175z" />
    <glyph glyph-name="questiondown" unicode="&#xbf;" horiz-adv-x="1053" 
d="M815 1320h-324v309h324v-309zM120 314q0 237 199 425q198 188 198 328v42l282 -50v-15q0 -233 -198 -420q-199 -187 -199 -316v-181q0 -126 122 -126h2q123 0 123 126v200l282 50v-250q0 -392 -406 -392q-405 0 -405 392v187z" />
    <glyph glyph-name="Agrave" unicode="&#xc0;" horiz-adv-x="1051" 
d="M436 2191l274 -253h-222l-274 177zM937 661l92 -661l-285 50l-55 345h-289l-56 -345l-284 -50l92 658l199 1204h388zM436 661h216l-78 557h-60z" />
    <glyph glyph-name="Aacute" unicode="&#xc1;" horiz-adv-x="1051" 
d="M877 2115l-274 -177h-222l274 253zM937 661l92 -661l-285 50l-55 345h-289l-56 -345l-284 -50l92 658l199 1204h388zM436 661h216l-78 557h-60z" />
    <glyph glyph-name="Acircumflex" unicode="&#xc2;" horiz-adv-x="1051" 
d="M937 661l92 -661l-285 50l-55 345h-289l-56 -345l-284 -50l92 658l199 1204h388zM436 661h216l-78 557h-60zM156 1939l256 254h264l258 -254l-254 25l-136 69l-135 -69z" />
    <glyph glyph-name="Atilde" unicode="&#xc3;" horiz-adv-x="1051" 
d="M937 661l92 -661l-285 50l-55 345h-289l-56 -345l-284 -50l92 658l199 1204h388zM436 661h216l-78 557h-60zM338 1915l-137 49l35 71q67 136 174 142h7q67 0 173 -66q51 -33 84 -33q28 0 43 23l41 68l130 -112l-41 -43q-64 -103 -158 -108h-7q-67 0 -171 67
q-66 41 -79 43h-4q-28 0 -55 -55z" />
    <glyph glyph-name="Adieresis" unicode="&#xc4;" horiz-adv-x="1051" 
d="M225 2181h242v-242h-242v242zM621 2181h243v-242h-243v242zM937 661l92 -661l-285 50l-55 345h-289l-56 -345l-284 -50l92 658l199 1204h388zM436 661h216l-78 557h-60z" />
    <glyph glyph-name="Aring" unicode="&#xc5;" horiz-adv-x="1091" 
d="M937 661l92 -661l-285 50l-55 345h-289l-56 -345l-284 -50l92 658l199 1204h30q-35 48 -35 132q0 198 198 198q199 0 199 -198q0 -84 -35 -132h31zM436 661h216l-78 557h-60zM544 2074q-80 0 -80 -80q0 -81 80 -81q81 0 81 81q0 80 -81 80z" />
    <glyph glyph-name="AE" unicode="&#xc6;" horiz-adv-x="1338" 
d="M380 395l-56 -345l-284 -50l92 658l199 1204h925l-50 -265h-400v-533h337v-266h-337v-533h400l50 -265h-732v395h-144zM416 661h108v557h-30z" />
    <glyph glyph-name="Ccedilla" unicode="&#xc7;" horiz-adv-x="1043" 
d="M921 361q0 -363 -349 -390l-20 -57q37 20 69 20q31 0 57 -20q28 -20 28 -70v-99q0 -85 -103 -93q-15 -2 -34 -2q-10 0 -20 1q-119 3 -119 94v29l118 -25v-4q0 -15 20 -15t20 15v99q0 17 -18 18h-2q-17 0 -24 -17h-113l25 125q-346 28 -346 391v1140q0 392 405 392
q406 0 406 -392v-251l-282 50v201q0 126 -123 127h-2q-122 0 -122 -127v-1140q0 -127 123 -127q124 0 124 127v201l282 50v-251z" />
    <glyph glyph-name="Egrave" unicode="&#xc8;" horiz-adv-x="944" 
d="M386 2191l274 -253h-222l-274 177zM130 1862h732l-50 -265h-400v-533h337v-266h-337v-533h400l50 -265h-732v1862z" />
    <glyph glyph-name="Eacute" unicode="&#xc9;" horiz-adv-x="944" 
d="M826 2115l-274 -177h-222l274 253zM130 1862h732l-50 -265h-400v-533h337v-266h-337v-533h400l50 -265h-732v1862z" />
    <glyph glyph-name="Ecircumflex" unicode="&#xca;" horiz-adv-x="944" 
d="M106 1939l256 252h264l258 -252l-254 25l-136 68l-135 -68zM130 1862h732l-50 -265h-400v-533h337v-266h-337v-533h400l50 -265h-732v1862z" />
    <glyph glyph-name="Edieresis" unicode="&#xcb;" horiz-adv-x="944" 
d="M179 2181h241v-242h-241v242zM574 2181h242v-242h-242v242zM130 1862h732l-50 -265h-400v-533h337v-266h-337v-533h400l50 -265h-732v1862z" />
    <glyph glyph-name="Igrave" unicode="&#xcc;" horiz-adv-x="608" 
d="M222 2191l274 -253h-222l-274 177zM192 1812l281 50v-1862h-281v1812z" />
    <glyph glyph-name="Iacute" unicode="&#xcd;" horiz-adv-x="607" 
d="M607 2115l-274 -177h-222l274 253zM138 1812l281 50v-1862h-281v1812z" />
    <glyph glyph-name="Icircumflex" unicode="&#xce;" horiz-adv-x="778" 
d="M0 1939l256 252h264l258 -252l-254 25l-136 68l-135 -68zM251 1812l281 50v-1862h-281v1812z" />
    <glyph glyph-name="Idieresis" unicode="&#xcf;" horiz-adv-x="639" 
d="M0 2234h242v-242h-242v242zM396 2234h243v-242h-243v242zM180 1812l281 50v-1862h-281v1812z" />
    <glyph glyph-name="Eth" unicode="&#xd0;" horiz-adv-x="1115" 
d="M464 831v-566h124l123 126v1079l-123 127h-124v-565h98l-50 -201h-48zM182 1032v830l435 -1q376 0 376 -391v-1079q0 -390 -376 -390q-6 0 -18 -1h-417v831h-124l50 201h74z" />
    <glyph glyph-name="Ntilde" unicode="&#xd1;" 
d="M130 1862l283 -50l268 -1030v1030l262 50v-1862l-283 50l-258 996v-996l-272 -50v1862zM329 1915l-137 49l35 71q67 136 174 142h7q67 0 173 -66q51 -33 84 -33q28 0 43 23l41 68l130 -112l-41 -43q-64 -103 -158 -108h-7q-67 0 -171 67q-66 41 -79 43h-4q-28 0 -55 -55z
" />
    <glyph glyph-name="Ograve" unicode="&#xd2;" horiz-adv-x="1033" 
d="M418 2191l274 -253h-222l-274 177zM921 361q0 -392 -406 -393q-405 0 -405 393v1140q0 392 405 392q406 0 406 -392v-1140zM489 1600l-97 -100v-1140l95 -99h56l96 99v1140l-98 100h-52z" />
    <glyph glyph-name="Oacute" unicode="&#xd3;" horiz-adv-x="1033" 
d="M855 2115l-274 -177h-222l274 253zM921 361q0 -392 -406 -393q-405 0 -405 393v1140q0 392 405 392q406 0 406 -392v-1140zM489 1600l-97 -100v-1140l95 -99h56l96 99v1140l-98 100h-52z" />
    <glyph glyph-name="Ocircumflex" unicode="&#xd4;" horiz-adv-x="1033" 
d="M136 1939l256 252h264l258 -252l-254 25l-136 68l-135 -68zM921 361q0 -392 -406 -393q-405 0 -405 393v1140q0 392 405 392q406 0 406 -392v-1140zM489 1600l-97 -100v-1140l95 -99h56l96 99v1140l-98 100h-52z" />
    <glyph glyph-name="Otilde" unicode="&#xd5;" horiz-adv-x="1033" 
d="M921 361q0 -392 -406 -393q-405 0 -405 393v1140q0 392 405 392q406 0 406 -392v-1140zM489 1600l-97 -100v-1140l95 -99h56l96 99v1140l-98 100h-52zM318 1915l-137 49l35 71q67 136 174 142h7q67 0 173 -66q51 -33 84 -33q28 0 43 23l41 68l130 -112l-41 -43
q-64 -103 -158 -108h-7q-67 0 -171 67q-66 41 -79 43h-4q-28 0 -55 -55z" />
    <glyph glyph-name="Odieresis" unicode="&#xd6;" horiz-adv-x="1033" 
d="M205 2181h242v-242h-242v242zM601 2181h243v-242h-243v242zM921 361q0 -392 -406 -393q-405 0 -405 393v1140q0 392 405 392q406 0 406 -392v-1140zM489 1600l-97 -100v-1140l95 -99h56l96 99v1140l-98 100h-52z" />
    <glyph glyph-name="multiply" unicode="&#xd7;" horiz-adv-x="1047" 
d="M524 818l-225 -204l-143 201l186 168l-186 168l143 200l224 -204l224 204l144 -201l-185 -168l185 -168l-142 -200z" />
    <glyph glyph-name="Oslash" unicode="&#xd8;" horiz-adv-x="1053" 
d="M921 361q0 -392 -406 -393q-97 0 -171 23l-49 -197h-140l66 262q-111 98 -111 305v1140q0 392 405 392q92 0 164 -21l2 8l31 121h140l-49 -192q118 -98 118 -308v-1140zM487 261h56l96 99v797l-211 -835zM489 1600l-97 -100v-767l204 810l-55 57h-52z" />
    <glyph glyph-name="Ugrave" unicode="&#xd9;" horiz-adv-x="1053" 
d="M417 2191l274 -253h-222l-274 177zM931 360q0 -391 -406 -392q-405 0 -405 392v1502l282 -50v-1452q0 -126 123 -126q124 0 124 126v1452l282 50v-1502z" />
    <glyph glyph-name="Uacute" unicode="&#xda;" horiz-adv-x="1053" 
d="M856 2115l-274 -177h-222l274 253zM931 360q0 -391 -406 -392q-405 0 -405 392v1502l282 -50v-1452q0 -126 123 -126q124 0 124 126v1452l282 50v-1502z" />
    <glyph glyph-name="Ucircumflex" unicode="&#xdb;" horiz-adv-x="1053" 
d="M138 1939l256 252h264l258 -252l-254 25l-136 68l-135 -68zM930 360q0 -391 -406 -392q-405 0 -405 392v1502l282 -50v-1452q0 -126 123 -126q124 0 124 126v1452l282 50v-1502z" />
    <glyph glyph-name="Udieresis" unicode="&#xdc;" horiz-adv-x="1053" 
d="M206 2181h242v-242h-242v242zM602 2181h243v-242h-243v242zM931 360q0 -391 -406 -392q-405 0 -405 392v1502l282 -50v-1452q0 -126 123 -126q124 0 124 126v1452l282 50v-1502z" />
    <glyph glyph-name="Yacute" unicode="&#xdd;" horiz-adv-x="1066" 
d="M883 2115l-274 -177h-222l274 253zM339 1812l193 -676l193 676l299 50l-342 -1056l-8 -23v-783h-283v783l-9 23l-342 1056z" />
    <glyph glyph-name="Thorn" unicode="&#xde;" horiz-adv-x="1018" 
d="M412 1549h92q6 0 18 -1h19q375 0 375 -394v-282q0 -291 -269 -375q-66 -20 -190 -20h-45v-804h-282v2141l282 48v-313zM412 1282v-538h64q59 0 82 9l76 119v282l-123 128h-99z" />
    <glyph glyph-name="germandbls" unicode="&#xdf;" horiz-adv-x="1053" 
d="M941 1187q0 -185 -156 -261q156 -75 156 -260v-485q0 -392 -376 -392l-28 -1l50 266q72 0 72 127v485q0 89 -77 119q-23 9 -82 9h-88v-754l-282 -50v1479q0 393 405 393q406 0 406 -393v-282zM412 1060h88q59 0 82 8l77 119v282l-123 127h-2q-122 0 -122 -127v-409z" />
    <glyph glyph-name="agrave" unicode="&#xe0;" horiz-adv-x="1051" 
d="M436 2191l274 -253h-222l-274 177zM937 661l92 -661l-285 50l-55 345h-289l-56 -345l-284 -50l92 658l199 1204h388zM436 661h216l-78 557h-60z" />
    <glyph glyph-name="aacute" unicode="&#xe1;" horiz-adv-x="1051" 
d="M877 2115l-274 -177h-222l274 253zM937 661l92 -661l-285 50l-55 345h-289l-56 -345l-284 -50l92 658l199 1204h388zM436 661h216l-78 557h-60z" />
    <glyph glyph-name="acircumflex" unicode="&#xe2;" horiz-adv-x="1051" 
d="M937 661l92 -661l-285 50l-55 345h-289l-56 -345l-284 -50l92 658l199 1204h388zM436 661h216l-78 557h-60zM156 1939l256 254h264l258 -254l-254 25l-136 69l-135 -69z" />
    <glyph glyph-name="atilde" unicode="&#xe3;" horiz-adv-x="1051" 
d="M937 661l92 -661l-285 50l-55 345h-289l-56 -345l-284 -50l92 658l199 1204h388zM436 661h216l-78 557h-60zM338 1915l-137 49l35 71q67 136 174 142h7q67 0 173 -66q51 -33 84 -33q28 0 43 23l41 68l130 -112l-41 -43q-64 -103 -158 -108h-7q-67 0 -171 67
q-66 41 -79 43h-4q-28 0 -55 -55z" />
    <glyph glyph-name="adieresis" unicode="&#xe4;" horiz-adv-x="1051" 
d="M225 2181h242v-242h-242v242zM621 2181h243v-242h-243v242zM937 661l92 -661l-285 50l-55 345h-289l-56 -345l-284 -50l92 658l199 1204h388zM436 661h216l-78 557h-60z" />
    <glyph glyph-name="aring" unicode="&#xe5;" horiz-adv-x="1091" 
d="M937 661l92 -661l-285 50l-55 345h-289l-56 -345l-284 -50l92 658l199 1204h30q-35 48 -35 132q0 198 198 198q199 0 199 -198q0 -84 -35 -132h31zM436 661h216l-78 557h-60zM544 2074q-80 0 -80 -80q0 -81 80 -81q81 0 81 81q0 80 -81 80z" />
    <glyph glyph-name="ae" unicode="&#xe6;" horiz-adv-x="1338" 
d="M380 395l-56 -345l-284 -50l92 658l199 1204h925l-50 -265h-400v-533h337v-266h-337v-533h400l50 -265h-732v395h-144zM416 661h108v557h-30z" />
    <glyph glyph-name="ccedilla" unicode="&#xe7;" horiz-adv-x="1043" 
d="M921 361q0 -363 -349 -390l-20 -57q37 20 69 20q31 0 57 -20q28 -20 28 -70v-99q0 -85 -103 -93q-15 -2 -34 -2q-10 0 -20 1q-119 3 -119 94v29l118 -25v-4q0 -15 20 -15t20 15v99q0 17 -18 18h-2q-17 0 -24 -17h-113l25 125q-346 28 -346 391v1140q0 392 405 392
q406 0 406 -392v-251l-282 50v201q0 126 -123 127h-2q-122 0 -122 -127v-1140q0 -127 123 -127q124 0 124 127v201l282 50v-251z" />
    <glyph glyph-name="egrave" unicode="&#xe8;" horiz-adv-x="944" 
d="M386 2191l274 -253h-222l-274 177zM130 1862h732l-50 -265h-400v-533h337v-266h-337v-533h400l50 -265h-732v1862z" />
    <glyph glyph-name="eacute" unicode="&#xe9;" horiz-adv-x="944" 
d="M826 2115l-274 -177h-222l274 253zM130 1862h732l-50 -265h-400v-533h337v-266h-337v-533h400l50 -265h-732v1862z" />
    <glyph glyph-name="ecircumflex" unicode="&#xea;" horiz-adv-x="944" 
d="M106 1939l256 252h264l258 -252l-254 25l-136 68l-135 -68zM130 1862h732l-50 -265h-400v-533h337v-266h-337v-533h400l50 -265h-732v1862z" />
    <glyph glyph-name="edieresis" unicode="&#xeb;" horiz-adv-x="944" 
d="M179 2181h241v-242h-241v242zM574 2181h242v-242h-242v242zM130 1862h732l-50 -265h-400v-533h337v-266h-337v-533h400l50 -265h-732v1862z" />
    <glyph glyph-name="igrave" unicode="&#xec;" horiz-adv-x="608" 
d="M222 2191l274 -253h-222l-274 177zM192 1812l281 50v-1862h-281v1812z" />
    <glyph glyph-name="iacute" unicode="&#xed;" horiz-adv-x="607" 
d="M607 2115l-274 -177h-222l274 253zM138 1812l281 50v-1862h-281v1812z" />
    <glyph glyph-name="icircumflex" unicode="&#xee;" horiz-adv-x="778" 
d="M0 1939l256 252h264l258 -252l-254 25l-136 68l-135 -68zM251 1812l281 50v-1862h-281v1812z" />
    <glyph glyph-name="idieresis" unicode="&#xef;" horiz-adv-x="639" 
d="M0 2234h242v-242h-242v242zM396 2234h243v-242h-243v242zM180 1812l281 50v-1862h-281v1812z" />
    <glyph glyph-name="eth" unicode="&#xf0;" horiz-adv-x="1115" 
d="M464 831v-566h124l123 126v1079l-123 127h-124v-565h98l-50 -201h-48zM182 1032v830l435 -1q376 0 376 -391v-1079q0 -390 -376 -390q-6 0 -18 -1h-417v831h-124l50 201h74z" />
    <glyph glyph-name="ntilde" unicode="&#xf1;" 
d="M130 1862l283 -50l268 -1030v1030l262 50v-1862l-283 50l-258 996v-996l-272 -50v1862zM329 1915l-137 49l35 71q67 136 174 142h7q67 0 173 -66q51 -33 84 -33q28 0 43 23l41 68l130 -112l-41 -43q-64 -103 -158 -108h-7q-67 0 -171 67q-66 41 -79 43h-4q-28 0 -55 -55z
" />
    <glyph glyph-name="ograve" unicode="&#xf2;" horiz-adv-x="1033" 
d="M418 2191l274 -253h-222l-274 177zM921 361q0 -392 -406 -393q-405 0 -405 393v1140q0 392 405 392q406 0 406 -392v-1140zM489 1600l-97 -100v-1140l95 -99h56l96 99v1140l-98 100h-52z" />
    <glyph glyph-name="oacute" unicode="&#xf3;" horiz-adv-x="1033" 
d="M855 2115l-274 -177h-222l274 253zM921 361q0 -392 -406 -393q-405 0 -405 393v1140q0 392 405 392q406 0 406 -392v-1140zM489 1600l-97 -100v-1140l95 -99h56l96 99v1140l-98 100h-52z" />
    <glyph glyph-name="ocircumflex" unicode="&#xf4;" horiz-adv-x="1033" 
d="M136 1939l256 252h264l258 -252l-254 25l-136 68l-135 -68zM921 361q0 -392 -406 -393q-405 0 -405 393v1140q0 392 405 392q406 0 406 -392v-1140zM489 1600l-97 -100v-1140l95 -99h56l96 99v1140l-98 100h-52z" />
    <glyph glyph-name="otilde" unicode="&#xf5;" horiz-adv-x="1033" 
d="M921 361q0 -392 -406 -393q-405 0 -405 393v1140q0 392 405 392q406 0 406 -392v-1140zM489 1600l-97 -100v-1140l95 -99h56l96 99v1140l-98 100h-52zM318 1915l-137 49l35 71q67 136 174 142h7q67 0 173 -66q51 -33 84 -33q28 0 43 23l41 68l130 -112l-41 -43
q-64 -103 -158 -108h-7q-67 0 -171 67q-66 41 -79 43h-4q-28 0 -55 -55z" />
    <glyph glyph-name="odieresis" unicode="&#xf6;" horiz-adv-x="1033" 
d="M205 2181h242v-242h-242v242zM601 2181h243v-242h-243v242zM921 361q0 -392 -406 -393q-405 0 -405 393v1140q0 392 405 392q406 0 406 -392v-1140zM489 1600l-97 -100v-1140l95 -99h56l96 99v1140l-98 100h-52z" />
    <glyph glyph-name="divide" unicode="&#xf7;" horiz-adv-x="1045" 
d="M925 1100l-50 -234h-755l50 234h755zM360 1650h324v-326h-324v326zM360 644h324v-327h-324v327z" />
    <glyph glyph-name="oslash" unicode="&#xf8;" horiz-adv-x="1053" 
d="M921 361q0 -392 -406 -393q-97 0 -171 23l-49 -197h-140l66 262q-111 98 -111 305v1140q0 392 405 392q92 0 164 -21l2 8l31 121h140l-49 -192q118 -98 118 -308v-1140zM487 261h56l96 99v797l-211 -835zM489 1600l-97 -100v-767l204 810l-55 57h-52z" />
    <glyph glyph-name="ugrave" unicode="&#xf9;" horiz-adv-x="1053" 
d="M417 2191l274 -253h-222l-274 177zM931 360q0 -391 -406 -392q-405 0 -405 392v1502l282 -50v-1452q0 -126 123 -126q124 0 124 126v1452l282 50v-1502z" />
    <glyph glyph-name="uacute" unicode="&#xfa;" horiz-adv-x="1053" 
d="M856 2115l-274 -177h-222l274 253zM931 360q0 -391 -406 -392q-405 0 -405 392v1502l282 -50v-1452q0 -126 123 -126q124 0 124 126v1452l282 50v-1502z" />
    <glyph glyph-name="ucircumflex" unicode="&#xfb;" horiz-adv-x="1053" 
d="M138 1939l256 252h264l258 -252l-254 25l-136 68l-135 -68zM930 360q0 -391 -406 -392q-405 0 -405 392v1502l282 -50v-1452q0 -126 123 -126q124 0 124 126v1452l282 50v-1502z" />
    <glyph glyph-name="udieresis" unicode="&#xfc;" horiz-adv-x="1053" 
d="M206 2181h242v-242h-242v242zM602 2181h243v-242h-243v242zM931 360q0 -391 -406 -392q-405 0 -405 392v1502l282 -50v-1452q0 -126 123 -126q124 0 124 126v1452l282 50v-1502z" />
    <glyph glyph-name="yacute" unicode="&#xfd;" horiz-adv-x="1066" 
d="M883 2115l-274 -177h-222l274 253zM339 1812l193 -676l193 676l299 50l-342 -1056l-8 -23v-783h-283v783l-9 23l-342 1056z" />
    <glyph glyph-name="thorn" unicode="&#xfe;" horiz-adv-x="1018" 
d="M412 1549h92q6 0 18 -1h19q375 0 375 -394v-282q0 -291 -269 -375q-66 -20 -190 -20h-45v-804h-282v2141l282 48v-313zM412 1282v-538h64q59 0 82 9l76 119v282l-123 128h-99z" />
    <glyph glyph-name="ydieresis" unicode="&#xff;" horiz-adv-x="1066" 
d="M208 2238h242v-242h-242v242zM604 2238h243v-242h-243v242zM339 1812l193 -676l193 676l299 50l-342 -1056l-8 -23v-783h-283v783l-9 23l-342 1056z" />
    <glyph glyph-name="dotlessi" unicode="&#x131;" horiz-adv-x="553" 
d="M135 1862h281v-1862h-281v1862z" />
    <glyph glyph-name="circumflex" unicode="&#x2c6;" horiz-adv-x="1109" 
d="M166 2039l256 254h264l258 -254l-254 25l-136 69l-135 -69z" />
    <glyph glyph-name="caron" unicode="&#x2c7;" horiz-adv-x="1109" 
d="M419 2268l135 -69l136 69l254 25l-258 -254h-264l-256 254z" />
    <glyph glyph-name="uni02C9" unicode="&#x2c9;" horiz-adv-x="899" 
d="M180 2272h589l-50 -233h-589z" />
    <glyph glyph-name="breve" unicode="&#x2d8;" horiz-adv-x="1026" 
d="M891 2299q-127 -260 -393 -260h-8q-269 4 -365 260l214 -25q31 -84 168 -84h1q139 0 169 84z" />
    <glyph glyph-name="dotaccent" unicode="&#x2d9;" horiz-adv-x="503" 
d="M130 2283h243v-244h-243v244z" />
    <glyph glyph-name="ring" unicode="&#x2da;" horiz-adv-x="657" 
d="M528 2239q0 -200 -200 -200q-199 0 -199 200q0 199 199 199q200 0 200 -199zM328 2319q-80 0 -80 -80q0 -81 80 -81q81 0 81 81q0 80 -81 80z" />
    <glyph glyph-name="ogonek" unicode="&#x2db;" horiz-adv-x="634" 
d="M295 -90v-99q0 -15 20 -15t20 15v4l118 25v-29q0 -91 -119 -94q-10 -1 -20 -1q-19 0 -34 2q-103 8 -103 93v99q0 50 28 70q26 20 57 20q32 0 32.5 -36.5t0.5 -53.5z" />
    <glyph glyph-name="tilde" unicode="&#x2dc;" horiz-adv-x="947" 
d="M267 1798l-137 49l35 71q67 136 174 142h7q67 0 173 -66q51 -33 84 -33q28 0 43 23l41 68l130 -112l-41 -43q-64 -103 -158 -108h-7q-67 0 -171 67q-66 41 -79 43h-4q-28 0 -55 -55z" />
    <glyph glyph-name="endash" unicode="&#x2013;" horiz-adv-x="1172" 
d="M50 841l50 235h1010l-50 -235h-1010z" />
    <glyph glyph-name="emdash" unicode="&#x2014;" horiz-adv-x="2048" 
d="M50 841l50 235h1913l-50 -235h-1913z" />
    <glyph glyph-name="quoteleft" unicode="&#x2018;" horiz-adv-x="557" 
d="M480 1311h-350v289l107 365h184l-58 -328h117v-326z" />
    <glyph glyph-name="quoteright" unicode="&#x2019;" horiz-adv-x="610" 
d="M130 1965h350v-289l-107 -365h-184l58 328h-117v326z" />
    <glyph glyph-name="quotesinglbase" unicode="&#x201a;" horiz-adv-x="557" 
d="M120 327h351v-288l-108 -366h-183l58 328h-118v326z" />
    <glyph glyph-name="quotedblleft" unicode="&#x201c;" horiz-adv-x="1047" 
d="M480 1311h-350v289l107 365h184l-58 -328h117v-326zM970 1311h-350v289l107 365h184l-58 -328h117v-326z" />
    <glyph glyph-name="quotedblright" unicode="&#x201d;" horiz-adv-x="1100" 
d="M130 1965h350v-289l-107 -365h-184l58 328h-117v326zM620 1965h350v-289l-107 -365h-184l58 328h-117v326z" />
    <glyph glyph-name="quotedblbase" unicode="&#x201e;" horiz-adv-x="1100" 
d="M130 328h350v-289l-107 -365h-184l58 328h-117v326zM620 328h350v-289l-107 -365h-184l58 328h-117v326z" />
    <glyph glyph-name="dagger" unicode="&#x2020;" horiz-adv-x="1454" 
d="M809 1377l398 51q13 2 25 2q90 0 90 -134q0 -135 -98 -135q-12 0 -24 2l-386 53q27 -198 27 -482v-152q0 -283 26 -472q2 -12 2 -24q0 -85 -140 -86q-144 0 -144 95q0 9 2 21q28 178 28 441q0 48 -1 99q-1 41 -1 80q0 278 31 476l-398 -51q-13 -2 -25 -2q-90 0 -91 134
q0 135 98 135q12 0 24 -2l387 -54l-53 379q-3 13 -3 25q0 85 141 85q143 0 143 -93q0 -11 -2 -23z" />
    <glyph glyph-name="daggerdbl" unicode="&#x2021;" horiz-adv-x="1454" 
d="M865 1745q-37 -241 -37 -315q0 -27 5 -32q4 -4 30 -4q76 0 343 34q13 2 25 2q90 0 91 -134q0 -135 -98 -135q-12 0 -24 2l-387 53l16 -112q37 -28 37 -70q0 -7 -1 -16q-6 -39 -6 -82q0 -48 7 -99q2 -9 2 -18q0 -43 -44 -68l-16 -101l398 50q13 2 25 2q90 0 91 -133
q0 -136 -100 -136q-10 0 -22 2l-387 54l53 -379q2 -12 2 -24q0 -85 -140 -86q-144 0 -144 95q0 9 2 21l57 368l-398 -50q-14 -3 -26 -3q-89 0 -89 134q0 135 98 135q11 0 23 -2l387 -53l-16 112q-37 28 -37 71q0 7 1 16q6 39 6 81q0 48 -7 99q-2 9 -2 18q0 43 44 68l16 102
l-398 -51q-13 -2 -25 -2q-90 0 -90 134q0 135 98 135q11 0 23 -2l387 -54l-53 379q-2 13 -2 24q0 86 140 86q144 0 144 -95q0 -9 -2 -21z" />
    <glyph glyph-name="bullet" unicode="&#x2022;" horiz-adv-x="987" 
d="M752 1242q106 -107 106 -258q0 -150 -106 -258q-108 -106 -259 -106q-150 0 -258 106q-106 108 -106 258q0 151 106 258q108 107 258 107q151 0 259 -107z" />
    <glyph glyph-name="ellipsis" unicode="&#x2026;" horiz-adv-x="2048" 
d="M120 327h325v-327h-325v327zM803 327h325v-327h-325v327zM1486 327h325v-327h-325v327z" />
    <glyph glyph-name="guilsinglleft" unicode="&#x2039;" horiz-adv-x="816" 
d="M636 1179l-174 -190l174 -184l50 -320l-556 517l556 507z" />
    <glyph glyph-name="guilsinglright" unicode="&#x203a;" horiz-adv-x="816" 
d="M130 1509l556 -507l-556 -517l50 320l174 184l-174 190z" />
    <glyph glyph-name="fraction" unicode="&#x2044;" horiz-adv-x="342" 
d="M-107 0h-176l721 1863h175z" />
    <glyph glyph-name="fraction" unicode="&#x2215;" horiz-adv-x="342" 
d="M-107 0h-176l721 1863h175z" />
    <glyph glyph-name="franc" unicode="&#x20a3;" horiz-adv-x="963" 
d="M169 566v1296h732l-50 -265h-400v-533h387v-266h-387v-232h186l-50 -201h-136v-315l-282 -50v365h-119l50 201h69z" />
    <glyph glyph-name="lira" unicode="&#x20a4;" horiz-adv-x="1125" 
d="M252 1173v329q0 392 406 392q405 0 405 -392v-250l-282 50v200q0 126 -123 126h-2q-122 0 -122 -126v-329h331l-50 -151h-281v-150h331l-50 -151h-281v-197q0 -168 -62 -259h463l50 -265h-875l-50 265h69q123 0 123 127v329h-192l50 151h142v150h-192l50 151h142z" />
    <glyph glyph-name="peseta" unicode="&#x20a7;" horiz-adv-x="2175" 
d="M1931 318v187q0 120 -264 278q-265 159 -265 385v154q0 45 7 85h-134v-1408h-282v1408h-155v-217q0 -289 -243 -373q-58 -20 -170 -20h-41v-748l-254 -50v1863l370 -1q253 0 317 -220h722v-34q99 60 268 60q406 0 406 -345v-221l-282 50v171q0 111 -123 112
q-123 0 -123 -112v-149q0 -110 264 -268t264 -379v-208q0 -345 -405 -345q-406 0 -406 345v221l283 -50v-171q0 -111 123 -111t123 111zM384 1597v-534h58q53 0 73 8l69 119v280l-110 127h-90z" />
    <glyph glyph-name="Euro" unicode="&#x20ac;" horiz-adv-x="1094" 
d="M700 1301v200q0 127 -123 127h-2q-122 0 -122 -127v-344h381l-50 -150h-331v-152h381l-50 -150h-331v-344q0 -127 123 -127q124 0 124 127v201l282 50v-251q0 -392 -406 -392q-405 0 -405 392v344h-141l50 150h91v152h-141l50 150h91v344q0 393 405 393q406 0 406 -393
v-250z" />
    <glyph glyph-name="uni2116" unicode="&#x2116;" horiz-adv-x="1850" 
d="M1728 1100q0 -208 -269 -208q-268 0 -268 208v604q0 208 268 208q269 0 269 -208v-604zM1201 506l50 177h466l-50 -177h-466zM130 1862l283 -50l268 -1030v1030l262 50v-1862l-283 50l-258 996v-996l-272 -50v1862zM1442 1757l-64 -53v-604l63 -53h37l63 53v604l-65 53
h-34z" />
    <glyph glyph-name="trademark" unicode="&#x2122;" horiz-adv-x="1108" 
d="M909 970v416l-109 -416h-85l-113 416v-416l-123 -25v785l127 -25l149 -513l149 513l127 25v-785zM179 944v673h-94l-25 112h365l-25 -112h-94v-673h-127z" />
    <glyph glyph-name="partialdiff" unicode="&#x2202;" horiz-adv-x="1053" 
d="M649 1054q0 445 -424 600l70 211q636 -178 636 -867v-606q0 -392 -406 -392q-405 0 -405 392v346q0 372 349 372q106 0 180 -56zM400 392q0 -126 126 -126q125 0 125 126v347q0 122 -101 126q-16 1 -29 1q-53 0 -76 -10q-45 -18 -45 -117v-347z" />
    <glyph glyph-name="product" unicode="&#x220f;" 
d="M130 1862h813v-1862h-283v1582h-247v-1582h-283v1862z" />
    <glyph glyph-name="minus" unicode="&#x2212;" horiz-adv-x="1045" 
d="M925 1102l-50 -236h-755l50 236h755z" />
    <glyph glyph-name="infinity" unicode="&#x221e;" horiz-adv-x="2301" 
d="M819 1394q184 0 260 -155q76 155 260 155h339q244 0 333 -132q56 -83 60 -259v-24q0 -156 -48 -242q-83 -154 -345 -154h-339q-184 0 -260 155q-76 -155 -260 -155h-281q-270 0 -351 165q-57 114 -57 235q0 112 49 228q76 183 359 183h281zM410 1115v-253h538v253h-538z
M1208 1115v-253h601v253h-601z" />
    <glyph glyph-name="approxequal" unicode="&#x2248;" horiz-adv-x="1100" 
d="M268 837l-168 94l54 72q99 133 232 133h10q88 -3 224 -92q68 -44 112 -44q31 0 50 21l62 67l156 -107l-62 -67q-90 -99 -204 -99h-12q-88 3 -222 91q-79 52 -96 54q-4 1 -9 1q-34 0 -73 -52zM268 516l-168 94l54 72q99 133 232 133h10q88 -3 224 -92q68 -44 112 -44
q31 0 50 21l62 67l156 -107l-62 -67q-90 -99 -204 -99h-12q-88 3 -222 91q-79 52 -96 54q-4 1 -9 1q-34 0 -73 -52z" />
    <glyph glyph-name="lessequal" unicode="&#x2264;" horiz-adv-x="1047" 
d="M120 1023l805 408l-50 -256l-536 -291l536 -299l50 -257l-805 423v272zM923 219l-50 -219h-753l50 219h753z" />
    <glyph glyph-name="greaterequal" unicode="&#x2265;" horiz-adv-x="1047" 
d="M925 751l-805 -423l50 257l536 299l-536 291l-50 256l805 -408v-272zM925 219l-50 -219h-753l50 219h753z" />
    <glyph glyph-name="uniF001" unicode="&#xf001;" horiz-adv-x="1472" 
d="M130 1862h732l-50 -265h-400v-533h337v-266h-337v-748l-282 -50v1862zM1056 1812l282 50v-1862h-282v1812z" />
    <glyph glyph-name="uniF001" unicode="&#xfb01;" horiz-adv-x="1472" 
d="M130 1862h732l-50 -265h-400v-533h337v-266h-337v-748l-282 -50v1862zM1056 1812l282 50v-1862h-282v1812z" />
    <glyph glyph-name="uniF002" unicode="&#xf002;" horiz-adv-x="1848" 
d="M130 1862h732l-50 -265h-400v-533h337v-266h-337v-748l-282 -50v1862zM1052 0v1862l282 -50v-1547h400l50 -265h-732z" />
    <glyph glyph-name="uniF002" unicode="&#xfb02;" horiz-adv-x="1848" 
d="M130 1862h732l-50 -265h-400v-533h337v-266h-337v-748l-282 -50v1862zM1052 0v1862l282 -50v-1547h400l50 -265h-732z" />
    <glyph glyph-name="uni0401" unicode="&#x401;" horiz-adv-x="944" 
d="M179 2181h241v-242h-241v242zM574 2181h242v-242h-242v242zM130 1862h732l-50 -265h-400v-533h337v-266h-337v-533h400l50 -265h-732v1862z" />
    <glyph glyph-name="uni0404" unicode="&#x404;" 
d="M110 1485q0 283 183 359q116 49 228 49q121 0 235 -57q165 -81 165 -351v-235l-279 50v183q0 126 -102 130q-15 1 -29 1q-53 0 -77 -10q-45 -19 -45 -121v-293q0 -95 37 -115q20 -11 60 -11h68v-265h-46q-50 0 -74 -10q-45 -19 -45 -120v-309q0 -131 127 -131
q126 0 126 131v202l279 50v-251q0 -262 -154 -345q-86 -48 -242 -48h-24q-176 4 -259 60q-132 89 -132 333v1124z" />
    <glyph glyph-name="uni0406" unicode="&#x406;" horiz-adv-x="553" 
d="M135 1812l281 50v-1862h-281v1812z" />
    <glyph glyph-name="uni0407" unicode="&#x407;" horiz-adv-x="639" 
d="M0 2234h242v-242h-242v242zM396 2234h243v-242h-243v242zM179 1812l281 50v-1862h-281v1812z" />
    <glyph glyph-name="uni040E" unicode="&#x40e;" horiz-adv-x="1017" 
d="M412 1812v-653q0 -126 123 -126q124 0 124 126v653l282 50v-1502q0 -392 -405 -392q-406 1 -406 392v251l282 -50v-201q0 -126 124 -126q123 0 123 126v418q-57 -11 -124 -11q-405 0 -405 392v703zM890 2199q-127 -260 -393 -260h-8q-269 4 -365 260l214 -25
q31 -84 168 -84h1q139 0 169 84z" />
    <glyph glyph-name="uni0410" unicode="&#x410;" horiz-adv-x="1051" 
d="M917 661l92 -661l-285 50l-55 345h-289l-56 -345l-284 -50l92 658l199 1204h388zM416 661h216l-78 557h-60z" />
    <glyph glyph-name="uni0411" unicode="&#x411;" horiz-adv-x="979" 
d="M862 1862l-50 -265h-400v-533h46q124 0 189 -20q270 -84 270 -372v-280q0 -391 -376 -391l-411 -1v1862h732zM512 265l123 127v280l-77 119q-22 7 -81 7h-65v-533h100z" />
    <glyph glyph-name="uni0412" unicode="&#x412;" horiz-adv-x="1043" 
d="M130 1862l435 -1q376 0 376 -391v-280q0 -183 -155 -259q155 -76 155 -259v-281q0 -390 -376 -390q-6 0 -18 -1h-417v1862zM412 1597v-533h89l158 126v280l-123 127h-124zM412 798v-533h124l123 126v281l-158 126h-89z" />
    <glyph glyph-name="uni0413" unicode="&#x413;" horiz-adv-x="904" 
d="M862 1862l-50 -265h-400v-1547l-282 -50v1862h732z" />
    <glyph glyph-name="uni0414" unicode="&#x414;" horiz-adv-x="1479" 
d="M500 1862h678v-1609q138 -18 190 -114q49 -90 49 -329l-236 50q-1 63 -11 131h-794q-9 -68 -10 -131l-236 -50q0 239 49 329q51 95 188 114zM896 258v1337h-136l-111 -1337h247z" />
    <glyph glyph-name="uni0415" unicode="&#x415;" horiz-adv-x="944" 
d="M130 1862h732l-50 -265h-400v-533h337v-266h-337v-533h400l50 -265h-732v1862z" />
    <glyph glyph-name="uni0416" unicode="&#x416;" horiz-adv-x="1681" 
d="M433 1812l301 -779v779h283v-779l301 779l303 50l-374 -931l374 -931l-303 50l-301 778v-778h-283v778l-301 -778l-303 -50l374 931l-374 931z" />
    <glyph glyph-name="uni0417" unicode="&#x417;" horiz-adv-x="1023" 
d="M921 1213q0 -182 -151 -257q151 -76 151 -258v-337q0 -244 -132 -333q-83 -56 -259 -60h-24q-156 0 -242 48q-154 83 -154 345v251l279 -50v-202q0 -131 126 -131q127 0 127 131v332q0 102 -45 121q-24 10 -74 10h-46v265h68q40 0 60 11q37 20 37 114v270q0 102 -45 121
q-24 10 -77 10q-14 0 -29 -1q-102 -4 -102 -130v-183l-279 -50v235q0 270 165 351q114 57 235 57q112 0 228 -49q183 -76 183 -359v-272z" />
    <glyph glyph-name="uni0418" unicode="&#x418;" 
d="M943 0l-272 50v996l-258 -996l-283 -50v1862l262 -50v-1030l268 1030l283 50v-1862z" />
    <glyph glyph-name="uni0419" unicode="&#x419;" 
d="M943 0l-272 50v996l-258 -996l-283 -50v1862l262 -50v-1030l268 1030l283 50v-1862zM918 2199q-127 -260 -393 -260h-8q-269 4 -365 260l214 -25q31 -84 168 -84h1q139 0 169 84z" />
    <glyph glyph-name="uni041A" unicode="&#x41a;" horiz-adv-x="1057" 
d="M642 931l373 -931l-302 50l-301 778v-778l-282 -50v1862l282 -50v-779l301 779l302 50z" />
    <glyph glyph-name="uni041B" unicode="&#x41b;" horiz-adv-x="1051" 
d="M380 395l-56 -345l-284 -50l92 658l199 1204h388l198 -1201l92 -661l-285 50l-55 345l-37 266l-78 557h-60l-78 -557z" />
    <glyph glyph-name="uni041C" unicode="&#x41c;" horiz-adv-x="1418" 
d="M745 587l328 1225l283 50v-1862l-271 50v995l-241 -995h-192l-248 995v-995l-274 -50v1862l283 -50z" />
    <glyph glyph-name="uni041D" unicode="&#x41d;" 
d="M130 1862l282 -50v-748h247v748l282 50v-1862l-282 50v748h-247v-748l-282 -50v1862z" />
    <glyph glyph-name="uni041E" unicode="&#x41e;" horiz-adv-x="1033" 
d="M921 361q0 -392 -406 -393q-405 0 -405 393v1140q0 392 405 392q406 0 406 -392v-1140zM489 1600l-97 -100v-1140l95 -99h56l96 99v1140l-98 100h-52z" />
    <glyph glyph-name="uni041F" unicode="&#x41f;" 
d="M130 1862h811v-1862l-282 50v1546h-247v-1546l-282 -50v1862z" />
    <glyph glyph-name="uni0420" unicode="&#x420;" horiz-adv-x="999" 
d="M130 1862l411 -1q376 0 376 -391v-280q0 -288 -270 -372q-65 -20 -189 -20h-46v-748l-282 -50v1862zM412 1597v-533h65q59 0 81 7l77 119v280l-123 127h-100z" />
    <glyph glyph-name="uni0421" unicode="&#x421;" horiz-adv-x="1023" 
d="M921 361q0 -392 -406 -393q-405 0 -405 393v1140q0 392 405 392q406 0 406 -392v-251l-282 50v201q0 126 -123 127h-2q-122 0 -122 -127v-1140q0 -127 123 -127q124 0 124 127v201l282 50v-251z" />
    <glyph glyph-name="uni0422" unicode="&#x422;" horiz-adv-x="913" 
d="M861 1862l-50 -265h-214v-1597h-283v1597h-214l-50 265h811z" />
    <glyph glyph-name="uni0423" unicode="&#x423;" horiz-adv-x="1017" 
d="M412 1812v-653q0 -126 123 -126q124 0 124 126v653l282 50v-1502q0 -392 -405 -392q-406 1 -406 392v251l282 -50v-201q0 -126 124 -126q123 0 123 126v418q-57 -11 -124 -11q-405 0 -405 392v703z" />
    <glyph glyph-name="uni0424" unicode="&#x424;" horiz-adv-x="1485" 
d="M635 1812l283 50v-400h129q376 0 376 -391v-280q0 -288 -271 -372q-64 -19 -188 -19h-46v-400h-283v400h-46q-124 0 -188 19q-271 84 -271 372v280q0 391 376 391h129v350zM535 1199l-122 -128v-280l76 -118q22 -8 81 -8h65v534h-100zM918 1199v-534h65q59 0 81 8l76 118
v280l-122 128h-100z" />
    <glyph glyph-name="uni0425" unicode="&#x425;" horiz-adv-x="1017" 
d="M324 1815l184 -477l183 477l284 47l-325 -931l325 -931l-284 47l-183 477l-184 -477l-284 -47l325 931l-325 931z" />
    <glyph glyph-name="uni0426" unicode="&#x426;" horiz-adv-x="1240" 
d="M130 1862l282 -50v-1554h247v1554l282 50v-1609q137 -19 188 -114q49 -90 49 -329l-236 50q-1 63 -11 131h-801v1871z" />
    <glyph glyph-name="uni0427" unicode="&#x427;" horiz-adv-x="1053" 
d="M931 0l-282 50v729q-57 -11 -124 -11q-405 0 -405 392v702l282 -50v-652q0 -127 123 -127q124 0 124 127v652l282 50v-1862z" />
    <glyph glyph-name="uni0428" unicode="&#x428;" horiz-adv-x="1533" 
d="M130 1862l282 -50v-1546h246v1546h283v-1546h246v1546l282 50v-1862h-1339v1862z" />
    <glyph glyph-name="uni0429" unicode="&#x429;" horiz-adv-x="1770" 
d="M130 1862l282 -50v-1554h247v1554h282v-1554h246v1554l283 50v-1609q136 -19 187 -114q49 -90 49 -329l-235 50q-1 63 -11 131h-1330v1871z" />
    <glyph glyph-name="uni042A" unicode="&#x42a;" horiz-adv-x="1244" 
d="M130 1862h547v-798h46q124 0 189 -20q270 -84 270 -372v-280q0 -391 -376 -391l-412 -1v1597h-214zM777 265l123 127v280l-77 119q-22 7 -81 7h-65v-533h100z" />
    <glyph glyph-name="uni042B" unicode="&#x42b;" horiz-adv-x="1550" 
d="M130 1862l282 -50v-748h46q124 0 188 -20q271 -84 271 -372v-280q0 -391 -376 -391l-411 -1v1862zM512 265l122 127v280l-76 119q-22 7 -81 7h-65v-533h100zM1139 0h282v1862l-282 -50v-1812z" />
    <glyph glyph-name="uni042C" unicode="&#x42c;" horiz-adv-x="999" 
d="M130 1812l282 50v-798h46q124 0 189 -20q270 -84 270 -372v-280q0 -391 -376 -391l-411 -1v1812zM512 265l123 127v280l-77 119q-22 7 -81 7h-65v-533h100z" />
    <glyph glyph-name="uni042D" unicode="&#x42d;" 
d="M921 361q0 -244 -132 -333q-83 -56 -259 -60h-24q-156 0 -242 48q-154 83 -154 345v251l279 -50v-202q0 -131 126 -131q127 0 127 131v309q0 101 -45 120q-24 10 -74 10h-46v265h68q40 0 60 11q37 20 37 115v293q0 102 -45 121q-24 10 -77 10q-14 0 -29 -1
q-102 -4 -102 -130v-183l-279 -50v235q0 270 165 351q114 57 235 57q112 0 228 -49q183 -76 183 -359v-1124z" />
    <glyph glyph-name="uni042E" unicode="&#x42e;" horiz-adv-x="1533" 
d="M1470 340q0 -371 -406 -372q-405 0 -405 372v415h-247v-737l-282 -50v1825l282 -50v-736h247v415q0 371 405 371q406 0 406 -371v-1082zM1038 1600l-97 -100v-1140l95 -99h56l96 99v1140l-98 100h-52z" />
    <glyph glyph-name="uni042F" unicode="&#x42f;" horiz-adv-x="1044" 
d="M1012 0l-282 50v764l-36 5l-255 -769l-309 -50l317 866q-222 78 -222 324v280q0 391 376 391l411 1v-1862zM630 1597l-123 -127v-280l77 -119q22 -7 81 -7h65v533h-100z" />
    <glyph glyph-name="uni0430" unicode="&#x430;" horiz-adv-x="1051" 
d="M917 661l92 -661l-285 50l-55 345h-289l-56 -345l-284 -50l92 658l199 1204h388zM416 661h216l-78 557h-60z" />
    <glyph glyph-name="uni0431" unicode="&#x431;" horiz-adv-x="979" 
d="M862 1862l-50 -265h-400v-533h46q124 0 189 -20q270 -84 270 -372v-280q0 -391 -376 -391l-411 -1v1862h732zM512 265l123 127v280l-77 119q-22 7 -81 7h-65v-533h100z" />
    <glyph glyph-name="uni0432" unicode="&#x432;" horiz-adv-x="1043" 
d="M130 1862l435 -1q376 0 376 -391v-280q0 -183 -155 -259q155 -76 155 -259v-281q0 -390 -376 -390q-6 0 -18 -1h-417v1862zM412 1597v-533h89l158 126v280l-123 127h-124zM412 798v-533h124l123 126v281l-158 126h-89z" />
    <glyph glyph-name="uni0433" unicode="&#x433;" horiz-adv-x="904" 
d="M862 1862l-50 -265h-400v-1547l-282 -50v1862h732z" />
    <glyph glyph-name="uni0434" unicode="&#x434;" horiz-adv-x="1479" 
d="M500 1862h678v-1609q138 -18 190 -114q49 -90 49 -329l-236 50q-1 63 -11 131h-794q-9 -68 -10 -131l-236 -50q0 239 49 329q51 95 188 114zM896 258v1337h-136l-111 -1337h247z" />
    <glyph glyph-name="uni0435" unicode="&#x435;" horiz-adv-x="944" 
d="M130 1862h732l-50 -265h-400v-533h337v-266h-337v-533h400l50 -265h-732v1862z" />
    <glyph glyph-name="uni0436" unicode="&#x436;" horiz-adv-x="1681" 
d="M433 1812l301 -779v779h283v-779l301 779l303 50l-374 -931l374 -931l-303 50l-301 778v-778h-283v778l-301 -778l-303 -50l374 931l-374 931z" />
    <glyph glyph-name="uni0437" unicode="&#x437;" horiz-adv-x="1023" 
d="M921 1213q0 -182 -151 -257q151 -76 151 -258v-337q0 -244 -132 -333q-83 -56 -259 -60h-24q-156 0 -242 48q-154 83 -154 345v251l279 -50v-202q0 -131 126 -131q127 0 127 131v332q0 102 -45 121q-24 10 -74 10h-46v265h68q40 0 60 11q37 20 37 114v270q0 102 -45 121
q-24 10 -77 10q-14 0 -29 -1q-102 -4 -102 -130v-183l-279 -50v235q0 270 165 351q114 57 235 57q112 0 228 -49q183 -76 183 -359v-272z" />
    <glyph glyph-name="uni0438" unicode="&#x438;" 
d="M943 0l-272 50v996l-258 -996l-283 -50v1862l262 -50v-1030l268 1030l283 50v-1862z" />
    <glyph glyph-name="uni0439" unicode="&#x439;" 
d="M943 0l-272 50v996l-258 -996l-283 -50v1862l262 -50v-1030l268 1030l283 50v-1862zM918 2199q-127 -260 -393 -260h-8q-269 4 -365 260l214 -25q31 -84 168 -84h1q139 0 169 84z" />
    <glyph glyph-name="uni043A" unicode="&#x43a;" horiz-adv-x="1057" 
d="M642 931l373 -931l-302 50l-301 778v-778l-282 -50v1862l282 -50v-779l301 779l302 50z" />
    <glyph glyph-name="uni043B" unicode="&#x43b;" horiz-adv-x="1051" 
d="M380 395l-56 -345l-284 -50l92 658l199 1204h388l198 -1201l92 -661l-285 50l-55 345l-37 266l-78 557h-60l-78 -557z" />
    <glyph glyph-name="uni043C" unicode="&#x43c;" horiz-adv-x="1418" 
d="M745 587l328 1225l283 50v-1862l-271 50v995l-241 -995h-192l-248 995v-995l-274 -50v1862l283 -50z" />
    <glyph glyph-name="uni043D" unicode="&#x43d;" 
d="M130 1862l282 -50v-748h247v748l282 50v-1862l-282 50v748h-247v-748l-282 -50v1862z" />
    <glyph glyph-name="uni043E" unicode="&#x43e;" horiz-adv-x="1033" 
d="M921 361q0 -392 -406 -393q-405 0 -405 393v1140q0 392 405 392q406 0 406 -392v-1140zM489 1600l-97 -100v-1140l95 -99h56l96 99v1140l-98 100h-52z" />
    <glyph glyph-name="uni043F" unicode="&#x43f;" 
d="M130 1862h811v-1862l-282 50v1546h-247v-1546l-282 -50v1862z" />
    <glyph glyph-name="uni0440" unicode="&#x440;" horiz-adv-x="999" 
d="M130 1862l411 -1q376 0 376 -391v-280q0 -288 -270 -372q-65 -20 -189 -20h-46v-748l-282 -50v1862zM412 1597v-533h65q59 0 81 7l77 119v280l-123 127h-100z" />
    <glyph glyph-name="uni0441" unicode="&#x441;" horiz-adv-x="1023" 
d="M921 361q0 -392 -406 -393q-405 0 -405 393v1140q0 392 405 392q406 0 406 -392v-251l-282 50v201q0 126 -123 127h-2q-122 0 -122 -127v-1140q0 -127 123 -127q124 0 124 127v201l282 50v-251z" />
    <glyph glyph-name="uni0442" unicode="&#x442;" horiz-adv-x="913" 
d="M861 1862l-50 -265h-214v-1597h-283v1597h-214l-50 265h811z" />
    <glyph glyph-name="uni0443" unicode="&#x443;" horiz-adv-x="1017" 
d="M412 1812v-653q0 -126 123 -126q124 0 124 126v653l282 50v-1502q0 -392 -405 -392q-406 1 -406 392v251l282 -50v-201q0 -126 124 -126q123 0 123 126v418q-57 -11 -124 -11q-405 0 -405 392v703z" />
    <glyph glyph-name="uni0444" unicode="&#x444;" horiz-adv-x="1485" 
d="M635 1812l283 50v-400h129q376 0 376 -391v-280q0 -288 -271 -372q-64 -19 -188 -19h-46v-400h-283v400h-46q-124 0 -188 19q-271 84 -271 372v280q0 391 376 391h129v350zM535 1199l-122 -128v-280l76 -118q22 -8 81 -8h65v534h-100zM918 1199v-534h65q59 0 81 8l76 118
v280l-122 128h-100z" />
    <glyph glyph-name="uni0445" unicode="&#x445;" horiz-adv-x="1017" 
d="M324 1815l184 -477l183 477l284 47l-325 -931l325 -931l-284 47l-183 477l-184 -477l-284 -47l325 931l-325 931z" />
    <glyph glyph-name="uni0446" unicode="&#x446;" horiz-adv-x="1240" 
d="M130 1862l282 -50v-1554h247v1554l282 50v-1609q137 -19 188 -114q49 -90 49 -329l-236 50q-1 63 -11 131h-801v1871z" />
    <glyph glyph-name="uni0447" unicode="&#x447;" horiz-adv-x="1053" 
d="M931 0l-282 50v729q-57 -11 -124 -11q-405 0 -405 392v702l282 -50v-652q0 -127 123 -127q124 0 124 127v652l282 50v-1862z" />
    <glyph glyph-name="uni0448" unicode="&#x448;" horiz-adv-x="1533" 
d="M130 1862l282 -50v-1546h246v1546h283v-1546h246v1546l282 50v-1862h-1339v1862z" />
    <glyph glyph-name="uni0449" unicode="&#x449;" horiz-adv-x="1770" 
d="M130 1862l282 -50v-1554h247v1554h282v-1554h246v1554l283 50v-1609q136 -19 187 -114q49 -90 49 -329l-235 50q-1 63 -11 131h-1330v1871z" />
    <glyph glyph-name="uni044A" unicode="&#x44a;" horiz-adv-x="1244" 
d="M130 1862h547v-798h46q124 0 189 -20q270 -84 270 -372v-280q0 -391 -376 -391l-412 -1v1597h-214zM777 265l123 127v280l-77 119q-22 7 -81 7h-65v-533h100z" />
    <glyph glyph-name="uni044B" unicode="&#x44b;" horiz-adv-x="1550" 
d="M130 1862l282 -50v-748h46q124 0 188 -20q271 -84 271 -372v-280q0 -391 -376 -391l-411 -1v1862zM512 265l122 127v280l-76 119q-22 7 -81 7h-65v-533h100zM1139 0h282v1862l-282 -50v-1812z" />
    <glyph glyph-name="uni044C" unicode="&#x44c;" horiz-adv-x="999" 
d="M130 1812l282 50v-798h46q124 0 189 -20q270 -84 270 -372v-280q0 -391 -376 -391l-411 -1v1812zM512 265l123 127v280l-77 119q-22 7 -81 7h-65v-533h100z" />
    <glyph glyph-name="uni044D" unicode="&#x44d;" 
d="M921 361q0 -244 -132 -333q-83 -56 -259 -60h-24q-156 0 -242 48q-154 83 -154 345v251l279 -50v-202q0 -131 126 -131q127 0 127 131v309q0 101 -45 120q-24 10 -74 10h-46v265h68q40 0 60 11q37 20 37 115v293q0 102 -45 121q-24 10 -77 10q-14 0 -29 -1
q-102 -4 -102 -130v-183l-279 -50v235q0 270 165 351q114 57 235 57q112 0 228 -49q183 -76 183 -359v-1124z" />
    <glyph glyph-name="uni044E" unicode="&#x44e;" horiz-adv-x="1533" 
d="M1470 340q0 -371 -406 -372q-405 0 -405 372v415h-247v-737l-282 -50v1825l282 -50v-736h247v415q0 371 405 371q406 0 406 -371v-1082zM1038 1600l-97 -100v-1140l95 -99h56l96 99v1140l-98 100h-52z" />
    <glyph glyph-name="uni044F" unicode="&#x44f;" horiz-adv-x="1044" 
d="M1012 0l-282 50v764l-36 5l-255 -769l-309 -50l317 866q-222 78 -222 324v280q0 391 376 391l411 1v-1862zM630 1597l-123 -127v-280l77 -119q22 -7 81 -7h65v533h-100z" />
    <glyph glyph-name="uni0451" unicode="&#x451;" horiz-adv-x="944" 
d="M179 2181h241v-242h-241v242zM574 2181h242v-242h-242v242zM130 1862h732l-50 -265h-400v-533h337v-266h-337v-533h400l50 -265h-732v1862z" />
    <glyph glyph-name="uni0454" unicode="&#x454;" 
d="M110 1485q0 283 183 359q116 49 228 49q121 0 235 -57q165 -81 165 -351v-235l-279 50v183q0 126 -102 130q-15 1 -29 1q-53 0 -77 -10q-45 -19 -45 -121v-293q0 -95 37 -115q20 -11 60 -11h68v-265h-46q-50 0 -74 -10q-45 -19 -45 -120v-309q0 -131 127 -131
q126 0 126 131v202l279 50v-251q0 -262 -154 -345q-86 -48 -242 -48h-24q-176 4 -259 60q-132 89 -132 333v1124z" />
    <glyph glyph-name="uni0456" unicode="&#x456;" horiz-adv-x="553" 
d="M135 1812l281 50v-1862h-281v1812z" />
    <glyph glyph-name="uni0457" unicode="&#x457;" horiz-adv-x="639" 
d="M0 2234h242v-242h-242v242zM396 2234h243v-242h-243v242zM179 1812l281 50v-1862h-281v1812z" />
    <glyph glyph-name="uni045E" unicode="&#x45e;" horiz-adv-x="1017" 
d="M412 1812v-653q0 -126 123 -126q124 0 124 126v653l282 50v-1502q0 -392 -405 -392q-406 1 -406 392v251l282 -50v-201q0 -126 124 -126q123 0 123 126v418q-57 -11 -124 -11q-405 0 -405 392v703zM890 2199q-127 -260 -393 -260h-8q-269 4 -365 260l214 -25
q31 -84 168 -84h1q139 0 169 84z" />
    <glyph glyph-name="uni0490" unicode="&#x490;" horiz-adv-x="1001" 
d="M862 2081v-473h-450v-1558l-282 -50v1874h454v257z" />
    <glyph glyph-name="uni0491" unicode="&#x491;" horiz-adv-x="1001" 
d="M862 2081v-473h-450v-1558l-282 -50v1874h454v257z" />
    <glyph glyph-name="uni04C1" unicode="&#x4c1;" horiz-adv-x="1681" 
d="M433 1812l301 -779v779h283v-779l301 779l303 50l-374 -931l374 -931l-303 50l-301 778v-778h-283v778l-301 -778l-303 -50l374 931l-374 931zM1258 2199q-127 -260 -393 -260h-8q-269 4 -365 260l214 -25q31 -84 168 -84h1q139 0 169 84z" />
    <glyph glyph-name="uni04C2" unicode="&#x4c2;" horiz-adv-x="1681" 
d="M433 1812l301 -779v779h283v-779l301 779l303 50l-374 -931l374 -931l-303 50l-301 778v-778h-283v778l-301 -778l-303 -50l374 931l-374 931zM1258 2199q-127 -260 -393 -260h-8q-269 4 -365 260l214 -25q31 -84 168 -84h1q139 0 169 84z" />
    <glyph glyph-name="uni20BD" unicode="&#x20bd;" horiz-adv-x="999" 
d="M130 1064v798l411 -1q376 0 376 -391v-280q0 -288 -270 -372q-65 -20 -189 -20h-46v-232h225l-50 -201h-175v-315l-282 -50v365h-80l50 201h30v232h-80l50 266h30zM412 1597v-533h65q59 0 81 7l77 119v280l-123 127h-100z" />
    <glyph glyph-name="figuredash" unicode="&#x2012;" horiz-adv-x="2048" 
d="M50 841l50 235h1913l-50 -235h-1913z" />
    <glyph glyph-name="quotereversed" unicode="&#x201b;" horiz-adv-x="610" 
d="M480 1638h-117l58 -327h-184l-107 364v288h350v-325z" />
    <glyph glyph-name="uni201F" unicode="&#x201f;" horiz-adv-x="1100" 
d="M970 1638h-117l58 -327h-184l-107 364v288h350v-325zM480 1638h-117l58 -327h-184l-107 364v288h350v-325z" />
    <glyph glyph-name="perthousand" unicode="&#x2030;" horiz-adv-x="2272" 
d="M1279 1863l-720 -1863h-176l721 1863h175zM600 1069q0 -232 -238 -232h-2q-235 0 -235 232v674q0 232 237 232q238 0 238 -232v-674zM347 1802l-57 -59v-674l56 -59h33l56 59v674l-58 59h-30zM1570 233q0 -232 -238 -232h-2q-235 0 -235 232v674q0 232 237 232
q238 0 238 -232v-674zM1317 966l-57 -59v-674l56 -59h33l56 59v674l-58 59h-30zM2145 233q0 -232 -238 -232h-2q-235 0 -235 232v674q0 232 237 232q238 0 238 -232v-674zM1892 966l-57 -59v-674l56 -59h33l56 59v674l-58 59h-30z" />
    <glyph glyph-name="minute" unicode="&#x2032;" horiz-adv-x="610" 
d="M130 1938l350 25l-107 -627l-184 -25z" />
    <glyph glyph-name="second" unicode="&#x2033;" horiz-adv-x="1100" 
d="M130 1938l350 25l-107 -627l-184 -25zM620 1938l350 25l-107 -627l-184 -25z" />
    <glyph glyph-name="uni2034" unicode="&#x2034;" horiz-adv-x="1590" 
d="M130 1938l350 25l-107 -627l-184 -25zM620 1938l350 25l-107 -627l-184 -25zM1110 1938l350 25l-107 -627l-184 -25z" />
    <glyph glyph-name="exclamdbl" unicode="&#x203c;" horiz-adv-x="1024" 
d="M891 1862l-21 -1359h-281l-21 1309zM568 308h323v-308h-323v308zM443 1862l-21 -1359h-281l-21 1309zM120 308h323v-308h-323v308z" />
    <glyph glyph-name="uniFFFC" unicode="&#xfffc;" horiz-adv-x="2213" 
d="M698 1844h18q38 0 50 -66q2 -21 2 -34v-59q0 -6 -4 -6q-39 9 -39 15v47q0 34 -17 34h-3q-16 0 -16 -34v-37q0 -40 57 -106q22 -42 22 -93v-56q0 -103 -60 -103h-3q-60 0 -60 103v59l2 6q42 -11 42 -19v-49q0 -28 14 -28h7q15 0 15 28v53q0 43 -62 115q-18 42 -18 90v31
q0 109 53 109zM953 1844q50 -11 50 -81q2 -18 2 -50v-28q0 -6 -4 -6q-39 8 -39 15v35q0 46 -20 46q-16 0 -16 -28v-304q0 -25 14 -25h11q10 0 11 50v93h-11q-6 0 -11 65l4 3h57q4 -1 4 -6v-146q0 -128 -47 -128q0 -3 -12 -3h-4q-59 0 -59 94v314q0 77 46 90h24zM354 1837h54
q65 0 65 -102v-280q0 -99 -52 -99h-67q-3 0 -3 6v469q0 6 3 6zM511 1837h106q-4 -71 -9 -71h-58v-131q1 -6 4 -6h43q4 -1 4 -6v-56q0 -6 -4 -6h-47v-137h58q5 0 9 -68h-106q-4 0 -4 6v469q1 6 4 6zM1041 1837q43 -10 43 -24q36 -236 36 -246h2v252q0 6 38 18l1 -6v-469
q0 -6 -3 -6q-42 7 -42 24q-34 223 -34 234h-2v-240q0 -10 -39 -18l-2 6v469zM1203 1837h102q4 0 4 -6q-5 -65 -9 -65h-58v-137h47q4 -1 4 -6v-56q0 -6 -4 -6h-47v-137h58q4 0 9 -65l-4 -3h-102q-4 0 -4 6v469q1 6 4 6zM1343 1837h56q44 0 57 -43q5 -28 5 -37v-314
q-4 -87 -48 -87h-70q-4 0 -4 6v469q1 6 4 6zM1577 1837h52q66 0 66 -96v-78q0 -50 -21 -65q21 -29 21 -62v-84q0 -67 -27 -87q-9 -9 -23 -9h-68q-4 0 -4 6v469q0 6 4 6zM1860 1837l2 -6q-52 -275 -52 -286v-183q0 -6 -3 -6h-36q-4 0 -4 6v189l-50 283h1q45 0 45 -28
q2 -7 26 -152h1q26 171 31 171q35 9 39 12zM847 1834v-472q0 -6 -4 -6h-36q-3 0 -3 6v457q0 10 43 15zM394 1766v-342h16q2 0 20 34v274q0 4 -20 34h-16zM1382 1766v-342h20q0 6 16 34v277q0 4 -18 31h-18zM1616 1766v-134h13q21 28 23 28v72q-16 34 -18 34h-18zM1616 1561
v-137h16q3 0 20 34v69q0 3 -23 34h-13zM1192 1209h18q38 0 50 -65q2 -21 2 -34v-59q0 -6 -4 -6q-39 8 -39 15v47q0 34 -16 34h-4q-16 0 -16 -34v-37q0 -41 57 -106q22 -43 22 -93v-56q0 -103 -59 -103h-4q-59 0 -59 103v59l2 6q41 -12 41 -19v-43q0 -35 14 -35h7q15 0 15 28
v53q0 43 -61 115q-18 43 -18 91v31q0 108 52 108zM1979 1209q41 0 47 -87v-329q0 -72 -58 -81h-3q-60 0 -60 96v311q6 90 47 90h27zM24 1203h54q48 0 59 -50q5 -27 5 -62v-261q0 -109 -52 -109h-66q-4 0 -4 7v469q1 6 4 6zM178 1203q43 -10 43 -25q42 -257 47 -301h2
q29 200 48 314q34 9 42 9v-472l-2 -7q-40 10 -40 19v233h-1q-27 -214 -35 -239h-25q-4 0 -37 245h-2v-239q0 -11 -40 -19l-2 7v469zM430 1203l2 -6v-469q0 -7 -4 -7h-36q-4 0 -4 7v457q0 6 42 18zM462 1203h115l4 -3q-6 -68 -11 -68h-29v-404q0 -7 -3 -7h-36q-4 0 -4 7v404
h-29q-4 0 -10 68zM611 1203h51q41 0 55 -37q9 -30 9 -93v-22q0 -88 -28 -103q-4 -3 -6 -3q38 -174 47 -221l-4 -3q-46 5 -46 35q-2 5 -35 177q-3 -1 -3 -6v-187q0 -9 -41 -19l-2 7v469q0 6 3 6zM1019 1203h52q7 0 47 -479l-3 -3q-42 6 -42 28q-5 72 -9 72h-37q-4 0 -11 -84
q-3 -6 -42 -16q0 3 -1 3q40 479 46 479zM1289 1203h113q4 -1 4 -6q-5 -65 -9 -65h-29v-404q0 -7 -4 -7h-36q-3 0 -3 7v404h-29q-6 0 -11 68zM1467 1203h52q7 0 41 -429l6 -50l-4 -3q-41 7 -41 25l-7 75h-44v-3q-3 -87 -16 -87l-32 -10l-2 7q15 189 43 472zM1720 1203l2 -6
q-54 -230 -54 -239q4 -12 54 -234l-4 -3q-44 7 -44 28l-40 178h-2v-187q0 -11 -41 -19l-2 7v472h2q41 -5 41 -15v-190h2q41 194 45 196q38 9 41 12zM1749 1203q41 -12 41 -18v-190h36v190q0 6 42 18l1 -6v-469q0 -7 -3 -7q-40 10 -40 19v187h-36v-187q0 -11 -41 -19l-2 7
v469zM741 1200q45 0 45 -28q3 -14 25 -152h2q24 162 30 171q17 6 42 6q-51 -269 -51 -277v-192q0 -7 -3 -7h-36q-4 0 -4 7v186l-52 286h2zM2051 1200q43 0 43 -28l25 -323h4v3q26 339 30 339q14 6 40 6q-13 -185 -43 -476h-56q-5 0 -23 230q-20 179 -20 249zM1949 1107v-292
q0 -4 14 -25h5q3 0 15 25v292q-13 22 -13 28h-5q-3 0 -16 -28zM63 1132v-342h16q3 0 20 34v274q0 4 -20 34h-16zM651 1132v-134h18q14 24 14 40v60q0 4 -20 34h-12zM1041 1035l-11 -143h31q-10 143 -15 143h-5zM1488 1035q-10 -127 -10 -143h30q-11 143 -14 143h-6zM622 575
q49 0 49 -130v-28q0 -7 -4 -7q-39 9 -39 16v34q0 47 -20 47q-16 0 -16 -28v-50q0 -32 52 -93q27 -38 27 -121q0 -104 -24 -122q-15 -15 -36 -15h-3q-60 0 -60 93v68l2 7q42 -12 42 -19v-53q0 -25 14 -25h11q9 0 11 50v19q0 59 -56 118q-24 42 -24 87v62q0 78 47 90h27z
M750 575h21q52 -10 52 -81v-77q0 -7 -3 -7q-40 8 -40 19v47q0 31 -16 31q-18 0 -18 -25v-56q0 -28 56 -96q21 -40 21 -84v-78q0 -90 -62 -90q-58 8 -58 81v80l2 7q41 -13 41 -19v-53q0 -17 9 -25h11q14 0 14 25v65q0 32 -54 97q-22 42 -23 78v74q6 87 47 87zM241 569h49
q66 0 66 -96v-84q0 -59 -32 -78q9 -46 46 -221l-3 -3q-47 7 -47 28q-34 178 -34 183q-3 -3 -5 -3v-189q0 -11 -42 -19l-2 6v470q1 6 4 6zM394 569q41 -12 41 -19v-373q0 -28 15 -28h7q14 0 14 28v373q0 7 41 19l2 -6v-383q0 -102 -59 -102h-4q-59 0 -59 102v383zM901 569
l2 -6v-470q0 -6 -4 -6h-36q-4 0 -4 6v457q0 7 42 19zM974 569h53q6 0 21 -196q9 -67 25 -283l-3 -3q-42 8 -42 25l-5 75h-43q-7 -88 -11 -88q-3 -3 -40 -12q0 3 -1 3q40 479 46 479zM1266 569h48q67 0 67 -93v-87q0 -61 -33 -87q-17 -10 -30 -10h-13v-186q0 -11 -41 -19
l-2 6v470q1 6 4 6zM1415 569h102q4 -1 4 -6q-5 -66 -9 -66h-58v-136h47q4 -1 4 -7v-56q0 -6 -4 -6h-47v-137h58q4 0 9 -65l-4 -3h-102q-4 0 -4 6v470q1 6 4 6zM1711 569h96q3 -1 3 -6v-25q0 -25 -57 -383h50q4 0 9 -65l-4 -3h-100q-4 0 -4 6v19q4 43 58 385h-45q-5 0 -9 69z
M1877 569h52q6 0 20 -180q12 -107 27 -299l-4 -3q-41 7 -41 25q-5 75 -9 75h-40q-7 -91 -14 -91l-36 -9q0 3 -2 3q41 479 47 479zM1551 566h2q43 0 43 -22q36 -228 36 -239h2v245q0 10 40 16v-473l-2 -6q-43 6 -43 28l-35 230h-1v-239q0 -11 -40 -19l-2 6v473zM281 497v-133
h19q13 23 13 37v65q0 4 -18 31h-14zM1305 497v-133h20q12 23 12 37v62q-4 16 -18 34h-14zM985 258h31l-11 143h-5q-4 0 -15 -143zM1898 401l-11 -143h31l-11 143h-9zM1100 171h47q4 -1 4 -6v-53q-13 -112 -20 -112h-22l-3 3l9 84h-15q-3 0 -3 6v72q0 6 3 6z" />
    <glyph glyph-name="uni0476.001" horiz-adv-x="819" 
 />
    <glyph glyph-name="uni0477.001" horiz-adv-x="819" 
 />
    <glyph glyph-name="Abreve" unicode="&#x102;" horiz-adv-x="1051" 
d="M917 661l92 -661h-285l-55 395h-289l-56 -395h-284l92 658l199 1204h388zM416 661h216l-78 557h-60zM910 2199q-127 -260 -393 -260h-8q-269 4 -365 260l214 -25q31 -84 168 -84h1q139 0 169 84z" />
    <glyph glyph-name="abreve" unicode="&#x103;" horiz-adv-x="1051" 
d="M917 661l92 -661h-285l-55 395h-289l-56 -395h-284l92 658l199 1204h388zM416 661h216l-78 557h-60zM910 2199q-127 -260 -393 -260h-8q-269 4 -365 260l214 -25q31 -84 168 -84h1q139 0 169 84z" />
    <glyph glyph-name="Aogonek" unicode="&#x104;" horiz-adv-x="1051" 
d="M917 661l92 -661h-35q23 -6 23 -36q1 -37 1 -54v-99q0 -15 20 -15t20 15v4l118 25v-29q0 -91 -119 -94q-10 -1 -20 -1q-19 0 -34 2q-103 8 -103 93v99q0 50 28 70q13 17 37 20h-221l-55 395h-289l-56 -395h-284l92 658l199 1204h388zM416 661h216l-78 557h-60z" />
    <glyph glyph-name="aogonek" unicode="&#x105;" horiz-adv-x="1051" 
d="M917 661l92 -661h-35q23 -6 23 -36q1 -37 1 -54v-99q0 -15 20 -15t20 15v4l118 25v-29q0 -91 -119 -94q-10 -1 -20 -1q-19 0 -34 2q-103 8 -103 93v99q0 50 28 70q13 17 37 20h-221l-55 395h-289l-56 -395h-284l92 658l199 1204h388zM416 661h216l-78 557h-60z" />
    <glyph glyph-name="Cacute" unicode="&#x106;" horiz-adv-x="1023" 
d="M846 2115l-274 -177h-222l274 253zM921 361q0 -392 -406 -393q-405 0 -405 393v1140q0 392 405 392q406 0 406 -392v-251l-282 50v201q0 126 -123 127h-2q-122 0 -122 -127v-1140q0 -127 123 -127q124 0 124 127v201l282 50v-251z" />
    <glyph glyph-name="cacute" unicode="&#x107;" horiz-adv-x="1023" 
d="M846 2115l-274 -177h-222l274 253zM921 361q0 -392 -406 -393q-405 0 -405 393v1140q0 392 405 392q406 0 406 -392v-251l-282 50v201q0 126 -123 127h-2q-122 0 -122 -127v-1140q0 -127 123 -127q124 0 124 127v201l282 50v-251z" />
    <glyph glyph-name="Ccaron" unicode="&#x10c;" horiz-adv-x="1023" 
d="M359 2166l135 -68l136 68l254 25l-258 -252h-264l-256 252zM921 361q0 -392 -406 -393q-405 0 -405 393v1140q0 392 405 392q406 0 406 -392v-251l-282 50v201q0 126 -123 127h-2q-122 0 -122 -127v-1140q0 -127 123 -127q124 0 124 127v201l282 50v-251z" />
    <glyph glyph-name="ccaron" unicode="&#x10d;" horiz-adv-x="1023" 
d="M359 2166l135 -68l136 68l254 25l-258 -252h-264l-256 252zM921 361q0 -392 -406 -393q-405 0 -405 393v1140q0 392 405 392q406 0 406 -392v-251l-282 50v201q0 126 -123 127h-2q-122 0 -122 -127v-1140q0 -127 123 -127q124 0 124 127v201l282 50v-251z" />
    <glyph glyph-name="Dcaron" unicode="&#x10e;" horiz-adv-x="1053" 
d="M399 2166l135 -68l136 68l254 25l-258 -252h-264l-256 252zM130 1862l436 -1q377 0 377 -391v-1079q0 -390 -377 -390q-6 0 -18 -1h-418v1862zM413 1597v-1332h124l123 126v1079l-123 127h-124z" />
    <glyph glyph-name="dcaron" unicode="&#x10f;" horiz-adv-x="1053" 
d="M399 2166l135 -68l136 68l254 25l-258 -252h-264l-256 252zM130 1862l436 -1q377 0 377 -391v-1079q0 -390 -377 -390q-6 0 -18 -1h-418v1862zM413 1597v-1332h124l123 126v1079l-123 127h-124z" />
    <glyph glyph-name="Ecaron" unicode="&#x11a;" horiz-adv-x="944" 
d="M360 2166l135 -68l136 68l254 25l-258 -252h-264l-256 252zM130 1862h732l-50 -265h-400v-533h337v-266h-337v-533h400l50 -265h-732v1862z" />
    <glyph glyph-name="ecaron" unicode="&#x11b;" horiz-adv-x="944" 
d="M360 2166l135 -68l136 68l254 25l-258 -252h-264l-256 252zM130 1862h732l-50 -265h-400v-533h337v-266h-337v-533h400l50 -265h-732v1862z" />
    <glyph glyph-name="Lslash" unicode="&#x141;" horiz-adv-x="1200" 
d="M708 1023v-758h400l50 -265h-733v596l-163 -248l-132 43l295 447v1024l283 -50v-546l164 248l132 -43z" />
    <glyph glyph-name="lslash" unicode="&#x142;" horiz-adv-x="1200" 
d="M708 1023v-758h400l50 -265h-733v596l-163 -248l-132 43l295 447v1024l283 -50v-546l164 248l132 -43z" />
    <glyph glyph-name="Nacute" unicode="&#x143;" 
d="M866 2115l-274 -177h-222l274 253zM130 1862l283 -50l268 -1030v1030l262 50v-1862l-283 50l-258 996v-996l-272 -50v1862z" />
    <glyph glyph-name="nacute" unicode="&#x144;" 
d="M866 2115l-274 -177h-222l274 253zM130 1862l283 -50l268 -1030v1030l262 50v-1862l-283 50l-258 996v-996l-272 -50v1862z" />
    <glyph glyph-name="Ncaron" unicode="&#x147;" 
d="M400 2166l135 -68l136 68l254 25l-258 -252h-264l-256 252zM130 1862l283 -50l268 -1030v1030l262 50v-1862l-283 50l-258 996v-996l-272 -50v1862z" />
    <glyph glyph-name="ncaron" unicode="&#x148;" 
d="M400 2166l135 -68l136 68l254 25l-258 -252h-264l-256 252zM130 1862l283 -50l268 -1030v1030l262 50v-1862l-283 50l-258 996v-996l-272 -50v1862z" />
    <glyph glyph-name="OE" unicode="&#x152;" horiz-adv-x="1330" 
d="M515 -32q-405 0 -405 393v1140q0 392 405 392q114 0 196 -31h537l-50 -265h-400v-533h337v-266h-337v-533h400l50 -265h-535q-83 -32 -198 -32zM489 1600l-97 -100v-1140l95 -99h29v1339h-27z" />
    <glyph glyph-name="oe" unicode="&#x153;" horiz-adv-x="1330" 
d="M515 -32q-405 0 -405 393v1140q0 392 405 392q114 0 196 -31h537l-50 -265h-400v-533h337v-266h-337v-533h400l50 -265h-535q-83 -32 -198 -32zM489 1600l-97 -100v-1140l95 -99h29v1339h-27z" />
    <glyph glyph-name="Rcaron" unicode="&#x158;" horiz-adv-x="1044" 
d="M387 2166l135 -68l136 68l254 25l-258 -252h-264l-256 252zM130 1862l411 -1q376 0 376 -391v-280q0 -246 -222 -324l317 -866l-309 50l-255 769l-36 -5v-764l-282 -50v1862zM412 1597v-533h65q59 0 81 7l77 119v280l-123 127h-100z" />
    <glyph glyph-name="rcaron" unicode="&#x159;" horiz-adv-x="1044" 
d="M387 2166l135 -68l136 68l254 25l-258 -252h-264l-256 252zM130 1862l411 -1q376 0 376 -391v-280q0 -246 -222 -324l317 -866l-309 50l-255 769l-36 -5v-764l-282 -50v1862zM412 1597v-533h65q59 0 81 7l77 119v280l-123 127h-100z" />
    <glyph glyph-name="Sacute" unicode="&#x15a;" horiz-adv-x="1033" 
d="M846 2115l-274 -177h-222l274 253zM110 1501q0 392 405 392q406 0 406 -392v-251l-282 50v201q0 126 -123 127h-2q-122 0 -122 -127v-169q0 -124 265 -305q264 -180 264 -431v-235q0 -393 -405 -393q-406 1 -406 393v251l282 -50v-201q0 -127 124 -127q123 0 123 127v213
q0 135 -265 315q-264 180 -264 437v175z" />
    <glyph glyph-name="sacute" unicode="&#x15b;" horiz-adv-x="1033" 
d="M846 2115l-274 -177h-222l274 253zM110 1501q0 392 405 392q406 0 406 -392v-251l-282 50v201q0 126 -123 127h-2q-122 0 -122 -127v-169q0 -124 265 -305q264 -180 264 -431v-235q0 -393 -405 -393q-406 1 -406 393v251l282 -50v-201q0 -127 124 -127q123 0 123 127v213
q0 135 -265 315q-264 180 -264 437v175z" />
    <glyph glyph-name="Scedilla" unicode="&#x15e;" horiz-adv-x="1033" 
d="M110 1501q0 392 405 392q406 0 406 -392v-251l-282 50v201q0 126 -123 127h-2q-122 0 -122 -127v-169q0 -124 265 -305q264 -180 264 -431v-235q0 -365 -351 -391l-19 -56q37 20 69 20q31 0 57 -20q28 -20 28 -70v-99q0 -85 -103 -93q-15 -2 -34 -2q-10 0 -20 1
q-119 3 -119 94v29l118 -25v-4q0 -15 20 -15t20 15v99q0 17 -18 18h-2q-17 0 -24 -17h-113l25 126q-345 29 -345 390v251l282 -50v-201q0 -127 124 -127q123 0 123 127v213q0 135 -265 315q-264 180 -264 437v175z" />
    <glyph glyph-name="scedilla" unicode="&#x15f;" horiz-adv-x="1033" 
d="M110 1501q0 392 405 392q406 0 406 -392v-251l-282 50v201q0 126 -123 127h-2q-122 0 -122 -127v-169q0 -124 265 -305q264 -180 264 -431v-235q0 -365 -351 -391l-19 -56q37 20 69 20q31 0 57 -20q28 -20 28 -70v-99q0 -85 -103 -93q-15 -2 -34 -2q-10 0 -20 1
q-119 3 -119 94v29l118 -25v-4q0 -15 20 -15t20 15v99q0 17 -18 18h-2q-17 0 -24 -17h-113l25 126q-345 29 -345 390v251l282 -50v-201q0 -127 124 -127q123 0 123 127v213q0 135 -265 315q-264 180 -264 437v175z" />
    <glyph glyph-name="Scaron" unicode="&#x160;" horiz-adv-x="1033" 
d="M359 2166l135 -68l136 68l254 25l-258 -252h-264l-256 252zM110 1501q0 392 405 392q406 0 406 -392v-251l-282 50v201q0 126 -123 127h-2q-122 0 -122 -127v-169q0 -124 265 -305q264 -180 264 -431v-235q0 -393 -405 -393q-406 1 -406 393v251l282 -50v-201
q0 -127 124 -127q123 0 123 127v213q0 135 -265 315q-264 180 -264 437v175z" />
    <glyph glyph-name="scaron" unicode="&#x161;" horiz-adv-x="1033" 
d="M359 2166l135 -68l136 68l254 25l-258 -252h-264l-256 252zM110 1501q0 392 405 392q406 0 406 -392v-251l-282 50v201q0 126 -123 127h-2q-122 0 -122 -127v-169q0 -124 265 -305q264 -180 264 -431v-235q0 -393 -405 -393q-406 1 -406 393v251l282 -50v-201
q0 -127 124 -127q123 0 123 127v213q0 135 -265 315q-264 180 -264 437v175z" />
    <glyph glyph-name="uni0162" unicode="&#x162;" horiz-adv-x="913" 
d="M861 1862l-50 -265h-214v-1597h-127l-30 -86q37 20 69 20q31 0 57 -20q28 -20 28 -70v-99q0 -85 -103 -93q-15 -2 -34 -2q-10 0 -20 1q-119 3 -119 94v29l118 -25v-4q0 -15 20 -15t20 15v99q0 17 -18 18h-2q-17 0 -24 -17h-113l31 155h-36v1597h-214l-50 265h811z" />
    <glyph glyph-name="uni0163" unicode="&#x163;" horiz-adv-x="913" 
d="M861 1862l-50 -265h-214v-1597h-127l-30 -86q37 20 69 20q31 0 57 -20q28 -20 28 -70v-99q0 -85 -103 -93q-15 -2 -34 -2q-10 0 -20 1q-119 3 -119 94v29l118 -25v-4q0 -15 20 -15t20 15v99q0 17 -18 18h-2q-17 0 -24 -17h-113l31 155h-36v1597h-214l-50 265h811z" />
    <glyph glyph-name="Tcaron" unicode="&#x164;" horiz-adv-x="913" 
d="M320 2166l135 -68l136 68l254 25l-258 -252h-264l-256 252zM861 1862l-50 -265h-214v-1597h-283v1597h-214l-50 265h811z" />
    <glyph glyph-name="tcaron" unicode="&#x165;" horiz-adv-x="913" 
d="M320 2166l135 -68l136 68l254 25l-258 -252h-264l-256 252zM861 1862l-50 -265h-214v-1597h-283v1597h-214l-50 265h811z" />
    <glyph glyph-name="Uring" unicode="&#x16e;" horiz-adv-x="1053" 
d="M724 2138q0 -199 -199 -199q-198 0 -198 199q0 198 198 198q199 0 199 -198zM525 2218q-80 0 -80 -80q0 -81 80 -81q81 0 81 81q0 80 -81 80zM931 360q0 -391 -406 -392q-405 0 -405 392v1502l282 -50v-1452q0 -126 123 -126q124 0 124 126v1452l282 50v-1502z" />
    <glyph glyph-name="uring" unicode="&#x16f;" horiz-adv-x="1053" 
d="M724 2138q0 -199 -199 -199q-198 0 -198 199q0 198 198 198q199 0 199 -198zM525 2218q-80 0 -80 -80q0 -81 80 -81q81 0 81 81q0 80 -81 80zM931 360q0 -391 -406 -392q-405 0 -405 392v1502l282 -50v-1452q0 -126 123 -126q124 0 124 126v1452l282 50v-1502z" />
    <glyph glyph-name="Ydieresis" unicode="&#x178;" horiz-adv-x="1066" 
d="M208 2238h242v-242h-242v242zM604 2238h243v-242h-243v242zM339 1812l193 -676l193 676l299 50l-342 -1056l-8 -23v-783h-283v783l-9 23l-342 1056z" />
    <glyph glyph-name="Zacute" unicode="&#x179;" horiz-adv-x="880" 
d="M770 2115l-274 -177h-222l274 253zM781 1701l-383 -1436h350l50 -265h-718v161l383 1436h-320l-50 265h688v-161z" />
    <glyph glyph-name="zacute" unicode="&#x17a;" horiz-adv-x="880" 
d="M770 2115l-274 -177h-222l274 253zM781 1701l-383 -1436h350l50 -265h-718v161l383 1436h-320l-50 265h688v-161z" />
    <glyph glyph-name="Zdotaccent" unicode="&#x17b;" horiz-adv-x="880" 
d="M318 2181h243v-242h-243v242zM781 1701l-383 -1436h350l50 -265h-718v161l383 1436h-320l-50 265h688v-161z" />
    <glyph glyph-name="zdotaccent" unicode="&#x17c;" horiz-adv-x="880" 
d="M318 2181h243v-242h-243v242zM781 1701l-383 -1436h350l50 -265h-718v161l383 1436h-320l-50 265h688v-161z" />
    <glyph glyph-name="Zcaron" unicode="&#x17d;" horiz-adv-x="880" 
d="M303 2166l135 -68l136 68l254 25l-258 -252h-264l-256 252zM781 1701l-383 -1436h350l50 -265h-718v161l383 1436h-320l-50 265h688v-161z" />
    <glyph glyph-name="zcaron" unicode="&#x17e;" horiz-adv-x="880" 
d="M303 2166l135 -68l136 68l254 25l-258 -252h-264l-256 252zM781 1701l-383 -1436h350l50 -265h-718v161l383 1436h-320l-50 265h688v-161z" />
    <glyph glyph-name="smileface" unicode="&#x263a;" horiz-adv-x="1312" 
d="M1182 981q0 -218 -154 -372t-372 -154q-217 0 -371.5 154t-154.5 372q0 177 101 311q15 -19 41 -19h4q59 0 59 103v22q30 24 63 43v-152q0 -7 3 -7h36q4 0 4 7v173q33 15 69 25q-10 -110 -17 -198l2 -7l32 10q13 0 16 87v3h44l7 -75q0 -18 41 -25l4 3l-6 50
q-8 96 -14 171q18 1 37 1h6v-218l2 -7q41 8 41 19v187h2l40 -178q0 -21 44 -28l4 3q-38 166 -49 215q38 -6 74 -18v-193l2 -7q41 8 41 19v165q18 -8 36 -17v-148q0 -9 40 -19q3 0 3 7v134q18 -12 36 -26v-28q0 -96 60 -96h3q25 4 39 19q102 -134 102 -311zM1052 1770
q41 0 47 -87v-329q0 -41 -19 -62q-23 32 -52 61q-24 24 -50 44v283q6 90 47 90h27zM46 1285q40 479 46 479h52q7 0 47 -479l-3 -3q-42 6 -42 28q-5 72 -9 72h-37q-4 0 -11 -84q-3 -6 -42 -16q0 3 -1 3zM1144 1512q-20 179 -20 249q43 0 43 -28l25 -323h4v3q26 339 30 339
q14 6 40 6q-13 -185 -43 -476h-56q-5 0 -23 230zM822 1764q41 -12 41 -18v-190h36v190q0 6 42 18l1 -6v-335q-21 14 -43 26v39h-36v-22q-21 9 -43 16v276zM213 1662q0 108 52 108h18q38 0 50 -65q2 -21 2 -34v-59q0 -6 -4 -6q-39 8 -39 15v47q0 34 -16 34h-4q-16 0 -16 -34
v-37q0 -41 57 -106q22 -43 22 -93v-34q-23 -18 -44 -39q1 6 1 13v53q0 43 -61 115q-18 43 -18 91v31zM503 716l2 -3q34 4 34 9v112h1q26 -115 30 -115h21q3 0 30 118h1v-115q0 -5 32 -9q2 0 2 3v227q-10 0 -34 -5q-4 -2 -41 -150h-2q0 3 -37 142q0 13 -37 13h-2v-227z
M752 1752q38 9 41 12l2 -6q-54 -230 -54 -239q1 -3 5 -19q-41 6 -84 7v254h2q41 -5 41 -15v-190h2q41 194 45 196zM561 1596q-5 -62 -8 -98q-22 -4 -43 -11q11 123 26 274l4 3h52q5 0 27 -258l-42 -4q-8 94 -10 94h-6zM576 1246v-225l2 -3q34 4 34 8v90l1 3q3 -2 32 -88
q0 -11 37 -13l3 1l-37 104q26 13 26 45v24q0 20 -4 33q-9 24 -49 24h-42q-2 0 -3 -3zM362 1764h113q4 -1 4 -6q-5 -65 -9 -65h-29v-231q-22 -10 -43 -21v252h-29q-6 0 -11 68zM679 941v-225l1 -3q35 4 35 9v90h10q10 0 21 3q31 11 31 46v36q0 47 -53 47h-42q-3 0 -3 -3z
M731 1250q-28 -10 -28 -44v-26q0 -23 21 -45q44 -27 44 -53v-14q0 -17 -9 -21h-9q-12 0 -12 12v26q0 3 -34 9l-1 -3v-33q0 -45 49 -45h3q49 0 49 58v12q0 34 -21 52q-45 32 -45 47v24q0 11 14 13q16 0 16 -18v-21q0 -3 33 -7q3 0 3 3v19q0 57 -43 57h-15zM305 895v-15
q0 -22 15 -43q51 -34 51 -55v-26q0 -13 -12 -13h-6q-12 0 -12 16v21q0 4 -35 9l-1 -3v-28q0 -49 49 -49h3q49 0 49 49v27q0 24 -18 45q-47 32 -47 49v19q0 17 13 17h3q14 0 14 -17v-22q0 -3 32 -8q3 0 3 3v29q0 6 -1 16q-10 31 -42 31h-15q-43 0 -43 -52zM914 941v-225
q0 -3 3 -3h85l3 2q-4 31 -7 31h-48v66h39q3 0 3 3v27q0 2 -3 3h-39v65h46q5 0 9 31q0 3 -3 3h-85q-2 0 -3 -3zM393 1246v-225l1 -3q35 3 35 8v90h38q3 0 3 3v27q0 2 -3 3h-38v65h47q4 0 8 32q0 2 -3 3h-85q-3 0 -3 -3zM1038 1696q-3 0 -16 -28v-292q0 -4 14 -25h5q3 0 15 25
v292q-13 22 -13 28h-5zM823 1247q4 -33 8 -33h24v-193q0 -3 3 -3h29q3 0 3 3v193h24q5 0 9 32q0 2 -3 3h-94zM802 941v-225q0 -3 3 -3h85l3 2q-4 31 -9 31h-46v190q0 2 -34 8zM436 936v-220q0 -3 3 -3h30q3 0 3 3v227q-36 -3 -36 -7zM508 1240v-219q0 -3 3 -3h29q3 0 3 3
v225l-1 3q-34 -6 -34 -9zM276 1344q-24 -25 -45 -52q-18 26 -18 84v59l2 6q41 -12 41 -19v-43q0 -35 14 -35h6zM114 1596l-11 -143h31q-10 143 -15 143h-5zM622 1214q17 -14 17 -16v-28q0 -4 -9 -20h-18v64h10zM726 910q2 0 15 -16v-33q-8 -15 -10 -15h-16v64h11zM577 1502
q2 -22 4 -49h-30q0 8 2 45zM284 1353l7 6q-3 -15 -14 -15h-1q4 4 8 9z" />
    <glyph glyph-name="invsmileface" unicode="&#x263b;" horiz-adv-x="1312" 
d="M1106 981q0 186 -132 317q-15 16 -32 30v95q18 -12 36 -26v-28q0 -96 60 -96h3q25 4 39 19q102 -134 102 -311q0 -218 -154 -372t-372 -154q-217 0 -371.5 154t-154.5 372q0 177 101 311q15 -19 41 -19h4q59 0 59 103v22q30 24 63 43v-92q-31 -22 -60 -51
q-131 -131 -131 -317t131.5 -317.5t317.5 -131.5q187 0 318.5 131.5t131.5 317.5zM1052 1770q41 0 47 -87v-329q0 -41 -19 -62q-23 32 -52 61q-24 24 -50 44v283q6 90 47 90h27zM46 1285q40 479 46 479h52q7 0 47 -479l-3 -3q-42 6 -42 28q-5 72 -9 72h-37q-4 0 -11 -84
q-3 -6 -42 -16q0 3 -1 3zM1144 1512q-20 179 -20 249q43 0 43 -28l25 -323h4v3q26 339 30 339q14 6 40 6q-13 -185 -43 -476h-56q-5 0 -23 230zM822 1764q41 -12 41 -18v-190h36v190q0 6 42 18l1 -6v-335q-21 14 -43 26v39h-36v-22q-21 9 -43 16v276zM213 1662q0 108 52 108
h18q38 0 50 -65q2 -21 2 -34v-59q0 -6 -4 -6q-39 8 -39 15v47q0 34 -16 34h-4q-16 0 -16 -34v-37q0 -41 57 -106q22 -43 22 -93v-34q-23 -18 -44 -39q1 6 1 13v53q0 43 -61 115q-18 43 -18 91v31zM503 943h2q37 0 37 -13q37 -139 37 -142h2q37 148 41 150q24 5 34 5v-227
q0 -3 -2 -3q-32 4 -32 9v115h-1q-27 -118 -30 -118h-21q-4 0 -30 115h-1v-112q0 -5 -34 -9l-2 3v227zM752 1752q38 9 41 12l2 -6q-54 -230 -54 -239q1 -3 5 -19q-41 6 -84 7v254h2q41 -5 41 -15v-190h2q41 194 45 196zM561 1596q-5 -62 -8 -98q-22 -4 -43 -11q11 123 26 274
l4 3h52q5 0 27 -258l-42 -4q-8 94 -10 94h-6zM579 1249h42q40 0 49 -24q4 -13 4 -33v-24q0 -32 -26 -45l37 -104l-3 -1q-37 2 -37 13q-29 86 -32 88l-1 -3v-90q0 -4 -34 -8l-2 3v225q1 3 3 3zM362 1764h113q4 -1 4 -6q-5 -65 -9 -65h-29v-231q-22 -10 -43 -21v252h-29
q-6 0 -11 68zM682 944h42q53 0 53 -47v-36q0 -35 -31 -46q-11 -3 -21 -3h-10v-90q0 -5 -35 -9l-1 3v225q0 3 3 3zM746 1252h15q43 0 43 -57v-19q0 -3 -3 -3q-33 4 -33 7v21q0 18 -16 18q-14 -2 -14 -13v-24q0 -15 45 -47q21 -18 21 -52v-12q0 -58 -49 -58h-3q-49 0 -49 45
v33l1 3q34 -6 34 -9v-26q0 -12 12 -12h9q9 4 9 21v14q0 26 -44 53q-21 22 -21 45v26q0 34 28 44zM348 947h15q32 0 42 -31q1 -10 1 -16v-29q0 -3 -3 -3q-32 5 -32 8v22q0 17 -14 17h-3q-13 0 -13 -17v-19q0 -17 47 -49q18 -21 18 -45v-27q0 -49 -49 -49h-3q-49 0 -49 49v28
l1 3q35 -5 35 -9v-21q0 -16 12 -16h6q12 0 12 13v26q0 21 -51 55q-15 21 -15 43v15q0 52 43 52zM917 944h85q3 0 3 -3q-4 -31 -9 -31h-46v-65h39q3 -1 3 -3v-27q0 -3 -3 -3h-39v-66h48q3 0 7 -31l-3 -2h-85q-3 0 -3 3v225q1 3 3 3zM502 1404q58 21 123 25q4 -44 8 -94l6 -50
l-4 -3q-41 7 -41 25l-7 75h-44v-3q-3 -87 -16 -87l-32 -10l-2 7q4 53 9 115zM396 1249h85q3 -1 3 -3q-4 -32 -8 -32h-47v-65h38q3 -1 3 -3v-27q0 -3 -3 -3h-38v-90q0 -5 -35 -8l-1 3v225q0 3 3 3zM1038 1696q-3 0 -16 -28v-292q0 -4 14 -25h5q3 0 15 25v292q-13 22 -13 28
h-5zM826 1249h94q3 -1 3 -3q-4 -32 -9 -32h-24v-193q0 -3 -3 -3h-29q-3 0 -3 3v193h-24q-4 0 -8 33zM804 944q34 -6 34 -8v-190h46q5 0 9 -31l-3 -2h-85q-3 0 -3 3v225zM472 943v-227q0 -3 -3 -3h-30q-3 0 -3 3v220q0 4 36 7zM542 1249l1 -3v-225q0 -3 -3 -3h-29q-3 0 -3 3
v219q0 3 34 9zM662 1430q22 0 43 -3v-126q0 -11 -41 -19l-2 7v141zM721 1426q22 -3 44 -9q12 -52 30 -132l-4 -3q-44 7 -44 28zM276 1344q-24 -25 -45 -52q-18 26 -18 84v59l2 6q41 -12 41 -19v-43q0 -35 14 -35h6zM510 1487q-4 -43 -8 -83q-32 -11 -61 -28v86q33 15 69 25z
M820 1482v-81q-27 10 -55 16q-13 58 -19 83q38 -6 74 -18zM820 1401q22 -9 43 -20v-80q0 -11 -41 -19l-2 7v112zM398 1349q21 15 43 27v-87q0 -7 -4 -7h-36q-3 0 -3 7v60zM899 1449v-89q-18 11 -36 21v85q18 -8 36 -17zM656 1507h6v-77h-13q-12 0 -24 -1q-3 41 -6 77
q18 1 37 1zM114 1596l-11 -143h31q-10 143 -15 143h-5zM899 1360q22 -15 43 -32v-39q0 -7 -3 -7q-40 10 -40 19v59zM612 1214v-64h18q9 16 9 20v28q0 2 -17 16h-10zM715 910v-64h16q2 0 10 15v33q-13 16 -15 16h-11zM577 1502q2 -22 4 -49h-30q0 8 2 45zM705 1427v61h2
l14 -62q-8 0 -16 1zM284 1353l7 6q-3 -15 -14 -15h-1q4 4 8 9z" />
    <glyph glyph-name="uni0218" unicode="&#x218;" horiz-adv-x="1033" 
d="M395 -75h242v-199l-74 -253h-127l40 226h-81v226zM110 1501q0 392 405 392q406 0 406 -392v-251l-282 50v201q0 126 -123 127h-2q-122 0 -122 -127v-169q0 -124 265 -305q264 -180 264 -431v-235q0 -393 -405 -393q-406 1 -406 393v251l282 -50v-201q0 -127 124 -127
q123 0 123 127v213q0 135 -265 315q-264 180 -264 437v175z" />
    <glyph glyph-name="uni0219" unicode="&#x219;" horiz-adv-x="1033" 
d="M395 -75h242v-199l-74 -253h-127l40 226h-81v226zM110 1501q0 392 405 392q406 0 406 -392v-251l-282 50v201q0 126 -123 127h-2q-122 0 -122 -127v-169q0 -124 265 -305q264 -180 264 -431v-235q0 -393 -405 -393q-406 1 -406 393v251l282 -50v-201q0 -127 124 -127
q123 0 123 127v213q0 135 -265 315q-264 180 -264 437v175z" />
    <glyph glyph-name="uni021A" unicode="&#x21a;" horiz-adv-x="913" 
d="M335 -75h242v-199l-74 -253h-127l40 226h-81v226zM861 1862l-50 -265h-214v-1597h-283v1597h-214l-50 265h811z" />
    <glyph glyph-name="uni021B" unicode="&#x21b;" horiz-adv-x="913" 
d="M335 -75h242v-199l-74 -253h-127l40 226h-81v226zM861 1862l-50 -265h-214v-1597h-283v1597h-214l-50 265h811z" />
    <glyph glyph-name="Dcroat" unicode="&#x110;" horiz-adv-x="1115" 
d="M464 831v-566h124l123 126v1079l-123 127h-124v-565h98l-50 -201h-48zM182 1032v830l435 -1q376 0 376 -391v-1079q0 -390 -376 -390q-6 0 -18 -1h-417v831h-124l50 201h74z" />
    <glyph glyph-name="dcroat" unicode="&#x111;" horiz-adv-x="1115" 
d="M464 831v-566h124l123 126v1079l-123 127h-124v-565h98l-50 -201h-48zM182 1032v830l435 -1q376 0 376 -391v-1079q0 -390 -376 -390q-6 0 -18 -1h-417v831h-124l50 201h74z" />
    <glyph glyph-name="notequal" unicode="&#x2260;" horiz-adv-x="1138" 
d="M166 633l50 199h226l76 197h-352l50 200h379l246 634h175l-245 -634h200l-50 -200h-228l-76 -197h354l-50 -199h-381l-244 -633h-176l245 633h-199z" />
    <glyph glyph-name="equivalence" unicode="&#x2261;" horiz-adv-x="1047" 
d="M120 396l50 200h755l-50 -200h-755zM120 0l50 199h755l-50 -199h-755zM120 792l50 200h755l-50 -200h-755z" />
    <glyph glyph-name="intersection" unicode="&#x2229;" horiz-adv-x="1053" 
d="M933 0h-283v1449q0 133 -124 133q-123 0 -123 -133v-1449h-283v1449q0 413 406 413q407 -1 407 -413v-1449z" />
    </font>
</defs>
</svg>
