<svg xmlns="http://www.w3.org/2000/svg">
<defs>
<font id="AstakhovDishedSerif11.006" horiz-adv-x="1033" >
  <font-face 
    font-family="Astakhov Dished Serif 11.006"
    font-weight="400"
    font-stretch="normal"
    units-per-em="2048"
    panose-1="2 0 5 0 0 0 0 0 0 0"
    ascent="1638"
    descent="-410"
    x-height="1862"
    cap-height="1862"
    bbox="-200.669 -527.273 4477 2338"
    underline-thickness="150"
    underline-position="-292"
    unicode-range="U+001D-FFFC"
  />
<missing-glyph horiz-adv-x="1567" 
d="M1547 1862v-1862h-1527v1862h1527zM822 1445q20 -75 20 -146v-29q0 -85 -20 -152q3 -31 6 -38q20 -73 93 -73h50q85 18 85 99q-21 127 -21 176q0 55 21 169q0 105 -114 105q-120 0 -120 -111zM524 1512q21 -146 21 -222v-17q0 -82 -21 -216q0 -41 32 -41h15q35 0 35 58
v184h3q0 -6 73 -160q-3 0 -9 -38q6 -44 35 -44h15q27 0 32 38v458q0 31 -38 35h-3q-37 0 -41 -46q23 -103 23 -234v-44h-3q-87 175 -87 213v53q0 58 -41 58h-3q-38 -4 -38 -35zM936 1480q38 -4 38 -26q-21 -103 -21 -167v-11q0 -70 21 -164q0 -29 -32 -29h-9q-23 0 -29 35
q23 76 23 161q0 84 -23 169q0 26 32 32zM121 756v-6q15 -74 20 -169q-5 -97 -20 -170q0 -105 105 -105h15q93 0 111 88q-21 123 -21 178q0 42 -38 55q-15 -14 -20 -14q-41 -14 -41 -47q0 -30 32 -41l-3 -20v-68q3 -40 12 -40q0 -13 -32 -15q-38 2 -38 29v339q0 22 26 26h23
q10 0 21 -9q-23 -32 -23 -64q0 -44 40 -44h15q12 0 29 18l-3 15v20q0 20 21 53v11q-28 79 -111 79h-3q-117 0 -117 -99zM422 808q20 -154 20 -222q0 -96 -20 -227v-12q6 -32 29 -32h137q41 0 41 38v14q0 30 -44 30q-59 -12 -78 -12h-3v400q0 61 -41 61h-3q-35 0 -38 -38z
M606 814v-17q83 -140 117 -257q0 -44 -21 -184q5 -41 32 -41h12q38 0 38 49v252q4 20 38 87q53 89 53 108q0 31 -41 35h-6q-15 0 -32 -20q-52 -143 -59 -146q0 12 -23 61q-26 105 -67 105q-41 -4 -41 -32zM930 805q20 -123 20 -204v-41q0 -85 -20 -201q0 -33 23 -44h18
q41 0 41 44v184h29q12 0 32 2q79 32 79 82q-20 49 -20 67q0 35 23 62l-6 29q-26 61 -99 61h-85q-30 0 -35 -41zM1216 808q21 -153 21 -225q0 -80 -21 -230q0 -38 32 -38h15q35 0 35 70v158h88q0 -59 -21 -184q4 -44 32 -44h12q38 0 38 41v441q0 49 -35 49h-12q-29 0 -35 -41

<glyph glyph-name=".notdef" horiz-adv-x="1567" 
d="M1547 1862v-1862h-1527v1862h1527zM822 1445q20 -75 20 -146v-29q0 -85 -20 -152q3 -31 6 -38q20 -73 93 -73h50q85 18 85 99q-21 127 -21 176q0 55 21 169q0 105 -114 105q-120 0 -120 -111zM524 1512q21 -146 21 -222v-17q0 -82 -21 -216q0 -41 32 -41h15q35 0 35 58
v184h3q0 -6 73 -160q-3 0 -9 -38q6 -44 35 -44h15q27 0 32 38v458q0 31 -38 35h-3q-37 0 -41 -46q23 -103 23 -234v-44h-3q-87 175 -87 213v53q0 58 -41 58h-3q-38 -4 -38 -35zM936 1480q38 -4 38 -26q-21 -103 -21 -167v-11q0 -70 21 -164q0 -29 -32 -29h-9q-23 0 -29 35
q23 76 23 161q0 84 -23 169q0 26 32 32zM121 756v-6q15 -74 20 -169q-5 -97 -20 -170q0 -105 105 -105h15q93 0 111 88q-21 123 -21 178q0 42 -38 55q-15 -14 -20 -14q-41 -14 -41 -47q0 -30 32 -41l-3 -20v-68q3 -40 12 -40q0 -13 -32 -15q-38 2 -38 29v339q0 22 26 26h23
q10 0 21 -9q-23 -32 -23 -64q0 -44 40 -44h15q12 0 29 18l-3 15v20q0 20 21 53v11q-28 79 -111 79h-3q-117 0 -117 -99zM422 808q20 -154 20 -222q0 -96 -20 -227v-12q6 -32 29 -32h137q41 0 41 38v14q0 30 -44 30q-59 -12 -78 -12h-3v400q0 61 -41 61h-3q-35 0 -38 -38z
M606 814v-17q83 -140 117 -257q0 -44 -21 -184q5 -41 32 -41h12q38 0 38 49v252q4 20 38 87q53 89 53 108q0 31 -41 35h-6q-15 0 -32 -20q-52 -143 -59 -146q0 12 -23 61q-26 105 -67 105q-41 -4 -41 -32zM930 805q20 -123 20 -204v-41q0 -85 -20 -201q0 -33 23 -44h18
q41 0 41 44v184h29q12 0 32 2q79 32 79 82q-20 49 -20 67q0 35 23 62l-6 29q-26 61 -99 61h-85q-30 0 -35 -41zM1216 808q21 -153 21 -225q0 -80 -21 -230q0 -38 32 -38h15q35 0 35 70v158h88q0 -59 -21 -184q4 -44 32 -44h12q38 0 38 41v441q0 49 -35 49h-12q-29 0 -35 -41
q21 -134 21 -186h-88v160q0 67 -41 67h-3q-35 0 -38 -38zM1044 770q20 0 35 -8q-20 -41 -20 -56v-20q0 -23 20 -53v-3q0 -8 -29 -11q-38 0 -38 11v129q0 9 32 11z" />
    <glyph glyph-name="NULL" horiz-adv-x="0" 
 />
    <glyph glyph-name="NULL" horiz-adv-x="0" 
 />
    <glyph glyph-name="nonmarkingreturn" horiz-adv-x="508" 
 />
    <glyph glyph-name="space" unicode=" " horiz-adv-x="508" 
 />
    <glyph glyph-name="space" unicode="&#xa0;" horiz-adv-x="508" 
 />
    <glyph glyph-name="exclam" unicode="!" horiz-adv-x="565" 
d="M443 1738v-1111q0 -124 -163 -124q-157 0 -160 118v6q173 556 0 1111q0 124 140 124q183 0 183 -124zM443 66q0 -66 -161 -66q-162 0 -162 66q56 97 0 191q0 66 162 66q161 0 161 -66q-56 -89 0 -191z" />
    <glyph glyph-name="quotedbl" unicode="&#x22;" horiz-adv-x="968" 
d="M790 1647v-214q0 -122 -36 -122q-54 42 -108 0q-36 0 -36 122v214q-58 16 -58 58q51 98 0 193q0 67 148 67t148 -67q-51 -90 0 -193q0 -42 -58 -58zM358 1647v-214q0 -122 -36 -122q-54 42 -108 0q-36 0 -36 122v214q-58 16 -58 58q51 98 0 193q0 67 148 67t148 -67
q-51 -90 0 -193q0 -42 -58 -58z" />
    <glyph glyph-name="numbersign" unicode="#" horiz-adv-x="1349" 
d="M1241 1650l-105 -428q13 3 26 5q105 0 105 -63q0 -82 -105 -82h-60l-63 -257q40 6 81 13q105 0 105 -63q0 -82 -105 -82h-113l-135 -553q-41 -169 -179 -134q-133 34 -97 195l2 9q109 237 187 483h-259l-135 -553q-41 -169 -179 -134q-133 34 -97 195l3 9
q109 237 187 483h-120q-105 0 -105 73q0 70 99 72h6q78 -13 157 -22q36 132 64 266h-179q-105 0 -105 73q0 70 99 72h6q101 -17 202 -27q45 256 58 520q41 169 159 139q155 -40 114 -209l-113 -462q131 -2 262 8q46 258 59 524q41 169 159 139q155 -40 114 -209zM818 804
q39 138 68 278h-265l-69 -281q133 -5 266 3z" />
    <glyph glyph-name="dollar" unicode="$" horiz-adv-x="1053" 
d="M667 -60q0 -170 -142 -170q-137 0 -140 161v9q7 36 13 72q-40 10 -71 27q-167 71 -207 274q109 142 67 298q40 77 146 69q125 -11 141 -119q6 -53 -6 -104q-16 -74 -69 -144q0 -49 125 -49q125 1 125 128q-20 107 -48 216q-28 90 -276 354v1q-118 107 -146 252
q-4 14 -15 94q-17 119 -44 225q-1 317 267 377q-1 6 -2 13v9q3 161 140 161q142 0 142 -170v-16q31 -9 57 -22q167 -71 207 -274q-109 -142 -67 -298q-40 -77 -146 -69q-125 11 -141 119q-6 53 6 104q16 74 69 144q0 49 -125 49q-125 -1 -125 -128q20 -107 48 -216
q28 -90 127 -197q98 -107 148 -157l1 -1q118 -107 146 -252q4 -14 15 -94q17 -119 44 -225q1 -315 -264 -377v-74z" />
    <glyph glyph-name="percent" unicode="%" horiz-adv-x="1697" 
d="M1570 233q0 -232 -237 -232q-238 1 -238 232q83 359 0 674q0 232 238 232q237 0 237 -232q-83 -315 0 -674zM1405 907q0 75 -72 75h-1q-72 0 -72 -75q89 -315 0 -674q0 -75 72 -75q73 0 73 75q-89 359 0 674zM600 1069q0 -232 -237 -232q-238 1 -238 232q83 359 0 674
q0 232 238 232q237 0 237 -232q-83 -315 0 -674zM435 1743q0 75 -72 75h-1q-72 0 -72 -75q89 -315 0 -674q0 -75 72 -75q73 0 73 75q-89 359 0 674zM1169 1650l-369 -1510q-41 -169 -179 -134q-133 34 -97 195l3 9q331 717 369 1510q41 169 159 139q155 -40 114 -209z" />
    <glyph glyph-name="ampersand" unicode="&#x26;" horiz-adv-x="1183" 
d="M650 819q0 54 -123 54h-2q-122 0 -122 -54q151 -228 0 -486q0 -54 123 -54q124 0 124 54q-151 258 0 486zM403 1286q0 -94 77 -125q20 -8 46 -9h125q14 134 140 134h1q126 0 139 -134h21q161 -3 161 -139v-1q0 -136 -161 -139h-19q-141 -282 0 -460q0 -396 -345 -411
q-34 -1 -65 -1q-61 0 -106 5q-297 35 -297 407q141 178 0 327q0 193 155 273q-155 80 -155 273q141 148 0 295q0 383 317 410q43 3 88 3q38 0 78 -2q295 -20 326 -333q1 -162 -137 -162h-1q-138 0 -141 161l-70 54q-24 4 -51 4q-23 0 -48 -3q-78 -9 -78 -132
q141 -147 0 -295z" />
    <glyph glyph-name="quotesingle" unicode="'" horiz-adv-x="536" 
d="M358 1647v-214q0 -122 -36 -122q-54 42 -108 0q-36 0 -36 122v214q-58 16 -58 58q51 98 0 193q0 67 148 67t148 -67q-51 -90 0 -193q0 -42 -58 -58z" />
    <glyph glyph-name="parenleft" unicode="(" horiz-adv-x="705" 
d="M512 2110q161 -3 161 -111v-2q0 -108 -161 -110q-110 -128 -110 -955.5t110 -954.5q161 -3 161 -112v-1q0 -109 -161 -111q-392 5 -392 396q141 783 0 1566q0 390 392 395z" />
    <glyph glyph-name="parenright" unicode=")" horiz-adv-x="705" 
d="M191 1887q-161 2 -161 110v2q0 108 161 111q392 -5 392 -395q-141 -783 0 -1566q0 -391 -392 -396q-161 2 -161 111v1q0 109 161 112q110 127 110 954.5t-110 955.5z" />
    <glyph glyph-name="asterisk" unicode="*" horiz-adv-x="1012" 
d="M534 1662q125 133 187 161q33 17 61 17q67 0 49 -96q12 -36 62 -65q0 -81 -100 -96q-16 -2 -37 -2q-71 0 -202 26q167 -78 212 -127q38 -41 38 -80q0 -51 -89 -48q-26 -87 -66 -87q-55 0 -90 71q-31 62 -51 235q-23 -183 -56 -241q-35 -64 -89 -64q-38 0 -63 84
q-92 -2 -92 48q0 41 44 85q49 49 207 120q-130 -25 -201 -25q-27 0 -45 4q-94 18 -94 98q50 27 61 61q-20 98 48 98q30 0 68 -20q62 -32 179 -159q-88 160 -96 227q-1 12 -1 23q0 104 126 55h4q125 50 125 -49q0 -16 -3 -34q-12 -70 -96 -220z" />
    <glyph glyph-name="plus" unicode="+" horiz-adv-x="1047" 
d="M408 1265q0 122 48 122q69 -42 137 0q48 0 48 -122v-166h165q122 0 122 -48q-42 -64 0 -137q0 -48 -122 -48h-165v-166q0 -122 -48 -122q-64 42 -137 0q-48 0 -48 122v166h-167q-122 0 -122 48q42 69 0 137q0 48 122 48h167v166z" />
    <glyph glyph-name="comma" unicode="," horiz-adv-x="591" 
d="M358 -294q-4 -18 -32 -30q-33 -7 -65 1q-31 7 -56 29q-19 23 -15 42l63 252q-133 6 -133 67q56 98 0 193q0 67 164 67q163 0 163 -67q-56 -90 0 -193z" />
    <glyph glyph-name="hyphen" unicode="-" horiz-adv-x="786" 
d="M172 841q-122 0 -122 48q42 70 0 139q0 48 122 48h442q122 0 122 -48q-42 -65 0 -139q0 -48 -122 -48h-442z" />
    <glyph glyph-name="hyphen" unicode="&#xad;" horiz-adv-x="786" 
d="M172 841q-122 0 -122 48q42 70 0 139q0 48 122 48h442q122 0 122 -48q-42 -65 0 -139q0 -48 -122 -48h-442z" />
    <glyph glyph-name="period" unicode="." horiz-adv-x="565" 
d="M447 67q0 -67 -163 -67q-164 0 -164 67q56 98 0 193q0 67 164 67q163 0 163 -67q-56 -90 0 -193z" />
    <glyph glyph-name="slash" unicode="/" horiz-adv-x="748" 
d="M712 1650l-369 -1510q-41 -169 -179 -134q-133 34 -97 195l3 9q331 717 369 1510q41 169 159 139q155 -40 114 -209z" />
    <glyph glyph-name="zero" unicode="0" horiz-adv-x="1053" 
d="M649 1501q0 127 -123 127h-2q-122 0 -122 -127v-1140q0 -127 123 -127q124 0 124 127v1140zM931 362q0 -393 -405 -393q-406 1 -406 393q141 569 0 1140q0 392 406 392q405 0 405 -392q-141 -571 0 -1140zM599 1420q0 109 -73 109h-1q-73 0 -73 -109q90 -489 0 -976
q0 -109 73 -109q74 0 74 109q-90 487 0 976z" />
    <glyph glyph-name="one" unicode="1" horiz-adv-x="1073" 
d="M771 0h-471q-170 0 -170 160q0 122 170 122q55 -11 111 -20q59 335 59 669q0 325 -56 650q-57 10 -114 -1q-170 0 -170 122q0 160 170 160h216q160 0 160 -170v-1427h1l94 17q170 0 170 -122q0 -160 -170 -160z" />
    <glyph glyph-name="two" unicode="2" horiz-adv-x="1190" 
d="M943 492q49 0 83.5 -72t34.5 -174t-34.5 -174t-83.5 -72q-32 0 -57 30q-41 -30 -113 -30h-235q-409 0 -408 360q27 106 44 225q11 80 15 94q28 145 147 252l1 1q50 50 148 157q99 107 127 197q28 109 48 216q0 127 -125 128q-125 0 -125 -49q53 -70 69 -144
q12 -51 6 -104q-16 -108 -141 -119q-107 -8 -147 69q42 156 -67 298q40 203 208 274q73 39 197 39q409 0 408 -391q-27 -106 -44 -225q-11 -80 -15 -94q-28 -145 -147 -252v-1q-248 -264 -276 -354q-28 -109 -48 -216q0 -96 125 -103q118 17 235 41q29 0 54 -4q6 71 32 125
q35 72 84 72z" />
    <glyph glyph-name="three" unicode="3" horiz-adv-x="1073" 
d="M941 360q1 -391 -407 -391q-124 0 -197 39q-167 71 -207 274q109 142 67 298q40 77 146 69q125 -11 141 -119q6 -53 -6 -104q-16 -74 -69 -144q0 -49 125 -48q125 0 125 127v513q-165 2 -165 160q0 120 165 122v362q0 127 -125 128q-125 0 -125 -49q53 -70 69 -144
q12 -51 6 -104q-16 -108 -141 -119q-106 -8 -146 69q42 156 -67 298q40 203 207 274q73 39 197 39q408 0 407 -391q-30 -113 -46 -267q-17 -163 -108 -238q91 -76 100 -272q8 -197 54 -382z" />
    <glyph glyph-name="four" unicode="4" horiz-adv-x="1073" 
d="M866 118q0 -49 -72 -83.5t-173 -34.5h-7q-98 1 -168 34q-72 35 -72 84t72 83q15 8 33 14v241h-251q-176 0 -176 160q0 12 62 271q52 225 125 520l79 316q34 136 134 139h187q122 0 122 -170q-75 -380 -75 -761q0 -108 6 -215q67 7 148 22q176 0 176 -122
q0 -160 -176 -160h-125q15 -119 36 -238q23 -7 43 -17q72 -34 72 -83zM343 718q64 -6 136 -7v669q-90 -234 -105 -339.5t-31 -322.5z" />
    <glyph glyph-name="five" unicode="5" horiz-adv-x="1073" 
d="M199 1108q-5 310 -69 555l3 43q18 156 173 156h457q176 0 176 -160q0 -122 -176 -122q-121 23 -213 27l-42 1q-53 0 -96 -6v-333q53 6 124 6q405 0 405 -365q-70 -121 -70 -271q0 -149 70 -327q0 -342 -407 -343q-165 0 -269.5 79.5t-134.5 233.5q79 102 79 212
q0 43 -12 86q36 70 126 70l19 -1q74 -6 108.5 -45t34.5 -94q0 -39 -19 -97t-58 -116q0 -49 126 -57q125 0 125 57q-40 62 -57.5 124t-17.5 158q0 186 75 379q0 57 -124 57q-43 0 -71 -7q14 -50 14 -96l-2 -33q-16 -108 -135 -119q-128 11 -143 119l-2 35z" />
    <glyph glyph-name="six" unicode="6" horiz-adv-x="1073" 
d="M943 312q0 -343 -406 -343q-76 0 -130 18q-278 57 -277 379q64 245 69 555v27q-5 310 -69 555q-1 391 408 391q124 0 197 -39q168 -71 208 -274q-109 -142 -67 -298q-40 -77 -147 -69q-125 11 -141 119q-6 53 6 104q16 74 69 144q0 49 -125 48q-125 0 -125 -127v-393
q53 6 124 6q406 0 406 -365q-141 -163 0 -438zM592 457q-31 161 68 335q0 57 -124 57q-120 0 -123 -54v-504q0 -57 122 -57h2q123 0 123 57q-52 80 -68 166z" />
    <glyph glyph-name="seven" unicode="7" horiz-adv-x="1073" 
d="M381 931q0 49 72 83q57 28 134 33q58 272 80 553q-64 11 -156 7t-214 -27q-176 0 -176 122q0 160 176 160h485q176 0 176 -160q0 -19 -163 -685l6 -3q72 -34 72 -83t-72 -84q-25 -11 -53 -19q-64 -264 -152 -617q12 -5 23 -10q72 -34 72 -83t-72 -83.5t-174 -34.5
t-174 34.5t-72 83.5t72 83q18 9 38 16q136 296 222 605q-43 8 -78 25q-72 35 -72 84z" />
    <glyph glyph-name="eight" unicode="8" horiz-adv-x="1073" 
d="M662 1581q0 49 -126 49h-2q-125 0 -125 -49q155 -206 0 -440q0 -49 126 -49q127 0 127 49q-155 234 0 440zM662 720q0 49 -126 49h-2q-125 0 -125 -49q155 -206 0 -440q0 -49 126 -49q127 0 127 49q-155 234 0 440zM941 362q0 -244 -132 -333q-83 -56 -259 -60h-24
q-156 0 -242 48q-154 83 -154 345q141 152 0 339q0 184 155 260q-155 76 -155 260q141 154 0 281q0 270 165 351q114 57 235 57q112 0 228 -49q183 -76 183 -359q-141 -127 0 -281q0 -184 -155 -260q155 -76 155 -260q-141 -187 0 -339z" />
    <glyph glyph-name="nine" unicode="9" horiz-adv-x="1073" 
d="M130 1551q0 343 406 343q76 0 130 -18q278 -57 277 -379q-64 -245 -69 -555v-27q5 -310 69 -555q1 -391 -408 -391q-124 0 -197 39q-168 71 -208 274q109 142 67 298q40 77 147 69q125 -11 141 -119q6 -53 -6 -104q-16 -74 -69 -144q0 -49 125 -48q125 0 125 127v393
q-53 -6 -124 -6q-406 0 -406 365q141 163 0 438zM481 1406q31 -161 -68 -335q0 -57 124 -57q120 0 123 54v504q0 57 -122 57h-2q-123 0 -123 -57q52 -80 68 -166z" />
    <glyph glyph-name="colon" unicode=":" horiz-adv-x="564" 
d="M447 67q0 -67 -163 -67q-164 0 -164 67q56 98 0 193q0 67 164 67q163 0 163 -67q-56 -90 0 -193zM447 1072q0 -67 -163 -67q-164 0 -164 67q56 98 0 193q0 67 164 67q163 0 163 -67q-56 -90 0 -193z" />
    <glyph glyph-name="semicolon" unicode=";" horiz-adv-x="591" 
d="M358 -294q-4 -18 -32 -30q-33 -7 -65 1q-31 7 -56 29q-19 23 -15 42l63 252q-133 6 -133 67q56 98 0 193q0 67 164 67q163 0 163 -67q-56 -90 0 -193zM447 1072q0 -67 -163 -67q-164 0 -164 67q56 98 0 193q0 67 164 67q163 0 163 -67q-56 -90 0 -193z" />
    <glyph glyph-name="semicolon" unicode="&#x37e;" horiz-adv-x="591" 
d="M358 -294q-4 -18 -32 -30q-33 -7 -65 1q-31 7 -56 29q-19 23 -15 42l63 252q-133 6 -133 67q56 98 0 193q0 67 164 67q163 0 163 -67q-56 -90 0 -193zM447 1072q0 -67 -163 -67q-164 0 -164 67q56 98 0 193q0 67 164 67q163 0 163 -67q-56 -90 0 -193z" />
    <glyph glyph-name="less" unicode="&#x3c;" horiz-adv-x="1185" 
d="M333 933q251 -21 654 -247q76 -47 56 -185v-4q-20 -136 -98 -95q-361 280 -744 345q-81 3 -81 185v2q0 182 81 185q383 65 744 344q78 40 98 -96v-3q20 -137 -56 -184q-403 -226 -654 -247z" />
    <glyph glyph-name="equal" unicode="=" horiz-adv-x="1047" 
d="M242 1029q-122 0 -122 40q42 60 0 119q0 40 122 40h561q122 0 122 -40q-42 -55 0 -119q0 -40 -122 -40h-561zM242 633q-122 0 -122 40q42 60 0 119q0 40 122 40h561q122 0 122 -40q-42 -55 0 -119q0 -40 -122 -40h-561z" />
    <glyph glyph-name="greater" unicode="&#x3e;" horiz-adv-x="1047" 
d="M181 1180q-76 47 -57 184l1 3q20 136 98 96q361 -279 744 -344q80 -3 80 -185v-2q0 -182 -80 -185q-383 -65 -744 -345q-78 -41 -98 95l-1 4q-19 138 57 185q403 226 654 247q-251 21 -654 247z" />
    <glyph glyph-name="question" unicode="?" horiz-adv-x="1053" 
d="M325 931l1 1q50 50 148.5 157t126.5 197q28 109 48 216q0 127 -125 128q-125 0 -125 -49q53 -70 69 -144q12 -51 6 -104q-16 -108 -141 -119q-106 -8 -146 69q42 156 -67 298q40 203 207 274q73 39 197 39q408 0 407 -391q-27 -106 -44 -225q-11 -80 -15 -94
q-28 -145 -146 -252v-1q-145 -154 -215 -249v-1q-4 -161 -164 -161q-166 0 -165 171q29 137 143 240zM188 257q0 66 161 66q162 0 162 -66q-56 -94 0 -191q0 -66 -162 -66q-161 0 -161 66q56 102 0 191z" />
    <glyph glyph-name="at" unicode="@" horiz-adv-x="1483" 
d="M626 541q0 -38 81 -38h1q81 0 81 38v332q-2 35 -81 35q-82 0 -82 -37q65 -115 45 -221q-11 -56 -45 -109zM1164 619q2 161 93 161h1q91 0 93 -161v-41q0 -577 -610 -577q-611 0 -611 565q141 387 0 761q0 578 611 578q610 0 610 -565v-102h-1v-75q0 -258 -267 -258h-152
q7 -174 44 -315q1 -212 -182 -249q-36 -12 -86 -12q-267 0 -267 226q93 181 0 288q0 240 267 240q47 0 82 -4v259q0 84 -82 84q-83 0 -83 -32q35 -46 46 -95q8 -33 4 -68q-11 -71 -93 -79q-71 -5 -97 46q28 103 -44 196q26 134 137 180q48 26 130 26q269 0 268 -257
q-31 -119 -41 -260h149q81 0 81 84v177q0 391 -423 391q-424 0 -424 -404q141 -374 0 -761q0 -391 424 -391q423 0 423 403v41z" />
    <glyph glyph-name="A" unicode="A" horiz-adv-x="1255" 
d="M721 118q0 49 72 83q17 9 36 15l-36 179h-332l-37 -179q19 -7 36 -15q72 -34 72 -83t-72 -84q-69 -33 -164 -34h-16q-98 1 -168 34q-72 35 -72 84t72 83q20 10 42 17q241 700 302 1441q-2 0 -3 1q-72 35 -72 84t72 83q71 35 173 35h2q101 0 173 -34.5t72 -83.5t-72 -84
q-2 -1 -4 -1q61 -741 301 -1441q23 -7 43 -17q72 -34 72 -83t-72 -84q-70 -33 -168 -34h-6q-102 0 -174 34.5t-72 83.5zM508 661h238q-100 270 -119 774q-19 -504 -119 -774z" />
    <glyph glyph-name="B" unicode="B" horiz-adv-x="1145" 
d="M131 1744q0 49 72 83q56 27 129 33q11 2 24 2h311q335 0 372 -311v-3q-155 -203 -4 -435q-27 -123 -147 -182q120 -60 147 -183q-151 -232 4 -435v-3q-37 -310 -372 -310h-311q-13 0 -24 1q-73 7 -129 33q-72 35 -72 84t72 83q18 9 39 16q66 356 67 714q-1 357 -67 714
q-21 6 -39 15q-72 35 -72 84zM761 1548q0 49 -123 49h-2q-122 0 -122 -49v-435q0 -49 123 -49q124 0 124 49q-99 151 -68 291q16 74 68 144zM693 457q-31 140 68 291q0 49 -124 49q-123 0 -123 -49v-435q0 -49 122 -49h2q123 0 123 49q-52 70 -68 144z" />
    <glyph glyph-name="C" unicode="C" horiz-adv-x="1023" 
d="M392 360q0 -127 125 -127.5t125 48.5q-53 70 -69 144q-12 51 -6 104q16 108 141 119q106 8 146 -69q-42 -156 67 -298q-40 -203 -207 -274q-73 -39 -197 -39q-408 0 -407 391q64 245 69 555v33q-5 310 -69 555q-1 391 407 391q124 0 197 -39q167 -71 207 -274
q-109 -142 -67 -298q-40 -77 -146 -69q-125 11 -141 119q-6 53 6 104q16 74 69 144q0 49 -125 48.5t-125 -127.5v-1141z" />
    <glyph glyph-name="D" unicode="D" horiz-adv-x="1155" 
d="M130 118q0 49 72 83q18 9 39 16q133 714 0 1428q-21 6 -39 15q-72 35 -72 84t72 83q55 27 129 33q11 2 23 2h39l275 -1q377 0 377 -391q-151 -538 0 -1079q0 -390 -377 -390q-6 0 -18 -1h-295q-13 0 -24 1q-73 7 -129 33q-72 35 -72 84zM762 1470q0 127 -123 127h-124
v-1332h124q123 0 123 126q-151 541 0 1079z" />
    <glyph glyph-name="E" unicode="E" horiz-adv-x="1062" 
d="M692 1862q72 0 113 -29l1 1q6 7 12 12q5 3 9 6q4 2 9 4q8 4 16 5q2 1 5 1h5q5 0 9 -1q6 -1 12 -3q5 -1 9 -4l4 -2q2 -1 3 -2l6 -4l2 -2q11 -9 20 -23q4 -5 8 -11q1 -4 3 -7q3 -4 6 -10q0 -1 1 -3l4 -8l3 -7q5 -13 10 -27l4 -16q1 -5 2 -9l3 -13q5 -24 7 -50q0 -4 1 -9
v-10q1 -5 1 -10v-15q0 -18 -1 -35t-3 -33q-2 -14 -5 -27q0 -2 -1 -4q-2 -13 -6 -25l-2 -8q-1 -4 -3 -8l-3 -8l-4 -12q-3 -7 -7 -14q-1 -2 -1 -4q-8 -16 -17 -28q-5 -7 -10 -12q-5 -6 -10 -10q-9 -8 -19 -13q-5 -2 -10 -3q-1 0 -2 -1q-7 -1 -14 -1q-9 0 -17 2q-2 0 -5 1
q-18 7 -34 25q-9 10 -17 24l-4 6q-3 7 -7 14q-1 3 -3 7q-2 3 -3 7q-6 14 -10 28q-8 24 -12 50l-2 14q-2 11 -3 23v12q-24 -3 -53 -3q-140 28 -280 45v-592q115 16 230 39q170 0 170 -122q0 -160 -170 -160h-230v-553q140 17 280 45q29 0 53 -4q4 81 33 142q35 72 84 72
t83.5 -72t34.5 -174t-34.5 -174t-83.5 -72q-31 0 -57 29q-41 -29 -113 -29h-422q-137 0 -140 161q151 770 0 1531q0 170 122 170h440z" />
    <glyph glyph-name="F" unicode="F" horiz-adv-x="1168" 
d="M130 118q0 49 72 83q21 10 45 18q134 740 -11 1473q0 170 122 170h440q72 0 113 -29q26 29 57 29q49 0 83.5 -72t34.5 -174t-34.5 -174t-83.5 -72t-84 72q-29 60 -33 141q-24 -3 -53 -3q-140 28 -280 45v-592q115 16 230 39q170 0 170 -122q0 -160 -170 -160h-230v-576
q16 -5 32 -13q72 -34 72 -83t-72 -83.5t-174 -34.5t-174 34.5t-72 83.5z" />
    <glyph glyph-name="G" unicode="G" 
d="M517 -32q-408 0 -407 391q64 245 69 555v33q-5 310 -69 555q-1 391 407 391q124 0 197 -39q167 -71 207 -274q-109 -142 -67 -298q-40 -77 -146 -69q-125 11 -141 119q-6 53 6 104q16 74 69 144q0 49 -125 49q-125 -1 -125 -128v-1141q0 -127 125 -128q125 0 125 49
q-53 70 -36 337q0 62 7 123q-107 23 -107 139q0 114 105 138q50 17 98 70h2q135 -40 139 -206q-3 -25 -3 -57q0 -147 74 -544q-40 -203 -207 -274q-108 -38 -197 -39z" />
    <glyph glyph-name="H" unicode="H" horiz-adv-x="1283" 
d="M130 1744q0 49 72 83.5t174 34.5t174 -34.5t72 -83.5t-72 -84q-16 -7 -32 -13v-583h320q-10 289 -64 579q-23 7 -43 17q-72 35 -72 84t72 83.5t174 34.5h7q97 -1 167 -35q72 -34 72 -83t-72 -84q-16 -7 -32 -13v-1433q16 -5 32 -13q72 -34 72 -83t-72 -83.5t-174 -34.5
h-7q-98 1 -167 34q-72 35 -72 84t72 83q20 10 43 17q54 290 64 580h-320v-584q16 -5 32 -13q72 -34 72 -83t-72 -84q-70 -33 -167 -34h-14q-98 1 -167 34q-72 35 -72 84t72 83q20 10 43 17q132 713 0 1425q-23 7 -43 17q-72 35 -72 84z" />
    <glyph glyph-name="I" unicode="I" horiz-adv-x="758" 
d="M130 118q0 49 72 83q20 10 43 17q132 713 0 1425q-23 7 -43 17q-72 35 -72 84t72 83q59 29 138 34q8 1 18 1h18q102 0 174 -34.5t72 -83.5t-72 -84q-16 -7 -32 -13v-1433q16 -5 32 -13q72 -34 72 -83t-72 -84q-70 -33 -167 -34h-14q-98 1 -167 34q-72 35 -72 84z" />
    <glyph glyph-name="J" unicode="J" horiz-adv-x="1080" 
d="M456 1744q0 49 72 83.5t174 34.5t174 -34.5t72 -83.5t-72 -84q-21 -10 -45 -17q-134 -655 10 -1402q-32 -89 -53 -125q-97 -148 -350 -148q-125 0 -199 39q-168 71 -209 271v3q66 85 77 175q3 25 1 50q45 88 158 67q111 -20 122 -117q-3 -16 -7 -31q-16 -74 -69 -144
q0 -49 124 -48q127 0 127 127v1286q-19 6 -35 14q-72 35 -72 84z" />
    <glyph glyph-name="K" unicode="K" horiz-adv-x="1269" 
d="M732 118q0 49 72 83q1 1 3 2q-82 259 -196 500l-93 -180v-309q16 -5 32 -13q72 -34 72 -83t-72 -83.5t-174 -34.5t-174 34.5t-72 83.5t72 83q20 10 43 17q132 713 0 1425q-23 7 -43 17q-72 35 -72 84t72 83q59 29 138 34q8 1 18 1h18q102 0 174 -34.5t72 -83.5t-72 -84
q-16 -7 -32 -13v-671q176 324 289 683q-2 0 -3 1q-72 35 -72 84t72 83q63 31 151 34q10 1 20 1h3q102 0 174 -34.5t72 -83.5t-72 -84q-27 -13 -58 -21l-6 -12l-359 -696l359 -696q3 -7 6 -13q31 -8 58 -21q72 -34 72 -83t-72 -83.5t-174 -34.5h-3q-10 -1 -21 0
q-87 4 -150 34q-72 35 -72 84z" />
    <glyph glyph-name="L" unicode="L" horiz-adv-x="1127" 
d="M130 1744q0 49 72 83q69 33 166 35h8q102 0 174 -34.5t72 -83.5t-72 -84q-16 -7 -33 -13v-1410q140 17 280 45q29 0 53 -4q4 81 33 142q35 72 84 72t83.5 -72t34.5 -174t-34.5 -174t-83.5 -72q-31 0 -57 29q-41 -29 -113 -29h-440q-122 0 -122 170q146 737 9 1474
q-22 7 -42 16q-72 35 -72 84z" />
    <glyph glyph-name="M" unicode="M" horiz-adv-x="1630" 
d="M1568 118q0 -49 -72 -84q-70 -33 -169 -34h-14q-96 1 -165 34q-72 35 -72 84t72 83q19 10 41 17q106 571 42 1142q-169 -576 -215 -1149q-3 -161 -166 -161h-2q-163 0 -166 161q-39 481 -164 965v-962q16 -5 32 -13q72 -34 72 -83t-72 -83.5t-174 -34.5h-7q-98 1 -167 34
q-72 35 -72 84t72 83q20 10 43 17q137 737 -9 1474q0 170 122 170h150q85 1 119 -122q203 -809 222 -1366q19 557 222 1366q33 122 118 122h113q160 0 160 -170v-1477q18 -6 34 -14q72 -34 72 -83z" />
    <glyph glyph-name="N" unicode="N" horiz-adv-x="1283" 
d="M130 1744q0 49 72 83.5t174 34.5h6q98 -1 168 -35q72 -34 72 -83t-72 -84q-16 -7 -33 -13v-188q120 -393 319 -750q6 111 6 222q0 357 -67 713q-22 7 -42 16q-72 35 -72 84t72 83q71 35 173 35h1q102 0 174 -34.5t72 -83.5t-72 -84q-16 -7 -33 -13v-1432q17 -6 33 -14
q72 -34 72 -83t-72 -83.5t-174 -34.5t-174 34.5t-72 83.5t72 83q20 10 42 17q8 39 14 78l-272 583v-664q17 -6 33 -14q72 -34 72 -83t-72 -84q-70 -33 -168 -34h-14q-97 1 -166 34q-72 35 -72 84t72 83q20 10 42 17q67 357 67 713q0 223 -26 445l-1 2l1 1q-16 132 -41 265
q-22 7 -42 16q-72 35 -72 84z" />
    <glyph glyph-name="O" unicode="O" 
d="M921 361q0 -393 -405 -393q-406 1 -406 393q141 570 0 1140q0 392 406 392q405 0 405 -392q-141 -570 0 -1140zM639 1501q0 127 -123 127h-2q-122 0 -122 -127q151 -570 0 -1140q0 -127 123 -127q124 0 124 127q-151 570 0 1140z" />
    <glyph glyph-name="P" unicode="P" horiz-adv-x="1105" 
d="M130 118q0 49 72 83q20 10 43 17q137 737 -9 1474v9q3 161 140 161h7l259 -1q236 0 324 -154q40 -62 51 -155v-3q-155 -203 -4 -435q-32 -224 -265 -296q-65 -20 -189 -20h-41v-584q16 -5 32 -13q72 -34 72 -83t-72 -83.5t-174 -34.5h-18q-10 0 -18 1q-79 5 -138 33
q-72 35 -72 84zM760 1549q0 49 -123 49h-2q-97 0 -117 -31v-471q19 -31 118 -31q124 0 124 49q-99 151 -68 291q16 74 68 144z" />
    <glyph glyph-name="Q" unicode="Q" 
d="M921 -103q161 -1 161 -112t-161 -113q-250 0 -344 47q-122 59 -125 239q-342 24 -342 392q151 618 0 1149q0 394 405 394q406 0 406 -394q-151 -531 0 -1149q0 -352 -309 -389q59 -111 309 -64zM639 1501q0 127 -123 127h-2q-122 0 -122 -127q151 -533 0 -1140
q0 -127 123 -127q124 0 124 127q-151 607 0 1140z" />
    <glyph glyph-name="R" unicode="R" horiz-adv-x="1224" 
d="M83 118q0 49 72 83q20 10 43 17q137 737 -9 1474v9q3 161 140 161l266 -1q236 0 324 -154q40 -62 51 -155v-3q-155 -203 -4 -435q-28 -198 -213 -277q94 -315 243 -615q30 -8 56 -21q72 -34 72 -83t-72 -83.5t-174 -34.5t-174 34.5t-72 83.5t72 83l8 4l-164 593h-77v-584
q16 -5 32 -13q72 -34 72 -83t-72 -83.5t-174 -34.5h-18q-10 0 -18 1q-79 5 -138 33q-72 35 -72 84zM713 1549q0 49 -123 49h-2q-97 0 -117 -31v-471q19 -31 118 -31q124 0 124 49q-99 151 -68 291q16 74 68 144z" />
    <glyph glyph-name="S" unicode="S" 
d="M862 678q4 -14 15 -94q17 -119 44 -225q1 -391 -407 -391q-124 0 -197 39q-167 71 -207 274q109 142 67 298q40 77 146 69q125 -11 141 -119q6 -53 -6 -104q-16 -74 -69 -144q0 -49 125 -49q125 1 125 128q-20 107 -48 216q-28 90 -276 354v1q-118 107 -146 252
q-4 14 -15 94q-17 119 -44 225q-1 391 407 391q124 0 197 -39q167 -71 207 -274q-109 -142 -67 -298q-40 -77 -146 -69q-125 11 -141 119q-6 53 6 104q16 74 69 144q0 49 -125 49q-125 -1 -125 -128q20 -107 48 -216q28 -90 126.5 -197t148.5 -157l1 -1q118 -107 146 -252z
" />
    <glyph glyph-name="T" unicode="T" horiz-adv-x="1149" 
d="M50 1616q0 102 34.5 174t83.5 72q31 0 56 -29q41 29 114 29h471q72 0 113 -29q26 29 57 29q49 0 83.5 -72t34.5 -174t-34.5 -174t-83.5 -72t-84 72q-29 60 -33 141q-24 -3 -53 -3l-94 17v-1382q17 -6 33 -14q72 -34 72 -83t-72 -83.5t-174 -34.5h-2q-101 0 -172 34
q-72 35 -72 84t72 83q19 10 41 17q130 691 8 1382q-56 -9 -111 -20q-29 0 -53 3q-5 -81 -34 -141q-34 -72 -83 -72t-83.5 72t-34.5 174z" />
    <glyph glyph-name="U" unicode="U" horiz-adv-x="1253" 
d="M120 1744q0 49 72 83q70 34 169 35h14q96 -2 165 -35q72 -34 72 -83t-72 -84q-16 -7 -33 -13v-1287q0 -126 123 -126q124 0 134 126q90 413 62 744q-27 296 -72 539q-23 7 -43 17q-72 35 -72 84t72 83q70 34 169 35h14q96 -2 165 -35q72 -34 72 -83t-72 -84
q-16 -7 -33 -13v-1287q0 -392 -396 -392q-392 1 -392 392q98 413 69 744q-27 296 -72 539q-23 7 -43 17q-72 35 -72 84z" />
    <glyph glyph-name="V" unicode="V" horiz-adv-x="1255" 
d="M967 1862q102 0 174 -34.5t72 -83.5t-72 -84q-20 -9 -43 -16q-240 -700 -301 -1441l4 -2q72 -34 72 -83t-72 -84q-69 -33 -165 -34h-18q-96 1 -165 34q-72 35 -72 84t72 83q1 1 3 2q-61 741 -302 1441q-22 7 -42 16q-72 35 -72 84t72 83.5t174 34.5h10q95 -2 164 -35
q72 -34 72 -83t-72 -84q-16 -7 -32 -13q181 -745 199 -1220q18 474 199 1220q-18 6 -33 13q-72 35 -72 84t72 83q68 33 164 35h10z" />
    <glyph glyph-name="W" unicode="W" horiz-adv-x="1630" 
d="M130 1744q0 49 72 83q69 34 167 35h14q97 -1 167 -35q72 -34 72 -83t-72 -84q-16 -7 -32 -13v-961q125 484 164 965q3 161 166 161h2q163 0 166 -161q46 -573 215 -1149q64 571 -42 1142q-22 7 -41 16q-72 35 -72 84t72 83.5t174 34.5t174 -34.5t72 -83.5t-72 -84
q-16 -8 -34 -14v-1476q0 -170 -160 -170h-113q-85 0 -118 122q-203 809 -222 1366q-19 -557 -222 -1366q-34 -123 -119 -122h-150q-122 0 -122 170q146 736 9 1473q-23 7 -43 17q-72 35 -72 84z" />
    <glyph glyph-name="X" unicode="X" horiz-adv-x="1257" 
d="M286 1862q102 0 174 -34.5t72 -83.5q0 -48 -70 -83l152 -398l150 398q-69 35 -69 83q0 49 72 83q67 33 161 35h13q102 0 174 -34.5t72 -83.5t-72 -84q-28 -13 -59 -21q-212 -341 -347 -709q135 -369 347 -707q31 -9 59 -22q72 -34 72 -83t-72 -83.5t-173 -34.5h-14
q-94 2 -161 34q-72 35 -72 84q0 48 69 82l-150 398l-152 -398q70 -34 70 -82q0 -49 -72 -84q-68 -32 -162 -34h-14q-101 0 -172 34q-72 35 -72 84t72 83q27 13 59 22q211 339 347 707q-136 368 -347 709q-32 8 -59 21q-72 35 -72 84t72 83.5t174 34.5z" />
    <glyph glyph-name="Y" unicode="Y" horiz-adv-x="1257" 
d="M1187 1744q0 -49 -72 -84q-28 -13 -59 -21q-171 -274 -291 -566v-858q16 -6 32 -14q72 -34 72 -83t-72 -84q-70 -33 -167 -34h-14q-98 1 -167 34q-72 35 -72 84t72 83q20 10 43 17q54 291 64 582l-38 130q-136 368 -347 709q-32 8 -59 21q-72 35 -72 84t72 83.5t174 34.5
h8q97 -2 166 -35q72 -34 72 -83q0 -48 -70 -83l152 -398l150 398q-69 35 -69 83q0 49 72 83q67 33 161 35h13q102 0 174 -34.5t72 -83.5z" />
    <glyph glyph-name="Z" unicode="Z" horiz-adv-x="1031" 
d="M50 1616q0 102 34.5 174t83.5 72q31 0 56 -29q41 29 114 29h470q170 0 170 -160q0 -18 -4 -32q-1 -31 -14 -68l-209 -590q68 -34 68 -81q0 -49 -72 -84q-29 -13 -62 -22l-201 -570q45 -7 125 -2q57 3 133 16q4 87 34 151q35 72 84 72t83.5 -72t34.5 -174q0 -30 -3 -57
q3 -13 3 -29q0 -103 -70 -140q-22 -20 -48 -20q-9 0 -17 2q-17 -2 -35 -2h-470q-170 0 -170 160q0 13 2 25q2 30 14 67l3 8q162 274 277 565q-35 8 -65 22q-72 35 -72 84t72 83q61 30 144 34q88 270 136 555q-53 9 -138 4.5t-203 -27.5q-29 0 -53 3q-5 -81 -34 -141
q-34 -72 -83 -72t-83.5 72t-34.5 174z" />
    <glyph glyph-name="bracketleft" unicode="[" horiz-adv-x="821" 
d="M628 2011q161 -3 161 -133v-1q0 -130 -161 -132h-94q-122 -1 -122 -127q151 -685 0 -1472q0 -127 123 -127h93q161 -3 161 -132v-2q0 -129 -161 -131h-93q-405 0 -405 392q141 787 0 1472q0 393 405 393h93z" />
    <glyph glyph-name="backslash" unicode="\" horiz-adv-x="748" 
d="M182 1859q118 30 160 -139q38 -793 369 -1510l2 -9q36 -161 -97 -195q-137 -35 -179 134l-369 1510q-41 169 114 209z" />
    <glyph glyph-name="bracketright" unicode="]" horiz-adv-x="821" 
d="M191 -247q-161 2 -161 131v2q0 129 161 132h93q123 0 123 127q-151 787 0 1472q0 127 -124 127h-92q-161 2 -161 132v1q0 130 161 133h93q405 0 405 -393q-141 -685 0 -1472q0 -392 -405 -392h-93z" />
    <glyph glyph-name="asciicircum" unicode="^" horiz-adv-x="1157" 
d="M579 1451l-162 -204q-185 -75 -262 -75q-55 0 -55 39q0 14 8 35q289 332 289 687l-1 48l183 -1l181 1l-1 -48q0 -355 290 -687q8 -21 8 -35q0 -39 -55 -39q-77 0 -262 75z" />
    <glyph glyph-name="underscore" unicode="_" horiz-adv-x="1032" 
d="M122 -318q-122 0 -122 44q42 63 0 125q0 44 122 44h788q122 0 122 -44q-42 -58 0 -125q0 -44 -122 -44h-788z" />
    <glyph glyph-name="grave" unicode="`" horiz-adv-x="756" 
d="M134 2074q-26 12 116 77q109 50 135 37q-17 -118 234 -227q48 -46 -251 0z" />
    <glyph glyph-name="a" unicode="a" horiz-adv-x="1255" 
d="M721 118q0 49 72 83q17 9 36 15l-36 179h-332l-37 -179q19 -7 36 -15q72 -34 72 -83t-72 -84q-69 -33 -164 -34h-16q-98 1 -168 34q-72 35 -72 84t72 83q20 10 42 17q241 700 302 1441q-2 0 -3 1q-72 35 -72 84t72 83q71 35 173 35h2q101 0 173 -34.5t72 -83.5t-72 -84
q-2 -1 -4 -1q61 -741 301 -1441q23 -7 43 -17q72 -34 72 -83t-72 -84q-70 -33 -168 -34h-6q-102 0 -174 34.5t-72 83.5zM508 661h238q-100 270 -119 774q-19 -504 -119 -774z" />
    <glyph glyph-name="b" unicode="b" horiz-adv-x="1145" 
d="M131 1744q0 49 72 83q56 27 129 33q11 2 24 2h311q335 0 372 -311v-3q-155 -203 -4 -435q-27 -123 -147 -182q120 -60 147 -183q-151 -232 4 -435v-3q-37 -310 -372 -310h-311q-13 0 -24 1q-73 7 -129 33q-72 35 -72 84t72 83q18 9 39 16q66 356 67 714q-1 357 -67 714
q-21 6 -39 15q-72 35 -72 84zM761 1548q0 49 -123 49h-2q-122 0 -122 -49v-435q0 -49 123 -49q124 0 124 49q-99 151 -68 291q16 74 68 144zM693 457q-31 140 68 291q0 49 -124 49q-123 0 -123 -49v-435q0 -49 122 -49h2q123 0 123 49q-52 70 -68 144z" />
    <glyph glyph-name="c" unicode="c" horiz-adv-x="1023" 
d="M392 360q0 -127 125 -127.5t125 48.5q-53 70 -69 144q-12 51 -6 104q16 108 141 119q106 8 146 -69q-42 -156 67 -298q-40 -203 -207 -274q-73 -39 -197 -39q-408 0 -407 391q64 245 69 555v33q-5 310 -69 555q-1 391 407 391q124 0 197 -39q167 -71 207 -274
q-109 -142 -67 -298q-40 -77 -146 -69q-125 11 -141 119q-6 53 6 104q16 74 69 144q0 49 -125 48.5t-125 -127.5v-1141z" />
    <glyph glyph-name="d" unicode="d" horiz-adv-x="1155" 
d="M130 118q0 49 72 83q18 9 39 16q133 714 0 1428q-21 6 -39 15q-72 35 -72 84t72 83q55 27 129 33q11 2 23 2h39l275 -1q377 0 377 -391q-151 -538 0 -1079q0 -390 -377 -390q-6 0 -18 -1h-295q-13 0 -24 1q-73 7 -129 33q-72 35 -72 84zM762 1470q0 127 -123 127h-124
v-1332h124q123 0 123 126q-151 541 0 1079z" />
    <glyph glyph-name="e" unicode="e" horiz-adv-x="1062" 
d="M692 1862q72 0 113 -29l1 1q6 7 12 12q5 3 9 6q4 2 9 4q8 4 16 5q2 1 5 1h5q5 0 9 -1q6 -1 12 -3q5 -1 9 -4l4 -2q2 -1 3 -2l6 -4l2 -2q11 -9 20 -23q4 -5 8 -11q1 -4 3 -7q3 -4 6 -10q0 -1 1 -3l4 -8l3 -7q5 -13 10 -27l4 -16q1 -5 2 -9l3 -13q5 -24 7 -50q0 -4 1 -9
v-10q1 -5 1 -10v-15q0 -18 -1 -35t-3 -33q-2 -14 -5 -27q0 -2 -1 -4q-2 -13 -6 -25l-2 -8q-1 -4 -3 -8l-3 -8l-4 -12q-3 -7 -7 -14q-1 -2 -1 -4q-8 -16 -17 -28q-5 -7 -10 -12q-5 -6 -10 -10q-9 -8 -19 -13q-5 -2 -10 -3q-1 0 -2 -1q-7 -1 -14 -1q-9 0 -17 2q-2 0 -5 1
q-18 7 -34 25q-9 10 -17 24l-4 6q-3 7 -7 14q-1 3 -3 7q-2 3 -3 7q-6 14 -10 28q-8 24 -12 50l-2 14q-2 11 -3 23v12q-24 -3 -53 -3q-140 28 -280 45v-592q115 16 230 39q170 0 170 -122q0 -160 -170 -160h-230v-553q140 17 280 45q29 0 53 -4q4 81 33 142q35 72 84 72
t83.5 -72t34.5 -174t-34.5 -174t-83.5 -72q-31 0 -57 29q-41 -29 -113 -29h-422q-137 0 -140 161q151 770 0 1531q0 170 122 170h440z" />
    <glyph glyph-name="f" unicode="f" horiz-adv-x="1168" 
d="M130 118q0 49 72 83q21 10 45 18q134 740 -11 1473q0 170 122 170h440q72 0 113 -29q26 29 57 29q49 0 83.5 -72t34.5 -174t-34.5 -174t-83.5 -72t-84 72q-29 60 -33 141q-24 -3 -53 -3q-140 28 -280 45v-592q115 16 230 39q170 0 170 -122q0 -160 -170 -160h-230v-576
q16 -5 32 -13q72 -34 72 -83t-72 -83.5t-174 -34.5t-174 34.5t-72 83.5z" />
    <glyph glyph-name="g" unicode="g" 
d="M517 -32q-408 0 -407 391q64 245 69 555v33q-5 310 -69 555q-1 391 407 391q124 0 197 -39q167 -71 207 -274q-109 -142 -67 -298q-40 -77 -146 -69q-125 11 -141 119q-6 53 6 104q16 74 69 144q0 49 -125 49q-125 -1 -125 -128v-1141q0 -127 125 -128q125 0 125 49
q-53 70 -36 337q0 62 7 123q-107 23 -107 139q0 114 105 138q50 17 98 70h2q135 -40 139 -206q-3 -25 -3 -57q0 -147 74 -544q-40 -203 -207 -274q-108 -38 -197 -39z" />
    <glyph glyph-name="h" unicode="h" horiz-adv-x="1283" 
d="M130 1744q0 49 72 83.5t174 34.5t174 -34.5t72 -83.5t-72 -84q-16 -7 -32 -13v-583h320q-10 289 -64 579q-23 7 -43 17q-72 35 -72 84t72 83.5t174 34.5h7q97 -1 167 -35q72 -34 72 -83t-72 -84q-16 -7 -32 -13v-1433q16 -5 32 -13q72 -34 72 -83t-72 -83.5t-174 -34.5
h-7q-98 1 -167 34q-72 35 -72 84t72 83q20 10 43 17q54 290 64 580h-320v-584q16 -5 32 -13q72 -34 72 -83t-72 -84q-70 -33 -167 -34h-14q-98 1 -167 34q-72 35 -72 84t72 83q20 10 43 17q132 713 0 1425q-23 7 -43 17q-72 35 -72 84z" />
    <glyph glyph-name="i" unicode="i" horiz-adv-x="758" 
d="M130 118q0 49 72 83q20 10 43 17q132 713 0 1425q-23 7 -43 17q-72 35 -72 84t72 83q59 29 138 34q8 1 18 1h18q102 0 174 -34.5t72 -83.5t-72 -84q-16 -7 -32 -13v-1433q16 -5 32 -13q72 -34 72 -83t-72 -84q-70 -33 -167 -34h-14q-98 1 -167 34q-72 35 -72 84z" />
    <glyph glyph-name="j" unicode="j" horiz-adv-x="1080" 
d="M456 1744q0 49 72 83.5t174 34.5t174 -34.5t72 -83.5t-72 -84q-21 -10 -45 -17q-134 -655 10 -1402q-32 -89 -53 -125q-97 -148 -350 -148q-125 0 -199 39q-168 71 -209 271v3q66 85 77 175q3 25 1 50q45 88 158 67q111 -20 122 -117q-3 -16 -7 -31q-16 -74 -69 -144
q0 -49 124 -48q127 0 127 127v1286q-19 6 -35 14q-72 35 -72 84z" />
    <glyph glyph-name="k" unicode="k" horiz-adv-x="1269" 
d="M732 118q0 49 72 83q1 1 3 2q-82 259 -196 500l-93 -180v-309q16 -5 32 -13q72 -34 72 -83t-72 -83.5t-174 -34.5t-174 34.5t-72 83.5t72 83q20 10 43 17q132 713 0 1425q-23 7 -43 17q-72 35 -72 84t72 83q59 29 138 34q8 1 18 1h18q102 0 174 -34.5t72 -83.5t-72 -84
q-16 -7 -32 -13v-671q176 324 289 683q-2 0 -3 1q-72 35 -72 84t72 83q63 31 151 34q10 1 20 1h3q102 0 174 -34.5t72 -83.5t-72 -84q-27 -13 -58 -21l-6 -12l-359 -696l359 -696q3 -7 6 -13q31 -8 58 -21q72 -34 72 -83t-72 -83.5t-174 -34.5h-3q-10 -1 -21 0
q-87 4 -150 34q-72 35 -72 84z" />
    <glyph glyph-name="l" unicode="l" horiz-adv-x="1127" 
d="M130 1744q0 49 72 83q69 33 166 35h8q102 0 174 -34.5t72 -83.5t-72 -84q-16 -7 -33 -13v-1410q140 17 280 45q29 0 53 -4q4 81 33 142q35 72 84 72t83.5 -72t34.5 -174t-34.5 -174t-83.5 -72q-31 0 -57 29q-41 -29 -113 -29h-440q-122 0 -122 170q146 737 9 1474
q-22 7 -42 16q-72 35 -72 84z" />
    <glyph glyph-name="m" unicode="m" horiz-adv-x="1630" 
d="M1568 118q0 -49 -72 -84q-70 -33 -169 -34h-14q-96 1 -165 34q-72 35 -72 84t72 83q19 10 41 17q106 571 42 1142q-169 -576 -215 -1149q-3 -161 -166 -161h-2q-163 0 -166 161q-39 481 -164 965v-962q16 -5 32 -13q72 -34 72 -83t-72 -83.5t-174 -34.5h-7q-98 1 -167 34
q-72 35 -72 84t72 83q20 10 43 17q137 737 -9 1474q0 170 122 170h150q85 1 119 -122q203 -809 222 -1366q19 557 222 1366q33 122 118 122h113q160 0 160 -170v-1477q18 -6 34 -14q72 -34 72 -83z" />
    <glyph glyph-name="n" unicode="n" horiz-adv-x="1283" 
d="M130 1744q0 49 72 83.5t174 34.5h6q98 -1 168 -35q72 -34 72 -83t-72 -84q-16 -7 -33 -13v-188q120 -393 319 -750q6 111 6 222q0 357 -67 713q-22 7 -42 16q-72 35 -72 84t72 83q71 35 173 35h1q102 0 174 -34.5t72 -83.5t-72 -84q-16 -7 -33 -13v-1432q17 -6 33 -14
q72 -34 72 -83t-72 -83.5t-174 -34.5t-174 34.5t-72 83.5t72 83q20 10 42 17q8 39 14 78l-272 583v-664q17 -6 33 -14q72 -34 72 -83t-72 -84q-70 -33 -168 -34h-14q-97 1 -166 34q-72 35 -72 84t72 83q20 10 42 17q67 357 67 713q0 223 -26 445l-1 2l1 1q-16 132 -41 265
q-22 7 -42 16q-72 35 -72 84z" />
    <glyph glyph-name="o" unicode="o" 
d="M921 361q0 -393 -405 -393q-406 1 -406 393q141 570 0 1140q0 392 406 392q405 0 405 -392q-141 -570 0 -1140zM639 1501q0 127 -123 127h-2q-122 0 -122 -127q151 -570 0 -1140q0 -127 123 -127q124 0 124 127q-151 570 0 1140z" />
    <glyph glyph-name="p" unicode="p" horiz-adv-x="1105" 
d="M130 118q0 49 72 83q20 10 43 17q137 737 -9 1474v9q3 161 140 161h7l259 -1q236 0 324 -154q40 -62 51 -155v-3q-155 -203 -4 -435q-32 -224 -265 -296q-65 -20 -189 -20h-41v-584q16 -5 32 -13q72 -34 72 -83t-72 -83.5t-174 -34.5h-18q-10 0 -18 1q-79 5 -138 33
q-72 35 -72 84zM760 1549q0 49 -123 49h-2q-97 0 -117 -31v-471q19 -31 118 -31q124 0 124 49q-99 151 -68 291q16 74 68 144z" />
    <glyph glyph-name="q" unicode="q" 
d="M921 -103q161 -1 161 -112t-161 -113q-250 0 -344 47q-122 59 -125 239q-342 24 -342 392q151 618 0 1149q0 394 405 394q406 0 406 -394q-151 -531 0 -1149q0 -352 -309 -389q59 -111 309 -64zM639 1501q0 127 -123 127h-2q-122 0 -122 -127q151 -533 0 -1140
q0 -127 123 -127q124 0 124 127q-151 607 0 1140z" />
    <glyph glyph-name="r" unicode="r" horiz-adv-x="1224" 
d="M83 118q0 49 72 83q20 10 43 17q137 737 -9 1474v9q3 161 140 161l266 -1q236 0 324 -154q40 -62 51 -155v-3q-155 -203 -4 -435q-28 -198 -213 -277q94 -315 243 -615q30 -8 56 -21q72 -34 72 -83t-72 -83.5t-174 -34.5t-174 34.5t-72 83.5t72 83l8 4l-164 593h-77v-584
q16 -5 32 -13q72 -34 72 -83t-72 -83.5t-174 -34.5h-18q-10 0 -18 1q-79 5 -138 33q-72 35 -72 84zM713 1549q0 49 -123 49h-2q-97 0 -117 -31v-471q19 -31 118 -31q124 0 124 49q-99 151 -68 291q16 74 68 144z" />
    <glyph glyph-name="s" unicode="s" 
d="M862 678q4 -14 15 -94q17 -119 44 -225q1 -391 -407 -391q-124 0 -197 39q-167 71 -207 274q109 142 67 298q40 77 146 69q125 -11 141 -119q6 -53 -6 -104q-16 -74 -69 -144q0 -49 125 -49q125 1 125 128q-20 107 -48 216q-28 90 -276 354v1q-118 107 -146 252
q-4 14 -15 94q-17 119 -44 225q-1 391 407 391q124 0 197 -39q167 -71 207 -274q-109 -142 -67 -298q-40 -77 -146 -69q-125 11 -141 119q-6 53 6 104q16 74 69 144q0 49 -125 49q-125 -1 -125 -128q20 -107 48 -216q28 -90 126.5 -197t148.5 -157l1 -1q118 -107 146 -252z
" />
    <glyph glyph-name="t" unicode="t" horiz-adv-x="1149" 
d="M50 1616q0 102 34.5 174t83.5 72q31 0 56 -29q41 29 114 29h471q72 0 113 -29q26 29 57 29q49 0 83.5 -72t34.5 -174t-34.5 -174t-83.5 -72t-84 72q-29 60 -33 141q-24 -3 -53 -3l-94 17v-1382q17 -6 33 -14q72 -34 72 -83t-72 -83.5t-174 -34.5h-2q-101 0 -172 34
q-72 35 -72 84t72 83q19 10 41 17q130 691 8 1382q-56 -9 -111 -20q-29 0 -53 3q-5 -81 -34 -141q-34 -72 -83 -72t-83.5 72t-34.5 174z" />
    <glyph glyph-name="u" unicode="u" horiz-adv-x="1253" 
d="M120 1744q0 49 72 83q70 34 169 35h14q96 -2 165 -35q72 -34 72 -83t-72 -84q-16 -7 -33 -13v-1287q0 -126 123 -126q124 0 134 126q90 413 62 744q-27 296 -72 539q-23 7 -43 17q-72 35 -72 84t72 83q70 34 169 35h14q96 -2 165 -35q72 -34 72 -83t-72 -84
q-16 -7 -33 -13v-1287q0 -392 -396 -392q-392 1 -392 392q98 413 69 744q-27 296 -72 539q-23 7 -43 17q-72 35 -72 84z" />
    <glyph glyph-name="v" unicode="v" horiz-adv-x="1255" 
d="M967 1862q102 0 174 -34.5t72 -83.5t-72 -84q-20 -9 -43 -16q-240 -700 -301 -1441l4 -2q72 -34 72 -83t-72 -84q-69 -33 -165 -34h-18q-96 1 -165 34q-72 35 -72 84t72 83q1 1 3 2q-61 741 -302 1441q-22 7 -42 16q-72 35 -72 84t72 83.5t174 34.5h10q95 -2 164 -35
q72 -34 72 -83t-72 -84q-16 -7 -32 -13q181 -745 199 -1220q18 474 199 1220q-18 6 -33 13q-72 35 -72 84t72 83q68 33 164 35h10z" />
    <glyph glyph-name="w" unicode="w" horiz-adv-x="1630" 
d="M130 1744q0 49 72 83q69 34 167 35h14q97 -1 167 -35q72 -34 72 -83t-72 -84q-16 -7 -32 -13v-961q125 484 164 965q3 161 166 161h2q163 0 166 -161q46 -573 215 -1149q64 571 -42 1142q-22 7 -41 16q-72 35 -72 84t72 83.5t174 34.5t174 -34.5t72 -83.5t-72 -84
q-16 -8 -34 -14v-1476q0 -170 -160 -170h-113q-85 0 -118 122q-203 809 -222 1366q-19 -557 -222 -1366q-34 -123 -119 -122h-150q-122 0 -122 170q146 736 9 1473q-23 7 -43 17q-72 35 -72 84z" />
    <glyph glyph-name="x" unicode="x" horiz-adv-x="1257" 
d="M286 1862q102 0 174 -34.5t72 -83.5q0 -48 -70 -83l152 -398l150 398q-69 35 -69 83q0 49 72 83q67 33 161 35h13q102 0 174 -34.5t72 -83.5t-72 -84q-28 -13 -59 -21q-212 -341 -347 -709q135 -369 347 -707q31 -9 59 -22q72 -34 72 -83t-72 -83.5t-173 -34.5h-14
q-94 2 -161 34q-72 35 -72 84q0 48 69 82l-150 398l-152 -398q70 -34 70 -82q0 -49 -72 -84q-68 -32 -162 -34h-14q-101 0 -172 34q-72 35 -72 84t72 83q27 13 59 22q211 339 347 707q-136 368 -347 709q-32 8 -59 21q-72 35 -72 84t72 83.5t174 34.5z" />
    <glyph glyph-name="y" unicode="y" horiz-adv-x="1257" 
d="M1187 1744q0 -49 -72 -84q-28 -13 -59 -21q-171 -274 -291 -566v-858q16 -6 32 -14q72 -34 72 -83t-72 -84q-70 -33 -167 -34h-14q-98 1 -167 34q-72 35 -72 84t72 83q20 10 43 17q54 291 64 582l-38 130q-136 368 -347 709q-32 8 -59 21q-72 35 -72 84t72 83.5t174 34.5
h8q97 -2 166 -35q72 -34 72 -83q0 -48 -70 -83l152 -398l150 398q-69 35 -69 83q0 49 72 83q67 33 161 35h13q102 0 174 -34.5t72 -83.5z" />
    <glyph glyph-name="z" unicode="z" horiz-adv-x="1031" 
d="M50 1616q0 102 34.5 174t83.5 72q31 0 56 -29q41 29 114 29h470q170 0 170 -160q0 -18 -4 -32q-1 -31 -14 -68l-209 -590q68 -34 68 -81q0 -49 -72 -84q-29 -13 -62 -22l-201 -570q45 -7 125 -2q57 3 133 16q4 87 34 151q35 72 84 72t83.5 -72t34.5 -174q0 -30 -3 -57
q3 -13 3 -29q0 -103 -70 -140q-22 -20 -48 -20q-9 0 -17 2q-17 -2 -35 -2h-470q-170 0 -170 160q0 13 2 25q2 30 14 67l3 8q162 274 277 565q-35 8 -65 22q-72 35 -72 84t72 83q61 30 144 34q88 270 136 555q-53 9 -138 4.5t-203 -27.5q-29 0 -53 3q-5 -81 -34 -141
q-34 -72 -83 -72t-83.5 72t-34.5 174z" />
    <glyph glyph-name="braceleft" unicode="{" horiz-adv-x="704" 
d="M406 894v-237q17 -577 107 -680q161 -3 161 -112v-1q0 -109 -161 -111q-392 5 -392 396q52 288 66 577q-47 12 -96 20q-81 3 -81 185v1q0 182 81 185q49 8 96 19q-14 289 -66 579q0 390 392 395q161 -3 161 -111v-2q0 -108 -161 -110q-90 -107 -107 -700v-213
q-92 -35 -183 -42q85 -7 183 -38z" />
    <glyph glyph-name="bar" unicode="|" horiz-adv-x="512" 
d="M422 -97q0 -230 -142 -230q-137 0 -140 218v12q151 1029 0 2057q0 230 122 230q160 0 160 -230v-2057z" />
    <glyph glyph-name="braceright" unicode="}" horiz-adv-x="704" 
d="M481 932q-91 7 -183 42v213q-17 593 -107 700q-161 2 -161 110v2q0 108 161 111q392 -5 392 -395q-52 -290 -66 -579q47 -11 96 -19q81 -3 81 -185v-1q0 -182 -81 -185q-49 -8 -96 -20q14 -289 66 -577q0 -391 -392 -396q-161 2 -161 111v1q0 109 161 112q90 103 107 680
v237q98 31 183 38z" />
    <glyph glyph-name="asciitilde" unicode="~" horiz-adv-x="1100" 
d="M499 918q-85 45 -101 47q-41 0 -121 -109q-83 -83 -147 -28q-74 65 36 191q82 114 212 120q86 0 221 -70q86 -46 102 -47q41 0 121 109q82 83 146 28q75 -65 -36 -191q-81 -114 -211 -120q-87 0 -222 70z" />
    <glyph glyph-name="exclamdown" unicode="&#xa1;" horiz-adv-x="565" 
d="M443 1372q0 -66 -161 -66q-162 0 -162 66q56 94 0 191q0 66 162 66q161 0 161 -66q-56 -102 0 -191zM443 -109q0 -124 -183 -124q-140 0 -140 124q173 556 0 1111v6q3 118 160 118q163 0 163 -124v-1111z" />
    <glyph glyph-name="cent" unicode="&#xa2;" horiz-adv-x="1073" 
d="M921 1665l-50 -158q42 -64 60 -153q-109 -142 -67 -298q-40 -77 -146 -69l-12 1l-237 -747q24 -9 58 -9q125 0 125 49q-53 70 -69 144q-12 51 -6 104q16 108 141 119q106 8 146 -69q-42 -156 67 -298q-40 -203 -207 -274q-73 -39 -197 -39q-78 0 -141 14l-27 -86
q-63 -198 -176 -162q-110 34 -53 222l3 11q30 64 60 130q-74 96 -73 262q64 245 69 442v33q-5 197 -69 442q-1 391 407 391q89 0 152 -20q8 44 16 89q63 198 160 167q128 -40 66 -238zM527 1402q-125 0 -125 -127v-659q134 379 223 772q-31 14 -98 14z" />
    <glyph glyph-name="sterling" unicode="&#xa3;" horiz-adv-x="1193" 
d="M602 361q0 -96 125 -103q118 17 234 41q170 0 170 -129q0 -170 -170 -170h-234q-407 0 -407 359q60 228 68 513h-254q-74 0 -74 73q0 70 70 72h4q127 -30 254 -37q-7 290 -68 523q0 390 407 390q165 0 269.5 -79.5t134.5 -233.5q-79 -102 -79 -212q0 -43 12 -86
q-36 -70 -127 -70l-19 1q-125 11 -141 119l-2 35q0 111 77 213q0 26 -32 37.5t-148 11.5q-70 0 -70 -128v-516q94 10 188 32q74 0 74 -63q0 -82 -74 -82h-188v-511z" />
    <glyph glyph-name="currency" unicode="&#xa4;" horiz-adv-x="1175" 
d="M587 711q124 0 124 54q-75 129 -75 249t75 232q0 54 -124 54q-123 0 -123 -54q76 -112 76 -232t-76 -249q0 -54 123 -54zM994 760q51 -59 51 -90q0 -12 -7 -19q-86 -2 -96 -96q-7 -7 -19 -7q-36 0 -111 69q-90 -18 -224 -18t-224 18q-75 -69 -111 -69q-12 0 -19 7
q-6 92 -96 96q-7 7 -7 19q0 31 50 89v6q71 123 71 243t-71 238v5q-51 59 -51 89q0 12 7 19q91 8 97 97q7 7 19 7q36 0 110 -69q90 18 225 18t225 -18q75 69 110 69q12 0 19 -7q4 -89 96 -97q7 -7 7 -19q0 -31 -51 -91v-3q-70 -112 -70 -232t70 -249v-5z" />
    <glyph glyph-name="yen" unicode="&#xa5;" horiz-adv-x="1257" 
d="M377 118q0 49 72 83q20 10 43 17q41 227 57 454h-263q-74 0 -74 73q0 70 70 72h4q134 -32 269 -38l1 21l-38 130q-7 19 -15 39h-217q-74 0 -74 73q0 70 70 72h4q86 -21 171 -31q-120 286 -286 556q-32 8 -59 21q-72 35 -72 84t72 83.5t174 34.5h12q94 -2 162 -35
q72 -34 72 -83q0 -48 -70 -83l152 -398l150 398q-69 35 -69 83q0 49 72 83q67 33 161 35h13q102 0 174 -34.5t72 -83.5t-72 -84q-28 -13 -60 -21q-167 -269 -286 -556q87 10 173 31q74 0 74 -63q0 -82 -74 -82h-177v-183q89 10 177 31q74 0 74 -63q0 -82 -74 -82h-177v-458
q16 -5 32 -13q72 -34 72 -83t-72 -83.5t-174 -34.5t-174 34.5t-72 83.5z" />
    <glyph glyph-name="brokenbar" unicode="&#xa6;" horiz-adv-x="512" 
d="M140 662q0 122 47 122q69 -42 137 0q48 0 48 -122v-540q0 -122 -48 -122q-64 42 -137 0q-47 0 -47 122v540zM140 1607q0 122 47 122q69 -42 137 0q48 0 48 -122v-499q0 -122 -48 -122q-64 42 -137 0q-47 0 -47 122v499z" />
    <glyph glyph-name="section" unicode="&#xa7;" horiz-adv-x="1053" 
d="M738 421q70 -54 105 -117q27 -48 44 -147q17 -93 44 -177q0 -307 -407 -307q-165 0 -269.5 62.5t-134.5 183.5q79 81 79 167q0 33 -12 67q36 55 125 55l21 -1q125 -8 141 -93l2 -28q0 -87 -77 -167q0 -39 125 -39q125 1 125 101q-22 91 -45 161q-25 75 -279 288
q-88 63 -126 142q-19 41 -35.5 132t-43.5 176q0 211 193 276q-79 60 -114 134q-19 41 -35.5 132t-43.5 176q0 306 407 306q165 0 269.5 -62.5t134.5 -183.5q-79 -81 -79 -167q0 -33 12 -67q-36 -55 -125 -55l-21 1q-125 8 -141 93l-2 28q0 87 77 167q0 39 -125 39
q-125 -1 -125 -101q38 -161 65 -203q57 -90 259 -245q79 -57 117 -126q27 -48 44 -147q17 -93 44 -177q0 -211 -193 -277zM513 979q-111 -7 -111 -101q38 -161 65 -203q21 -34 64 -77q118 4 118 101q-22 91 -45 161q-13 40 -91 119z" />
    <glyph glyph-name="dieresis" unicode="&#xa8;" horiz-adv-x="899" 
d="M374 1989q0 -50 -122 -50t-122 50q42 73 0 144q0 50 122 50t122 -50q-42 -67 0 -144zM770 1989q0 -50 -122 -50t-122 50q42 73 0 144q0 50 122 50t122 -50q-42 -67 0 -144z" />
    <glyph glyph-name="copyright" unicode="&#xa9;" horiz-adv-x="1463" 
d="M1154 1340q0 391 -423 391q-424 0 -424 -404v-761q0 -391 423 -391q424 0 424 403v762zM1341 578q0 -577 -611 -577q-610 0 -610 565q141 387 0 761q0 578 610 578q611 0 611 -565q-141 -387 0 -762zM650 573q0 -84 83 -84q84 -1 84 32q-35 46 -46 96q-8 34 -4 69
q11 71 94 79q71 5 97 -46q-28 -104 45 -198q-27 -135 -138 -182q-49 -26 -132 -26q-272 0 -271 260q43 163 46 369v21q-3 206 -46 369q-1 260 271 260q83 0 132 -26q111 -47 138 -182q-73 -94 -45 -198q-26 -51 -97 -46q-83 8 -94 79q-4 35 4 69q11 50 46 96q0 33 -84 32
q-83 0 -83 -84v-759z" />
    <glyph glyph-name="ordfeminine" unicode="&#xaa;" horiz-adv-x="761" 
d="M439 991q0 27 40 46q10 4 21 8l-20 100h-185l-21 -100l20 -8q40 -19 40 -46q0 -28 -40 -47q-37 -18 -89 -19q-8 -1 -18 0q-51 1 -87 19q-40 19 -40 47q0 27 40 46q11 5 23 9q135 390 169 803q-1 0 -2 1q-40 19 -40 46q0 28 40 47t97 19t97 -19t40 -47q0 -27 -40 -46
q-1 -1 -3 -1q34 -413 168 -803q13 -4 24 -9q40 -19 40 -46q0 -28 -40 -47q-36 -17 -87 -19q-9 -1 -18 0q-51 1 -89 19q-40 19 -40 47zM189 521q-122 0 -122 40q42 58 0 115q0 40 122 40h375q122 0 122 -40q-42 -53 0 -115q0 -40 -122 -40h-375zM321 1293h132
q-55 151 -66 431q-11 -280 -66 -431z" />
    <glyph glyph-name="guillemotleft" unicode="&#xab;" horiz-adv-x="968" 
d="M790 1647v-214q0 -122 -36 -122q-54 42 -108 0q-36 0 -36 122v214q-58 16 -58 58q51 98 0 193q0 67 148 67t148 -67q-51 -90 0 -193q0 -42 -58 -58zM358 1647v-214q0 -122 -36 -122q-54 42 -108 0q-36 0 -36 122v214q-58 16 -58 58q51 98 0 193q0 67 148 67t148 -67
q-51 -90 0 -193q0 -42 -58 -58z" />
    <glyph glyph-name="logicalnot" unicode="&#xac;" horiz-adv-x="1067" 
d="M937 699q0 -121 -114 -121q-87 0 -87 121q20 100 32 200h-517q-121 0 -121 101q0 98 115 100h6q283 -108 565 0q121 0 121 -87v-314z" />
    <glyph glyph-name="registered" unicode="&#xae;" horiz-adv-x="1463" 
d="M1341 578q0 -577 -611 -577q-610 0 -610 565q141 387 0 761q0 578 610 578q611 0 611 -565q-141 -387 0 -762zM1154 1340q0 391 -423 391q-424 0 -424 -404v-761q0 -391 423 -391q424 0 424 403v762zM374 412q0 32 48 55q13 6 29 11q91 491 -6 982v6q2 107 93 107l177 -1
q157 0 216 -102q26 -42 34 -103v-2q-104 -136 -3 -290q-19 -132 -142 -185q63 -210 162 -410q20 -5 37 -13q48 -23 48 -55q0 -33 -48 -56t-116 -23q-67 0 -115 23t-48 56q0 32 48 55q2 1 5 2l-109 395h-52v-388q11 -4 22 -9q48 -23 48 -55q0 -33 -48 -56t-116 -23h-24
q-53 4 -92 23q-48 23 -48 56zM794 1365q0 32 -82 32h-2q-64 0 -78 -20v-314q13 -21 79 -21q83 0 83 33q-66 100 -46 194q11 49 46 96z" />
    <glyph glyph-name="macron" unicode="&#xaf;" horiz-adv-x="1208" 
d="M122 1752q-122 0 -122 44q42 63 0 125q0 44 122 44h964q122 0 122 -44q-42 -58 0 -125q0 -44 -122 -44h-964z" />
    <glyph glyph-name="degree" unicode="&#xb0;" horiz-adv-x="877" 
d="M748 1560q0 -126 -308 -126q-309 0 -309 126q107 195 0 365q0 126 309 126q308 0 308 -126q-107 -170 0 -365zM533 1925q0 41 -93 41h-2q-92 0 -92 -41q114 -170 0 -365q0 -41 93 -41q94 0 94 41q-114 195 0 365z" />
    <glyph glyph-name="plusminus" unicode="&#xb1;" horiz-adv-x="1047" 
d="M241 866q-121 0 -121 47q42 69 0 137q0 47 121 47h167v166q0 121 47 121q69 -42 137 0q47 0 47 -121v-166h165q121 0 121 -47q-42 -64 0 -137q0 -47 -121 -47h-165v-166q0 -121 -47 -121q-64 42 -137 0q-47 0 -47 121v166h-167zM242 160q-122 0 -122 43q42 63 0 126
q0 43 122 43h561q122 0 122 -43q-42 -59 0 -126q0 -43 -122 -43h-561z" />
    <glyph glyph-name="twosuperior" unicode="&#xb2;" horiz-adv-x="748" 
d="M577 1119q29 0 49 -42t20 -102t-20 -102t-49 -42q-19 0 -34 17q-25 -17 -66 -17h-137q-240 0 -239 211q15 62 25 132q7 47 9 55q17 85 86 147l1 1q29 29 87 92t74 115q16 64 28 127q0 74 -73 75q-73 0 -73 -29q31 -41 40 -84q7 -30 4 -61q-10 -63 -83 -70q-63 -4 -86 41
q24 91 -39 174q23 119 121 161q43 23 116 23q240 0 239 -229q-16 -62 -26 -132q-6 -47 -9 -55q-16 -85 -86 -148v-1q-145 -154 -161 -207q-17 -64 -29 -126q0 -57 74 -61q69 10 137 24q17 0 32 -3q4 42 19 74q20 42 49 42z" />
    <glyph glyph-name="threesuperior" unicode="&#xb3;" horiz-adv-x="679" 
d="M577 1039q1 -232 -239 -232q-73 0 -116 23q-98 42 -122 163q64 84 39 177q24 46 86 41q74 -7 83 -71q4 -31 -3 -62q-10 -43 -41 -85q0 -29 74 -29q73 0 73 76v305q-97 1 -97 95q0 71 97 72v215q0 76 -73 76q-74 0 -74 -29q31 -42 41 -85q7 -31 3 -62q-9 -64 -83 -71
q-62 -5 -86 41q25 93 -39 177q24 121 122 163q43 23 116 23q240 0 239 -232q-18 -67 -27 -159q-10 -97 -64 -141q54 -45 59 -162t32 -227z" />
    <glyph glyph-name="acute" unicode="&#xb4;" horiz-adv-x="756" 
d="M387 1961q-299 -46 -250 0q251 109 234 227q26 13 135 -37q142 -65 116 -77z" />
    <glyph glyph-name="mu" unicode="&#xb5;" horiz-adv-x="1051" 
d="M412 -20v-137q0 -170 -139 -170q-140 0 -143 161q29 149 52 319q-39 84 -39 207q76 141 76 371q0 107 -24.5 321.5t-64.5 418.5q3 161 143 161q139 0 139 -170v-1102q0 -126 123 -126q124 0 134 126q69 140 69 365q0 113 -24.5 327t-64.5 419q3 161 143 161
q139 0 139 -170v-1482q0 -170 -139 -170q-140 0 -143 161q1 4 1 7q-52 -10 -115 -10q-67 0 -123 12z" />
    <glyph glyph-name="paragraph" unicode="&#xb6;" horiz-adv-x="1660" 
d="M1128 1596h-265q-57 -332 -57 -665q0 -380 75 -761q0 -170 -122 -170q-160 0 -160 170v628h-41q-409 0 -454 316q75 114 75 222q0 110 -79 213v3q37 309 375 309l264 1h549q37 0 63 -17q59 -8 105 -30q72 -34 72 -83t-72 -84q-27 -13 -59 -21q-62 -348 -62 -696
q0 -380 75 -761v-9q-3 -161 -140 -161q-142 0 -142 170v1426z" />
    <glyph glyph-name="periodcentered" unicode="&#xb7;" horiz-adv-x="508" 
d="M396 899q0 -56 -138 -56t-138 56q48 84 0 164q0 56 138 56t138 -56q-48 -76 0 -164z" />
    <glyph glyph-name="periodcentered" unicode="&#x2219;" horiz-adv-x="508" 
d="M396 899q0 -56 -138 -56t-138 56q48 84 0 164q0 56 138 56t138 -56q-48 -76 0 -164z" />
    <glyph glyph-name="cedilla" unicode="&#xb8;" horiz-adv-x="634" 
d="M329 -16l54 -50q40 -31 50 -74l5 -28q6 -35 15 -66q0 -116 -139 -116q-116 0 -137 92q27 30 27 63q0 12 -4 25q12 21 43 21h6q43 -3 48 -35l1 -12q0 -32 -26 -62q0 -14 42 -14q43 0 43 38l-16 64q-10 26 -94 104q-12 13 -12 27v5q5 32 48 35h6q28 0 40 -17z" />
    <glyph glyph-name="onesuperior" unicode="&#xb9;" horiz-adv-x="699" 
d="M294 1750q-14 2 -31 2q-18 0 -35 -4q-98 0 -98 71q0 93 98 93h124q92 0 92 -99v-829h1l54 10q98 0 98 -71q0 -93 -98 -93h-271q-98 0 -98 93q0 71 98 71q32 -7 64 -12q34 195 34 389q0 190 -32 379z" />
    <glyph glyph-name="ordmasculine" unicode="&#xba;" horiz-adv-x="777" 
d="M655 1100q0 -208 -267 -208q-268 1 -268 208q93 322 0 604q0 208 268 208q267 0 267 -208q-93 -282 0 -604zM469 1704q0 68 -81 68h-1q-81 0 -81 -68q100 -282 0 -604q0 -67 81 -67q82 0 82 67q-100 322 0 604zM252 465q-122 0 -122 37q42 52 0 103q0 37 122 37h272
q122 0 122 -37q-42 -48 0 -103q0 -37 -122 -37h-272z" />
    <glyph glyph-name="guillemotright" unicode="&#xbb;" horiz-adv-x="968" 
d="M790 1647v-214q0 -122 -36 -122q-54 42 -108 0q-36 0 -36 122v214q-58 16 -58 58q51 98 0 193q0 67 148 67t148 -67q-51 -90 0 -193q0 -42 -58 -58zM358 1647v-214q0 -122 -36 -122q-54 42 -108 0q-36 0 -36 122v214q-58 16 -58 58q51 98 0 193q0 67 148 67t148 -67
q-51 -90 0 -193q0 -42 -58 -58z" />
    <glyph glyph-name="onequarter" unicode="&#xbc;" horiz-adv-x="1609" 
d="M665 0q-149 0 -149 138q0 29 10 68q332 721 370 1514q35 144 125 144q16 0 34 -5q123 -32 123 -144q0 -30 -9 -65l-369 -1510q-34 -140 -135 -140zM1361 69q0 -29 -41 -49q-38 -19 -92 -20h-15q-54 1 -93 20q-41 20 -41 49q0 28 41 48l20 8v140h-144q-101 0 -101 93
q0 7 36 157q29 131 71 303l45 183q20 79 77 81h107q70 0 70 -99q-43 -221 -43 -442q0 -63 3 -125q39 4 85 13q101 0 101 -71q0 -93 -101 -93h-71q8 -70 20 -139q13 -4 25 -9q41 -20 41 -48zM489 830h-271q-98 0 -98 93q0 71 98 71l64 -12q34 195 34 389q0 190 -32 379
q-14 2 -31 2q-18 0 -35 -4q-98 0 -98 71q0 93 98 93h124q92 0 92 -99v-829l55 10q98 0 98 -71q0 -93 -98 -93zM1062 417q36 -3 78 -4v389q-52 -136 -60.5 -197.5t-17.5 -187.5z" />
    <glyph glyph-name="onehalf" unicode="&#xbd;" horiz-adv-x="1758" 
d="M1169 1650l-369 -1510q-41 -169 -179 -134q-133 34 -97 195l3 9q331 717 369 1510q41 169 159 139q155 -40 114 -209zM1586 288q29 0 49 -42t20 -102t-20 -102t-49 -42q-18 0 -34 17q-24 -17 -65 -17h-138q-240 0 -239 211q16 62 26 132q6 47 9 55q16 85 86 147v1
q30 29 87 92q58 63 74 115q17 64 29 127q0 74 -74 75q-73 0 -73 -29q31 -41 40 -84q8 -30 4 -61q-9 -63 -83 -70q-62 -4 -86 41q25 91 -39 174q23 119 122 161q43 23 115 23q240 0 239 -229q-15 -62 -25 -132q-7 -47 -9 -55q-17 -85 -86 -148v-1q-146 -154 -162 -207
q-16 -64 -28 -126q0 -57 73 -61q69 10 138 24q17 0 31 -2q4 41 19 73q21 42 49 42zM284 1750q-14 2 -31 2q-18 0 -35 -4q-98 0 -98 71q0 93 98 93h124q92 0 92 -99v-829l55 10q98 0 98 -71q0 -93 -98 -93h-271q-98 0 -98 93q0 71 98 71q32 -7 64 -12q34 195 34 389
q0 190 -32 379z" />
    <glyph glyph-name="threequarters" unicode="&#xbe;" horiz-adv-x="1549" 
d="M1169 1650l-369 -1510q-41 -169 -179 -134q-133 34 -97 195l3 9q331 717 369 1510q41 169 159 139q155 -40 114 -209zM577 1039q1 -232 -239 -232q-73 0 -116 23q-98 42 -122 163q64 84 39 177q24 46 86 41q74 -7 83 -71q4 -31 -3 -62q-10 -43 -41 -85q0 -29 74 -29
q73 0 73 76v305q-97 1 -97 95q0 71 97 72v215q0 76 -73 76q-74 0 -74 -29q31 -42 41 -85q7 -31 3 -62q-9 -64 -83 -71q-62 -5 -86 41q25 93 -39 177q24 121 122 163q43 23 116 23q240 0 239 -232q-18 -67 -27 -159q-10 -97 -64 -141q54 -45 59 -162t32 -227zM1361 69
q0 -29 -41 -49t-99 -20h-1q-58 0 -99.5 20t-41.5 49q0 28 41 48l20 8v140h-144q-101 0 -101 93q0 7 36 157q29 131 71 303l45 183q20 79 77 81h107q70 0 70 -99q-43 -221 -43 -442q0 -63 3 -125q39 4 85 13q101 0 101 -71q0 -93 -101 -93h-71q8 -70 20 -139q13 -4 25 -9
q41 -20 41 -48zM1062 417q36 -3 78 -4v389q-52 -136 -60.5 -197.5t-17.5 -187.5z" />
    <glyph glyph-name="questiondown" unicode="&#xbf;" horiz-adv-x="1053" 
d="M726 698l-1 -1q-50 -50 -148.5 -157t-126.5 -197q-28 -109 -48 -216q0 -127 125 -128q125 0 125 49q-53 70 -69 144q-12 51 -6 104q16 108 141 119q106 8 146 -69q-42 -156 67 -298q-40 -203 -207 -274q-73 -39 -197 -39q-408 0 -407 391q27 106 44 225q11 80 15 94
q28 145 146 252v1q145 154 215 249v1q4 161 164 161q166 0 165 -171h-1q-29 -138 -142 -240zM863 1372q0 -66 -161 -66q-162 0 -162 66q56 94 0 191q0 66 162 66q161 0 161 -66q-56 -102 0 -191z" />
    <glyph glyph-name="Agrave" unicode="&#xc0;" horiz-adv-x="1255" 
d="M721 118q0 49 72 83q17 9 36 15l-36 179h-332l-37 -179q19 -7 36 -15q72 -34 72 -83t-72 -84q-69 -33 -164 -34h-16q-98 1 -168 34q-72 35 -72 84t72 83q20 10 42 17q241 700 302 1441q-2 0 -3 1q-72 35 -72 84t72 83q69 33 165 35h18q96 -2 165 -35q72 -34 72 -83
t-72 -84q-2 -1 -4 -1q61 -741 301 -1441q23 -7 43 -17q72 -34 72 -83t-72 -83.5t-174 -34.5t-174 34.5t-72 83.5zM508 661h238q-100 270 -119 774q-19 -504 -119 -774zM300 2074q-26 12 116 77q109 50 135 37q-17 -118 234 -227q48 -46 -251 0z" />
    <glyph glyph-name="Aacute" unicode="&#xc1;" horiz-adv-x="1255" 
d="M721 118q0 49 72 84q17 8 36 14l-36 179h-332l-37 -179q19 -6 36 -14q72 -35 72 -84t-72 -83q-69 -34 -164 -35h-16q-98 1 -168 35q-72 34 -72 83t72 84q20 9 42 16q241 700 302 1441q-2 1 -3 2q-72 34 -72 83t72 84q69 32 165 34h18q96 -2 165 -34q72 -35 72 -84
t-72 -83l-4 -2q61 -741 301 -1441q23 -7 43 -16q72 -35 72 -84t-72 -83q-72 -35 -174 -35t-174 35q-72 34 -72 83zM746 661q-100 270 -119 774q-19 -504 -119 -774h238zM720 1961q-299 -46 -250 0q251 109 234 227q26 13 135 -37q142 -65 116 -77z" />
    <glyph glyph-name="Acircumflex" unicode="&#xc2;" horiz-adv-x="1255" 
d="M721 118q0 49 72 84q17 8 36 14l-36 179h-332l-37 -179q19 -6 36 -14q72 -35 72 -84t-72 -83q-69 -34 -164 -35h-16q-98 1 -168 35q-72 34 -72 83t72 84q20 9 42 16q241 700 302 1441q-2 1 -3 2q-72 34 -72 83t72 84q72 34 174 34t174 -34q72 -35 72 -84t-72 -83l-4 -2
q61 -741 301 -1441q23 -7 43 -16q72 -35 72 -84t-72 -83q-70 -34 -168 -35h-16q-96 1 -164 35q-72 34 -72 83zM627 2026l-132 -64q-299 -46 -250 0q251 110 234 229h296q-17 -119 234 -229q48 -46 -251 0zM746 661q-100 270 -119 774q-19 -504 -119 -774h238z" />
    <glyph glyph-name="Atilde" unicode="&#xc3;" horiz-adv-x="1255" 
d="M721 118q0 49 72 84q17 8 36 14l-36 179h-332l-37 -179q19 -6 36 -14q72 -35 72 -84t-72 -83q-72 -35 -174 -35t-174 35q-72 34 -72 83t72 84q20 9 42 16q241 700 302 1441q-2 1 -3 2q-72 34 -72 83t72 84q69 32 165 34h9q102 0 174 -34q72 -35 72 -84t-72 -83l-4 -2
q61 -741 301 -1441q23 -7 43 -16q72 -35 72 -84t-72 -83q-70 -34 -168 -35h-16q-96 1 -164 35q-72 34 -72 83zM589 2005q-65 40 -78 41q-31 0 -92 -96q-64 -73 -113 -25q-57 58 28 169q62 101 162 106q65 0 169 -62q65 -40 78 -41q31 0 92 96q64 73 112 25q58 -58 -27 -169
q-62 -101 -162 -106q-66 0 -169 62zM746 661q-100 270 -119 774q-19 -504 -119 -774h238z" />
    <glyph glyph-name="Adieresis" unicode="&#xc4;" horiz-adv-x="1255" 
d="M721 118q0 49 72 84q17 8 36 14l-36 179h-332l-37 -179q19 -6 36 -14q72 -35 72 -84t-72 -83q-69 -34 -164 -35h-10q-102 0 -174 35q-72 34 -72 83t72 84q20 9 42 16q241 700 302 1441q-2 1 -3 2q-72 34 -72 83t72 84q71 34 173 34h10q96 -2 165 -34q72 -35 72 -84
t-72 -83l-4 -2q61 -741 301 -1441q23 -7 43 -16q72 -35 72 -84t-72 -83q-70 -34 -168 -35h-6q-102 0 -174 35q-72 34 -72 83zM746 661q-100 270 -119 774q-19 -504 -119 -774h238zM551 1989q0 -50 -122 -50t-122 50q42 73 0 144q0 50 122 50t122 -50q-42 -67 0 -144z
M947 1989q0 -50 -122 -50t-122 50q42 73 0 144q0 50 122 50t122 -50q-42 -67 0 -144z" />
    <glyph glyph-name="Aring" unicode="&#xc5;" horiz-adv-x="1255" 
d="M721 118q0 49 72 83q17 8 36 14l-37 180h-332l-37 -179q19 -7 37 -15q72 -34 72 -83t-72 -84q-69 -33 -165 -34h-9q-102 0 -174 34q-72 35 -72 84t72 83q20 9 42 16q240 700 301 1442q-1 0 -2 1q-72 35 -72 84t72 83h1q-27 50 -27 166q0 199 81 199q110 -69 237 0
q81 0 81 -199q0 -117 -28 -165q2 -1 3 -1q72 -34 72 -83t-72 -84q-2 -1 -5 -2q61 -741 302 -1441q23 -7 43 -16q72 -34 72 -83t-72 -84q-72 -34 -174 -34t-174 34q-72 35 -72 84zM626 1435q-19 -504 -119 -774h238q-100 270 -119 774zM508 2053q-26 0 -26 -60v-1
q0 -60 26 -60q110 74 237 0q26 0 26 60q0 61 -26 61q-127 -74 -237 0z" />
    <glyph glyph-name="AE" unicode="&#xc6;" horiz-adv-x="1561" 
d="M460 35q-72 -35 -174 -35t-174 35q-72 34 -72 83t72 84q20 9 42 16q240 700 301 1441l-2 2q-72 34 -72 83t72 84q68 32 164 34h574q72 0 113 -29l13 13q11 8 22 12t22 4h5q2 -1 4 -1l5 -1q4 -1 7 -2q13 -4 24 -14q11 -9 20 -23q4 -5 8 -11q4 -8 9 -17q0 -1 1 -3
q10 -20 17 -42l4 -16q5 -17 8 -35l2 -14q2 -15 3 -32l1 -20v-30q-1 -5 -1 -10v-10q-2 -24 -5 -47l-6 -26l-6 -24q-1 -4 -3 -8q-5 -14 -10 -27q-2 -4 -4 -7q-3 -7 -7 -14q-5 -10 -11 -18q-5 -7 -10 -12q-5 -6 -10 -10l-2 -2q-6 -5 -13 -9l-4 -2q-8 -3 -17 -5h-19q-6 1 -12 3
q-2 1 -4.5 2t-4.5 2q-5 3 -11 7l-2 2q-12 10 -24 27q-4 7 -9 15q-3 5 -5 10l-2 4q-1 3 -3 7q-2 3 -3 7q-7 17 -13 36l-4 16q-1 4 -2 9q0 2 -1 4q-1 7 -2 13l-2 14q-2 16 -3 33v2q-24 -3 -53 -3q-140 28 -280 45v-592q115 16 230 39q170 0 170 -122q0 -160 -170 -160h-230
v-553q140 17 280 45q29 0 53 -4q4 81 33 142q35 72 84 72t83.5 -72t34.5 -174t-34.5 -174t-83.5 -72q-31 0 -57 29q-41 -29 -113 -29h-422q-137 0 -140 161q23 117 39 234h-208l-37 -179q19 -6 37 -14q72 -35 72 -84t-72 -83zM626 1435q-19 -504 -119 -774h188q5 70 7 140
q-62 249 -76 634z" />
    <glyph glyph-name="Ccedilla" unicode="&#xc7;" horiz-adv-x="1023" 
d="M392 360q0 -127 125 -127q125 -1 125 48q-53 70 -69 144q-12 51 -6 104q16 108 141 119q106 8 146 -69q-42 -156 67 -298q-40 -203 -207 -274q-53 -28 -133 -36l40 -37q40 -31 50 -74l5 -28q6 -35 15 -66q0 -116 -139 -116q-116 0 -137 92q27 30 27 63q0 12 -4 25
q12 21 43 21h6q43 -3 48 -35l1 -12q0 -32 -26 -62q0 -14 42 -14q43 0 43 38l-16 64q-10 26 -94 104q-12 13 -12 27v8q-364 21 -363 390q64 245 69 555v33q-5 310 -69 555q-1 391 407 391q124 0 197 -39q167 -71 207 -274q-109 -142 -67 -298q-40 -77 -146 -69
q-125 11 -141 119q-6 53 6 104q16 74 69 144q0 49 -125 49q-125 -1 -125 -128v-1141z" />
    <glyph glyph-name="Egrave" unicode="&#xc8;" horiz-adv-x="1062" 
d="M692 1862q72 0 113 -29l1 1q6 7 12 12q2 0 2 1q4 3 7 5l4 2q3 1 5 2q5 2 9 4q8 2 17 2h5q2 -1 4 -1l5 -1q4 -1 7 -2q5 -1 9 -4q7 -3 13 -8l2 -2q11 -9 20 -23q4 -5 8 -11q4 -8 9 -17q0 -1 1 -3q4 -7 7 -15q12 -28 18 -60q1 -3 1 -5q2 -6 3 -13q4 -27 5 -56q1 -5 1 -10
v-15q0 -18 -1 -35q-1 -10 -2 -19q0 -7 -1 -14q-2 -14 -5 -27q-3 -15 -7 -29l-5 -16l-3 -8l-4 -12l-3 -7q-2 -4 -4 -7q-3 -7 -7 -14q-1 -3 -3 -6q-17 -28 -36 -41q-2 -1 -3 -1q-4 -3 -8 -5q-2 -1 -5 -2t-7 -2l-5 -1h-19q-3 1 -7 2q-2 0 -5 1l-5 2l-4 2t-4 3q-5 2 -9 6
q-12 10 -24 27q-2 4 -5 9l-4 6q-3 5 -5 10l-2 4q-1 3 -3 7q-4 9 -8 19q-3 8 -5 16q-5 15 -9 33q-2 8 -3 17q-4 24 -5 49q-24 -3 -53 -3q-140 28 -280 45v-592q115 16 230 39q170 0 170 -122q0 -160 -170 -160h-230v-553q140 17 280 45q29 0 53 -4q4 81 33 142q35 72 84 72
t83.5 -72t34.5 -174t-34.5 -174t-83.5 -72q-31 0 -57 29q-41 -29 -113 -29h-422q-137 0 -140 161q151 770 0 1531q0 170 122 170h440zM198 2074q-26 12 116 77q109 50 135 37q-17 -118 234 -227q48 -46 -251 0z" />
    <glyph glyph-name="Eacute" unicode="&#xc9;" horiz-adv-x="1062" 
d="M692 1862q72 0 113 -29l1 1q6 7 12 12q13 10 27 14q4 1 7 1q2 1 5 1h10q5 -1 9 -2t7 -2q5 -1 9 -4l4 -2q2 -1 3 -2l6 -4l12 -12q5 -6 10 -13q4 -5 8 -11q5 -9 10 -20l4 -8l3 -7q4 -9 7 -19q1 -4 3 -8l4 -16l4 -17q4 -16 6 -32q1 -6 1 -13q1 -10 2 -19l1 -20v-30
q-1 -28 -4 -53q-4 -30 -12 -56l-5 -16l-3 -8q-5 -14 -11 -26q-18 -38 -40 -56q-3 -3 -6 -5q-2 -1 -3 -1q-4 -3 -8 -5q-8 -3 -17 -5h-19q-6 1 -12 3q-6 3 -13 7q-3 2 -7 4q-7 6 -14 14q-9 10 -17 24q-6 9 -11 20l-6 14q-3 6 -5 12l-3 8l-5 16l-4 16q-1 4 -2 9q-2 8 -3 17
l-4 28q0 5 -0.5 9.5t-0.5 9.5v2q-24 -3 -53 -3q-140 28 -280 45v-592q115 16 230 39q170 0 170 -122q0 -160 -170 -160h-230v-553q140 17 280 45q29 0 53 -4q4 81 33 142q35 72 84 72t83.5 -72t34.5 -174t-34.5 -174t-83.5 -72q-31 0 -57 29q-41 -29 -113 -29h-422
q-137 0 -140 161q151 770 0 1531q0 170 122 170h440zM587 1961q-299 -46 -250 0q251 109 234 227q26 13 135 -37q142 -65 116 -77z" />
    <glyph glyph-name="Ecircumflex" unicode="&#xca;" horiz-adv-x="1062" 
d="M412 1033q115 16 230 39q170 0 170 -122q0 -160 -170 -160h-230v-553q140 17 280 45q29 0 53 -4q4 81 33 142q35 72 84 72t83.5 -72t34.5 -174t-34.5 -174t-83.5 -72q-31 0 -57 29q-41 -29 -113 -29h-422q-137 0 -140 161q151 770 0 1531q0 170 122 170h440q72 0 113 -29
q22 24 47 28q5 1 10 1t9 -1q4 0 7 -1l10 -4l8 -4q2 -1 3 -2q15 -10 28 -29q9 -12 17 -28q0 -1 1 -3q10 -20 17 -42l4 -16q1 -5 2 -9l2 -8q5 -22 7 -45q2 -15 2 -29q1 -13 1 -25v-15q-1 -11 -1 -20q0 -5 -1 -10q-3 -43 -14 -79q-5 -19 -12 -36q-3 -7 -6.5 -14t-7.5 -14
q-14 -26 -31 -40q-5 -5 -11 -8q-4 -3 -8 -5q-13 -5 -26 -5h-5q-11 1 -21 5q-3 1 -5 2q-5 3 -11 7q-7 6 -14 14q-6 6 -12 15q-2 4 -5 9l-4 6q-3 5 -5 10l-2 4q-6 12 -11 26l-3 8l-2 8q-3 7 -5 16q-3 10 -5 21q-1 7 -2 13q-4 24 -5 49q-24 -3 -53 -3q-140 28 -280 45v-592z
M519 2026l-132 -64q-299 -46 -250 0q251 110 234 229h296q-17 -119 234 -229q48 -46 -251 0z" />
    <glyph glyph-name="Edieresis" unicode="&#xcb;" horiz-adv-x="1062" 
d="M692 1862q72 0 113 -29q8 8 15 14q6 4 11 7q3 1 5 2q12 6 26 6h5q6 -1 11 -2q3 -1 5 -2q7 -2 13 -6q2 -1 3 -2l8 -6l10 -10q9 -10 18 -24q1 -4 3 -7q4 -6 7 -13q11 -24 19 -50l2 -8l4 -17q1 -3 1 -5q2 -6 3 -13q3 -18 4 -37q1 -14 2 -29v-30q-1 -11 -1 -20q0 -5 -0.5 -10
t-1.5 -9q0 -7 -1 -14t-2 -13.5t-3 -13.5q0 -2 -1 -4q-1 -4 -2 -8.5t-2 -8.5l-2 -8q-3 -13 -8 -24l-4 -12l-3 -7q-2 -4 -4 -7q-1 -2 -1 -4q-17 -33 -37 -50l-2 -2q-4 -4 -9 -6q-6 -4 -13 -7q-2 -1 -5 -1q-1 0 -2 -1l-5 -1h-9q-9 0 -17 2q-14 4 -27 14q-6 5 -12 12
q-11 12 -21 30q-3 7 -7 14q-1 3 -3 7q-2 3 -3 7q-3 6 -5 12q-8 23 -14 49q-6 31 -8 66q-24 -3 -53 -3q-140 28 -280 45v-592q115 16 230 39q170 0 170 -122q0 -160 -170 -160h-230v-553q140 17 280 45q29 0 53 -4q4 81 33 142q35 72 84 72t83.5 -72t34.5 -174t-34.5 -174
t-83.5 -72q-31 0 -57 29q-41 -29 -113 -29h-422q-137 0 -140 161q151 770 0 1531q0 170 122 170h440zM819 1989q0 -50 -122 -50t-122 50q42 73 0 144q0 50 122 50t122 -50q-42 -67 0 -144zM423 1989q0 -50 -122 -50t-122 50q42 73 0 144q0 50 122 50t122 -50q-42 -67 0 -144
z" />
    <glyph glyph-name="Igrave" unicode="&#xcc;" horiz-adv-x="706" 
d="M143 118q0 49 72 83q20 10 42 17q132 713 0 1426q-22 7 -42 16q-72 35 -72 84t72 83q58 28 135 34q9 1 20 1h19q102 0 174 -34.5t72 -83.5t-72 -84q-16 -7 -33 -13v-1432q17 -6 33 -14q72 -34 72 -83t-72 -84q-70 -33 -168 -34h-7q-102 0 -173 34q-72 35 -72 84zM60 2074
q-26 12 116 77q109 50 135 37q-17 -118 234 -227q48 -46 -251 0z" />
    <glyph glyph-name="Iacute" unicode="&#xcd;" horiz-adv-x="713" 
d="M138 118q0 49 72 83q20 10 42 17q132 713 0 1426q-22 7 -42 16q-72 35 -72 84t72 83q58 28 135 34q9 1 20 1h19q102 0 174 -34.5t72 -83.5t-72 -84q-16 -7 -33 -13v-1432q17 -6 33 -14q72 -34 72 -83t-72 -83.5t-174 -34.5h-8q-97 1 -166 34q-72 35 -72 84zM474 1961
q-299 -46 -250 0q251 109 234 227q26 13 135 -37q142 -65 116 -77z" />
    <glyph glyph-name="Icircumflex" unicode="&#xce;" horiz-adv-x="778" 
d="M143 1744q0 49 72 83q58 28 135 34q9 1 20 1h19q102 0 174 -34.5t72 -83.5t-72 -84q-16 -7 -33 -13v-1432q17 -6 33 -14q72 -34 72 -83t-72 -83.5t-174 -34.5t-174 34.5t-72 83.5t72 83q20 10 42 17q132 713 0 1426q-22 7 -42 16q-72 35 -72 84zM389 2026l-132 -64
q-299 -46 -250 0q251 110 234 229h296q-17 -119 234 -229q48 -46 -251 0z" />
    <glyph glyph-name="Idieresis" unicode="&#xcf;" horiz-adv-x="640" 
d="M74 1744q0 49 72 83q58 28 135 34q9 1 20 1h19q102 0 174 -34.5t72 -83.5t-72 -84q-16 -7 -33 -13v-1432q17 -6 33 -14q72 -34 72 -83t-72 -83.5t-174 -34.5t-174 34.5t-72 83.5t72 83q20 10 42 17q132 713 0 1426q-22 7 -42 16q-72 35 -72 84zM244 1989q0 -50 -122 -50
t-122 50q42 73 0 144q0 50 122 50t122 -50q-42 -67 0 -144zM640 1989q0 -50 -122 -50t-122 50q42 73 0 144q0 50 122 50t122 -50q-42 -67 0 -144z" />
    <glyph glyph-name="Eth" unicode="&#xd0;" horiz-adv-x="1115" 
d="M80 118q0 49 72 83q18 9 39 16q62 333 66 668q-77 -11 -153 -54h-2q-44 2 -44 107q0 94 46 94q76 -43 153 -55q-4 334 -66 668q-21 6 -39 15q-72 35 -72 84t72 83q55 27 128 33q11 2 24 2h39l275 -1q377 0 377 -391q-151 -538 0 -1079q0 -390 -377 -390l-18 -1h-295
q-13 0 -24 1q-73 7 -129 33q-72 35 -72 84zM562 925q0 -94 -46 -94q-26 14 -51 25v-591h124q123 0 123 126q-151 541 0 1079q0 127 -123 127h-124v-591q25 11 51 26h2q44 -2 44 -107z" />
    <glyph glyph-name="Ntilde" unicode="&#xd1;" horiz-adv-x="1283" 
d="M661 118q0 49 72 83q20 10 42 17q8 39 14 78l-272 583v-664q17 -6 33 -14q72 -34 72 -83t-72 -84q-70 -33 -168 -34h-6q-102 0 -174 34.5t-72 83.5t72 83q20 10 42 17q67 357 67 713q0 223 -26 445l-1 2l1 1q-16 132 -41 265q-22 7 -42 16q-72 35 -72 84t72 83
q69 33 166 35h8q102 0 174 -34.5t72 -83.5t-72 -84q-16 -7 -33 -13v-188q120 -393 319 -750q6 111 6 222q0 357 -67 713q-22 7 -42 16q-72 35 -72 84t72 83q69 33 166 35h8q102 0 174 -34.5t72 -83.5t-72 -84q-16 -7 -33 -13v-1432q17 -6 33 -14q72 -34 72 -83t-72 -83.5
t-174 -34.5h-8q-97 1 -166 34q-72 35 -72 84zM603 2005q-65 40 -78 41q-31 0 -92 -96q-64 -73 -113 -25q-57 58 28 169q62 101 162 106q65 0 169 -62q65 -40 78 -41q31 0 92 96q64 73 112 25q58 -58 -27 -169q-62 -101 -162 -106q-66 0 -169 62z" />
    <glyph glyph-name="Ograve" unicode="&#xd2;" 
d="M921 361q0 -393 -405 -393q-406 1 -406 393q141 570 0 1140q0 392 406 392q405 0 405 -392q-141 -570 0 -1140zM639 1501q0 127 -123 127h-2q-122 0 -122 -127q151 -570 0 -1140q0 -127 123 -127q124 0 124 127q-151 570 0 1140zM200 2074q-26 12 116 77q109 50 135 37
q-17 -118 234 -227q48 -46 -251 0z" />
    <glyph glyph-name="Oacute" unicode="&#xd3;" 
d="M921 361q0 -393 -405 -393q-406 1 -406 393q141 570 0 1140q0 392 406 392q405 0 405 -392q-141 -570 0 -1140zM639 1501q0 127 -123 127h-2q-122 0 -122 -127q151 -570 0 -1140q0 -127 123 -127q124 0 124 127q-151 570 0 1140zM616 1961q-299 -46 -250 0
q251 109 234 227q26 13 135 -37q142 -65 116 -77z" />
    <glyph glyph-name="Ocircumflex" unicode="&#xd4;" 
d="M639 1501q0 127 -123 127h-2q-122 0 -122 -127q151 -570 0 -1140q0 -127 123 -127q124 0 124 127q-151 570 0 1140zM921 361q0 -393 -405 -393q-406 1 -406 393q141 570 0 1140q0 392 406 392q405 0 405 -392q-141 -570 0 -1140zM525 2026l-132 -64q-299 -46 -250 0
q251 110 234 229h296q-17 -119 234 -229q48 -46 -251 0z" />
    <glyph glyph-name="Otilde" unicode="&#xd5;" 
d="M921 361q0 -393 -405 -393q-406 1 -406 393q141 570 0 1140q0 392 406 392q405 0 405 -392q-141 -570 0 -1140zM639 1501q0 127 -123 127h-2q-122 0 -122 -127q151 -570 0 -1140q0 -127 123 -127q124 0 124 127q-151 570 0 1140zM487 2005q-65 40 -78 41q-31 0 -92 -96
q-64 -73 -113 -25q-57 58 28 169q62 101 162 106q65 0 169 -62q65 -40 78 -41q31 0 92 96q64 73 112 25q58 -58 -27 -169q-62 -101 -162 -106q-66 0 -169 62z" />
    <glyph glyph-name="Odieresis" unicode="&#xd6;" 
d="M921 361q0 -393 -405 -393q-406 1 -406 393q141 570 0 1140q0 392 406 392q405 0 405 -392q-141 -570 0 -1140zM639 1501q0 127 -123 127h-2q-122 0 -122 -127q151 -570 0 -1140q0 -127 123 -127q124 0 124 127q-151 570 0 1140zM449 1989q0 -50 -122 -50t-122 50
q42 73 0 144q0 50 122 50t122 -50q-42 -67 0 -144zM845 1989q0 -50 -122 -50t-122 50q42 73 0 144q0 50 122 50t122 -50q-42 -67 0 -144z" />
    <glyph glyph-name="multiply" unicode="&#xd7;" horiz-adv-x="1047" 
d="M383 676q-87 -86 -121 -52q-19 78 -96 96q-34 34 52 121l118 118l-117 117q-87 86 -53 120q79 19 97 97q34 34 120 -52l117 -118l117 117q87 86 121 53q15 -75 96 -97q34 -34 -52 -121l-117 -117l118 -117q86 -86 52 -120q-75 -15 -97 -97q-34 -34 -120 53l-117 117z" />
    <glyph glyph-name="Oslash" unicode="&#xd8;" horiz-adv-x="1053" 
d="M921 361q0 -393 -405 -393q-99 0 -174 24q-62 -179 -170 -145q-110 34 -53 222l3 11q16 33 31 67q-43 86 -43 214q141 570 0 1140q0 392 406 392q99 0 174 -24q62 176 154 147q128 -40 66 -238l-25 -79q36 -82 36 -198q-141 -570 0 -1140zM628 1564q-25 64 -112 64h-2
q-122 0 -122 -127q72 -272 75 -545q94 300 161 608zM515 234q124 0 124 127q-48 179 -65 358l-146 -459q30 -26 87 -26z" />
    <glyph glyph-name="Ugrave" unicode="&#xd9;" horiz-adv-x="1253" 
d="M120 1744q0 49 72 83q70 34 169 35h14q96 -2 165 -35q72 -34 72 -83t-72 -84q-16 -7 -33 -13v-1287q0 -126 123 -126q124 0 134 126q90 413 62 744q-27 296 -72 539q-23 7 -43 17q-72 35 -72 84t72 83q70 34 169 35h14q96 -2 165 -35q72 -34 72 -83t-72 -84
q-16 -7 -33 -13v-1287q0 -392 -396 -392q-392 1 -392 392q98 413 69 744q-27 296 -72 539q-23 7 -43 17q-72 35 -72 84zM276 2074q-26 12 116 77q109 50 135 37q-17 -118 234 -227q48 -46 -251 0z" />
    <glyph glyph-name="Uacute" unicode="&#xda;" horiz-adv-x="1253" 
d="M639 1776q0 49 72 84q72 34 174 34h2q100 -1 172 -34q72 -35 72 -84t-72 -83q-16 -8 -33 -14v-1287q0 -392 -396 -392q-392 1 -392 392q98 413 69 744q-27 296 -72 539q-23 8 -43 18q-72 34 -72 83t72 84q72 34 174 34h9q96 -2 165 -34q72 -35 72 -84t-72 -83
q-16 -8 -33 -14v-1287q0 -126 123 -126q124 0 134 126q90 413 62 744q-27 296 -72 539q-23 8 -43 18q-72 34 -72 83zM654 1961q-299 -46 -250 0q251 109 234 227q26 13 135 -37q142 -65 116 -77z" />
    <glyph glyph-name="Ucircumflex" unicode="&#xdb;" horiz-adv-x="1253" 
d="M639 1776q0 49 72 84q70 33 169 34h14q96 -2 165 -34q72 -35 72 -84t-72 -83q-16 -8 -33 -14v-1287q0 -392 -396 -392q-392 1 -392 392q98 413 69 744q-27 296 -72 539q-23 8 -43 18q-72 34 -72 83t72 84q70 33 169 34h14q96 -2 165 -34q72 -35 72 -84t-72 -83
q-16 -8 -33 -14v-1287q0 -126 123 -126q124 0 134 126q90 413 62 744q-27 296 -72 539q-23 8 -43 18q-72 34 -72 83zM625 2026l-132 -64q-299 -46 -250 0q251 110 234 229h296q-17 -119 234 -229q48 -46 -251 0z" />
    <glyph glyph-name="Udieresis" unicode="&#xdc;" horiz-adv-x="1253" 
d="M639 1776q0 49 72 84q70 33 169 34h14q96 -2 165 -34q72 -35 72 -84t-72 -83q-16 -8 -33 -14v-1287q0 -392 -396 -392q-392 1 -392 392q98 413 69 744q-27 296 -72 539q-23 8 -43 18q-72 34 -72 83t72 84q72 34 174 34t174 -34q72 -35 72 -84t-72 -83q-16 -8 -33 -14
v-1287q0 -126 123 -126q124 0 134 126q90 413 62 744q-27 296 -72 539q-23 8 -43 18q-72 34 -72 83zM945 1989q0 -50 -122 -50t-122 50q42 73 0 144q0 50 122 50t122 -50q-42 -67 0 -144zM549 1989q0 -50 -122 -50t-122 50q42 73 0 144q0 50 122 50t122 -50q-42 -67 0 -144z
" />
    <glyph glyph-name="Yacute" unicode="&#xdd;" horiz-adv-x="1257" 
d="M1187 1744q0 -49 -72 -84q-28 -13 -59 -21q-171 -274 -291 -566v-858q16 -6 32 -14q72 -34 72 -83t-72 -83.5t-174 -34.5t-174 34.5t-72 83.5t72 83q20 10 43 17q54 291 64 582l-38 130q-136 368 -347 709q-32 8 -59 21q-72 35 -72 84t72 83.5t173 34.5h13q94 -2 162 -35
q72 -34 72 -83q0 -48 -70 -83l152 -398l150 398q-69 35 -69 83q0 49 72 83q69 33 166 35h8q102 0 174 -34.5t72 -83.5zM726 1961q-299 -46 -250 0q251 109 234 227q26 13 135 -37q142 -65 116 -77z" />
    <glyph glyph-name="Thorn" unicode="&#xde;" horiz-adv-x="1092" 
d="M130 118q0 49 72 83q14 7 29 13q134 717 0 1434q-15 5 -29 12q-72 35 -72 84t72 83q48 23 109 31q16 4 34 4h31q102 0 174 -34.5t72 -83.5t-72 -84q-21 -10 -45 -17v-181h124q236 0 324 -154q40 -62 51 -155v-3q-155 -203 -4 -435q-32 -224 -265 -296q-65 -20 -189 -20
h-41v-180q24 -8 45 -18q72 -34 72 -83t-72 -83.5t-174 -34.5h-30q-83 5 -144 34q-72 35 -72 84zM747 1150q0 49 -123 49h-2q-97 0 -117 -31v-471q19 -31 118 -31q124 0 124 49q-99 151 -68 291q16 74 68 144z" />
    <glyph glyph-name="germandbls" unicode="&#xdf;" horiz-adv-x="1141" 
d="M130 118q0 49 72 83q14 7 29 13q67 357 68 717q-1 381 -76 761q0 171 123 170h311q335 0 372 -311v-3q-155 -203 -4 -435q-27 -123 -147 -182q120 -60 147 -183q-151 -482 4 -685v-3q-37 -310 -337 -267q-63 33 -63 126q0 71 66 97q8 4 16 7q40 12 40 40q-52 70 -68 144
q-31 140 68 541q0 49 -124 49q-123 0 -123 -49v-529q24 -7 46 -18q72 -34 72 -83t-72 -83.5t-174 -34.5h-31q-18 0 -34 3q-61 8 -109 31q-72 35 -72 84zM751 1548q0 49 -123 49h-2q-122 0 -122 -49v-435q0 -49 123 -49q124 0 124 49q-99 151 -68 291q16 74 68 144z" />
    <glyph glyph-name="agrave" unicode="&#xe0;" horiz-adv-x="1255" 
d="M721 118q0 49 72 83q17 9 36 15l-36 179h-332l-37 -179q19 -7 36 -15q72 -34 72 -83t-72 -84q-69 -33 -164 -34h-16q-98 1 -168 34q-72 35 -72 84t72 83q20 10 42 17q241 700 302 1441q-2 0 -3 1q-72 35 -72 84t72 83q69 33 165 35h18q96 -2 165 -35q72 -34 72 -83
t-72 -84q-2 -1 -4 -1q61 -741 301 -1441q23 -7 43 -17q72 -34 72 -83t-72 -83.5t-174 -34.5t-174 34.5t-72 83.5zM508 661h238q-100 270 -119 774q-19 -504 -119 -774zM300 2074q-26 12 116 77q109 50 135 37q-17 -118 234 -227q48 -46 -251 0z" />
    <glyph glyph-name="aacute" unicode="&#xe1;" horiz-adv-x="1255" 
d="M721 118q0 49 72 84q17 8 36 14l-36 179h-332l-37 -179q19 -6 36 -14q72 -35 72 -84t-72 -83q-69 -34 -164 -35h-16q-98 1 -168 35q-72 34 -72 83t72 84q20 9 42 16q241 700 302 1441q-2 1 -3 2q-72 34 -72 83t72 84q69 32 165 34h18q96 -2 165 -34q72 -35 72 -84
t-72 -83l-4 -2q61 -741 301 -1441q23 -7 43 -16q72 -35 72 -84t-72 -83q-72 -35 -174 -35t-174 35q-72 34 -72 83zM746 661q-100 270 -119 774q-19 -504 -119 -774h238zM720 1961q-299 -46 -250 0q251 109 234 227q26 13 135 -37q142 -65 116 -77z" />
    <glyph glyph-name="acircumflex" unicode="&#xe2;" horiz-adv-x="1255" 
d="M721 118q0 49 72 84q17 8 36 14l-36 179h-332l-37 -179q19 -6 36 -14q72 -35 72 -84t-72 -83q-69 -34 -164 -35h-16q-98 1 -168 35q-72 34 -72 83t72 84q20 9 42 16q241 700 302 1441q-2 1 -3 2q-72 34 -72 83t72 84q72 34 174 34t174 -34q72 -35 72 -84t-72 -83l-4 -2
q61 -741 301 -1441q23 -7 43 -16q72 -35 72 -84t-72 -83q-70 -34 -168 -35h-16q-96 1 -164 35q-72 34 -72 83zM627 2026l-132 -64q-299 -46 -250 0q251 110 234 229h296q-17 -119 234 -229q48 -46 -251 0zM746 661q-100 270 -119 774q-19 -504 -119 -774h238z" />
    <glyph glyph-name="atilde" unicode="&#xe3;" horiz-adv-x="1255" 
d="M721 118q0 49 72 84q17 8 36 14l-36 179h-332l-37 -179q19 -6 36 -14q72 -35 72 -84t-72 -83q-72 -35 -174 -35t-174 35q-72 34 -72 83t72 84q20 9 42 16q241 700 302 1441q-2 1 -3 2q-72 34 -72 83t72 84q69 32 165 34h9q102 0 174 -34q72 -35 72 -84t-72 -83l-4 -2
q61 -741 301 -1441q23 -7 43 -16q72 -35 72 -84t-72 -83q-70 -34 -168 -35h-16q-96 1 -164 35q-72 34 -72 83zM589 2005q-65 40 -78 41q-31 0 -92 -96q-64 -73 -113 -25q-57 58 28 169q62 101 162 106q65 0 169 -62q65 -40 78 -41q31 0 92 96q64 73 112 25q58 -58 -27 -169
q-62 -101 -162 -106q-66 0 -169 62zM746 661q-100 270 -119 774q-19 -504 -119 -774h238z" />
    <glyph glyph-name="adieresis" unicode="&#xe4;" horiz-adv-x="1255" 
d="M721 118q0 49 72 84q17 8 36 14l-36 179h-332l-37 -179q19 -6 36 -14q72 -35 72 -84t-72 -83q-69 -34 -164 -35h-10q-102 0 -174 35q-72 34 -72 83t72 84q20 9 42 16q241 700 302 1441q-2 1 -3 2q-72 34 -72 83t72 84q71 34 173 34h10q96 -2 165 -34q72 -35 72 -84
t-72 -83l-4 -2q61 -741 301 -1441q23 -7 43 -16q72 -35 72 -84t-72 -83q-70 -34 -168 -35h-6q-102 0 -174 35q-72 34 -72 83zM746 661q-100 270 -119 774q-19 -504 -119 -774h238zM551 1989q0 -50 -122 -50t-122 50q42 73 0 144q0 50 122 50t122 -50q-42 -67 0 -144z
M947 1989q0 -50 -122 -50t-122 50q42 73 0 144q0 50 122 50t122 -50q-42 -67 0 -144z" />
    <glyph glyph-name="aring" unicode="&#xe5;" horiz-adv-x="1255" 
d="M721 118q0 49 72 83q17 8 36 14l-37 180h-332l-37 -179q19 -7 37 -15q72 -34 72 -83t-72 -84q-69 -33 -165 -34h-9q-102 0 -174 34q-72 35 -72 84t72 83q20 9 42 16q240 700 301 1442q-1 0 -2 1q-72 35 -72 84t72 83h1q-27 50 -27 166q0 199 81 199q110 -69 237 0
q81 0 81 -199q0 -117 -28 -165q2 -1 3 -1q72 -34 72 -83t-72 -84q-2 -1 -5 -2q61 -741 302 -1441q23 -7 43 -16q72 -34 72 -83t-72 -84q-72 -34 -174 -34t-174 34q-72 35 -72 84zM626 1435q-19 -504 -119 -774h238q-100 270 -119 774zM508 2053q-26 0 -26 -60v-1
q0 -60 26 -60q110 74 237 0q26 0 26 60q0 61 -26 61q-127 -74 -237 0z" />
    <glyph glyph-name="ae" unicode="&#xe6;" horiz-adv-x="1561" 
d="M460 35q-72 -35 -174 -35t-174 35q-72 34 -72 83t72 84q20 9 42 16q240 700 301 1441l-2 2q-72 34 -72 83t72 84q68 32 164 34h574q72 0 113 -29l13 13q11 8 22 12t22 4h5q2 -1 4 -1l5 -1q4 -1 7 -2q13 -4 24 -14q11 -9 20 -23q4 -5 8 -11q4 -8 9 -17q0 -1 1 -3
q10 -20 17 -42l4 -16q5 -17 8 -35l2 -14q2 -15 3 -32l1 -20v-30q-1 -5 -1 -10v-10q-2 -24 -5 -47l-6 -26l-6 -24q-1 -4 -3 -8q-5 -14 -10 -27q-2 -4 -4 -7q-3 -7 -7 -14q-5 -10 -11 -18q-5 -7 -10 -12q-5 -6 -10 -10l-2 -2q-6 -5 -13 -9l-4 -2q-8 -3 -17 -5h-19q-6 1 -12 3
q-2 1 -4.5 2t-4.5 2q-5 3 -11 7l-2 2q-12 10 -24 27q-4 7 -9 15q-3 5 -5 10l-2 4q-1 3 -3 7q-2 3 -3 7q-7 17 -13 36l-4 16q-1 4 -2 9q0 2 -1 4q-1 7 -2 13l-2 14q-2 16 -3 33v2q-24 -3 -53 -3q-140 28 -280 45v-592q115 16 230 39q170 0 170 -122q0 -160 -170 -160h-230
v-553q140 17 280 45q29 0 53 -4q4 81 33 142q35 72 84 72t83.5 -72t34.5 -174t-34.5 -174t-83.5 -72q-31 0 -57 29q-41 -29 -113 -29h-422q-137 0 -140 161q23 117 39 234h-208l-37 -179q19 -6 37 -14q72 -35 72 -84t-72 -83zM626 1435q-19 -504 -119 -774h188q5 70 7 140
q-62 249 -76 634z" />
    <glyph glyph-name="ccedilla" unicode="&#xe7;" horiz-adv-x="1023" 
d="M392 360q0 -127 125 -127q125 -1 125 48q-53 70 -69 144q-12 51 -6 104q16 108 141 119q106 8 146 -69q-42 -156 67 -298q-40 -203 -207 -274q-53 -28 -133 -36l40 -37q40 -31 50 -74l5 -28q6 -35 15 -66q0 -116 -139 -116q-116 0 -137 92q27 30 27 63q0 12 -4 25
q12 21 43 21h6q43 -3 48 -35l1 -12q0 -32 -26 -62q0 -14 42 -14q43 0 43 38l-16 64q-10 26 -94 104q-12 13 -12 27v8q-364 21 -363 390q64 245 69 555v33q-5 310 -69 555q-1 391 407 391q124 0 197 -39q167 -71 207 -274q-109 -142 -67 -298q-40 -77 -146 -69
q-125 11 -141 119q-6 53 6 104q16 74 69 144q0 49 -125 49q-125 -1 -125 -128v-1141z" />
    <glyph glyph-name="egrave" unicode="&#xe8;" horiz-adv-x="1062" 
d="M692 1862q72 0 113 -29l1 1q6 7 12 12q2 0 2 1q4 3 7 5l4 2q3 1 5 2q5 2 9 4q8 2 17 2h5q2 -1 4 -1l5 -1q4 -1 7 -2q5 -1 9 -4q7 -3 13 -8l2 -2q11 -9 20 -23q4 -5 8 -11q4 -8 9 -17q0 -1 1 -3q4 -7 7 -15q12 -28 18 -60q1 -3 1 -5q2 -6 3 -13q4 -27 5 -56q1 -5 1 -10
v-15q0 -18 -1 -35q-1 -10 -2 -19q0 -7 -1 -14q-2 -14 -5 -27q-3 -15 -7 -29l-5 -16l-3 -8l-4 -12l-3 -7q-2 -4 -4 -7q-3 -7 -7 -14q-1 -3 -3 -6q-17 -28 -36 -41q-2 -1 -3 -1q-4 -3 -8 -5q-2 -1 -5 -2t-7 -2l-5 -1h-19q-3 1 -7 2q-2 0 -5 1l-5 2l-4 2t-4 3q-5 2 -9 6
q-12 10 -24 27q-2 4 -5 9l-4 6q-3 5 -5 10l-2 4q-1 3 -3 7q-4 9 -8 19q-3 8 -5 16q-5 15 -9 33q-2 8 -3 17q-4 24 -5 49q-24 -3 -53 -3q-140 28 -280 45v-592q115 16 230 39q170 0 170 -122q0 -160 -170 -160h-230v-553q140 17 280 45q29 0 53 -4q4 81 33 142q35 72 84 72
t83.5 -72t34.5 -174t-34.5 -174t-83.5 -72q-31 0 -57 29q-41 -29 -113 -29h-422q-137 0 -140 161q151 770 0 1531q0 170 122 170h440zM198 2074q-26 12 116 77q109 50 135 37q-17 -118 234 -227q48 -46 -251 0z" />
    <glyph glyph-name="eacute" unicode="&#xe9;" horiz-adv-x="1062" 
d="M692 1862q72 0 113 -29l1 1q6 7 12 12q13 10 27 14q4 1 7 1q2 1 5 1h10q5 -1 9 -2t7 -2q5 -1 9 -4l4 -2q2 -1 3 -2l6 -4l12 -12q5 -6 10 -13q4 -5 8 -11q5 -9 10 -20l4 -8l3 -7q4 -9 7 -19q1 -4 3 -8l4 -16l4 -17q4 -16 6 -32q1 -6 1 -13q1 -10 2 -19l1 -20v-30
q-1 -28 -4 -53q-4 -30 -12 -56l-5 -16l-3 -8q-5 -14 -11 -26q-18 -38 -40 -56q-3 -3 -6 -5q-2 -1 -3 -1q-4 -3 -8 -5q-8 -3 -17 -5h-19q-6 1 -12 3q-6 3 -13 7q-3 2 -7 4q-7 6 -14 14q-9 10 -17 24q-6 9 -11 20l-6 14q-3 6 -5 12l-3 8l-5 16l-4 16q-1 4 -2 9q-2 8 -3 17
l-4 28q0 5 -0.5 9.5t-0.5 9.5v2q-24 -3 -53 -3q-140 28 -280 45v-592q115 16 230 39q170 0 170 -122q0 -160 -170 -160h-230v-553q140 17 280 45q29 0 53 -4q4 81 33 142q35 72 84 72t83.5 -72t34.5 -174t-34.5 -174t-83.5 -72q-31 0 -57 29q-41 -29 -113 -29h-422
q-137 0 -140 161q151 770 0 1531q0 170 122 170h440zM587 1961q-299 -46 -250 0q251 109 234 227q26 13 135 -37q142 -65 116 -77z" />
    <glyph glyph-name="ecircumflex" unicode="&#xea;" horiz-adv-x="1062" 
d="M412 1033q115 16 230 39q170 0 170 -122q0 -160 -170 -160h-230v-553q140 17 280 45q29 0 53 -4q4 81 33 142q35 72 84 72t83.5 -72t34.5 -174t-34.5 -174t-83.5 -72q-31 0 -57 29q-41 -29 -113 -29h-422q-137 0 -140 161q151 770 0 1531q0 170 122 170h440q72 0 113 -29
q22 24 47 28q5 1 10 1t9 -1q4 0 7 -1l10 -4l8 -4q2 -1 3 -2q15 -10 28 -29q9 -12 17 -28q0 -1 1 -3q10 -20 17 -42l4 -16q1 -5 2 -9l2 -8q5 -22 7 -45q2 -15 2 -29q1 -13 1 -25v-15q-1 -11 -1 -20q0 -5 -1 -10q-3 -43 -14 -79q-5 -19 -12 -36q-3 -7 -6.5 -14t-7.5 -14
q-14 -26 -31 -40q-5 -5 -11 -8q-4 -3 -8 -5q-13 -5 -26 -5h-5q-11 1 -21 5q-3 1 -5 2q-5 3 -11 7q-7 6 -14 14q-6 6 -12 15q-2 4 -5 9l-4 6q-3 5 -5 10l-2 4q-6 12 -11 26l-3 8l-2 8q-3 7 -5 16q-3 10 -5 21q-1 7 -2 13q-4 24 -5 49q-24 -3 -53 -3q-140 28 -280 45v-592z
M519 2026l-132 -64q-299 -46 -250 0q251 110 234 229h296q-17 -119 234 -229q48 -46 -251 0z" />
    <glyph glyph-name="edieresis" unicode="&#xeb;" horiz-adv-x="1062" 
d="M692 1862q72 0 113 -29q8 8 15 14q6 4 11 7q3 1 5 2q12 6 26 6h5q6 -1 11 -2q3 -1 5 -2q7 -2 13 -6q2 -1 3 -2l8 -6l10 -10q9 -10 18 -24q1 -4 3 -7q4 -6 7 -13q11 -24 19 -50l2 -8l4 -17q1 -3 1 -5q2 -6 3 -13q3 -18 4 -37q1 -14 2 -29v-30q-1 -11 -1 -20q0 -5 -0.5 -10
t-1.5 -9q0 -7 -1 -14t-2 -13.5t-3 -13.5q0 -2 -1 -4q-1 -4 -2 -8.5t-2 -8.5l-2 -8q-3 -13 -8 -24l-4 -12l-3 -7q-2 -4 -4 -7q-1 -2 -1 -4q-17 -33 -37 -50l-2 -2q-4 -4 -9 -6q-6 -4 -13 -7q-2 -1 -5 -1q-1 0 -2 -1l-5 -1h-9q-9 0 -17 2q-14 4 -27 14q-6 5 -12 12
q-11 12 -21 30q-3 7 -7 14q-1 3 -3 7q-2 3 -3 7q-3 6 -5 12q-8 23 -14 49q-6 31 -8 66q-24 -3 -53 -3q-140 28 -280 45v-592q115 16 230 39q170 0 170 -122q0 -160 -170 -160h-230v-553q140 17 280 45q29 0 53 -4q4 81 33 142q35 72 84 72t83.5 -72t34.5 -174t-34.5 -174
t-83.5 -72q-31 0 -57 29q-41 -29 -113 -29h-422q-137 0 -140 161q151 770 0 1531q0 170 122 170h440zM819 1989q0 -50 -122 -50t-122 50q42 73 0 144q0 50 122 50t122 -50q-42 -67 0 -144zM423 1989q0 -50 -122 -50t-122 50q42 73 0 144q0 50 122 50t122 -50q-42 -67 0 -144
z" />
    <glyph glyph-name="igrave" unicode="&#xec;" horiz-adv-x="706" 
d="M143 118q0 49 72 83q20 10 42 17q132 713 0 1426q-22 7 -42 16q-72 35 -72 84t72 83q58 28 135 34q9 1 20 1h19q102 0 174 -34.5t72 -83.5t-72 -84q-16 -7 -33 -13v-1432q17 -6 33 -14q72 -34 72 -83t-72 -84q-70 -33 -168 -34h-7q-102 0 -173 34q-72 35 -72 84zM60 2074
q-26 12 116 77q109 50 135 37q-17 -118 234 -227q48 -46 -251 0z" />
    <glyph glyph-name="iacute" unicode="&#xed;" horiz-adv-x="713" 
d="M138 118q0 49 72 83q20 10 42 17q132 713 0 1426q-22 7 -42 16q-72 35 -72 84t72 83q58 28 135 34q9 1 20 1h19q102 0 174 -34.5t72 -83.5t-72 -84q-16 -7 -33 -13v-1432q17 -6 33 -14q72 -34 72 -83t-72 -83.5t-174 -34.5h-8q-97 1 -166 34q-72 35 -72 84zM474 1961
q-299 -46 -250 0q251 109 234 227q26 13 135 -37q142 -65 116 -77z" />
    <glyph glyph-name="icircumflex" unicode="&#xee;" horiz-adv-x="778" 
d="M143 1744q0 49 72 83q58 28 135 34q9 1 20 1h19q102 0 174 -34.5t72 -83.5t-72 -84q-16 -7 -33 -13v-1432q17 -6 33 -14q72 -34 72 -83t-72 -83.5t-174 -34.5t-174 34.5t-72 83.5t72 83q20 10 42 17q132 713 0 1426q-22 7 -42 16q-72 35 -72 84zM389 2026l-132 -64
q-299 -46 -250 0q251 110 234 229h296q-17 -119 234 -229q48 -46 -251 0z" />
    <glyph glyph-name="idieresis" unicode="&#xef;" horiz-adv-x="640" 
d="M74 1744q0 49 72 83q58 28 135 34q9 1 20 1h19q102 0 174 -34.5t72 -83.5t-72 -84q-16 -7 -33 -13v-1432q17 -6 33 -14q72 -34 72 -83t-72 -83.5t-174 -34.5t-174 34.5t-72 83.5t72 83q20 10 42 17q132 713 0 1426q-22 7 -42 16q-72 35 -72 84zM244 1989q0 -50 -122 -50
t-122 50q42 73 0 144q0 50 122 50t122 -50q-42 -67 0 -144zM640 1989q0 -50 -122 -50t-122 50q42 73 0 144q0 50 122 50t122 -50q-42 -67 0 -144z" />
    <glyph glyph-name="eth" unicode="&#xf0;" horiz-adv-x="1115" 
d="M80 118q0 49 72 83q18 9 39 16q62 333 66 668q-77 -11 -153 -54h-2q-44 2 -44 107q0 94 46 94q76 -43 153 -55q-4 334 -66 668q-21 6 -39 15q-72 35 -72 84t72 83q55 27 128 33q11 2 24 2h39l275 -1q377 0 377 -391q-151 -538 0 -1079q0 -390 -377 -390l-18 -1h-295
q-13 0 -24 1q-73 7 -129 33q-72 35 -72 84zM562 925q0 -94 -46 -94q-26 14 -51 25v-591h124q123 0 123 126q-151 541 0 1079q0 127 -123 127h-124v-591q25 11 51 26h2q44 -2 44 -107z" />
    <glyph glyph-name="ntilde" unicode="&#xf1;" horiz-adv-x="1283" 
d="M661 118q0 49 72 83q20 10 42 17q8 39 14 78l-272 583v-664q17 -6 33 -14q72 -34 72 -83t-72 -84q-70 -33 -168 -34h-6q-102 0 -174 34.5t-72 83.5t72 83q20 10 42 17q67 357 67 713q0 223 -26 445l-1 2l1 1q-16 132 -41 265q-22 7 -42 16q-72 35 -72 84t72 83
q69 33 166 35h8q102 0 174 -34.5t72 -83.5t-72 -84q-16 -7 -33 -13v-188q120 -393 319 -750q6 111 6 222q0 357 -67 713q-22 7 -42 16q-72 35 -72 84t72 83q69 33 166 35h8q102 0 174 -34.5t72 -83.5t-72 -84q-16 -7 -33 -13v-1432q17 -6 33 -14q72 -34 72 -83t-72 -83.5
t-174 -34.5h-8q-97 1 -166 34q-72 35 -72 84zM603 2005q-65 40 -78 41q-31 0 -92 -96q-64 -73 -113 -25q-57 58 28 169q62 101 162 106q65 0 169 -62q65 -40 78 -41q31 0 92 96q64 73 112 25q58 -58 -27 -169q-62 -101 -162 -106q-66 0 -169 62z" />
    <glyph glyph-name="ograve" unicode="&#xf2;" 
d="M921 361q0 -393 -405 -393q-406 1 -406 393q141 570 0 1140q0 392 406 392q405 0 405 -392q-141 -570 0 -1140zM639 1501q0 127 -123 127h-2q-122 0 -122 -127q151 -570 0 -1140q0 -127 123 -127q124 0 124 127q-151 570 0 1140zM200 2074q-26 12 116 77q109 50 135 37
q-17 -118 234 -227q48 -46 -251 0z" />
    <glyph glyph-name="oacute" unicode="&#xf3;" 
d="M921 361q0 -393 -405 -393q-406 1 -406 393q141 570 0 1140q0 392 406 392q405 0 405 -392q-141 -570 0 -1140zM639 1501q0 127 -123 127h-2q-122 0 -122 -127q151 -570 0 -1140q0 -127 123 -127q124 0 124 127q-151 570 0 1140zM616 1961q-299 -46 -250 0
q251 109 234 227q26 13 135 -37q142 -65 116 -77z" />
    <glyph glyph-name="ocircumflex" unicode="&#xf4;" 
d="M639 1501q0 127 -123 127h-2q-122 0 -122 -127q151 -570 0 -1140q0 -127 123 -127q124 0 124 127q-151 570 0 1140zM921 361q0 -393 -405 -393q-406 1 -406 393q141 570 0 1140q0 392 406 392q405 0 405 -392q-141 -570 0 -1140zM525 2026l-132 -64q-299 -46 -250 0
q251 110 234 229h296q-17 -119 234 -229q48 -46 -251 0z" />
    <glyph glyph-name="otilde" unicode="&#xf5;" 
d="M921 361q0 -393 -405 -393q-406 1 -406 393q141 570 0 1140q0 392 406 392q405 0 405 -392q-141 -570 0 -1140zM639 1501q0 127 -123 127h-2q-122 0 -122 -127q151 -570 0 -1140q0 -127 123 -127q124 0 124 127q-151 570 0 1140zM487 2005q-65 40 -78 41q-31 0 -92 -96
q-64 -73 -113 -25q-57 58 28 169q62 101 162 106q65 0 169 -62q65 -40 78 -41q31 0 92 96q64 73 112 25q58 -58 -27 -169q-62 -101 -162 -106q-66 0 -169 62z" />
    <glyph glyph-name="odieresis" unicode="&#xf6;" 
d="M921 361q0 -393 -405 -393q-406 1 -406 393q141 570 0 1140q0 392 406 392q405 0 405 -392q-141 -570 0 -1140zM639 1501q0 127 -123 127h-2q-122 0 -122 -127q151 -570 0 -1140q0 -127 123 -127q124 0 124 127q-151 570 0 1140zM449 1989q0 -50 -122 -50t-122 50
q42 73 0 144q0 50 122 50t122 -50q-42 -67 0 -144zM845 1989q0 -50 -122 -50t-122 50q42 73 0 144q0 50 122 50t122 -50q-42 -67 0 -144z" />
    <glyph glyph-name="divide" unicode="&#xf7;" horiz-adv-x="1045" 
d="M686 1390q0 -66 -163 -66t-163 66q57 99 0 194q0 66 163 66t163 -66q-57 -90 0 -194zM686 383q0 -66 -163 -66t-163 66q57 99 0 194q0 66 163 66t163 -66q-57 -90 0 -194zM242 866q-122 0 -122 48q42 70 0 139q0 48 122 48h561q122 0 122 -48q-42 -65 0 -139
q0 -48 -122 -48h-561z" />
    <glyph glyph-name="oslash" unicode="&#xf8;" horiz-adv-x="1053" 
d="M921 361q0 -393 -405 -393q-99 0 -174 24q-62 -179 -170 -145q-110 34 -53 222l3 11q16 33 31 67q-43 86 -43 214q141 570 0 1140q0 392 406 392q99 0 174 -24q62 176 154 147q128 -40 66 -238l-25 -79q36 -82 36 -198q-141 -570 0 -1140zM628 1564q-25 64 -112 64h-2
q-122 0 -122 -127q72 -272 75 -545q94 300 161 608zM515 234q124 0 124 127q-48 179 -65 358l-146 -459q30 -26 87 -26z" />
    <glyph glyph-name="ugrave" unicode="&#xf9;" horiz-adv-x="1253" 
d="M120 1744q0 49 72 83q70 34 169 35h14q96 -2 165 -35q72 -34 72 -83t-72 -84q-16 -7 -33 -13v-1287q0 -126 123 -126q124 0 134 126q90 413 62 744q-27 296 -72 539q-23 7 -43 17q-72 35 -72 84t72 83q70 34 169 35h14q96 -2 165 -35q72 -34 72 -83t-72 -84
q-16 -7 -33 -13v-1287q0 -392 -396 -392q-392 1 -392 392q98 413 69 744q-27 296 -72 539q-23 7 -43 17q-72 35 -72 84zM276 2074q-26 12 116 77q109 50 135 37q-17 -118 234 -227q48 -46 -251 0z" />
    <glyph glyph-name="uacute" unicode="&#xfa;" horiz-adv-x="1253" 
d="M639 1776q0 49 72 84q72 34 174 34h2q100 -1 172 -34q72 -35 72 -84t-72 -83q-16 -8 -33 -14v-1287q0 -392 -396 -392q-392 1 -392 392q98 413 69 744q-27 296 -72 539q-23 8 -43 18q-72 34 -72 83t72 84q72 34 174 34h9q96 -2 165 -34q72 -35 72 -84t-72 -83
q-16 -8 -33 -14v-1287q0 -126 123 -126q124 0 134 126q90 413 62 744q-27 296 -72 539q-23 8 -43 18q-72 34 -72 83zM654 1961q-299 -46 -250 0q251 109 234 227q26 13 135 -37q142 -65 116 -77z" />
    <glyph glyph-name="ucircumflex" unicode="&#xfb;" horiz-adv-x="1253" 
d="M639 1776q0 49 72 84q70 33 169 34h14q96 -2 165 -34q72 -35 72 -84t-72 -83q-16 -8 -33 -14v-1287q0 -392 -396 -392q-392 1 -392 392q98 413 69 744q-27 296 -72 539q-23 8 -43 18q-72 34 -72 83t72 84q70 33 169 34h14q96 -2 165 -34q72 -35 72 -84t-72 -83
q-16 -8 -33 -14v-1287q0 -126 123 -126q124 0 134 126q90 413 62 744q-27 296 -72 539q-23 8 -43 18q-72 34 -72 83zM625 2026l-132 -64q-299 -46 -250 0q251 110 234 229h296q-17 -119 234 -229q48 -46 -251 0z" />
    <glyph glyph-name="udieresis" unicode="&#xfc;" horiz-adv-x="1253" 
d="M639 1776q0 49 72 84q70 33 169 34h14q96 -2 165 -34q72 -35 72 -84t-72 -83q-16 -8 -33 -14v-1287q0 -392 -396 -392q-392 1 -392 392q98 413 69 744q-27 296 -72 539q-23 8 -43 18q-72 34 -72 83t72 84q72 34 174 34t174 -34q72 -35 72 -84t-72 -83q-16 -8 -33 -14
v-1287q0 -126 123 -126q124 0 134 126q90 413 62 744q-27 296 -72 539q-23 8 -43 18q-72 34 -72 83zM945 1989q0 -50 -122 -50t-122 50q42 73 0 144q0 50 122 50t122 -50q-42 -67 0 -144zM549 1989q0 -50 -122 -50t-122 50q42 73 0 144q0 50 122 50t122 -50q-42 -67 0 -144z
" />
    <glyph glyph-name="yacute" unicode="&#xfd;" horiz-adv-x="1257" 
d="M1187 1744q0 -49 -72 -84q-28 -13 -59 -21q-171 -274 -291 -566v-858q16 -6 32 -14q72 -34 72 -83t-72 -83.5t-174 -34.5t-174 34.5t-72 83.5t72 83q20 10 43 17q54 291 64 582l-38 130q-136 368 -347 709q-32 8 -59 21q-72 35 -72 84t72 83.5t173 34.5h13q94 -2 162 -35
q72 -34 72 -83q0 -48 -70 -83l152 -398l150 398q-69 35 -69 83q0 49 72 83q69 33 166 35h8q102 0 174 -34.5t72 -83.5zM726 1961q-299 -46 -250 0q251 109 234 227q26 13 135 -37q142 -65 116 -77z" />
    <glyph glyph-name="thorn" unicode="&#xfe;" horiz-adv-x="1092" 
d="M130 118q0 49 72 83q14 7 29 13q134 717 0 1434q-15 5 -29 12q-72 35 -72 84t72 83q48 23 109 31q16 4 34 4h31q102 0 174 -34.5t72 -83.5t-72 -84q-21 -10 -45 -17v-181h124q236 0 324 -154q40 -62 51 -155v-3q-155 -203 -4 -435q-32 -224 -265 -296q-65 -20 -189 -20
h-41v-180q24 -8 45 -18q72 -34 72 -83t-72 -83.5t-174 -34.5h-30q-83 5 -144 34q-72 35 -72 84zM747 1150q0 49 -123 49h-2q-97 0 -117 -31v-471q19 -31 118 -31q124 0 124 49q-99 151 -68 291q16 74 68 144z" />
    <glyph glyph-name="ydieresis" unicode="&#xff;" horiz-adv-x="1257" 
d="M1187 1744q0 -49 -72 -84q-28 -13 -59 -21q-171 -274 -291 -566v-858q16 -6 32 -14q72 -34 72 -83t-72 -83.5t-174 -34.5t-174 34.5t-72 83.5t72 83q20 10 43 17q54 291 64 582l-38 130q-136 368 -347 709q-32 8 -59 21q-72 35 -72 84t72 83.5t173 34.5h13q94 -2 162 -35
q72 -34 72 -83q0 -48 -70 -83l152 -398l150 398q-69 35 -69 83q0 49 72 83.5t174 34.5t174 -34.5t72 -83.5zM538 1989q0 -50 -122 -50t-122 50q42 73 0 144q0 50 122 50t122 -50q-42 -67 0 -144zM934 1989q0 -50 -122 -50t-122 50q42 73 0 144q0 50 122 50t122 -50
q-42 -67 0 -144z" />
    <glyph glyph-name="dotlessi" unicode="&#x131;" horiz-adv-x="758" 
d="M130 118q0 49 72 83q20 10 43 17q132 713 0 1425q-23 7 -43 17q-72 35 -72 84t72 83q59 29 138 34q8 1 18 1h18q102 0 174 -34.5t72 -83.5t-72 -84q-16 -7 -32 -13v-1433q16 -5 32 -13q72 -34 72 -83t-72 -84q-70 -33 -167 -34h-14q-98 1 -167 34q-72 35 -72 84z" />
    <glyph glyph-name="circumflex" unicode="&#x2c6;" horiz-adv-x="1109" 
d="M555 2026l-132 -64q-149 -23 -212 -23q-45 0 -45 12q0 5 7 11q235 103 235 214l-1 15h296l-1 -15q0 -111 235 -214q7 -6 7 -11q0 -12 -46 -12q-62 0 -212 23z" />
    <glyph glyph-name="caron" unicode="&#x2c7;" horiz-adv-x="1109" 
d="M703 1939h-296l1 15q0 110 -235 214q-7 6 -7 11q0 12 44 12q62 0 213 -24l132 -63l131 63q151 24 214 24q44 0 44 -12q0 -5 -7 -11q-235 -104 -235 -214z" />
    <glyph glyph-name="uni02C9" unicode="&#x2c9;" horiz-adv-x="899" 
d="M252 1939q-122 0 -122 48q42 69 0 137q0 48 122 48h395q122 0 122 -48q-42 -64 0 -137q0 -48 -122 -48h-395z" />
    <glyph glyph-name="breve" unicode="&#x2d8;" horiz-adv-x="1017" 
d="M518 1939q-127 1 -223.5 26.5t-96.5 121.5t58 96q135 -52 262 -52t262 52q58 0 58 -96t-96.5 -121.5t-223.5 -26.5z" />
    <glyph glyph-name="dotaccent" unicode="&#x2d9;" horiz-adv-x="503" 
d="M374 1989q0 -50 -122 -50t-122 50q42 73 0 144q0 50 122 50t122 -50q-42 -67 0 -144z" />
    <glyph glyph-name="ring" unicode="&#x2da;" horiz-adv-x="657" 
d="M210 1939q-81 0 -81 199q0 200 81 200q127 -69 237 0q81 0 81 -200q0 -199 -81 -199q-110 69 -237 0zM447 2078q26 0 26 60v1q0 60 -26 60q-110 -74 -237 0q-26 0 -26 -60q0 -61 26 -61q127 74 237 0z" />
    <glyph glyph-name="ogonek" unicode="&#x2db;" horiz-adv-x="634" 
d="M272 -177q0 -35 43 -35q42 0 42 13q-18 19 -23 39q-2 4 -3 9q4 26 42 32q38 5 53 -19q0 -6 1 -13q4 -25 26 -48v-1q-14 -54 -71 -73q-25 -11 -68 -11q-86 0 -119 40q-7 10 -18 34q51 98 0 163q1 47 47 47q48 0 48 -47v-130z" />
    <glyph glyph-name="tilde" unicode="&#x2dc;" horiz-adv-x="947" 
d="M436 2005q-65 40 -78 41q-31 0 -92 -96q-64 -73 -113 -25q-57 58 28 169q62 101 162 106q65 0 169 -62q65 -40 78 -41q31 0 92 96q64 73 112 25q58 -58 -27 -169q-62 -101 -162 -106q-66 0 -169 62z" />
    <glyph glyph-name="endash" unicode="&#x2013;" horiz-adv-x="1172" 
d="M172 841q-122 0 -122 48q42 70 0 139q0 48 122 48h816q122 0 122 -48q-42 -65 0 -139q0 -48 -122 -48h-816z" />
    <glyph glyph-name="emdash" unicode="&#x2014;" horiz-adv-x="2048" 
d="M172 841q-122 0 -122 48q42 70 0 139q0 48 122 48h1719q122 0 122 -48q-42 -65 0 -139q0 -48 -122 -48h-1719z" />
    <glyph glyph-name="quoteleft" unicode="&#x2018;" horiz-adv-x="557" 
d="M219 1932q4 18 32 30q33 7 65 -1q31 -7 56 -29q19 -23 15 -42l-63 -252q133 -6 133 -67q-56 -98 0 -193q0 -67 -164 -67q-163 0 -163 67q56 90 0 193z" />
    <glyph glyph-name="quoteright" unicode="&#x2019;" horiz-adv-x="610" 
d="M368 1344q-4 -18 -32 -30q-33 -7 -65 1q-31 7 -56 29q-19 23 -15 42l63 252q-133 6 -133 67q56 98 0 193q0 67 164 67q163 0 163 -67q-56 -90 0 -193z" />
    <glyph glyph-name="quotesinglbase" unicode="&#x201a;" horiz-adv-x="557" 
d="M358 -294q-4 -18 -32 -30q-33 -7 -65 1q-31 7 -56 29q-19 23 -15 42l63 252q-133 6 -133 67q56 98 0 193q0 67 164 67q163 0 163 -67q-56 -90 0 -193z" />
    <glyph glyph-name="quotedblleft" unicode="&#x201c;" horiz-adv-x="1047" 
d="M709 1932q4 18 32 30q33 7 65 -1q31 -7 56 -29q19 -23 15 -42l-63 -252q133 -6 133 -67q-56 -98 0 -193q0 -67 -164 -67q-163 0 -163 67q56 90 0 193zM219 1932q4 18 32 30q33 7 65 -1q31 -7 56 -29q19 -23 15 -42l-63 -252q133 -6 133 -67q-56 -98 0 -193
q0 -67 -164 -67q-163 0 -163 67q56 90 0 193z" />
    <glyph glyph-name="quotedblright" unicode="&#x201d;" horiz-adv-x="1100" 
d="M368 1344q-4 -18 -32 -30q-33 -7 -65 1q-31 7 -56 29q-19 23 -15 42l63 252q-133 6 -133 67q56 98 0 193q0 67 164 67q163 0 163 -67q-56 -90 0 -193zM858 1344q-4 -18 -32 -30q-33 -7 -65 1q-31 7 -56 29q-19 23 -15 42l63 252q-133 6 -133 67q56 98 0 193q0 67 164 67
q163 0 163 -67q-56 -90 0 -193z" />
    <glyph glyph-name="quotedblbase" unicode="&#x201e;" horiz-adv-x="1100" 
d="M368 -293q-4 -18 -32 -30q-33 -7 -65 1q-31 7 -56 29q-19 23 -15 42l63 252q-133 6 -133 67q56 98 0 193q0 67 164 67q163 0 163 -67q-56 -90 0 -193zM858 -293q-4 -18 -32 -30q-33 -7 -65 1q-31 7 -56 29q-19 23 -15 42l63 252q-133 6 -133 67q56 98 0 193q0 67 164 67
q163 0 163 -67q-56 -90 0 -193z" />
    <glyph glyph-name="bullet" unicode="&#x2022;" horiz-adv-x="987" 
d="M709 1349q149 0 149 -364q0 -365 -149 -365q-230 126 -431 0q-149 0 -149 365q0 364 149 364q201 -126 431 0z" />
    <glyph glyph-name="ellipsis" unicode="&#x2026;" horiz-adv-x="2048" 
d="M447 67q0 -67 -163 -67q-164 0 -164 67q56 98 0 193q0 67 164 67q163 0 163 -67q-56 -90 0 -193zM1130 67q0 -67 -163 -67q-164 0 -164 67q56 98 0 193q0 67 164 67q163 0 163 -67q-56 -90 0 -193zM1813 67q0 -67 -163 -67q-164 0 -164 67q56 98 0 193q0 67 164 67
q163 0 163 -67q-56 -90 0 -193z" />
    <glyph glyph-name="guilsinglleft" unicode="&#x2039;" horiz-adv-x="536" 
d="M358 1647v-214q0 -122 -36 -122q-54 42 -108 0q-36 0 -36 122v214q-58 16 -58 58q51 98 0 193q0 67 148 67t148 -67q-51 -90 0 -193q0 -42 -58 -58z" />
    <glyph glyph-name="guilsinglright" unicode="&#x203a;" horiz-adv-x="536" 
d="M358 1647v-214q0 -122 -36 -122q-54 42 -108 0q-36 0 -36 122v214q-58 16 -58 58q51 98 0 193q0 67 148 67t148 -67q-51 -90 0 -193q0 -42 -58 -58z" />
    <glyph glyph-name="fraction" unicode="&#x2044;" horiz-adv-x="342" 
d="M452 1650l-369 -1510q-41 -169 -179 -134q-133 34 -97 195l3 9q331 717 369 1510q41 169 159 139q155 -40 114 -209z" />
    <glyph glyph-name="fraction" unicode="&#x2215;" horiz-adv-x="342" 
d="M452 1650l-369 -1510q-41 -169 -179 -134q-133 34 -97 195l3 9q331 717 369 1510q41 169 159 139q155 -40 114 -209z" />
    <glyph glyph-name="franc" unicode="&#x20a3;" horiz-adv-x="1088" 
d="M50 118q0 49 72 83q21 10 45 18q13 73 23 146h-60q-54 0 -54 134q0 128 51 132h3q43 -26 86 -43q49 554 -60 1104q0 170 122 170h440q72 0 113 -29q26 29 57 29q49 0 83.5 -72t34.5 -174t-34.5 -174t-83.5 -72t-84 72q-29 60 -33 141q-24 -3 -53 -3q-140 28 -280 45v-592
q115 16 230 39q170 0 170 -122q0 -160 -170 -160h-230v-225q85 15 171 66q54 0 54 -116q0 -150 -54 -150h-171v-151q16 -5 32 -13q72 -34 72 -83t-72 -83.5t-174 -34.5t-174 34.5t-72 83.5z" />
    <glyph glyph-name="Euro" unicode="&#x20ac;" horiz-adv-x="1094" 
d="M760 1007h-307v-191q154 2 307 39q74 0 74 -63q0 -82 -74 -82h-307v-350q0 -127 125 -127.5t125 48.5q-53 70 -69 144q-12 51 -6 104q16 108 141 119q106 8 146 -69q-42 -156 67 -298q-40 -203 -207 -274q-73 -39 -197 -39q-408 0 -407 391q42 161 58 351h-125
q-74 0 -74 73q0 70 70 72h4q67 -16 133 -26q2 42 3 85v33l-2 60h-134q-74 0 -74 73q0 70 70 72h4q64 -15 127 -25q-16 203 -60 375q-1 391 407 391q124 0 197 -39q167 -71 207 -274q-109 -142 -67 -298q-40 -77 -146 -69q-125 11 -141 119q-6 53 6 104q16 74 69 144
q0 49 -125 48.5t-125 -127.5v-388q154 2 307 39q74 0 74 -63q0 -82 -74 -82z" />
    <glyph glyph-name="uni2116" unicode="&#x2116;" horiz-adv-x="1956" 
d="M661 118q0 49 72 83q20 10 42 17q8 39 14 78l-272 583v-664q17 -6 33 -14q72 -34 72 -83t-72 -83.5t-174 -34.5t-174 34.5t-72 83.5t72 83q20 10 42 17q67 357 67 713q0 223 -26 445l-1 2l1 1q-16 132 -41 265q-22 7 -42 16q-72 35 -72 84t72 83.5t174 34.5h6
q98 -1 168 -35q72 -34 72 -83t-72 -84q-16 -7 -33 -13v-188q120 -393 319 -750q6 111 6 222q0 357 -67 713q-22 7 -42 16q-72 35 -72 84t72 83q71 35 173 35h1q102 0 174 -34.5t72 -83.5t-72 -84q-16 -7 -33 -13v-1432q17 -6 33 -14q72 -34 72 -83t-72 -83.5t-174 -34.5h-8
q-97 1 -166 34q-72 35 -72 84zM1834 1081q0 -208 -268 -208q-269 1 -269 208q94 322 0 604q0 208 269 208q268 0 268 -208q-94 -282 0 -604zM1429 506q-122 0 -122 36q42 53 0 105q0 36 122 36h272q122 0 122 -36q-42 -49 0 -105q0 -36 -122 -36h-272zM1647 1685
q0 67 -81 67h-1q-81 0 -81 -67q100 -282 0 -604q0 -67 81 -67q82 0 82 67q-100 322 0 604z" />
    <glyph glyph-name="trademark" unicode="&#x2122;" horiz-adv-x="1186" 
d="M1109 995q0 -21 -31 -36q-28 -13 -68 -14h-12q-39 1 -67 14q-30 15 -30 36q0 20 30 35q9 4 18 7q45 241 17 482q-71 -243 -90 -485q-2 -68 -70 -68h-1q-69 0 -70 68q-17 203 -69 407v-406q7 -2 13 -5q31 -15 31 -35q0 -21 -31 -36q-28 -13 -67 -14h-6q-43 0 -73.5 14.5
t-30.5 35.5q0 20 30 35q9 4 19 7q57 311 -4 622q0 71 51 71h63q36 1 51 -51q85 -341 93 -576q8 235 94 576q14 51 50 51h47q68 0 68 -71v-623l14 -6q31 -15 31 -35zM177 995q0 20 30 34q9 4 18 7q54 292 3 584q-23 -4 -47 -9q-12 0 -22 1q-2 -34 -14 -59q-15 -30 -35 -30
q-21 0 -35.5 30t-14.5 73t14.5 73.5t35.5 30.5q12 0 23 -12q17 12 48 12h199q30 0 48 -12q11 12 24 12q20 0 34.5 -30.5t14.5 -73.5t-14.5 -73t-34.5 -30q-21 0 -36 30q-12 25 -14 59q-10 -1 -22 -1l-40 7v-583q7 -2 14 -6q31 -14 31 -34q0 -21 -31 -36q-28 -13 -68 -14h-5
q-43 0 -73.5 14.5t-30.5 35.5z" />
    <glyph glyph-name="product" unicode="&#x220f;" horiz-adv-x="1283" 
d="M1047 1692v-1478q16 -5 32 -13q72 -34 72 -83t-72 -84q-70 -33 -167 -34h-14q-98 1 -167 34q-72 35 -72 84t72 83q20 10 43 17q128 689 9 1378h-265v-1382q16 -5 32 -13q72 -34 72 -83t-72 -84q-70 -33 -167 -34h-14q-98 1 -167 34q-72 35 -72 84t72 83q20 10 43 17
q137 737 -9 1474v9q3 161 140 161h529q142 0 142 -170z" />
    <glyph glyph-name="minus" unicode="&#x2212;" horiz-adv-x="1045" 
d="M242 866q-122 0 -122 48q42 71 0 140q0 48 122 48h561q122 0 122 -48q-42 -65 0 -140q0 -48 -122 -48h-561z" />
    <glyph glyph-name="infinity" unicode="&#x221e;" horiz-adv-x="2301" 
d="M1678 1394q244 0 333 -132q56 -83 60 -259v-24q0 -156 -48 -242q-83 -154 -345 -154q-152 141 -339 0q-184 0 -260 155q-76 -155 -260 -155q-154 141 -281 0q-270 0 -351 165q-57 114 -57 235q0 112 49 228q76 183 359 183q127 -141 281 0q184 0 260 -155q76 155 260 155
q187 -141 339 0zM1320 1115q-49 0 -49 -126v-2q0 -125 49 -125q206 155 440 0q49 0 49 126q0 127 -49 127q-234 -155 -440 0zM459 1115q-49 0 -49 -126v-2q0 -125 49 -125q206 155 440 0q49 0 49 126q0 127 -49 127q-234 -155 -440 0z" />
    <glyph glyph-name="approxequal" unicode="&#x2248;" horiz-adv-x="1100" 
d="M499 927q-85 45 -101 47q-41 0 -121 -109q-83 -83 -147 -28q-74 65 36 191q82 114 212 120q86 0 221 -70q86 -46 102 -47q41 0 121 109q82 83 146 28q75 -65 -36 -191q-81 -114 -211 -120q-87 0 -222 70zM499 606q-85 45 -101 47q-41 0 -121 -109q-83 -83 -147 -28
q-74 65 36 191q82 114 212 120q86 0 221 -70q86 -46 102 -47q41 0 121 109q82 83 146 28q75 -65 -36 -191q-81 -114 -211 -120q-87 0 -222 70z" />
    <glyph glyph-name="lessequal" unicode="&#x2264;" horiz-adv-x="1169" 
d="M242 0q-122 0 -122 45q42 69 0 129q0 45 122 45h683q122 0 122 -45q-42 -64 0 -129q0 -45 -122 -45h-683zM333 830q251 -19 654 -229q76 -44 57 -172l-1 -3q-20 -126 -98 -89q-361 261 -744 321q-80 3 -80 171v2q0 169 80 172q383 60 744 320q78 37 98 -89l1 -3
q19 -127 -57 -171q-403 -210 -654 -230z" />
    <glyph glyph-name="greaterequal" unicode="&#x2265;" horiz-adv-x="1169" 
d="M242 0q-122 0 -122 45q42 65 0 129q0 45 122 45h683q122 0 122 -45q-42 -60 0 -129q0 -45 -122 -45h-683zM181 1060q-77 44 -57 171v3q20 126 98 89q361 -260 745 -320q80 -3 80 -172v-2q0 -168 -80 -171q-384 -60 -745 -321q-78 -37 -98 89v3q-20 128 57 172
q402 210 653 229q-251 20 -653 230z" />
    <glyph glyph-name="uni0401" unicode="&#x401;" horiz-adv-x="1062" 
d="M692 1862q72 0 113 -29q8 8 15 14q6 4 11 7q3 1 5 2q12 6 26 6h5q6 -1 11 -2q3 -1 5 -2q7 -2 13 -6q2 -1 3 -2l8 -6l10 -10q9 -10 18 -24q1 -4 3 -7q4 -6 7 -13q11 -24 19 -50l2 -8l4 -17q1 -3 1 -5q2 -6 3 -13q3 -18 4 -37q1 -14 2 -29v-30q-1 -11 -1 -20q0 -5 -0.5 -10
t-1.5 -9q0 -7 -1 -14t-2 -13.5t-3 -13.5q0 -2 -1 -4q-1 -4 -2 -8.5t-2 -8.5l-2 -8q-3 -13 -8 -24l-4 -12l-3 -7q-2 -4 -4 -7q-1 -2 -1 -4q-17 -33 -37 -50l-2 -2q-4 -4 -9 -6q-6 -4 -13 -7q-2 -1 -5 -1q-1 0 -2 -1l-5 -1h-9q-9 0 -17 2q-14 4 -27 14q-6 5 -12 12
q-11 12 -21 30q-3 7 -7 14q-1 3 -3 7q-2 3 -3 7q-3 6 -5 12q-8 23 -14 49q-6 31 -8 66q-24 -3 -53 -3q-140 28 -280 45v-592q115 16 230 39q170 0 170 -122q0 -160 -170 -160h-230v-553q140 17 280 45q29 0 53 -4q4 81 33 142q35 72 84 72t83.5 -72t34.5 -174t-34.5 -174
t-83.5 -72q-31 0 -57 29q-41 -29 -113 -29h-422q-137 0 -140 161q151 770 0 1531q0 170 122 170h440zM819 1989q0 -50 -122 -50t-122 50q42 73 0 144q0 50 122 50t122 -50q-42 -67 0 -144zM423 1989q0 -50 -122 -50t-122 50q42 73 0 144q0 50 122 50t122 -50q-42 -67 0 -144
z" />
    <glyph glyph-name="uni0404" unicode="&#x404;" horiz-adv-x="1023" 
d="M392 360q0 -127 125 -127q125 -1 125 48q-53 70 -69 144q-12 51 -6 104q16 108 141 119q106 8 146 -69q-42 -156 67 -298q-40 -203 -207 -274q-73 -39 -197 -39q-408 0 -407 391q64 245 69 555v33q-5 310 -69 555q-1 391 407 391q124 0 197 -39q167 -71 207 -274
q-109 -142 -67 -298q-40 -77 -146 -69q-125 11 -141 119q-6 53 6 104q16 74 69 144q0 49 -125 49q-125 -1 -125 -128v-429q165 -2 165 -122q0 -158 -165 -160v-430z" />
    <glyph glyph-name="uni0406" unicode="&#x406;" horiz-adv-x="758" 
d="M130 118q0 49 72 83q20 10 43 17q132 713 0 1425q-23 7 -43 17q-72 35 -72 84t72 83q59 29 138 34q8 1 18 1h18q102 0 174 -34.5t72 -83.5t-72 -84q-16 -7 -32 -13v-1433q16 -5 32 -13q72 -34 72 -83t-72 -84q-70 -33 -167 -34h-14q-98 1 -167 34q-72 35 -72 84z" />
    <glyph glyph-name="uni0407" unicode="&#x407;" horiz-adv-x="640" 
d="M74 1744q0 49 72 83q58 28 135 34q9 1 20 1h19q102 0 174 -34.5t72 -83.5t-72 -84q-16 -7 -33 -13v-1432q17 -6 33 -14q72 -34 72 -83t-72 -83.5t-174 -34.5t-174 34.5t-72 83.5t72 83q20 10 42 17q132 713 0 1426q-22 7 -42 16q-72 35 -72 84zM244 1989q0 -50 -122 -50
t-122 50q42 73 0 144q0 50 122 50t122 -50q-42 -67 0 -144zM640 1989q0 -50 -122 -50t-122 50q42 73 0 144q0 50 122 50t122 -50q-42 -67 0 -144z" />
    <glyph glyph-name="uni040E" unicode="&#x40e;" horiz-adv-x="1227" 
d="M659 1744q0 49 72 83q69 34 167 35h7q102 0 174 -34.5t72 -83.5t-72 -84q-16 -7 -32 -13v-1477q0 -43 -12 -55q-139 -147 -391 -147q-125 0 -199 39q-168 71 -209 271v3q66 85 77 175q3 25 1 50q45 88 158 67q111 -20 122 -117q-3 -16 -7 -31q-16 -74 -69 -144
q0 -49 124 -48q118 0 147 72l10 62v1q33 227 39 455q-79 -25 -195 -25q-333 1 -333 391q-26 245 -63 454q-24 7 -45 17q-72 35 -72 84t72 83.5t174 34.5h3q100 -1 171 -35q72 -34 72 -83t-72 -84q-16 -7 -32 -13v-457q0 -126 125 -126q173 0 190 102q-15 238 -59 477
q-23 8 -43 17q-72 35 -72 84zM640 1939q-127 1 -223.5 26.5t-96.5 121.5t58 96q135 -52 262 -52t262 52q58 0 58 -96t-96.5 -121.5t-223.5 -26.5z" />
    <glyph glyph-name="uni0410" unicode="&#x410;" horiz-adv-x="1255" 
d="M721 118q0 49 72 83q17 9 36 15l-36 179h-332l-37 -179q19 -7 36 -15q72 -34 72 -83t-72 -84q-69 -33 -164 -34h-16q-98 1 -168 34q-72 35 -72 84t72 83q20 10 42 17q241 700 302 1441q-2 0 -3 1q-72 35 -72 84t72 83q71 35 173 35h2q101 0 173 -34.5t72 -83.5t-72 -84
q-2 -1 -4 -1q61 -741 301 -1441q23 -7 43 -17q72 -34 72 -83t-72 -84q-70 -33 -168 -34h-6q-102 0 -174 34.5t-72 83.5zM508 661h238q-100 270 -119 774q-19 -504 -119 -774z" />
    <glyph glyph-name="uni0411" unicode="&#x411;" horiz-adv-x="1097" 
d="M743 1862q74 0 115 -31q26 31 58 31q49 0 83.5 -72t34.5 -174t-34.5 -174t-83.5 -72t-84 72q-29 60 -33 142q-25 -4 -56 -4q-163 32 -326 50v-566h41q124 0 189 -20q233 -72 265 -296q-151 -232 4 -435v-3q-11 -93 -51 -155q-88 -154 -324 -154l-259 -1h-7
q-137 0 -140 161v9q151 761 0 1522q0 170 122 170h486zM591 457q-31 140 68 291q0 49 -124 49q-99 0 -118 -32v-470q20 -31 117 -31h2q123 0 123 49q-52 70 -68 144z" />
    <glyph glyph-name="uni0412" unicode="&#x412;" horiz-adv-x="1145" 
d="M131 1744q0 49 72 83q56 27 129 33q11 2 24 2h311q335 0 372 -311v-3q-155 -203 -4 -435q-27 -123 -147 -182q120 -60 147 -183q-151 -232 4 -435v-3q-37 -310 -372 -310h-311q-13 0 -24 1q-73 7 -129 33q-72 35 -72 84t72 83q18 9 39 16q66 356 67 714q-1 357 -67 714
q-21 6 -39 15q-72 35 -72 84zM761 1548q0 49 -123 49h-2q-122 0 -122 -49v-435q0 -49 123 -49q124 0 124 49q-99 151 -68 291q16 74 68 144zM693 457q-31 140 68 291q0 49 -124 49q-123 0 -123 -49v-435q0 -49 122 -49h2q123 0 123 49q-52 70 -68 144z" />
    <glyph glyph-name="uni0413" unicode="&#x413;" horiz-adv-x="1127" 
d="M797 1862q72 0 113 -29q26 29 57 29q49 0 83.5 -72t34.5 -174t-34.5 -174t-83.5 -72t-84 72q-29 60 -33 141q-24 -3 -53 -3q-140 28 -280 45v-1410q17 -6 33 -14q72 -34 72 -83t-72 -83.5t-174 -34.5h-8q-97 1 -166 34q-72 35 -72 84t72 83q20 10 42 17q137 737 -9 1474
q0 170 122 170h440z" />
    <glyph glyph-name="uni0414" unicode="&#x414;" horiz-adv-x="1477" 
d="M914 1596h-200l-61 -1330h261q115 665 0 1330zM1178 1647v-1385h1q136 -19 187 -114q49 -90 49 -328q-2 -161 -117 -161h-1q-115 0 -117 161q-1 113 -11 180h-793q-10 -67 -11 -180q-2 -161 -117 -161h-1q-115 0 -117 161q0 238 49 328q51 95 187 114h26q181 691 54 1381
h-5q-23 7 -43 17q-72 35 -72 84t72 83.5t174 34.5h471q97 -1 167 -35q72 -34 72 -83t-72 -84q-7 -3 -13 -6q-10 -4 -19 -7z" />
    <glyph glyph-name="uni0415" unicode="&#x415;" horiz-adv-x="1062" 
d="M692 1862q72 0 113 -29l1 1q6 7 12 12q5 3 9 6q4 2 9 4q8 4 16 5q2 1 5 1h5q5 0 9 -1q6 -1 12 -3q5 -1 9 -4l4 -2q2 -1 3 -2l6 -4l2 -2q11 -9 20 -23q4 -5 8 -11q1 -4 3 -7q3 -4 6 -10q0 -1 1 -3l4 -8l3 -7q5 -13 10 -27l4 -16q1 -5 2 -9l3 -13q5 -24 7 -50q0 -4 1 -9
v-10q1 -5 1 -10v-15q0 -18 -1 -35t-3 -33q-2 -14 -5 -27q0 -2 -1 -4q-2 -13 -6 -25l-2 -8q-1 -4 -3 -8l-3 -8l-4 -12q-3 -7 -7 -14q-1 -2 -1 -4q-8 -16 -17 -28q-5 -7 -10 -12q-5 -6 -10 -10q-9 -8 -19 -13q-5 -2 -10 -3q-1 0 -2 -1q-7 -1 -14 -1q-9 0 -17 2q-2 0 -5 1
q-18 7 -34 25q-9 10 -17 24l-4 6q-3 7 -7 14q-1 3 -3 7q-2 3 -3 7q-6 14 -10 28q-8 24 -12 50l-2 14q-2 11 -3 23v12q-24 -3 -53 -3q-140 28 -280 45v-592q115 16 230 39q170 0 170 -122q0 -160 -170 -160h-230v-553q140 17 280 45q29 0 53 -4q4 81 33 142q35 72 84 72
t83.5 -72t34.5 -174t-34.5 -174t-83.5 -72q-31 0 -57 29q-41 -29 -113 -29h-422q-137 0 -140 161q151 770 0 1531q0 170 122 170h440z" />
    <glyph glyph-name="uni0416" unicode="&#x416;" horiz-adv-x="1821" 
d="M684 1744q0 49 72 83q57 28 133 33q10 2 21 2h20q102 0 174 -34.5t72 -83.5t-72 -84q-16 -8 -34 -14v-670q176 324 289 683q-2 0 -3 1q-72 35 -72 84t72 83q63 31 151 34q10 1 20 1h3q102 0 174 -34.5t72 -83.5t-72 -84q-27 -13 -58 -21l-6 -12l-359 -696l359 -696
q3 -7 6 -13q31 -8 58 -21q72 -34 72 -83t-72 -83.5t-174 -34.5h-3q-10 -1 -20 0q-88 4 -151 34q-72 35 -72 84t72 83q1 1 3 2q-82 259 -196 500l-93 -180v-308q18 -6 34 -14q72 -34 72 -83t-72 -83.5t-174 -34.5h-2q-101 0 -172 34q-72 35 -72 84t72 83q19 10 41 16
q20 111 35 221l-137 265q-115 -241 -197 -500l4 -2q72 -34 72 -83t-72 -84q-64 -30 -151 -34h-23q-102 0 -174 34.5t-72 83.5t72 83q27 13 57 21q3 6 7 13l359 696l-359 696q-4 6 -7 12q-30 8 -57 21q-72 35 -72 84t72 83.5t174 34.5h2q11 1 21 -1q87 -3 151 -34
q72 -34 72 -83t-72 -84l-4 -2q136 -430 364 -813q9 399 -65 799q-22 7 -41 16q-72 35 -72 84z" />
    <glyph glyph-name="uni0417" unicode="&#x417;" horiz-adv-x="1023" 
d="M921 359q1 -391 -407 -391q-124 0 -197 39q-167 71 -207 274q109 142 67 298q40 77 146 69q125 -11 141 -119q6 -53 -6 -104q-16 -74 -69 -144q0 -49 125 -48.5t125 127.5v505q-165 2 -165 160q0 120 165 122v354q0 127 -125 127.5t-125 -48.5q53 -70 69 -144
q12 -51 6 -104q-16 -108 -141 -119q-106 -8 -146 69q42 156 -67 298q40 203 207 274q73 39 197 39q408 0 407 -391q-30 -113 -46.5 -267.5t-107.5 -229.5q91 -76 99.5 -272.5t54.5 -373.5z" />
    <glyph glyph-name="uni0418" unicode="&#x418;" horiz-adv-x="1283" 
d="M661 118q0 49 72 83q20 10 42 17q67 357 67 713v42l-325 -696v-62q17 -6 33 -14q72 -34 72 -83t-72 -83.5t-174 -34.5h-8q-97 1 -166 34q-72 35 -72 84t72 83q20 10 42 17q67 357 67 713q0 357 -67 713q-22 7 -42 16q-72 35 -72 84t72 83q69 33 166 35h14q98 -1 168 -35
q72 -34 72 -83t-72 -84q-16 -7 -33 -13v-868q176 333 286 697q-12 84 -28 168q-22 7 -42 16q-72 35 -72 84t72 83q69 33 166 35h14q98 -1 168 -35q72 -34 72 -83t-72 -84q-16 -7 -33 -13v-1432q17 -6 33 -14q72 -34 72 -83t-72 -83.5t-174 -34.5h-8q-97 1 -166 34
q-72 35 -72 84z" />
    <glyph glyph-name="uni0419" unicode="&#x419;" horiz-adv-x="1283" 
d="M907 1862q102 0 174 -34.5t72 -83.5t-72 -84q-16 -7 -33 -13v-1432q17 -6 33 -14q72 -34 72 -83t-72 -84q-70 -33 -168 -34h-14q-97 1 -166 34q-72 35 -72 84t72 83q20 10 42 17q67 357 67 713v42l-325 -696v-62q17 -6 33 -14q72 -34 72 -83t-72 -83.5t-174 -34.5
t-174 34.5t-72 83.5t72 83q20 10 42 17q67 357 67 713q0 357 -67 713q-22 7 -42 16q-72 35 -72 84t72 83q69 33 166 35h8q102 0 174 -34.5t72 -83.5t-72 -84q-16 -7 -33 -13v-868q176 333 286 697q-12 84 -28 168q-22 7 -42 16q-72 35 -72 84t72 83.5t174 34.5zM642 1939
q-127 1 -223.5 26.5t-96.5 121.5t58 96q135 -52 262 -52t262 52q58 0 58 -96t-96.5 -121.5t-223.5 -26.5z" />
    <glyph glyph-name="uni041A" unicode="&#x41a;" horiz-adv-x="1269" 
d="M732 118q0 49 72 83q1 1 3 2q-82 259 -196 500l-93 -180v-309q16 -5 32 -13q72 -34 72 -83t-72 -83.5t-174 -34.5t-174 34.5t-72 83.5t72 83q20 10 43 17q132 713 0 1425q-23 7 -43 17q-72 35 -72 84t72 83q59 29 138 34q8 1 18 1h18q102 0 174 -34.5t72 -83.5t-72 -84
q-16 -7 -32 -13v-671q176 324 289 683q-2 0 -3 1q-72 35 -72 84t72 83q63 31 151 34q10 1 20 1h3q102 0 174 -34.5t72 -83.5t-72 -84q-27 -13 -58 -21l-6 -12l-359 -696l359 -696q3 -7 6 -13q31 -8 58 -21q72 -34 72 -83t-72 -83.5t-174 -34.5h-3q-10 -1 -21 0
q-87 4 -150 34q-72 35 -72 84z" />
    <glyph glyph-name="uni041B" unicode="&#x41b;" horiz-adv-x="1255" 
d="M381 1744q0 49 72 83q69 33 165 35h18q96 -2 165 -35q72 -34 72 -83t-72 -84q-2 -1 -4 -1q61 -741 301 -1441q23 -7 43 -17q72 -34 72 -83t-72 -83.5t-174 -34.5h-10q-96 1 -164 34q-72 35 -72 84t72 83q15 8 33 14q-181 745 -199 1220q-18 -475 -199 -1221q16 -5 32 -13
q72 -34 72 -83t-72 -84q-69 -33 -164 -34h-16q-98 1 -168 34q-72 35 -72 84t72 83q20 10 42 17q241 700 302 1441q-2 0 -3 1q-72 35 -72 84z" />
    <glyph glyph-name="uni041C" unicode="&#x41c;" horiz-adv-x="1630" 
d="M1568 118q0 -49 -72 -84q-70 -33 -169 -34h-14q-96 1 -165 34q-72 35 -72 84t72 83q19 10 41 17q106 571 42 1142q-169 -576 -215 -1149q-3 -161 -166 -161h-2q-163 0 -166 161q-39 481 -164 965v-962q16 -5 32 -13q72 -34 72 -83t-72 -83.5t-174 -34.5h-7q-98 1 -167 34
q-72 35 -72 84t72 83q20 10 43 17q137 737 -9 1474q0 170 122 170h150q85 1 119 -122q203 -809 222 -1366q19 557 222 1366q33 122 118 122h113q160 0 160 -170v-1477q18 -6 34 -14q72 -34 72 -83z" />
    <glyph glyph-name="uni041D" unicode="&#x41d;" horiz-adv-x="1283" 
d="M130 1744q0 49 72 83.5t174 34.5t174 -34.5t72 -83.5t-72 -84q-16 -7 -32 -13v-583h320q-10 289 -64 579q-23 7 -43 17q-72 35 -72 84t72 83.5t174 34.5h7q97 -1 167 -35q72 -34 72 -83t-72 -84q-16 -7 -32 -13v-1433q16 -5 32 -13q72 -34 72 -83t-72 -83.5t-174 -34.5
h-7q-98 1 -167 34q-72 35 -72 84t72 83q20 10 43 17q54 290 64 580h-320v-584q16 -5 32 -13q72 -34 72 -83t-72 -84q-70 -33 -167 -34h-14q-98 1 -167 34q-72 35 -72 84t72 83q20 10 43 17q132 713 0 1425q-23 7 -43 17q-72 35 -72 84z" />
    <glyph glyph-name="uni041E" unicode="&#x41e;" 
d="M921 361q0 -393 -405 -393q-406 1 -406 393q141 570 0 1140q0 392 406 392q405 0 405 -392q-141 -570 0 -1140zM639 1501q0 127 -123 127h-2q-122 0 -122 -127q151 -570 0 -1140q0 -127 123 -127q124 0 124 127q-151 570 0 1140z" />
    <glyph glyph-name="uni041F" unicode="&#x41f;" horiz-adv-x="1283" 
d="M130 1744q0 49 72 83.5t174 34.5h536q97 -1 167 -35q72 -34 72 -83t-72 -84q-16 -7 -32 -13v-1433q16 -5 32 -13q72 -34 72 -83t-72 -84q-70 -33 -167 -34h-14q-98 1 -167 34q-72 35 -72 84t72 83q20 10 43 17q128 689 9 1378h-265v-1382q16 -5 32 -13q72 -34 72 -83
t-72 -84q-70 -33 -167 -34h-14q-98 1 -167 34q-72 35 -72 84t72 83q20 10 43 17q132 713 0 1425q-23 7 -43 17q-72 35 -72 84z" />
    <glyph glyph-name="uni0420" unicode="&#x420;" horiz-adv-x="1105" 
d="M130 118q0 49 72 83q20 10 43 17q137 737 -9 1474v9q3 161 140 161h7l259 -1q236 0 324 -154q40 -62 51 -155v-3q-155 -203 -4 -435q-32 -224 -265 -296q-65 -20 -189 -20h-41v-584q16 -5 32 -13q72 -34 72 -83t-72 -83.5t-174 -34.5h-18q-10 0 -18 1q-79 5 -138 33
q-72 35 -72 84zM760 1549q0 49 -123 49h-2q-97 0 -117 -31v-471q19 -31 118 -31q124 0 124 49q-99 151 -68 291q16 74 68 144z" />
    <glyph glyph-name="uni0421" unicode="&#x421;" horiz-adv-x="1023" 
d="M392 360q0 -127 125 -127.5t125 48.5q-53 70 -69 144q-12 51 -6 104q16 108 141 119q106 8 146 -69q-42 -156 67 -298q-40 -203 -207 -274q-73 -39 -197 -39q-408 0 -407 391q64 245 69 555v33q-5 310 -69 555q-1 391 407 391q124 0 197 -39q167 -71 207 -274
q-109 -142 -67 -298q-40 -77 -146 -69q-125 11 -141 119q-6 53 6 104q16 74 69 144q0 49 -125 48.5t-125 -127.5v-1141z" />
    <glyph glyph-name="uni0422" unicode="&#x422;" horiz-adv-x="1149" 
d="M50 1616q0 102 34.5 174t83.5 72q31 0 56 -29q41 29 114 29h471q72 0 113 -29q26 29 57 29q49 0 83.5 -72t34.5 -174t-34.5 -174t-83.5 -72t-84 72q-29 60 -33 141q-24 -3 -53 -3l-94 17v-1382q17 -6 33 -14q72 -34 72 -83t-72 -83.5t-174 -34.5h-2q-101 0 -172 34
q-72 35 -72 84t72 83q19 10 41 17q130 691 8 1382q-56 -9 -111 -20q-29 0 -53 3q-5 -81 -34 -141q-34 -72 -83 -72t-83.5 72t-34.5 174z" />
    <glyph glyph-name="uni0423" unicode="&#x423;" horiz-adv-x="1227" 
d="M659 1744q0 49 72 83q69 34 167 35h14q97 -1 167 -35q72 -34 72 -83t-72 -84q-16 -7 -32 -13v-1477q0 -43 -12 -55q-139 -147 -391 -147q-125 0 -199 39q-168 71 -209 271v3q66 85 77 175q3 25 1 50q45 88 158 67q111 -20 122 -117q-3 -16 -7 -31q-16 -74 -69 -144
q0 -49 124 -48q118 0 147 72l10 62v1q33 227 39 455q-79 -25 -195 -25q-333 1 -333 391q-26 245 -63 454q-24 7 -45 17q-72 35 -72 84t72 83q70 34 170 35h7q100 -1 171 -35q72 -34 72 -83t-72 -84q-16 -7 -32 -13v-457q0 -126 125 -126q173 0 190 102q-15 238 -59 477
q-23 8 -43 17q-72 35 -72 84z" />
    <glyph glyph-name="uni0424" unicode="&#x424;" horiz-adv-x="1485" 
d="M531 118q0 49 72 83q20 10 42 17q16 90 29 181h-80q-124 0 -189 20q-233 72 -265 296q151 232 -4 435v3q11 93 51 155q88 154 324 154h163q-13 91 -29 182q-22 7 -42 16q-72 35 -72 84t72 83q58 28 135 34q9 1 20 1h19q102 0 174 -34.5t72 -83.5t-72 -84q-16 -7 -33 -13
v-185h124q236 0 324 -154q40 -62 51 -155v-3q-155 -203 -4 -435q-32 -224 -265 -296q-65 -20 -189 -20h-41v-184q17 -6 33 -14q72 -34 72 -83t-72 -84q-70 -33 -168 -34h-6q-102 0 -174 34.5t-72 83.5zM483 1006q41 -140 -90 -291q0 -49 163 -49q114 0 147 23q16 243 0 486
q-34 24 -145 24h-3q-162 0 -162 -49q69 -70 90 -144zM1160 1150q0 49 -123 49h-2q-97 0 -117 -31v-471q19 -31 118 -31q124 0 124 49q-99 151 -68 291q16 74 68 144z" />
    <glyph glyph-name="uni0425" unicode="&#x425;" horiz-adv-x="1257" 
d="M286 1862q102 0 174 -34.5t72 -83.5q0 -48 -70 -83l152 -398l150 398q-69 35 -69 83q0 49 72 83q67 33 161 35h13q102 0 174 -34.5t72 -83.5t-72 -84q-28 -13 -59 -21q-212 -341 -347 -709q135 -369 347 -707q31 -9 59 -22q72 -34 72 -83t-72 -83.5t-173 -34.5h-14
q-94 2 -161 34q-72 35 -72 84q0 48 69 82l-150 398l-152 -398q70 -34 70 -82q0 -49 -72 -84q-68 -32 -162 -34h-14q-101 0 -172 34q-72 35 -72 84t72 83q27 13 59 22q211 339 347 707q-136 368 -347 709q-32 8 -59 21q-72 35 -72 84t72 83.5t174 34.5z" />
    <glyph glyph-name="uni0426" unicode="&#x426;" horiz-adv-x="1346" 
d="M246 222q131 710 -1 1421q-23 7 -43 17q-72 35 -72 84t72 83q69 34 167 35h7q102 0 174 -34.5t72 -83.5t-72 -84q-16 -7 -32 -13v-1381h265q119 688 -9 1377q-23 7 -43 17q-72 35 -72 84t72 83.5t174 34.5h7q97 -1 167 -35q72 -34 72 -83t-72 -84q-16 -7 -32 -13v-1385h1
q136 -19 187 -114q49 -90 49 -329q-3 -160 -117 -160h-1q-115 0 -117 160q-1 113 -11 181h-664q-101 0 -172 34q-72 35 -72 84t72 83q19 10 41 17q0 2 1 4h2z" />
    <glyph glyph-name="uni0427" unicode="&#x427;" horiz-adv-x="1283" 
d="M659 118q0 49 72 83q20 10 43 17q56 302 64 605q-79 -25 -195 -25q-333 1 -333 391q-26 245 -63 454q-24 7 -45 17q-72 35 -72 84t72 83q70 34 170 35h7q100 -1 171 -35q72 -34 72 -83t-72 -84q-16 -7 -32 -13v-463q3 -120 125 -120q173 0 190 102q-15 238 -59 477
q-23 8 -43 17q-72 35 -72 84t72 83.5t174 34.5t174 -34.5t72 -83.5t-72 -84q-16 -7 -32 -13v-1433q16 -5 32 -13q72 -34 72 -83t-72 -84q-70 -33 -167 -34h-14q-98 1 -167 34q-72 35 -72 84z" />
    <glyph glyph-name="uni0428" unicode="&#x428;" horiz-adv-x="1745" 
d="M374 0q-101 0 -172 34q-72 35 -72 84t72 83q19 10 41 17q0 2 1 4h2q131 710 -1 1421q-23 7 -43 17q-72 35 -72 84t72 83.5t174 34.5h7q97 -1 167 -35q72 -34 72 -83t-72 -84q-16 -7 -32 -13v-1381h265q119 688 -9 1377q-23 7 -43 17q-72 35 -72 84t72 83q69 34 167 35h7
q102 0 174 -34.5t72 -83.5t-72 -84q-16 -7 -32 -13v-1381h264q119 689 -9 1378q-22 7 -41 16q-72 35 -72 84t72 83q71 34 172 35h7q99 -1 169 -35q72 -34 72 -83t-72 -84q-16 -8 -34 -14v-1427h1v-4q17 -6 33 -14q72 -34 72 -83t-72 -83.5t-174 -34.5h-1061z" />
    <glyph glyph-name="uni0429" unicode="&#x429;" horiz-adv-x="1876" 
d="M246 222q131 710 -1 1421q-23 7 -43 17q-72 35 -72 84t72 83q69 34 167 35h7q102 0 174 -34.5t72 -83.5t-72 -84q-16 -7 -32 -13v-1381h265q119 688 -9 1377q-23 7 -43 17q-72 35 -72 84t72 83q69 34 167 35h14q97 -1 167 -35q72 -34 72 -83t-72 -84q-16 -7 -32 -13
v-1381h264q119 689 -9 1378q-22 7 -41 16q-72 35 -72 84t72 83.5t174 34.5h5q99 -1 169 -35q72 -34 72 -83t-72 -84q-16 -8 -34 -14v-1384h1q136 -19 187 -114q49 -90 49 -328q-2 -161 -117 -161h-1q-115 0 -117 161q-1 113 -11 180h-1192q-101 0 -172 34q-72 35 -72 84
t72 83q19 10 41 17q0 2 1 4h2z" />
    <glyph glyph-name="uni042A" unicode="&#x42a;" horiz-adv-x="1362" 
d="M130 1616q0 102 34.5 174t83.5 72q31 0 56 -29q41 29 114 29h216q160 0 160 -170v-628h41q124 0 189 -20q233 -72 265 -296q-151 -232 4 -435v-3q-11 -93 -51 -155q-88 -154 -324 -154l-259 -1h-7q-137 0 -140 161v9q142 715 17 1430q-56 -9 -111 -20q-29 0 -53 3
q-5 -81 -34 -141q-34 -72 -83 -72t-83.5 72t-34.5 174zM968 457q-31 140 68 291q0 49 -124 49q-99 0 -118 -32v-470q20 -31 117 -31h2q123 0 123 49q-52 70 -68 144z" />
    <glyph glyph-name="uni042B" unicode="&#x42b;" horiz-adv-x="1579" 
d="M376 1862q102 0 174 -34.5t72 -83.5t-72 -84q-13 -6 -27 -11v-585h41q124 0 189 -20q233 -72 265 -296q-151 -232 4 -435v-3q-11 -93 -51 -155q-88 -154 -324 -154l-266 -1q-137 0 -140 161v9q146 736 9 1472q-26 7 -48 18q-72 35 -72 84t72 83q63 30 149 34q6 1 12 1h13
zM999 118q0 49 72 83q20 10 43 17q132 713 0 1425q-23 7 -43 17q-72 35 -72 84t72 83q59 29 138 34q8 1 18 1h18q102 0 174 -34.5t72 -83.5t-72 -84q-16 -7 -32 -13v-1433q16 -5 32 -13q72 -34 72 -83t-72 -84q-70 -33 -167 -34h-14q-98 1 -167 34q-72 35 -72 84zM697 457
q-31 140 68 291q0 49 -124 49q-99 0 -118 -31v-471q20 -31 117 -31h2q123 0 123 49q-52 70 -68 144z" />
    <glyph glyph-name="uni042C" unicode="&#x42c;" horiz-adv-x="1105" 
d="M376 1862q102 0 174 -34.5t72 -83.5t-72 -84q-16 -7 -32 -13v-583h41q124 0 189 -20q233 -72 265 -296q-151 -232 4 -435v-3q-11 -93 -51 -155q-88 -154 -324 -154l-259 -1h-7q-137 0 -140 161v9q146 736 9 1473q-23 7 -43 17q-72 35 -72 84t72 83q59 29 138 34q8 1 18 1
h18zM692 457q-31 140 68 291q0 49 -124 49q-99 0 -118 -31v-471q20 -31 117 -31h2q123 0 123 49q-52 70 -68 144z" />
    <glyph glyph-name="uni042D" unicode="&#x42d;" horiz-adv-x="1023" 
d="M639 1501q0 127 -125 128q-125 0 -125 -49q53 -70 69 -144q12 -51 6 -104q-16 -108 -141 -119q-106 -8 -146 69q42 156 -67 298q40 203 207 274q73 39 197 39q408 0 407 -391q-64 -245 -69 -555v-33q5 -310 69 -555q1 -391 -407 -391q-124 0 -197 39q-167 71 -207 274
q109 142 67 298q40 77 146 69q125 -11 141 -119q6 -53 -6 -104q-16 -74 -69 -144q0 -49 125 -48q125 0 125 127v430q-165 2 -165 160q0 120 165 122v429z" />
    <glyph glyph-name="uni042E" unicode="&#x42e;" horiz-adv-x="1564" 
d="M130 118q0 49 72 83q20 10 43 17q132 713 0 1425q-23 7 -43 17q-72 35 -72 84t72 83.5t174 34.5t174 -34.5t72 -83.5t-72 -84q-16 -7 -32 -13v-583h189q-12 220 -66 437q0 392 406 392q405 0 405 -392q-141 -533 0 -1140q0 -393 -405 -393q-406 1 -406 393q53 220 66 437
h-189v-584q16 -5 32 -13q72 -34 72 -83t-72 -84q-70 -33 -167 -34h-14q-98 1 -167 34q-72 35 -72 84zM1170 1501q0 127 -123 127h-2q-122 0 -122 -127q151 -533 0 -1140q0 -127 123 -127q124 0 124 127q-151 607 0 1140zM710 1009l1 -113q1 57 -1 113z" />
    <glyph glyph-name="uni042F" unicode="&#x42f;" horiz-adv-x="1224" 
d="M329 0q-102 0 -174 34.5t-72 83.5t72 83q26 13 55 21q149 300 244 615q-185 79 -213 277q151 232 -4 435v3q11 93 51 155q88 154 324 154l266 1q137 0 140 -161v-9q-146 -737 -10 -1474q23 -7 44 -17q72 -34 72 -83t-72 -84q-59 -28 -138 -33q-9 -1 -18 -1h-18
q-102 0 -174 34.5t-72 83.5t72 83q15 8 32 13v584h-77l-165 -593q5 -2 9 -4q72 -34 72 -83t-72 -83.5t-174 -34.5zM562 1405q31 -140 -68 -291q0 -49 124 -49q99 0 118 31v471q-20 31 -117 31h-2q-123 0 -123 -49q52 -70 68 -144z" />
    <glyph glyph-name="uni0430" unicode="&#x430;" horiz-adv-x="1255" 
d="M721 118q0 49 72 83q17 9 36 15l-36 179h-332l-37 -179q19 -7 36 -15q72 -34 72 -83t-72 -84q-69 -33 -164 -34h-16q-98 1 -168 34q-72 35 -72 84t72 83q20 10 42 17q241 700 302 1441q-2 0 -3 1q-72 35 -72 84t72 83q71 35 173 35h2q101 0 173 -34.5t72 -83.5t-72 -84
q-2 -1 -4 -1q61 -741 301 -1441q23 -7 43 -17q72 -34 72 -83t-72 -84q-70 -33 -168 -34h-6q-102 0 -174 34.5t-72 83.5zM508 661h238q-100 270 -119 774q-19 -504 -119 -774z" />
    <glyph glyph-name="uni0431" unicode="&#x431;" horiz-adv-x="1097" 
d="M743 1862q74 0 115 -31q26 31 58 31q49 0 83.5 -72t34.5 -174t-34.5 -174t-83.5 -72t-84 72q-29 60 -33 142q-25 -4 -56 -4q-163 32 -326 50v-566h41q124 0 189 -20q233 -72 265 -296q-151 -232 4 -435v-3q-11 -93 -51 -155q-88 -154 -324 -154l-259 -1h-7
q-137 0 -140 161v9q151 761 0 1522q0 170 122 170h486zM591 457q-31 140 68 291q0 49 -124 49q-99 0 -118 -32v-470q20 -31 117 -31h2q123 0 123 49q-52 70 -68 144z" />
    <glyph glyph-name="uni0432" unicode="&#x432;" horiz-adv-x="1145" 
d="M131 1744q0 49 72 83q56 27 129 33q11 2 24 2h311q335 0 372 -311v-3q-155 -203 -4 -435q-27 -123 -147 -182q120 -60 147 -183q-151 -232 4 -435v-3q-37 -310 -372 -310h-311q-13 0 -24 1q-73 7 -129 33q-72 35 -72 84t72 83q18 9 39 16q66 356 67 714q-1 357 -67 714
q-21 6 -39 15q-72 35 -72 84zM761 1548q0 49 -123 49h-2q-122 0 -122 -49v-435q0 -49 123 -49q124 0 124 49q-99 151 -68 291q16 74 68 144zM693 457q-31 140 68 291q0 49 -124 49q-123 0 -123 -49v-435q0 -49 122 -49h2q123 0 123 49q-52 70 -68 144z" />
    <glyph glyph-name="uni0433" unicode="&#x433;" horiz-adv-x="1127" 
d="M797 1862q72 0 113 -29q26 29 57 29q49 0 83.5 -72t34.5 -174t-34.5 -174t-83.5 -72t-84 72q-29 60 -33 141q-24 -3 -53 -3q-140 28 -280 45v-1410q17 -6 33 -14q72 -34 72 -83t-72 -83.5t-174 -34.5h-8q-97 1 -166 34q-72 35 -72 84t72 83q20 10 42 17q137 737 -9 1474
q0 170 122 170h440z" />
    <glyph glyph-name="uni0434" unicode="&#x434;" horiz-adv-x="1477" 
d="M914 1596h-200l-61 -1330h261q115 665 0 1330zM1178 1647v-1385h1q136 -19 187 -114q49 -90 49 -328q-2 -161 -117 -161h-1q-115 0 -117 161q-1 113 -11 180h-793q-10 -67 -11 -180q-2 -161 -117 -161h-1q-115 0 -117 161q0 238 49 328q51 95 187 114h26q181 691 54 1381
h-5q-23 7 -43 17q-72 35 -72 84t72 83.5t174 34.5h471q97 -1 167 -35q72 -34 72 -83t-72 -84q-7 -3 -13 -6q-10 -4 -19 -7z" />
    <glyph glyph-name="uni0435" unicode="&#x435;" horiz-adv-x="1062" 
d="M692 1862q72 0 113 -29l1 1q6 7 12 12q5 3 9 6q4 2 9 4q8 4 16 5q2 1 5 1h5q5 0 9 -1q6 -1 12 -3q5 -1 9 -4l4 -2q2 -1 3 -2l6 -4l2 -2q11 -9 20 -23q4 -5 8 -11q1 -4 3 -7q3 -4 6 -10q0 -1 1 -3l4 -8l3 -7q5 -13 10 -27l4 -16q1 -5 2 -9l3 -13q5 -24 7 -50q0 -4 1 -9
v-10q1 -5 1 -10v-15q0 -18 -1 -35t-3 -33q-2 -14 -5 -27q0 -2 -1 -4q-2 -13 -6 -25l-2 -8q-1 -4 -3 -8l-3 -8l-4 -12q-3 -7 -7 -14q-1 -2 -1 -4q-8 -16 -17 -28q-5 -7 -10 -12q-5 -6 -10 -10q-9 -8 -19 -13q-5 -2 -10 -3q-1 0 -2 -1q-7 -1 -14 -1q-9 0 -17 2q-2 0 -5 1
q-18 7 -34 25q-9 10 -17 24l-4 6q-3 7 -7 14q-1 3 -3 7q-2 3 -3 7q-6 14 -10 28q-8 24 -12 50l-2 14q-2 11 -3 23v12q-24 -3 -53 -3q-140 28 -280 45v-592q115 16 230 39q170 0 170 -122q0 -160 -170 -160h-230v-553q140 17 280 45q29 0 53 -4q4 81 33 142q35 72 84 72
t83.5 -72t34.5 -174t-34.5 -174t-83.5 -72q-31 0 -57 29q-41 -29 -113 -29h-422q-137 0 -140 161q151 770 0 1531q0 170 122 170h440z" />
    <glyph glyph-name="uni0436" unicode="&#x436;" horiz-adv-x="1821" 
d="M684 1744q0 49 72 83q57 28 133 33q10 2 21 2h20q102 0 174 -34.5t72 -83.5t-72 -84q-16 -8 -34 -14v-670q176 324 289 683q-2 0 -3 1q-72 35 -72 84t72 83q63 31 151 34q10 1 20 1h3q102 0 174 -34.5t72 -83.5t-72 -84q-27 -13 -58 -21l-6 -12l-359 -696l359 -696
q3 -7 6 -13q31 -8 58 -21q72 -34 72 -83t-72 -83.5t-174 -34.5h-3q-10 -1 -20 0q-88 4 -151 34q-72 35 -72 84t72 83q1 1 3 2q-82 259 -196 500l-93 -180v-308q18 -6 34 -14q72 -34 72 -83t-72 -83.5t-174 -34.5h-2q-101 0 -172 34q-72 35 -72 84t72 83q19 10 41 16
q20 111 35 221l-137 265q-115 -241 -197 -500l4 -2q72 -34 72 -83t-72 -84q-64 -30 -151 -34h-23q-102 0 -174 34.5t-72 83.5t72 83q27 13 57 21q3 6 7 13l359 696l-359 696q-4 6 -7 12q-30 8 -57 21q-72 35 -72 84t72 83.5t174 34.5h2q11 1 21 -1q87 -3 151 -34
q72 -34 72 -83t-72 -84l-4 -2q136 -430 364 -813q9 399 -65 799q-22 7 -41 16q-72 35 -72 84z" />
    <glyph glyph-name="uni0437" unicode="&#x437;" horiz-adv-x="1023" 
d="M921 359q1 -391 -407 -391q-124 0 -197 39q-167 71 -207 274q109 142 67 298q40 77 146 69q125 -11 141 -119q6 -53 -6 -104q-16 -74 -69 -144q0 -49 125 -48.5t125 127.5v505q-165 2 -165 160q0 120 165 122v354q0 127 -125 127.5t-125 -48.5q53 -70 69 -144
q12 -51 6 -104q-16 -108 -141 -119q-106 -8 -146 69q42 156 -67 298q40 203 207 274q73 39 197 39q408 0 407 -391q-30 -113 -46.5 -267.5t-107.5 -229.5q91 -76 99.5 -272.5t54.5 -373.5z" />
    <glyph glyph-name="uni0438" unicode="&#x438;" horiz-adv-x="1283" 
d="M661 118q0 49 72 83q20 10 42 17q67 357 67 713v42l-325 -696v-62q17 -6 33 -14q72 -34 72 -83t-72 -83.5t-174 -34.5h-8q-97 1 -166 34q-72 35 -72 84t72 83q20 10 42 17q67 357 67 713q0 357 -67 713q-22 7 -42 16q-72 35 -72 84t72 83q69 33 166 35h14q98 -1 168 -35
q72 -34 72 -83t-72 -84q-16 -7 -33 -13v-868q176 333 286 697q-12 84 -28 168q-22 7 -42 16q-72 35 -72 84t72 83q69 33 166 35h14q98 -1 168 -35q72 -34 72 -83t-72 -84q-16 -7 -33 -13v-1432q17 -6 33 -14q72 -34 72 -83t-72 -83.5t-174 -34.5h-8q-97 1 -166 34
q-72 35 -72 84z" />
    <glyph glyph-name="uni0439" unicode="&#x439;" horiz-adv-x="1283" 
d="M907 1862q102 0 174 -34.5t72 -83.5t-72 -84q-16 -7 -33 -13v-1432q17 -6 33 -14q72 -34 72 -83t-72 -84q-70 -33 -168 -34h-14q-97 1 -166 34q-72 35 -72 84t72 83q20 10 42 17q67 357 67 713v42l-325 -696v-62q17 -6 33 -14q72 -34 72 -83t-72 -83.5t-174 -34.5
t-174 34.5t-72 83.5t72 83q20 10 42 17q67 357 67 713q0 357 -67 713q-22 7 -42 16q-72 35 -72 84t72 83q69 33 166 35h8q102 0 174 -34.5t72 -83.5t-72 -84q-16 -7 -33 -13v-868q176 333 286 697q-12 84 -28 168q-22 7 -42 16q-72 35 -72 84t72 83.5t174 34.5zM642 1939
q-127 1 -223.5 26.5t-96.5 121.5t58 96q135 -52 262 -52t262 52q58 0 58 -96t-96.5 -121.5t-223.5 -26.5z" />
    <glyph glyph-name="uni043A" unicode="&#x43a;" horiz-adv-x="1269" 
d="M732 118q0 49 72 83q1 1 3 2q-82 259 -196 500l-93 -180v-309q16 -5 32 -13q72 -34 72 -83t-72 -83.5t-174 -34.5t-174 34.5t-72 83.5t72 83q20 10 43 17q132 713 0 1425q-23 7 -43 17q-72 35 -72 84t72 83q59 29 138 34q8 1 18 1h18q102 0 174 -34.5t72 -83.5t-72 -84
q-16 -7 -32 -13v-671q176 324 289 683q-2 0 -3 1q-72 35 -72 84t72 83q63 31 151 34q10 1 20 1h3q102 0 174 -34.5t72 -83.5t-72 -84q-27 -13 -58 -21l-6 -12l-359 -696l359 -696q3 -7 6 -13q31 -8 58 -21q72 -34 72 -83t-72 -83.5t-174 -34.5h-3q-10 -1 -21 0
q-87 4 -150 34q-72 35 -72 84z" />
    <glyph glyph-name="uni043B" unicode="&#x43b;" horiz-adv-x="1255" 
d="M381 1744q0 49 72 83q69 33 165 35h18q96 -2 165 -35q72 -34 72 -83t-72 -84q-2 -1 -4 -1q61 -741 301 -1441q23 -7 43 -17q72 -34 72 -83t-72 -83.5t-174 -34.5h-10q-96 1 -164 34q-72 35 -72 84t72 83q15 8 33 14q-181 745 -199 1220q-18 -475 -199 -1221q16 -5 32 -13
q72 -34 72 -83t-72 -84q-69 -33 -164 -34h-16q-98 1 -168 34q-72 35 -72 84t72 83q20 10 42 17q241 700 302 1441q-2 0 -3 1q-72 35 -72 84z" />
    <glyph glyph-name="uni043C" unicode="&#x43c;" horiz-adv-x="1630" 
d="M1568 118q0 -49 -72 -84q-70 -33 -169 -34h-14q-96 1 -165 34q-72 35 -72 84t72 83q19 10 41 17q106 571 42 1142q-169 -576 -215 -1149q-3 -161 -166 -161h-2q-163 0 -166 161q-39 481 -164 965v-962q16 -5 32 -13q72 -34 72 -83t-72 -83.5t-174 -34.5h-7q-98 1 -167 34
q-72 35 -72 84t72 83q20 10 43 17q137 737 -9 1474q0 170 122 170h150q85 1 119 -122q203 -809 222 -1366q19 557 222 1366q33 122 118 122h113q160 0 160 -170v-1477q18 -6 34 -14q72 -34 72 -83z" />
    <glyph glyph-name="uni043D" unicode="&#x43d;" horiz-adv-x="1283" 
d="M130 1744q0 49 72 83.5t174 34.5t174 -34.5t72 -83.5t-72 -84q-16 -7 -32 -13v-583h320q-10 289 -64 579q-23 7 -43 17q-72 35 -72 84t72 83.5t174 34.5h7q97 -1 167 -35q72 -34 72 -83t-72 -84q-16 -7 -32 -13v-1433q16 -5 32 -13q72 -34 72 -83t-72 -83.5t-174 -34.5
h-7q-98 1 -167 34q-72 35 -72 84t72 83q20 10 43 17q54 290 64 580h-320v-584q16 -5 32 -13q72 -34 72 -83t-72 -84q-70 -33 -167 -34h-14q-98 1 -167 34q-72 35 -72 84t72 83q20 10 43 17q132 713 0 1425q-23 7 -43 17q-72 35 -72 84z" />
    <glyph glyph-name="uni043E" unicode="&#x43e;" 
d="M921 361q0 -393 -405 -393q-406 1 -406 393q141 570 0 1140q0 392 406 392q405 0 405 -392q-141 -570 0 -1140zM639 1501q0 127 -123 127h-2q-122 0 -122 -127q151 -570 0 -1140q0 -127 123 -127q124 0 124 127q-151 570 0 1140z" />
    <glyph glyph-name="uni043F" unicode="&#x43f;" horiz-adv-x="1283" 
d="M130 1744q0 49 72 83.5t174 34.5h536q97 -1 167 -35q72 -34 72 -83t-72 -84q-16 -7 -32 -13v-1433q16 -5 32 -13q72 -34 72 -83t-72 -84q-70 -33 -167 -34h-14q-98 1 -167 34q-72 35 -72 84t72 83q20 10 43 17q128 689 9 1378h-265v-1382q16 -5 32 -13q72 -34 72 -83
t-72 -84q-70 -33 -167 -34h-14q-98 1 -167 34q-72 35 -72 84t72 83q20 10 43 17q132 713 0 1425q-23 7 -43 17q-72 35 -72 84z" />
    <glyph glyph-name="uni0440" unicode="&#x440;" horiz-adv-x="1105" 
d="M130 118q0 49 72 83q20 10 43 17q137 737 -9 1474v9q3 161 140 161h7l259 -1q236 0 324 -154q40 -62 51 -155v-3q-155 -203 -4 -435q-32 -224 -265 -296q-65 -20 -189 -20h-41v-584q16 -5 32 -13q72 -34 72 -83t-72 -83.5t-174 -34.5h-18q-10 0 -18 1q-79 5 -138 33
q-72 35 -72 84zM760 1549q0 49 -123 49h-2q-97 0 -117 -31v-471q19 -31 118 -31q124 0 124 49q-99 151 -68 291q16 74 68 144z" />
    <glyph glyph-name="uni0441" unicode="&#x441;" horiz-adv-x="1023" 
d="M392 360q0 -127 125 -127.5t125 48.5q-53 70 -69 144q-12 51 -6 104q16 108 141 119q106 8 146 -69q-42 -156 67 -298q-40 -203 -207 -274q-73 -39 -197 -39q-408 0 -407 391q64 245 69 555v33q-5 310 -69 555q-1 391 407 391q124 0 197 -39q167 -71 207 -274
q-109 -142 -67 -298q-40 -77 -146 -69q-125 11 -141 119q-6 53 6 104q16 74 69 144q0 49 -125 48.5t-125 -127.5v-1141z" />
    <glyph glyph-name="uni0442" unicode="&#x442;" horiz-adv-x="1149" 
d="M50 1616q0 102 34.5 174t83.5 72q31 0 56 -29q41 29 114 29h471q72 0 113 -29q26 29 57 29q49 0 83.5 -72t34.5 -174t-34.5 -174t-83.5 -72t-84 72q-29 60 -33 141q-24 -3 -53 -3l-94 17v-1382q17 -6 33 -14q72 -34 72 -83t-72 -83.5t-174 -34.5h-2q-101 0 -172 34
q-72 35 -72 84t72 83q19 10 41 17q130 691 8 1382q-56 -9 -111 -20q-29 0 -53 3q-5 -81 -34 -141q-34 -72 -83 -72t-83.5 72t-34.5 174z" />
    <glyph glyph-name="uni0443" unicode="&#x443;" horiz-adv-x="1227" 
d="M659 1744q0 49 72 83q69 34 167 35h14q97 -1 167 -35q72 -34 72 -83t-72 -84q-16 -7 -32 -13v-1477q0 -43 -12 -55q-139 -147 -391 -147q-125 0 -199 39q-168 71 -209 271v3q66 85 77 175q3 25 1 50q45 88 158 67q111 -20 122 -117q-3 -16 -7 -31q-16 -74 -69 -144
q0 -49 124 -48q118 0 147 72l10 62v1q33 227 39 455q-79 -25 -195 -25q-333 1 -333 391q-26 245 -63 454q-24 7 -45 17q-72 35 -72 84t72 83q70 34 170 35h7q100 -1 171 -35q72 -34 72 -83t-72 -84q-16 -7 -32 -13v-457q0 -126 125 -126q173 0 190 102q-15 238 -59 477
q-23 8 -43 17q-72 35 -72 84z" />
    <glyph glyph-name="uni0444" unicode="&#x444;" horiz-adv-x="1485" 
d="M531 118q0 49 72 83q20 10 42 17q16 90 29 181h-80q-124 0 -189 20q-233 72 -265 296q151 232 -4 435v3q11 93 51 155q88 154 324 154h163q-13 91 -29 182q-22 7 -42 16q-72 35 -72 84t72 83q58 28 135 34q9 1 20 1h19q102 0 174 -34.5t72 -83.5t-72 -84q-16 -7 -33 -13
v-185h124q236 0 324 -154q40 -62 51 -155v-3q-155 -203 -4 -435q-32 -224 -265 -296q-65 -20 -189 -20h-41v-184q17 -6 33 -14q72 -34 72 -83t-72 -84q-70 -33 -168 -34h-6q-102 0 -174 34.5t-72 83.5zM483 1006q41 -140 -90 -291q0 -49 163 -49q114 0 147 23q16 243 0 486
q-34 24 -145 24h-3q-162 0 -162 -49q69 -70 90 -144zM1160 1150q0 49 -123 49h-2q-97 0 -117 -31v-471q19 -31 118 -31q124 0 124 49q-99 151 -68 291q16 74 68 144z" />
    <glyph glyph-name="uni0445" unicode="&#x445;" horiz-adv-x="1257" 
d="M286 1862q102 0 174 -34.5t72 -83.5q0 -48 -70 -83l152 -398l150 398q-69 35 -69 83q0 49 72 83q67 33 161 35h13q102 0 174 -34.5t72 -83.5t-72 -84q-28 -13 -59 -21q-212 -341 -347 -709q135 -369 347 -707q31 -9 59 -22q72 -34 72 -83t-72 -83.5t-173 -34.5h-14
q-94 2 -161 34q-72 35 -72 84q0 48 69 82l-150 398l-152 -398q70 -34 70 -82q0 -49 -72 -84q-68 -32 -162 -34h-14q-101 0 -172 34q-72 35 -72 84t72 83q27 13 59 22q211 339 347 707q-136 368 -347 709q-32 8 -59 21q-72 35 -72 84t72 83.5t174 34.5z" />
    <glyph glyph-name="uni0446" unicode="&#x446;" horiz-adv-x="1346" 
d="M246 222q131 710 -1 1421q-23 7 -43 17q-72 35 -72 84t72 83q69 34 167 35h7q102 0 174 -34.5t72 -83.5t-72 -84q-16 -7 -32 -13v-1381h265q119 688 -9 1377q-23 7 -43 17q-72 35 -72 84t72 83.5t174 34.5h7q97 -1 167 -35q72 -34 72 -83t-72 -84q-16 -7 -32 -13v-1385h1
q136 -19 187 -114q49 -90 49 -329q-3 -160 -117 -160h-1q-115 0 -117 160q-1 113 -11 181h-664q-101 0 -172 34q-72 35 -72 84t72 83q19 10 41 17q0 2 1 4h2z" />
    <glyph glyph-name="uni0447" unicode="&#x447;" horiz-adv-x="1283" 
d="M659 118q0 49 72 83q20 10 43 17q56 302 64 605q-79 -25 -195 -25q-333 1 -333 391q-26 245 -63 454q-24 7 -45 17q-72 35 -72 84t72 83q70 34 170 35h7q100 -1 171 -35q72 -34 72 -83t-72 -84q-16 -7 -32 -13v-463q3 -120 125 -120q173 0 190 102q-15 238 -59 477
q-23 8 -43 17q-72 35 -72 84t72 83.5t174 34.5t174 -34.5t72 -83.5t-72 -84q-16 -7 -32 -13v-1433q16 -5 32 -13q72 -34 72 -83t-72 -84q-70 -33 -167 -34h-14q-98 1 -167 34q-72 35 -72 84z" />
    <glyph glyph-name="uni0448" unicode="&#x448;" horiz-adv-x="1745" 
d="M374 0q-101 0 -172 34q-72 35 -72 84t72 83q19 10 41 17q0 2 1 4h2q131 710 -1 1421q-23 7 -43 17q-72 35 -72 84t72 83.5t174 34.5h7q97 -1 167 -35q72 -34 72 -83t-72 -84q-16 -7 -32 -13v-1381h265q119 688 -9 1377q-23 7 -43 17q-72 35 -72 84t72 83q69 34 167 35h7
q102 0 174 -34.5t72 -83.5t-72 -84q-16 -7 -32 -13v-1381h264q119 689 -9 1378q-22 7 -41 16q-72 35 -72 84t72 83q71 34 172 35h7q99 -1 169 -35q72 -34 72 -83t-72 -84q-16 -8 -34 -14v-1427h1v-4q17 -6 33 -14q72 -34 72 -83t-72 -83.5t-174 -34.5h-1061z" />
    <glyph glyph-name="uni0449" unicode="&#x449;" horiz-adv-x="1876" 
d="M246 222q131 710 -1 1421q-23 7 -43 17q-72 35 -72 84t72 83q69 34 167 35h7q102 0 174 -34.5t72 -83.5t-72 -84q-16 -7 -32 -13v-1381h265q119 688 -9 1377q-23 7 -43 17q-72 35 -72 84t72 83q69 34 167 35h14q97 -1 167 -35q72 -34 72 -83t-72 -84q-16 -7 -32 -13
v-1381h264q119 689 -9 1378q-22 7 -41 16q-72 35 -72 84t72 83.5t174 34.5h5q99 -1 169 -35q72 -34 72 -83t-72 -84q-16 -8 -34 -14v-1384h1q136 -19 187 -114q49 -90 49 -328q-2 -161 -117 -161h-1q-115 0 -117 161q-1 113 -11 180h-1192q-101 0 -172 34q-72 35 -72 84
t72 83q19 10 41 17q0 2 1 4h2z" />
    <glyph glyph-name="uni044A" unicode="&#x44a;" horiz-adv-x="1362" 
d="M130 1616q0 102 34.5 174t83.5 72q31 0 56 -29q41 29 114 29h216q160 0 160 -170v-628h41q124 0 189 -20q233 -72 265 -296q-151 -232 4 -435v-3q-11 -93 -51 -155q-88 -154 -324 -154l-259 -1h-7q-137 0 -140 161v9q142 715 17 1430q-56 -9 -111 -20q-29 0 -53 3
q-5 -81 -34 -141q-34 -72 -83 -72t-83.5 72t-34.5 174zM968 457q-31 140 68 291q0 49 -124 49q-99 0 -118 -32v-470q20 -31 117 -31h2q123 0 123 49q-52 70 -68 144z" />
    <glyph glyph-name="uni044B" unicode="&#x44b;" horiz-adv-x="1579" 
d="M376 1862q102 0 174 -34.5t72 -83.5t-72 -84q-13 -6 -27 -11v-585h41q124 0 189 -20q233 -72 265 -296q-151 -232 4 -435v-3q-11 -93 -51 -155q-88 -154 -324 -154l-266 -1q-137 0 -140 161v9q146 736 9 1472q-26 7 -48 18q-72 35 -72 84t72 83q63 30 149 34q6 1 12 1h13
zM999 118q0 49 72 83q20 10 43 17q132 713 0 1425q-23 7 -43 17q-72 35 -72 84t72 83q59 29 138 34q8 1 18 1h18q102 0 174 -34.5t72 -83.5t-72 -84q-16 -7 -32 -13v-1433q16 -5 32 -13q72 -34 72 -83t-72 -84q-70 -33 -167 -34h-14q-98 1 -167 34q-72 35 -72 84zM697 457
q-31 140 68 291q0 49 -124 49q-99 0 -118 -31v-471q20 -31 117 -31h2q123 0 123 49q-52 70 -68 144z" />
    <glyph glyph-name="uni044C" unicode="&#x44c;" horiz-adv-x="1105" 
d="M376 1862q102 0 174 -34.5t72 -83.5t-72 -84q-16 -7 -32 -13v-583h41q124 0 189 -20q233 -72 265 -296q-151 -232 4 -435v-3q-11 -93 -51 -155q-88 -154 -324 -154l-259 -1h-7q-137 0 -140 161v9q146 736 9 1473q-23 7 -43 17q-72 35 -72 84t72 83q59 29 138 34q8 1 18 1
h18zM692 457q-31 140 68 291q0 49 -124 49q-99 0 -118 -31v-471q20 -31 117 -31h2q123 0 123 49q-52 70 -68 144z" />
    <glyph glyph-name="uni044D" unicode="&#x44d;" horiz-adv-x="1023" 
d="M639 1501q0 127 -125 128q-125 0 -125 -49q53 -70 69 -144q12 -51 6 -104q-16 -108 -141 -119q-106 -8 -146 69q42 156 -67 298q40 203 207 274q73 39 197 39q408 0 407 -391q-64 -245 -69 -555v-33q5 -310 69 -555q1 -391 -407 -391q-124 0 -197 39q-167 71 -207 274
q109 142 67 298q40 77 146 69q125 -11 141 -119q6 -53 -6 -104q-16 -74 -69 -144q0 -49 125 -48q125 0 125 127v430q-165 2 -165 160q0 120 165 122v429z" />
    <glyph glyph-name="uni044E" unicode="&#x44e;" horiz-adv-x="1564" 
d="M130 118q0 49 72 83q20 10 43 17q132 713 0 1425q-23 7 -43 17q-72 35 -72 84t72 83.5t174 34.5t174 -34.5t72 -83.5t-72 -84q-16 -7 -32 -13v-583h189q-12 220 -66 437q0 392 406 392q405 0 405 -392q-141 -533 0 -1140q0 -393 -405 -393q-406 1 -406 393q53 220 66 437
h-189v-584q16 -5 32 -13q72 -34 72 -83t-72 -84q-70 -33 -167 -34h-14q-98 1 -167 34q-72 35 -72 84zM1170 1501q0 127 -123 127h-2q-122 0 -122 -127q151 -533 0 -1140q0 -127 123 -127q124 0 124 127q-151 607 0 1140zM710 1009l1 -113q1 57 -1 113z" />
    <glyph glyph-name="uni044F" unicode="&#x44f;" horiz-adv-x="1224" 
d="M329 0q-102 0 -174 34.5t-72 83.5t72 83q26 13 55 21q149 300 244 615q-185 79 -213 277q151 232 -4 435v3q11 93 51 155q88 154 324 154l266 1q137 0 140 -161v-9q-146 -737 -10 -1474q23 -7 44 -17q72 -34 72 -83t-72 -84q-59 -28 -138 -33q-9 -1 -18 -1h-18
q-102 0 -174 34.5t-72 83.5t72 83q15 8 32 13v584h-77l-165 -593q5 -2 9 -4q72 -34 72 -83t-72 -83.5t-174 -34.5zM562 1405q31 -140 -68 -291q0 -49 124 -49q99 0 118 31v471q-20 31 -117 31h-2q-123 0 -123 -49q52 -70 68 -144z" />
    <glyph glyph-name="uni0451" unicode="&#x451;" horiz-adv-x="1062" 
d="M692 1862q72 0 113 -29q8 8 15 14q6 4 11 7q3 1 5 2q12 6 26 6h5q6 -1 11 -2q3 -1 5 -2q7 -2 13 -6q2 -1 3 -2l8 -6l10 -10q9 -10 18 -24q1 -4 3 -7q4 -6 7 -13q11 -24 19 -50l2 -8l4 -17q1 -3 1 -5q2 -6 3 -13q3 -18 4 -37q1 -14 2 -29v-30q-1 -11 -1 -20q0 -5 -0.5 -10
t-1.5 -9q0 -7 -1 -14t-2 -13.5t-3 -13.5q0 -2 -1 -4q-1 -4 -2 -8.5t-2 -8.5l-2 -8q-3 -13 -8 -24l-4 -12l-3 -7q-2 -4 -4 -7q-1 -2 -1 -4q-17 -33 -37 -50l-2 -2q-4 -4 -9 -6q-6 -4 -13 -7q-2 -1 -5 -1q-1 0 -2 -1l-5 -1h-9q-9 0 -17 2q-14 4 -27 14q-6 5 -12 12
q-11 12 -21 30q-3 7 -7 14q-1 3 -3 7q-2 3 -3 7q-3 6 -5 12q-8 23 -14 49q-6 31 -8 66q-24 -3 -53 -3q-140 28 -280 45v-592q115 16 230 39q170 0 170 -122q0 -160 -170 -160h-230v-553q140 17 280 45q29 0 53 -4q4 81 33 142q35 72 84 72t83.5 -72t34.5 -174t-34.5 -174
t-83.5 -72q-31 0 -57 29q-41 -29 -113 -29h-422q-137 0 -140 161q151 770 0 1531q0 170 122 170h440zM819 1989q0 -50 -122 -50t-122 50q42 73 0 144q0 50 122 50t122 -50q-42 -67 0 -144zM423 1989q0 -50 -122 -50t-122 50q42 73 0 144q0 50 122 50t122 -50q-42 -67 0 -144
z" />
    <glyph glyph-name="uni0454" unicode="&#x454;" horiz-adv-x="1023" 
d="M392 360q0 -127 125 -127q125 -1 125 48q-53 70 -69 144q-12 51 -6 104q16 108 141 119q106 8 146 -69q-42 -156 67 -298q-40 -203 -207 -274q-73 -39 -197 -39q-408 0 -407 391q64 245 69 555v33q-5 310 -69 555q-1 391 407 391q124 0 197 -39q167 -71 207 -274
q-109 -142 -67 -298q-40 -77 -146 -69q-125 11 -141 119q-6 53 6 104q16 74 69 144q0 49 -125 49q-125 -1 -125 -128v-429q165 -2 165 -122q0 -158 -165 -160v-430z" />
    <glyph glyph-name="uni0456" unicode="&#x456;" horiz-adv-x="758" 
d="M130 118q0 49 72 83q20 10 43 17q132 713 0 1425q-23 7 -43 17q-72 35 -72 84t72 83q59 29 138 34q8 1 18 1h18q102 0 174 -34.5t72 -83.5t-72 -84q-16 -7 -32 -13v-1433q16 -5 32 -13q72 -34 72 -83t-72 -84q-70 -33 -167 -34h-14q-98 1 -167 34q-72 35 -72 84z" />
    <glyph glyph-name="uni0457" unicode="&#x457;" horiz-adv-x="640" 
d="M74 1744q0 49 72 83q58 28 135 34q9 1 20 1h19q102 0 174 -34.5t72 -83.5t-72 -84q-16 -7 -33 -13v-1432q17 -6 33 -14q72 -34 72 -83t-72 -83.5t-174 -34.5t-174 34.5t-72 83.5t72 83q20 10 42 17q132 713 0 1426q-22 7 -42 16q-72 35 -72 84zM244 1989q0 -50 -122 -50
t-122 50q42 73 0 144q0 50 122 50t122 -50q-42 -67 0 -144zM640 1989q0 -50 -122 -50t-122 50q42 73 0 144q0 50 122 50t122 -50q-42 -67 0 -144z" />
    <glyph glyph-name="uni045E" unicode="&#x45e;" horiz-adv-x="1227" 
d="M659 1744q0 49 72 83q69 34 167 35h7q102 0 174 -34.5t72 -83.5t-72 -84q-16 -7 -32 -13v-1477q0 -43 -12 -55q-139 -147 -391 -147q-125 0 -199 39q-168 71 -209 271v3q66 85 77 175q3 25 1 50q45 88 158 67q111 -20 122 -117q-3 -16 -7 -31q-16 -74 -69 -144
q0 -49 124 -48q118 0 147 72l10 62v1q33 227 39 455q-79 -25 -195 -25q-333 1 -333 391q-26 245 -63 454q-24 7 -45 17q-72 35 -72 84t72 83.5t174 34.5h3q100 -1 171 -35q72 -34 72 -83t-72 -84q-16 -7 -32 -13v-457q0 -126 125 -126q173 0 190 102q-15 238 -59 477
q-23 8 -43 17q-72 35 -72 84zM640 1939q-127 1 -223.5 26.5t-96.5 121.5t58 96q135 -52 262 -52t262 52q58 0 58 -96t-96.5 -121.5t-223.5 -26.5z" />
    <glyph glyph-name="uni0490" unicode="&#x490;" horiz-adv-x="1127" 
d="M797 1862q29 0 53 -5q4 82 33 143q35 72 84 72t83.5 -72t34.5 -174t-34.5 -174t-83.5 -72q-29 0 -52 24q-42 -24 -118 -24q-140 28 -280 45v-1410q17 -6 33 -14q72 -34 72 -83t-72 -83.5t-174 -34.5h-8q-97 1 -166 34q-72 35 -72 84t72 83q20 10 42 17q137 737 -9 1474
q0 170 122 170h440z" />
    <glyph glyph-name="uni0491" unicode="&#x491;" horiz-adv-x="1127" 
d="M797 1862q29 0 53 -5q4 82 33 143q35 72 84 72t83.5 -72t34.5 -174t-34.5 -174t-83.5 -72q-29 0 -52 24q-42 -24 -118 -24q-140 28 -280 45v-1410q17 -6 33 -14q72 -34 72 -83t-72 -83.5t-174 -34.5h-8q-97 1 -166 34q-72 35 -72 84t72 83q20 10 42 17q137 737 -9 1474
q0 170 122 170h440z" />
    <glyph glyph-name="uni04C1" unicode="&#x4c1;" horiz-adv-x="1821" 
d="M684 1744q0 49 72 83q57 28 133 33q10 2 21 2h20q102 0 174 -34.5t72 -83.5t-72 -84q-16 -8 -34 -14v-670q176 324 289 683q-2 0 -3 1q-72 35 -72 84t72 83q63 31 151 34q10 1 20 1h3q102 0 174 -34.5t72 -83.5t-72 -84q-27 -13 -58 -21l-6 -12l-359 -696l359 -696
q3 -7 6 -13q31 -8 58 -21q72 -34 72 -83t-72 -83.5t-174 -34.5h-3q-10 -1 -21 0q-87 4 -150 34q-72 35 -72 84t72 83q1 1 3 2q-82 259 -196 500l-93 -180v-308q18 -6 34 -14q72 -34 72 -83t-72 -83.5t-174 -34.5h-2q-101 0 -172 34q-72 35 -72 84t72 83q19 10 41 16
q20 111 35 221l-137 265q-115 -241 -197 -500l4 -2q72 -34 72 -83t-72 -84q-64 -30 -151 -34h-23q-102 0 -174 34.5t-72 83.5t72 83q27 13 57 21q3 6 7 13l359 696l-359 696q-4 6 -7 12q-30 8 -57 21q-72 35 -72 84t72 83.5t174 34.5h2q11 1 21 -1q87 -3 151 -34
q72 -34 72 -83t-72 -84l-4 -2q136 -430 364 -813q9 399 -65 799q-22 7 -41 16q-72 35 -72 84zM929 1939q-127 1 -223.5 26.5t-96.5 121.5t58 96q135 -52 262 -52t262 52q58 0 58 -96t-96.5 -121.5t-223.5 -26.5z" />
    <glyph glyph-name="uni04C2" unicode="&#x4c2;" horiz-adv-x="1821" 
d="M684 1744q0 49 72 83q57 28 133 33q10 2 21 2h20q102 0 174 -34.5t72 -83.5t-72 -84q-16 -8 -34 -14v-670q176 324 289 683q-2 0 -3 1q-72 35 -72 84t72 83q63 31 151 34q10 1 20 1h3q102 0 174 -34.5t72 -83.5t-72 -84q-27 -13 -58 -21l-6 -12l-359 -696l359 -696
q3 -7 6 -13q31 -8 58 -21q72 -34 72 -83t-72 -83.5t-174 -34.5h-3q-10 -1 -21 0q-87 4 -150 34q-72 35 -72 84t72 83q1 1 3 2q-82 259 -196 500l-93 -180v-308q18 -6 34 -14q72 -34 72 -83t-72 -83.5t-174 -34.5h-2q-101 0 -172 34q-72 35 -72 84t72 83q19 10 41 16
q20 111 35 221l-137 265q-115 -241 -197 -500l4 -2q72 -34 72 -83t-72 -84q-64 -30 -151 -34h-23q-102 0 -174 34.5t-72 83.5t72 83q27 13 57 21q3 6 7 13l359 696l-359 696q-4 6 -7 12q-30 8 -57 21q-72 35 -72 84t72 83.5t174 34.5h2q11 1 21 -1q87 -3 151 -34
q72 -34 72 -83t-72 -84l-4 -2q136 -430 364 -813q9 399 -65 799q-22 7 -41 16q-72 35 -72 84zM929 1939q-127 1 -223.5 26.5t-96.5 121.5t58 96q135 -52 262 -52t262 52q58 0 58 -96t-96.5 -121.5t-223.5 -26.5z" />
    <glyph glyph-name="uni20BD" unicode="&#x20bd;" horiz-adv-x="1025" 
d="M50 118q0 49 72 83q20 10 43 17q13 73 24 147h-59q-54 0 -54 134q0 128 51 132h3q43 -26 86 -43q9 105 13 210h-99q-54 0 -54 134q0 128 51 132h3q50 -30 100 -48q-7 338 -74 676v9q3 161 140 161l266 -1q236 0 324 -154q40 -62 51 -155v-3q-155 -203 -4 -435
q-32 -224 -265 -296q-65 -20 -189 -20h-41v-233q85 15 171 66q54 0 54 -116q0 -150 -54 -150h-171v-151q16 -5 32 -13q72 -34 72 -83t-72 -83.5t-174 -34.5h-18q-10 0 -18 1q-79 5 -138 33q-72 35 -72 84zM671 1549q0 49 -123 49h-2q-97 0 -117 -31v-471q19 -31 118 -31
q124 0 124 49q-99 151 -68 291q16 74 68 144z" />
    <glyph glyph-name="figuredash" unicode="&#x2012;" horiz-adv-x="2048" 
d="M172 841q-122 0 -122 48q42 70 0 139q0 48 122 48h1719q122 0 122 -48q-42 -65 0 -139q0 -48 -122 -48h-1719z" />
    <glyph glyph-name="quotereversed" unicode="&#x201b;" horiz-adv-x="610" 
d="M130 1705q56 103 0 193q0 67 163 67q164 0 164 -67q-56 -95 0 -193q0 -61 -133 -67l63 -252q4 -19 -15 -42q-25 -22 -56 -29q-32 -8 -65 -1q-28 12 -32 30z" />
    <glyph glyph-name="uni201F" unicode="&#x201f;" horiz-adv-x="1100" 
d="M620 1705q56 103 0 193q0 67 163 67q164 0 164 -67q-56 -95 0 -193q0 -61 -133 -67l63 -252q4 -19 -15 -42q-25 -22 -56 -29q-32 -8 -65 -1q-28 12 -32 30zM130 1705q56 103 0 193q0 67 163 67q164 0 164 -67q-56 -95 0 -193q0 -61 -133 -67l63 -252q4 -19 -15 -42
q-25 -22 -56 -29q-32 -8 -65 -1q-28 12 -32 30z" />
    <glyph glyph-name="perthousand" unicode="&#x2030;" horiz-adv-x="2272" 
d="M1570 233q0 -232 -237 -232q-238 1 -238 232q83 359 0 674q0 232 238 232q237 0 237 -232q-83 -315 0 -674zM1405 907q0 75 -72 75h-1q-72 0 -72 -75q89 -315 0 -674q0 -75 72 -75q73 0 73 75q-89 359 0 674zM600 1069q0 -232 -237 -232q-238 1 -238 232q83 359 0 674
q0 232 238 232q237 0 237 -232q-83 -315 0 -674zM435 1743q0 75 -72 75h-1q-72 0 -72 -75q89 -315 0 -674q0 -75 72 -75q73 0 73 75q-89 359 0 674zM2145 233q0 -232 -237 -232q-238 1 -238 232q83 359 0 674q0 232 238 232q237 0 237 -232q-83 -315 0 -674zM1980 907
q0 75 -72 75h-1q-72 0 -72 -75q89 -315 0 -674q0 -75 72 -75q73 0 73 75q-89 359 0 674zM1169 1650l-369 -1510q-41 -169 -179 -134q-133 34 -97 195l3 9q331 717 369 1510q41 169 159 139q155 -40 114 -209z" />
    <glyph glyph-name="minute" unicode="&#x2032;" horiz-adv-x="610" 
d="M370 1417q-32 -117 -78 -105q-57 59 -134 36q-47 12 -15 130l114 427q32 118 78 106q52 -58 135 -36q46 -13 14 -131z" />
    <glyph glyph-name="second" unicode="&#x2033;" horiz-adv-x="1100" 
d="M860 1417q-32 -117 -78 -105q-57 59 -134 36q-47 12 -15 130l114 427q32 118 78 106q52 -58 135 -36q46 -13 14 -131zM370 1417q-32 -117 -78 -105q-57 59 -134 36q-47 12 -15 130l114 427q32 118 78 106q52 -58 135 -36q46 -13 14 -131z" />
    <glyph glyph-name="uni2034" unicode="&#x2034;" horiz-adv-x="1590" 
d="M860 1417q-32 -117 -78 -105q-57 59 -134 36q-47 12 -15 130l114 427q32 118 78 106q52 -58 135 -36q46 -13 14 -131zM370 1417q-32 -117 -78 -105q-57 59 -134 36q-47 12 -15 130l114 427q32 118 78 106q52 -58 135 -36q46 -13 14 -131zM1350 1417q-32 -117 -78 -105
q-57 59 -134 36q-47 12 -15 130l114 427q32 118 78 106q52 -58 135 -36q46 -13 14 -131z" />
    <glyph glyph-name="exclamdbl" unicode="&#x203c;" horiz-adv-x="1024" 
d="M443 66q0 -66 -161 -66q-162 0 -162 66q56 97 0 191q0 66 162 66q161 0 161 -66q-56 -89 0 -191zM443 627q0 -124 -163 -124q-157 0 -160 118v6q173 555 0 1111q0 124 140 124q183 0 183 -124v-1111zM891 66q0 -66 -161 -66q-162 0 -162 66q56 97 0 191q0 66 162 66
q161 0 161 -66q-56 -89 0 -191zM891 627q0 -124 -163 -124q-157 0 -160 118v6q173 555 0 1111q0 124 140 124q183 0 183 -124v-1111z" />
    <glyph glyph-name="uniFFFC" unicode="&#xfffc;" horiz-adv-x="4529" 
d="M1463 1862h12q75 0 98 -69q0 -1 3 -11q-21 -33 -21 -57l3 -27q-14 -14 -38 -14q-33 0 -39 41q3 20 21 62q-21 6 -36 6q-24 0 -26 -29q0 -75 68 -137q62 -55 62 -142q6 0 6 -36q0 -79 -95 -89h-21q-77 0 -95 80v3q18 26 18 45v32q10 18 33 18q41 -3 41 -39v-8
q0 -21 -17 -48v-6q0 -9 32 -9q30 5 30 27q0 80 -104 175q-21 29 -33 134v9q0 72 75 86q3 3 23 3zM1932 1862h12q75 0 98 -69l3 -11q-20 -33 -20 -57l3 -27q-15 -14 -39 -14q-32 0 -39 41q3 20 21 62q-21 6 -36 6q-26 -3 -26 -26v-312q0 -27 32 -27h3q22 0 27 9q-9 27 -9 45
v71l3 6q-30 10 -30 41q0 27 45 42q0 4 9 9q34 0 39 -59q0 -55 17 -155q0 -34 -53 -68q-32 -9 -48 -9h-12q-82 0 -97 74v18q11 75 17 157q-6 90 -17 155v9q0 72 74 86q3 3 23 3zM858 1856h62q110 0 110 -98q-20 -94 -21 -146q0 -44 21 -151q-11 -92 -83 -92h-98q-60 5 -60 32
q2 12 30 27q18 95 18 184q-7 190 -27 190q-21 8 -21 24q0 25 69 30zM1125 1856h110q15 0 35 -6q10 6 18 6q27 -19 27 -51v-29q-8 -51 -33 -51q-20 0 -29 57h-3q-71 8 -84 8v-151q52 9 66 9h9q25 0 32 -30q0 -44 -53 -44h-54v-143l87 12q0 44 32 53h6q24 -16 24 -56v-15
q0 -56 -33 -56h-3q-7 6 -12 6q-9 -6 -17 -6h-125q-27 0 -33 38q21 109 21 205q0 90 -21 205q6 39 33 39zM1707 1856q62 0 62 -36q-15 -21 -27 -21v-371q27 -17 27 -32q-16 -27 -59 -27h-12q-59 5 -59 32q0 10 32 30q15 94 15 175v12q0 101 -18 181q-29 7 -29 27q0 25 68 30z
M2173 1856q62 0 62 -36q-15 -21 -26 -21v-38q9 -75 80 -199l3 15v12q-5 213 -27 213q-19 0 -21 24v3q16 27 69 27q59 -10 59 -24v-15q-13 -18 -27 -18v-374q12 0 27 -18v-14q-16 -24 -56 -24h-12q-60 5 -60 30v5q0 6 30 24l3 15l-65 149h-3v-164q26 -17 26 -32
q-16 -27 -59 -27h-12q-59 5 -59 32q0 10 32 30q15 99 15 178v6q-5 187 -27 187q-20 8 -20 24q0 25 68 30zM2473 1856h110q15 0 35 -6q10 6 18 6q27 -19 27 -51v-29q-8 -51 -33 -51q-20 0 -29 57h-3q-71 8 -84 8v-151q52 9 66 9h9q25 0 32 -30q0 -44 -53 -44h-54v-143l87 12
q0 44 32 53h6q24 -16 24 -56v-15q0 -56 -33 -56h-3q-7 6 -12 6q-9 -6 -17 -6h-125q-27 0 -33 38q21 109 21 205q0 90 -21 205q6 39 33 39zM2785 1856h62q110 0 110 -98q-20 -94 -21 -146q0 -44 21 -151q-11 -92 -83 -92h-98q-60 5 -60 32q2 12 30 27q18 95 18 184
q-7 190 -27 190q-21 8 -21 24q0 25 69 30zM3230 1856h62q76 0 95 -60l3 -17q-17 -43 -17 -54v-18q0 -10 17 -53q-5 -19 -35 -45q19 0 35 -44q-17 -33 -17 -51v-18q0 -18 17 -44q0 -54 -50 -77q-22 -6 -42 -6h-86q-50 0 -59 32q2 12 30 27q17 86 17 187q-6 187 -26 187
q-21 8 -21 24q0 26 77 30zM3497 1856q53 0 60 -36q0 -4 -18 -21q21 -48 35 -95h6q0 6 36 98q-18 6 -18 24v3q16 27 69 27q59 -10 59 -24v-15q-6 -10 -39 -27q-71 -131 -71 -154v-211q14 0 27 -18v-14q-17 -24 -57 -24h-12q-59 5 -59 30v5q0 6 30 24q12 58 18 149
q-82 225 -119 225q-18 12 -18 24q0 25 71 30zM890 1785v-342q1 -6 6 -6q60 0 60 27v3q-21 80 -21 145q0 64 21 143q-3 30 -27 30h-39zM2817 1785v-342q1 -6 6 -6q60 0 60 27v3q-21 80 -21 145q0 64 21 143q-3 30 -27 30h-39zM3254 1773v-113q5 -12 21 -12h23q10 0 21 9
q-21 36 -21 62q0 24 21 57q-11 9 -21 9h-23q-16 0 -21 -12zM3254 1565v-107q0 -21 32 -21q33 3 33 15q-21 20 -21 59q2 25 21 54q0 12 -36 12q-29 -3 -29 -12zM2455 1220h12q75 0 98 -68q0 -1 3 -12q-21 -32 -21 -56l3 -27q-15 -15 -39 -15q-32 0 -38 42q3 20 21 62
q-21 6 -36 6q-25 0 -27 -30q0 -74 69 -136q62 -55 62 -143q6 0 6 -35q0 -80 -95 -89h-21q-77 0 -95 80v3q18 25 18 44v33q9 18 33 18q41 -4 41 -39v-9q0 -20 -18 -47v-6q0 -9 33 -9q30 5 30 27q0 80 -104 175q-21 29 -33 133v9q0 72 74 86q3 3 24 3zM4017 1220h18
q95 -9 95 -89v-9q-18 -84 -18 -157q0 -50 18 -157q0 -80 -95 -89h-21q-95 8 -95 89v6q18 115 18 157q0 36 -18 154v6q0 72 74 86q3 3 24 3zM118 1214h63q110 0 110 -98q-21 -94 -21 -145q0 -44 21 -151q-12 -93 -84 -93h-98q-59 6 -59 33q2 11 30 27q18 95 18 184
q-8 190 -27 190q-21 8 -21 24q0 24 68 29zM415 1214h33q37 0 50 -109q39 -165 39 -259h3q2 122 62 354q16 14 27 14h21q50 0 50 -53v-374q27 -20 27 -24v-3q0 -28 -56 -33h-15q-46 0 -60 30q0 13 33 33q15 98 15 172v12q0 31 -3 95l-6 3q-36 -131 -56 -309q0 -18 -39 -24
q-48 0 -48 69q-8 87 -35 213h-3v-234q27 -17 27 -33q-16 -27 -60 -27h-12q-59 6 -59 33q1 10 33 30q14 94 14 175v12q0 72 -17 205q0 31 35 32zM843 1214q62 0 62 -35q-15 -21 -27 -21v-371q27 -17 27 -33q-16 -27 -59 -27h-12q-60 6 -60 33q1 10 33 30q15 94 15 175v12
q0 100 -18 181q-30 7 -30 27q0 24 69 29zM988 1214q8 -6 12 -6q19 6 27 6h119q15 0 35 -6q10 6 18 6q24 -6 30 -65q0 -57 -36 -65q-27 12 -27 56h-8l-30 3v-356q27 -14 27 -30q-8 -30 -60 -30h-9q-42 0 -59 24v6q0 18 30 30q14 90 14 157v54q-3 127 -17 145q-21 -3 -33 -3
h-6v-6q-8 -50 -33 -50q-23 0 -29 65q0 65 35 65zM1330 1214h56q84 0 104 -59l3 -18q-18 -41 -18 -53v-18q0 -14 18 -51q0 -39 -53 -68q49 -169 77 -169q9 0 18 -15v-3q0 -28 -57 -33h-15q-49 0 -59 33q0 6 21 24l-42 151h-18v-148q27 -18 27 -30q-14 -30 -59 -30h-12
q-44 0 -60 27q0 17 33 36q15 100 15 181q0 110 -21 199q0 44 42 44zM1621 1214q53 0 59 -35q0 -4 -18 -21q21 -49 36 -95h6q0 6 35 98q-17 6 -17 24v3q16 26 68 26q59 -9 59 -23v-15q-5 -10 -38 -27q-72 -131 -72 -154v-211q15 0 27 -18v-15q-16 -24 -56 -24h-12
q-59 6 -59 30v6q0 6 29 24q12 57 18 148q-81 226 -119 226q-18 12 -18 24q0 24 72 29zM2167 1214q62 0 62 -35q-8 -18 -20 -18q20 -196 68 -347q8 -29 33 -42q6 0 8 -15q-11 -30 -59 -30h-12q-51 0 -59 33q13 24 30 24q-9 47 -15 47h-78q-7 0 -11 -47q20 -8 26 -21v-9
q-16 -27 -59 -27h-12q-50 0 -59 33q0 8 35 33q75 261 75 368q-21 8 -21 24q0 24 68 29zM2645 1214q7 -6 12 -6q19 6 27 6h118q15 0 36 -6q10 6 18 6q24 -6 30 -65q0 -57 -36 -65q-27 12 -27 56h-9l-29 3v-356q26 -14 26 -30q-7 -30 -59 -30h-9q-43 0 -59 24v6q0 18 29 30
q15 90 15 157v54q-3 127 -18 145q-20 -3 -32 -3h-6v-6q-8 -50 -33 -50q-23 0 -30 65q0 65 36 65zM3064 1214q62 0 62 -35q-8 -18 -21 -18q21 -196 69 -347q7 -29 32 -42q7 0 9 -15q-12 -30 -59 -30h-12q-51 0 -59 33q12 24 29 24q-9 47 -15 47h-77q-8 0 -12 -47
q21 -8 27 -21v-9q-16 -27 -59 -27h-12q-50 0 -60 33q0 8 36 33q74 261 74 368q-21 8 -21 24q0 24 69 29zM3325 1214q62 0 62 -35q-14 -21 -26 -21v-169h3q39 79 71 172q-9 0 -21 18q0 35 68 35q53 0 63 -32q-1 -12 -39 -33q-51 -105 -92 -178q94 -185 101 -187q30 -9 30 -27
q-13 -30 -60 -30h-11q-44 0 -60 27q0 18 21 27q-37 106 -54 128q-20 -45 -20 -51v-71q26 -17 26 -33q-16 -27 -59 -27h-12q-59 6 -59 33q0 10 32 30q15 94 15 175v12q0 100 -18 181q-29 7 -29 27q0 24 68 29zM3658 1214q62 0 62 -35q-15 -21 -27 -21v-151h80v3
q-4 148 -23 148q-21 14 -21 18v12q16 26 68 26t60 -32v-6q-13 -18 -27 -18v-371q27 -14 27 -30v-6q-17 -24 -60 -24h-9q-59 0 -59 33q0 13 30 27q14 82 14 145v3h-80v-148q27 -17 27 -33q-16 -27 -59 -27h-12q-60 6 -60 33q1 10 33 30q15 94 15 175v12q0 100 -18 181
q-30 7 -30 27q0 24 69 29zM4240 1214q52 0 59 -35q0 -12 -27 -21q51 -233 51 -288h3q0 72 47 288h-3q-13 5 -24 21q0 35 69 35q53 0 62 -32q-1 -12 -33 -30q-76 -260 -77 -371q21 -9 21 -27q-16 -27 -59 -27h-12q-50 0 -60 33q0 10 21 21q0 112 -77 374q-21 0 -33 30
q0 24 72 29zM3993 1125q18 -93 18 -142v-27q0 -49 -18 -142q0 -27 33 -27q29 4 29 30q-20 93 -20 154q0 50 20 157q-8 24 -29 24q-33 0 -33 -27zM151 1143v-341q1 -6 6 -6q59 0 59 26v3q-21 81 -21 146q0 64 21 142q-3 30 -26 30h-39zM1365 1140v-130l21 -3h21q15 0 18 8v6
q-18 25 -18 57q0 16 18 59q-10 6 -18 6h-21zM2164 1069q0 -63 -30 -169h60v3q-27 84 -27 166h-3zM3061 1069q0 -63 -30 -169h59v3q-26 84 -26 166h-3zM1276 579h12q75 0 98 -68l3 -12q-21 -33 -21 -57l3 -26q-15 -15 -38 -15q-33 0 -39 41q3 21 21 63q-21 6 -36 6
q-24 0 -26 -30q0 -74 68 -137q62 -54 62 -142q6 0 6 -36q0 -79 -95 -89h-21q-77 0 -95 80v3q18 26 18 45v33q9 17 33 17q41 -3 41 -38v-9q0 -20 -17 -48v-6q0 -9 32 -9q30 6 30 27q0 81 -104 175q-21 29 -33 134v9q0 72 75 86q3 3 23 3zM1546 579h12q75 0 98 -68l3 -12
q-20 -33 -20 -57l3 -26q-15 -15 -39 -15q-32 0 -39 41q3 21 21 63q-21 6 -36 6q-24 0 -26 -30q0 -74 68 -137q62 -54 62 -142q6 0 6 -36q0 -79 -95 -89h-20q-78 0 -95 80v3q17 26 17 45v33q10 17 33 17q42 -3 42 -38v-9q0 -20 -18 -48v-6q0 -9 32 -9q30 6 30 27
q0 81 -104 175q-21 29 -32 134v9q0 72 74 86q3 3 23 3zM593 573h57q84 0 104 -59l3 -18q-18 -41 -18 -54v-17q0 -15 18 -51q0 -40 -54 -68q50 -169 77 -169q10 0 18 -15v-3q0 -28 -56 -33h-15q-50 0 -59 33q0 6 20 24l-41 151h-18v-149q27 -17 27 -29q-14 -30 -60 -30h-12
q-43 0 -59 27q0 17 33 35q15 101 15 182q0 109 -21 199q0 44 41 44zM923 573q40 0 59 -27v-3q-5 -26 -26 -26v-342q0 -27 26 -27h9q36 0 36 72q12 40 12 118q-12 182 -30 182t-21 23v3q17 27 66 27q65 -6 65 -33q-11 -23 -30 -23v-348q0 -92 -101 -92h-3q-101 0 -101 92
q18 107 18 152v17q-9 179 -27 179q-9 0 -23 23q0 29 71 33zM1790 573q62 0 62 -36q-15 -20 -26 -20v-372q26 -16 26 -32q-16 -27 -59 -27h-12q-59 5 -59 33q0 9 32 29q15 94 15 176v12q0 100 -18 181q-29 6 -29 26q0 25 68 30zM2054 573q63 0 63 -36q-9 -17 -21 -17
q21 -197 68 -348q8 -28 33 -41q7 0 9 -15q-12 -30 -60 -30h-12q-51 0 -59 33q13 24 30 24q-9 47 -15 47h-77q-8 0 -12 -47q20 -9 27 -21v-9q-16 -27 -60 -27h-12q-49 0 -59 33q0 8 35 32q75 262 75 369q-21 8 -21 23q0 25 68 30zM2601 573h56q70 0 95 -39q12 -25 12 -38
q-18 -44 -18 -54v-8q0 -20 18 -63q0 -51 -86 -77h-42v-149q27 -16 27 -32q-16 -27 -59 -27h-12q-60 5 -60 33q1 9 33 29q15 94 15 176v12q0 72 -18 204q0 33 39 33zM2856 573h110q15 0 35 -6q10 6 18 6q27 -19 27 -50v-30q-8 -51 -33 -51q-20 0 -29 57h-3q-71 9 -84 9v-152
q52 9 66 9h9q25 0 32 -29q0 -45 -53 -45h-54v-143l87 12q0 44 32 54h6q24 -17 24 -57v-14q0 -57 -33 -57h-3q-7 6 -12 6q-9 -6 -17 -6h-125q-27 0 -33 39q21 108 21 205q0 90 -21 204q6 39 33 39zM3168 573q62 0 62 -36q-15 -20 -27 -20v-39q9 -75 80 -199l3 15v12
q-5 214 -26 214q-19 0 -21 23v3q16 27 68 27q60 -10 60 -24v-15q-13 -17 -27 -17v-374q12 0 27 -18v-15q-17 -24 -57 -24h-12q-59 5 -59 30v6q0 6 30 23l3 15l-66 149h-3v-164q27 -16 27 -32q-16 -27 -59 -27h-12q-60 5 -60 33q1 9 33 29q15 100 15 179v6q-5 187 -27 187
q-21 8 -21 23q0 25 69 30zM3450 573q7 -6 12 -6q19 6 26 6h119q51 0 51 -36v-11q-17 -67 -60 -176q18 -6 18 -23v-3q-5 -10 -36 -27q-50 -140 -50 -146h3q62 0 62 12q0 29 24 51h15q24 -17 24 -60v-29q-6 -39 -33 -39h-140q-38 0 -38 33v15q0 13 62 133q9 19 9 36
q-30 6 -30 27v6q0 14 48 23h9q32 120 32 146h-23q-74 -6 -78 -6v-6q-7 -51 -32 -51q-23 0 -30 66q0 65 36 65zM3836 573q62 0 62 -36q-8 -17 -21 -17q21 -197 69 -348q7 -28 32 -41q7 0 9 -15q-12 -30 -59 -30h-12q-51 0 -59 33q12 24 29 24q-9 47 -15 47h-77q-8 0 -12 -47
q21 -9 27 -21v-9q-16 -27 -59 -27h-12q-50 0 -60 33q0 8 36 32q74 262 74 369q-21 8 -21 23q0 25 69 30zM629 499v-131l21 -3h21q15 0 17 9v6q-17 24 -17 56q0 17 17 60q-9 6 -17 6h-21zM2636 493v-119q3 -9 18 -9h24q10 0 21 9q-21 32 -21 62q0 27 21 57q-11 9 -21 9h-24
q-18 -2 -18 -9zM2051 428q0 -63 -29 -170h59v3q-27 84 -27 167h-3zM3833 428q0 -63 -30 -170h59v3q-26 84 -26 167h-3zM2277 172h24q29 -3 29 -12v-3q0 -2 -6 -23v-3q0 -6 6 -30q-19 -98 -29 -98q-6 -3 -9 -3q-27 7 -27 15q0 17 15 71q-33 3 -33 12v3q6 29 6 33q-6 19 -6 26
q0 9 30 12z" />
    <glyph glyph-name="_312" horiz-adv-x="819" 
 />
    <glyph glyph-name="_313" horiz-adv-x="819" 
 />
    <glyph glyph-name="Abreve" unicode="&#x102;" horiz-adv-x="1255" 
d="M721 118q0 49 72 84q17 8 36 14l-36 179h-332l-37 -179q19 -6 36 -14q72 -35 72 -84t-72 -83q-69 -34 -164 -35h-10q-102 0 -174 35q-72 34 -72 83t72 84q20 9 42 16q241 700 302 1441q-2 1 -3 2q-72 34 -72 83t72 84q69 32 165 34h18q96 -2 165 -34q72 -35 72 -84
t-72 -83l-4 -2q61 -741 301 -1441q23 -7 43 -16q72 -35 72 -84t-72 -83q-72 -35 -174 -35t-174 35q-72 34 -72 83zM627 1939q-127 1 -223.5 26.5t-96.5 121.5t58 96q135 -52 262 -52t262 52q58 0 58 -96t-96.5 -121.5t-223.5 -26.5zM746 661q-100 270 -119 774
q-19 -504 -119 -774h238z" />
    <glyph glyph-name="abreve" unicode="&#x103;" horiz-adv-x="1255" 
d="M721 118q0 49 72 84q17 8 36 14l-36 179h-332l-37 -179q19 -6 36 -14q72 -35 72 -84t-72 -83q-69 -34 -164 -35h-10q-102 0 -174 35q-72 34 -72 83t72 84q20 9 42 16q241 700 302 1441q-2 1 -3 2q-72 34 -72 83t72 84q69 32 165 34h18q96 -2 165 -34q72 -35 72 -84
t-72 -83l-4 -2q61 -741 301 -1441q23 -7 43 -16q72 -35 72 -84t-72 -83q-72 -35 -174 -35t-174 35q-72 34 -72 83zM627 1939q-127 1 -223.5 26.5t-96.5 121.5t58 96q135 -52 262 -52t262 52q58 0 58 -96t-96.5 -121.5t-223.5 -26.5zM746 661q-100 270 -119 774
q-19 -504 -119 -774h238z" />
    <glyph glyph-name="Aogonek" unicode="&#x104;" horiz-adv-x="1255" 
d="M721 118q0 49 72 84q17 8 36 14l-36 179h-332l-37 -179q19 -6 36 -14q72 -35 72 -84t-72 -83q-69 -34 -164 -35h-10q-102 0 -174 35q-72 34 -72 83t72 84q20 9 42 16q241 700 302 1441q-2 1 -3 2q-72 34 -72 83t72 84q72 34 174 34h1q101 0 173 -34q72 -35 72 -84
t-72 -83l-4 -2q61 -741 301 -1441q23 -7 43 -16q72 -35 72 -84t-72 -83q-42 -21 -95 -29q31 -7 31 -45v-130q0 -35 43 -35q42 0 42 13q-18 19 -23 39q-2 4 -3 9q4 26 42 32q38 5 53 -19q0 -6 1 -13q4 -25 26 -48v-1q-14 -54 -71 -73q-25 -11 -68 -11q-86 0 -119 40
q-7 10 -18 34q51 98 0 163q0 29 17 40q-13 -1 -26 -1h-6q-102 0 -174 35q-72 34 -72 83zM746 661q-100 270 -119 774q-19 -504 -119 -774h238z" />
    <glyph glyph-name="aogonek" unicode="&#x105;" horiz-adv-x="1255" 
d="M721 118q0 49 72 84q17 8 36 14l-36 179h-332l-37 -179q19 -6 36 -14q72 -35 72 -84t-72 -83q-69 -34 -164 -35h-10q-102 0 -174 35q-72 34 -72 83t72 84q20 9 42 16q241 700 302 1441q-2 1 -3 2q-72 34 -72 83t72 84q72 34 174 34h1q101 0 173 -34q72 -35 72 -84
t-72 -83l-4 -2q61 -741 301 -1441q23 -7 43 -16q72 -35 72 -84t-72 -83q-42 -21 -95 -29q31 -7 31 -45v-130q0 -35 43 -35q42 0 42 13q-18 19 -23 39q-2 4 -3 9q4 26 42 32q38 5 53 -19q0 -6 1 -13q4 -25 26 -48v-1q-14 -54 -71 -73q-25 -11 -68 -11q-86 0 -119 40
q-7 10 -18 34q51 98 0 163q0 29 17 40q-13 -1 -26 -1h-6q-102 0 -174 35q-72 34 -72 83zM746 661q-100 270 -119 774q-19 -504 -119 -774h238z" />
    <glyph glyph-name="Cacute" unicode="&#x106;" horiz-adv-x="1023" 
d="M392 360q0 -127 125 -127q125 -1 125 48q-53 70 -69 144q-12 51 -6 104q16 108 141 119q106 8 146 -69q-42 -156 67 -298q-40 -203 -207 -274q-73 -39 -197 -39q-408 0 -407 391q64 245 69 555v33q-5 310 -69 555q-1 391 407 391q124 0 197 -39q167 -71 207 -274
q-109 -142 -67 -298q-40 -77 -146 -69q-125 11 -141 119q-6 53 6 104q16 74 69 144q0 49 -125 49q-125 -1 -125 -128v-1141zM607 1961q-299 -46 -250 0q251 109 234 227q26 13 135 -37q142 -65 116 -77z" />
    <glyph glyph-name="cacute" unicode="&#x107;" horiz-adv-x="1023" 
d="M392 360q0 -127 125 -127q125 -1 125 48q-53 70 -69 144q-12 51 -6 104q16 108 141 119q106 8 146 -69q-42 -156 67 -298q-40 -203 -207 -274q-73 -39 -197 -39q-408 0 -407 391q64 245 69 555v33q-5 310 -69 555q-1 391 407 391q124 0 197 -39q167 -71 207 -274
q-109 -142 -67 -298q-40 -77 -146 -69q-125 11 -141 119q-6 53 6 104q16 74 69 144q0 49 -125 49q-125 -1 -125 -128v-1141zM607 1961q-299 -46 -250 0q251 109 234 227q26 13 135 -37q142 -65 116 -77z" />
    <glyph glyph-name="Ccaron" unicode="&#x10c;" horiz-adv-x="1023" 
d="M392 360q0 -127 125 -127q125 -1 125 48q-53 70 -69 144q-12 51 -6 104q16 108 141 119q106 8 146 -69q-42 -156 67 -298q-40 -203 -207 -274q-73 -39 -197 -39q-408 0 -407 391q64 245 69 555v33q-5 310 -69 555q-1 391 407 391q124 0 197 -39q167 -71 207 -274
q-109 -142 -67 -298q-40 -77 -146 -69q-125 11 -141 119q-6 53 6 104q16 74 69 144q0 49 -125 49q-125 -1 -125 -128v-1141zM347 1939l1 15q0 110 -235 214q-7 6 -7 11q0 12 44 12q62 0 213 -24l132 -63l131 63q151 24 214 24q44 0 44 -12q0 -5 -7 -11q-235 -104 -235 -214
l1 -15h-296z" />
    <glyph glyph-name="ccaron" unicode="&#x10d;" horiz-adv-x="1023" 
d="M392 360q0 -127 125 -127q125 -1 125 48q-53 70 -69 144q-12 51 -6 104q16 108 141 119q106 8 146 -69q-42 -156 67 -298q-40 -203 -207 -274q-73 -39 -197 -39q-408 0 -407 391q64 245 69 555v33q-5 310 -69 555q-1 391 407 391q124 0 197 -39q167 -71 207 -274
q-109 -142 -67 -298q-40 -77 -146 -69q-125 11 -141 119q-6 53 6 104q16 74 69 144q0 49 -125 49q-125 -1 -125 -128v-1141zM347 1939l1 15q0 110 -235 214q-7 6 -7 11q0 12 44 12q62 0 213 -24l132 -63l131 63q151 24 214 24q44 0 44 -12q0 -5 -7 -11q-235 -104 -235 -214
l1 -15h-296z" />
    <glyph glyph-name="Dcaron" unicode="&#x10e;" horiz-adv-x="1155" 
d="M130 118q0 49 72 83q18 9 39 16q133 714 0 1428q-21 6 -39 15q-72 35 -72 84t72 83q55 27 129 33q11 2 23 2h39l275 -1q377 0 377 -391q-151 -538 0 -1079q0 -390 -377 -390q-6 0 -18 -1h-295q-13 0 -24 1q-73 7 -129 33q-72 35 -72 84zM762 1470q0 127 -123 127h-124
v-1332h124q123 0 123 126q-151 541 0 1079zM489 1939l1 15q0 110 -235 214q-7 6 -7 11q0 12 44 12q62 0 213 -24l132 -63l131 63q151 24 214 24q44 0 44 -12q0 -5 -7 -11q-235 -104 -235 -214l1 -15h-296z" />
    <glyph glyph-name="dcaron" unicode="&#x10f;" horiz-adv-x="1155" 
d="M130 118q0 49 72 83q18 9 39 16q133 714 0 1428q-21 6 -39 15q-72 35 -72 84t72 83q55 27 129 33q11 2 23 2h39l275 -1q377 0 377 -391q-151 -538 0 -1079q0 -390 -377 -390q-6 0 -18 -1h-295q-13 0 -24 1q-73 7 -129 33q-72 35 -72 84zM762 1470q0 127 -123 127h-124
v-1332h124q123 0 123 126q-151 541 0 1079zM489 1939l1 15q0 110 -235 214q-7 6 -7 11q0 12 44 12q62 0 213 -24l132 -63l131 63q151 24 214 24q44 0 44 -12q0 -5 -7 -11q-235 -104 -235 -214l1 -15h-296z" />
    <glyph glyph-name="Ecaron" unicode="&#x11a;" horiz-adv-x="1062" 
d="M692 1862q72 0 113 -29l1 1q10 11 21 18q4 2 9 4q12 6 26 6h5q2 -1 4 -1q11 -2 21 -7q7 -3 13 -8l12 -12q5 -6 10 -13q10 -13 18 -31l4 -8l3 -7q4 -9 7 -19l5 -16q6 -21 10 -43q4 -27 5 -56q1 -5 1 -10v-30q-1 -20 -3 -39q-1 -14 -3 -28q-2 -9 -4 -17l-4 -17l-4 -16
q-1 -4 -3 -8l-3 -8l-4 -12l-3 -7q-2 -4 -4 -7q-1 -2 -1 -4q-5 -9 -9 -16q-14 -23 -30 -36q-6 -5 -13 -9l-4 -2q-2 -1 -5 -2q-2 -1 -5 -1q-1 0 -2 -1l-5 -1h-9q-9 0 -17 2q-7 2 -14 5q-5 3 -11 7l-2 2q-17 15 -33 42q-3 7 -7 14q-1 3 -3 7q-2 3 -3 7q-9 21 -15 44l-4 17
q0 2 -1 4q-1 7 -2 13q-4 24 -5 49q-24 -3 -53 -3q-140 28 -280 45v-592q115 16 230 39q170 0 170 -122q0 -160 -170 -160h-230v-553q140 17 280 45q29 0 53 -4q4 81 33 142q35 72 84 72t83.5 -72t34.5 -174t-34.5 -174t-83.5 -72q-31 0 -57 29q-41 -29 -113 -29h-422
q-137 0 -140 161q151 770 0 1531q0 170 122 170h440zM348 1939l1 15q0 110 -235 214q-7 6 -7 11q0 12 44 12q62 0 213 -24l132 -63l131 63q151 24 214 24q44 0 44 -12q0 -5 -7 -11q-235 -104 -235 -214l1 -15h-296z" />
    <glyph glyph-name="ecaron" unicode="&#x11b;" horiz-adv-x="1062" 
d="M692 1862q72 0 113 -29l1 1q10 11 21 18q4 2 9 4q12 6 26 6h5q2 -1 4 -1q11 -2 21 -7q7 -3 13 -8l12 -12q5 -6 10 -13q10 -13 18 -31l4 -8l3 -7q4 -9 7 -19l5 -16q6 -21 10 -43q4 -27 5 -56q1 -5 1 -10v-30q-1 -20 -3 -39q-1 -14 -3 -28q-2 -9 -4 -17l-4 -17l-4 -16
q-1 -4 -3 -8l-3 -8l-4 -12l-3 -7q-2 -4 -4 -7q-1 -2 -1 -4q-5 -9 -9 -16q-14 -23 -30 -36q-6 -5 -13 -9l-4 -2q-2 -1 -5 -2q-2 -1 -5 -1q-1 0 -2 -1l-5 -1h-9q-9 0 -17 2q-7 2 -14 5q-5 3 -11 7l-2 2q-17 15 -33 42q-3 7 -7 14q-1 3 -3 7q-2 3 -3 7q-9 21 -15 44l-4 17
q0 2 -1 4q-1 7 -2 13q-4 24 -5 49q-24 -3 -53 -3q-140 28 -280 45v-592q115 16 230 39q170 0 170 -122q0 -160 -170 -160h-230v-553q140 17 280 45q29 0 53 -4q4 81 33 142q35 72 84 72t83.5 -72t34.5 -174t-34.5 -174t-83.5 -72q-31 0 -57 29q-41 -29 -113 -29h-422
q-137 0 -140 161q151 770 0 1531q0 170 122 170h440zM348 1939l1 15q0 110 -235 214q-7 6 -7 11q0 12 44 12q62 0 213 -24l132 -63l131 63q151 24 214 24q44 0 44 -12q0 -5 -7 -11q-235 -104 -235 -214l1 -15h-296z" />
    <glyph glyph-name="Lslash" unicode="&#x141;" horiz-adv-x="1318" 
d="M1157 492q49 0 83.5 -72t34.5 -174t-34.5 -174t-83.5 -72q-31 0 -57 29q-41 -29 -113 -29h-440q-122 0 -122 170q58 293 71 585l-207 -207q-74 -74 -126 -22q-49 49 19 121l5 4q167 119 313 259q2 367 -66 734q-22 7 -42 16q-72 35 -72 84t72 83q69 33 166 35h8
q102 0 174 -34.5t72 -83.5t-72 -84q-16 -7 -33 -13v-517q74 88 141 182q74 74 119 30q58 -58 -17 -133l-243 -243v-729q140 17 280 45q29 0 53 -4q4 81 33 142q35 72 84 72z" />
    <glyph glyph-name="lslash" unicode="&#x142;" horiz-adv-x="1318" 
d="M1157 492q49 0 83.5 -72t34.5 -174t-34.5 -174t-83.5 -72q-31 0 -57 29q-41 -29 -113 -29h-440q-122 0 -122 170q58 293 71 585l-207 -207q-74 -74 -126 -22q-49 49 19 121l5 4q167 119 313 259q2 367 -66 734q-22 7 -42 16q-72 35 -72 84t72 83q69 33 166 35h8
q102 0 174 -34.5t72 -83.5t-72 -84q-16 -7 -33 -13v-517q74 88 141 182q74 74 119 30q58 -58 -17 -133l-243 -243v-729q140 17 280 45q29 0 53 -4q4 81 33 142q35 72 84 72z" />
    <glyph glyph-name="Nacute" unicode="&#x143;" horiz-adv-x="1283" 
d="M661 118q0 49 72 83q20 10 42 17q8 39 14 78l-272 583v-664q17 -6 33 -14q72 -34 72 -83t-72 -83.5t-174 -34.5h-8q-97 1 -166 34q-72 35 -72 84t72 83q20 10 42 17q67 357 67 713q0 223 -26 445l-1 2l1 1q-16 132 -41 265q-22 7 -42 16q-72 35 -72 84t72 83.5t174 34.5
h6q98 -1 168 -35q72 -34 72 -83t-72 -84q-16 -7 -33 -13v-188q120 -393 319 -750q6 111 6 222q0 357 -67 713q-22 7 -42 16q-72 35 -72 84t72 83q69 33 166 35h14q98 -1 168 -35q72 -34 72 -83t-72 -84q-16 -7 -33 -13v-1432q17 -6 33 -14q72 -34 72 -83t-72 -83.5
t-174 -34.5h-8q-97 1 -166 34q-72 35 -72 84zM732 1961q-299 -46 -250 0q251 109 234 227q26 13 135 -37q142 -65 116 -77z" />
    <glyph glyph-name="nacute" unicode="&#x144;" horiz-adv-x="1283" 
d="M661 118q0 49 72 83q20 10 42 17q8 39 14 78l-272 583v-664q17 -6 33 -14q72 -34 72 -83t-72 -83.5t-174 -34.5h-8q-97 1 -166 34q-72 35 -72 84t72 83q20 10 42 17q67 357 67 713q0 223 -26 445l-1 2l1 1q-16 132 -41 265q-22 7 -42 16q-72 35 -72 84t72 83.5t174 34.5
h6q98 -1 168 -35q72 -34 72 -83t-72 -84q-16 -7 -33 -13v-188q120 -393 319 -750q6 111 6 222q0 357 -67 713q-22 7 -42 16q-72 35 -72 84t72 83q69 33 166 35h14q98 -1 168 -35q72 -34 72 -83t-72 -84q-16 -7 -33 -13v-1432q17 -6 33 -14q72 -34 72 -83t-72 -83.5
t-174 -34.5h-8q-97 1 -166 34q-72 35 -72 84zM732 1961q-299 -46 -250 0q251 109 234 227q26 13 135 -37q142 -65 116 -77z" />
    <glyph glyph-name="Ncaron" unicode="&#x147;" horiz-adv-x="1283" 
d="M661 118q0 49 72 83q20 10 42 17q8 39 14 78l-272 583v-664q17 -6 33 -14q72 -34 72 -83t-72 -84q-70 -33 -168 -34h-14q-97 1 -166 34q-72 35 -72 84t72 83q20 10 42 17q67 357 67 713q0 223 -26 445l-1 2l1 1q-16 132 -41 265q-22 7 -42 16q-72 35 -72 84t72 83
q69 33 166 35h8q102 0 174 -34.5t72 -83.5t-72 -84q-16 -7 -33 -13v-188q120 -393 319 -750q6 111 6 222q0 357 -67 713q-22 7 -42 16q-72 35 -72 84t72 83.5t174 34.5t174 -34.5t72 -83.5t-72 -84q-16 -7 -33 -13v-1432q17 -6 33 -14q72 -34 72 -83t-72 -84
q-70 -33 -168 -34h-14q-97 1 -166 34q-72 35 -72 84zM790 1939h-296l1 15q0 110 -235 214q-7 6 -7 11q0 12 44 12q62 0 213 -24l132 -63l131 63q151 24 214 24q44 0 44 -12q0 -5 -7 -11q-235 -104 -235 -214z" />
    <glyph glyph-name="ncaron" unicode="&#x148;" horiz-adv-x="1283" 
d="M661 118q0 49 72 83q20 10 42 17q8 39 14 78l-272 583v-664q17 -6 33 -14q72 -34 72 -83t-72 -84q-70 -33 -168 -34h-14q-97 1 -166 34q-72 35 -72 84t72 83q20 10 42 17q67 357 67 713q0 223 -26 445l-1 2l1 1q-16 132 -41 265q-22 7 -42 16q-72 35 -72 84t72 83
q69 33 166 35h8q102 0 174 -34.5t72 -83.5t-72 -84q-16 -7 -33 -13v-188q120 -393 319 -750q6 111 6 222q0 357 -67 713q-22 7 -42 16q-72 35 -72 84t72 83.5t174 34.5t174 -34.5t72 -83.5t-72 -84q-16 -7 -33 -13v-1432q17 -6 33 -14q72 -34 72 -83t-72 -84
q-70 -33 -168 -34h-14q-97 1 -166 34q-72 35 -72 84zM790 1939h-296l1 15q0 110 -235 214q-7 6 -7 11q0 12 44 12q62 0 213 -24l132 -63l131 63q151 24 214 24q44 0 44 -12q0 -5 -7 -11q-235 -104 -235 -214z" />
    <glyph glyph-name="OE" unicode="&#x152;" horiz-adv-x="1448" 
d="M714 0q-83 -32 -198 -32q-406 1 -406 393q141 570 0 1140q0 392 406 392q114 0 196 -31h366q72 0 113 -29l13 13q7 5 13 8q3 1 5 2l4 2q6 2 12 3q2 1 5 1h10q5 -1 9 -2t7 -2l5 -2q9 -4 17 -10l12 -12q5 -6 10 -13q6 -8 11 -18q3 -4 6 -10q0 -1 1 -3l4 -8q4 -9 7 -18
q9 -23 14 -49q1 -3 1 -5q4 -19 6 -40q1 -10 2 -19q1 -17 1 -35t-1 -35q0 -5 -0.5 -10t-1.5 -9q-2 -24 -7 -45l-4 -17l-2 -8q-3 -13 -8 -24l-4 -12l-3 -7q-2 -4 -4 -7q-3 -7 -7 -14q-5 -10 -11 -18q-5 -7 -10 -12q-5 -6 -10 -10l-2 -2q-3 -3 -6 -5q-2 -1 -3 -1q-4 -3 -8 -5
q-2 -1 -5 -2q-2 -1 -5 -1q-3 -1 -7 -2h-9q-9 0 -17 2q-2 0 -5 1q-4 2 -9 4q-5 3 -11 7l-2 2q-17 15 -33 42q-3 7 -7 14q-1 3 -3 7q-6 13 -11 27l-2 8q-4 12 -7 24q-1 4 -2 9q-2 8 -3 17l-4 28q-1 10 -1 21q-24 -3 -53 -3q-140 28 -280 45v-592q115 16 230 39q170 0 170 -122
q0 -160 -170 -160h-230v-553q140 17 280 45q29 0 53 -4q4 81 33 142q35 72 84 72t83.5 -72t34.5 -174t-34.5 -174t-83.5 -72q-31 0 -57 29q-41 -29 -113 -29h-364zM529 1627h-15q-122 0 -122 -127v-1140q0 -127 123 -127h14q125 698 0 1394z" />
    <glyph glyph-name="oe" unicode="&#x153;" horiz-adv-x="1448" 
d="M714 0q-83 -32 -198 -32q-406 1 -406 393q141 570 0 1140q0 392 406 392q114 0 196 -31h366q72 0 113 -29l13 13q7 5 13 8q3 1 5 2l4 2q6 2 12 3q2 1 5 1h10q5 -1 9 -2t7 -2l5 -2q9 -4 17 -10l12 -12q5 -6 10 -13q6 -8 11 -18q3 -4 6 -10q0 -1 1 -3l4 -8q4 -9 7 -18
q9 -23 14 -49q1 -3 1 -5q4 -19 6 -40q1 -10 2 -19q1 -17 1 -35t-1 -35q0 -5 -0.5 -10t-1.5 -9q-2 -24 -7 -45l-4 -17l-2 -8q-3 -13 -8 -24l-4 -12l-3 -7q-2 -4 -4 -7q-3 -7 -7 -14q-5 -10 -11 -18q-5 -7 -10 -12q-5 -6 -10 -10l-2 -2q-3 -3 -6 -5q-2 -1 -3 -1q-4 -3 -8 -5
q-2 -1 -5 -2q-2 -1 -5 -1q-3 -1 -7 -2h-9q-9 0 -17 2q-2 0 -5 1q-4 2 -9 4q-5 3 -11 7l-2 2q-17 15 -33 42q-3 7 -7 14q-1 3 -3 7q-6 13 -11 27l-2 8q-4 12 -7 24q-1 4 -2 9q-2 8 -3 17l-4 28q-1 10 -1 21q-24 -3 -53 -3q-140 28 -280 45v-592q115 16 230 39q170 0 170 -122
q0 -160 -170 -160h-230v-553q140 17 280 45q29 0 53 -4q4 81 33 142q35 72 84 72t83.5 -72t34.5 -174t-34.5 -174t-83.5 -72q-31 0 -57 29q-41 -29 -113 -29h-364zM529 1627h-15q-122 0 -122 -127v-1140q0 -127 123 -127h14q125 698 0 1394z" />
    <glyph glyph-name="Rcaron" unicode="&#x158;" horiz-adv-x="1224" 
d="M83 118q0 49 72 83q20 10 43 17q137 737 -9 1474v9q3 161 140 161l266 -1q236 0 324 -154q40 -62 51 -155v-3q-155 -203 -4 -435q-28 -198 -213 -277q94 -315 243 -615q30 -8 56 -21q72 -34 72 -83t-72 -83.5t-174 -34.5t-174 34.5t-72 83.5t72 83l8 4l-164 593h-77v-584
q16 -5 32 -13q72 -34 72 -83t-72 -83.5t-174 -34.5h-18q-10 0 -18 1q-79 5 -138 33q-72 35 -72 84zM713 1549q0 49 -123 49h-2q-97 0 -117 -31v-471q19 -31 118 -31q124 0 124 49q-99 151 -68 291q16 74 68 144zM752 1939h-296l1 15q0 110 -235 214q-7 6 -7 11q0 12 44 12
q62 0 213 -24l132 -63l131 63q151 24 214 24q44 0 44 -12q0 -5 -7 -11q-235 -104 -235 -214z" />
    <glyph glyph-name="rcaron" unicode="&#x159;" horiz-adv-x="1224" 
d="M83 118q0 49 72 83q20 10 43 17q137 737 -9 1474v9q3 161 140 161l266 -1q236 0 324 -154q40 -62 51 -155v-3q-155 -203 -4 -435q-28 -198 -213 -277q94 -315 243 -615q30 -8 56 -21q72 -34 72 -83t-72 -83.5t-174 -34.5t-174 34.5t-72 83.5t72 83l8 4l-164 593h-77v-584
q16 -5 32 -13q72 -34 72 -83t-72 -83.5t-174 -34.5h-18q-10 0 -18 1q-79 5 -138 33q-72 35 -72 84zM713 1549q0 49 -123 49h-2q-97 0 -117 -31v-471q19 -31 118 -31q124 0 124 49q-99 151 -68 291q16 74 68 144zM752 1939h-296l1 15q0 110 -235 214q-7 6 -7 11q0 12 44 12
q62 0 213 -24l132 -63l131 63q151 24 214 24q44 0 44 -12q0 -5 -7 -11q-235 -104 -235 -214z" />
    <glyph glyph-name="Sacute" unicode="&#x15a;" 
d="M862 678q4 -14 15 -94q17 -119 44 -225q1 -391 -407 -391q-124 0 -197 39q-167 71 -207 274q109 142 67 298q40 77 146 69q125 -11 141 -119q6 -53 -6 -104q-16 -74 -69 -144q0 -49 125 -49q125 1 125 128q-20 107 -48 216q-28 90 -276 354v1q-118 107 -146 252
q-4 14 -15 94q-17 119 -44 225q-1 391 407 391q124 0 197 -39q167 -71 207 -274q-109 -142 -67 -298q-40 -77 -146 -69q-125 11 -141 119q-6 53 6 104q16 74 69 144q0 49 -125 49q-125 -1 -125 -128q20 -107 48 -216q28 -90 127 -197q98 -107 148 -157l1 -1
q118 -107 146 -252zM607 1961q-299 -46 -250 0q251 109 234 227q26 13 135 -37q142 -65 116 -77z" />
    <glyph glyph-name="sacute" unicode="&#x15b;" 
d="M862 678q4 -14 15 -94q17 -119 44 -225q1 -391 -407 -391q-124 0 -197 39q-167 71 -207 274q109 142 67 298q40 77 146 69q125 -11 141 -119q6 -53 -6 -104q-16 -74 -69 -144q0 -49 125 -49q125 1 125 128q-20 107 -48 216q-28 90 -276 354v1q-118 107 -146 252
q-4 14 -15 94q-17 119 -44 225q-1 391 407 391q124 0 197 -39q167 -71 207 -274q-109 -142 -67 -298q-40 -77 -146 -69q-125 11 -141 119q-6 53 6 104q16 74 69 144q0 49 -125 49q-125 -1 -125 -128q20 -107 48 -216q28 -90 127 -197q98 -107 148 -157l1 -1
q118 -107 146 -252zM607 1961q-299 -46 -250 0q251 109 234 227q26 13 135 -37q142 -65 116 -77z" />
    <glyph glyph-name="Scedilla" unicode="&#x15e;" 
d="M244 47q-104 80 -134 234q79 102 79 212q0 43 -12 86q36 70 127 70l19 -1q125 -11 141 -119l2 -35q0 -111 -77 -213q0 -49 125 -49q125 1 125 128q-22 120 -45 205q-26 95 -279 366q-87 79 -125 178q-20 53 -36.5 170t-43.5 224q0 390 407 390q165 0 269.5 -79.5
t134.5 -233.5q-79 -102 -79 -212q0 -43 12 -86q-36 -70 -127 -70l-19 1q-125 11 -141 119l-2 35q0 111 77 213q0 49 -125 49q-125 -1 -125 -128q39 -207 67 -263q57 -111 257 -307q79 -72 118 -161q26 -60 43 -186q17 -119 44 -226q0 -350 -328 -385l42 -39q40 -31 50 -74
l5 -28q6 -35 15 -66q0 -116 -139 -116q-116 0 -137 92q27 30 27 63q0 12 -4 25q12 21 43 21h6q43 -3 48 -35l1 -12q0 -32 -26 -62q0 -14 42 -14q43 0 43 38l-16 64q-10 26 -94 104q-12 13 -12 27v8q-147 6 -243 78z" />
    <glyph glyph-name="scedilla" unicode="&#x15f;" 
d="M244 47q-104 80 -134 234q79 102 79 212q0 43 -12 86q36 70 127 70l19 -1q125 -11 141 -119l2 -35q0 -111 -77 -213q0 -49 125 -49q125 1 125 128q-22 120 -45 205q-26 95 -279 366q-87 79 -125 178q-20 53 -36.5 170t-43.5 224q0 390 407 390q165 0 269.5 -79.5
t134.5 -233.5q-79 -102 -79 -212q0 -43 12 -86q-36 -70 -127 -70l-19 1q-125 11 -141 119l-2 35q0 111 77 213q0 49 -125 49q-125 -1 -125 -128q39 -207 67 -263q57 -111 257 -307q79 -72 118 -161q26 -60 43 -186q17 -119 44 -226q0 -350 -328 -385l42 -39q40 -31 50 -74
l5 -28q6 -35 15 -66q0 -116 -139 -116q-116 0 -137 92q27 30 27 63q0 12 -4 25q12 21 43 21h6q43 -3 48 -35l1 -12q0 -32 -26 -62q0 -14 42 -14q43 0 43 38l-16 64q-10 26 -94 104q-12 13 -12 27v8q-147 6 -243 78z" />
    <glyph glyph-name="Scaron" unicode="&#x160;" 
d="M862 678q4 -14 15 -94q17 -119 44 -225q1 -391 -407 -391q-124 0 -197 39q-167 71 -207 274q109 142 67 298q40 77 146 69q125 -11 141 -119q6 -53 -6 -104q-16 -74 -69 -144q0 -49 125 -49q125 1 125 128q-20 107 -48 216q-28 90 -276 354v1q-118 107 -146 252
q-4 14 -15 94q-17 119 -44 225q-1 391 407 391q124 0 197 -39q167 -71 207 -274q-109 -142 -67 -298q-40 -77 -146 -69q-125 11 -141 119q-6 53 6 104q16 74 69 144q0 49 -125 49q-125 -1 -125 -128q20 -107 48 -216q28 -90 127 -197q98 -107 148 -157l1 -1
q118 -107 146 -252zM643 1939h-296l1 15q0 110 -235 214q-7 6 -7 11q0 12 44 12q62 0 213 -24l132 -63l131 63q151 24 214 24q44 0 44 -12q0 -5 -7 -11q-235 -104 -235 -214z" />
    <glyph glyph-name="scaron" unicode="&#x161;" 
d="M862 678q4 -14 15 -94q17 -119 44 -225q1 -391 -407 -391q-124 0 -197 39q-167 71 -207 274q109 142 67 298q40 77 146 69q125 -11 141 -119q6 -53 -6 -104q-16 -74 -69 -144q0 -49 125 -49q125 1 125 128q-20 107 -48 216q-28 90 -276 354v1q-118 107 -146 252
q-4 14 -15 94q-17 119 -44 225q-1 391 407 391q124 0 197 -39q167 -71 207 -274q-109 -142 -67 -298q-40 -77 -146 -69q-125 11 -141 119q-6 53 6 104q16 74 69 144q0 49 -125 49q-125 -1 -125 -128q20 -107 48 -216q28 -90 127 -197q98 -107 148 -157l1 -1
q118 -107 146 -252zM643 1939h-296l1 15q0 110 -235 214q-7 6 -7 11q0 12 44 12q62 0 213 -24l132 -63l131 63q151 24 214 24q44 0 44 -12q0 -5 -7 -11q-235 -104 -235 -214z" />
    <glyph glyph-name="uni0162" unicode="&#x162;" horiz-adv-x="1149" 
d="M328 118q0 49 72 84q19 9 41 16q129 691 8 1382q-56 -9 -111 -20q-29 0 -53 3q-5 -81 -33 -141q-35 -72 -84 -72t-83 72q-35 72 -35 174t35 174q34 72 83 72q31 0 56 -29q41 29 114 29h471q72 0 113 -29q26 29 57 29q49 0 84 -72q34 -72 34 -174t-34 -174
q-35 -72 -84 -72t-83 72q-30 60 -34 141q-24 -3 -53 -3l-94 17v-1382q17 -6 33 -13q72 -35 72 -84t-72 -83q-59 -29 -138 -34q21 -3 32 -17l54 -50q40 -31 50 -74l5 -28q6 -35 15 -66q0 -116 -139 -116q-116 0 -137 92q27 30 27 63q0 12 -4 25q12 21 43 21h6q43 -3 48 -35
l1 -12q0 -32 -26 -62q0 -14 42 -14q43 0 43 38l-16 64q-10 26 -94 104q-12 13 -12 27v5q4 28 37 34h-13q-101 0 -172 35q-72 34 -72 83z" />
    <glyph glyph-name="uni0163" unicode="&#x163;" horiz-adv-x="1149" 
d="M328 118q0 49 72 84q19 9 41 16q129 691 8 1382q-56 -9 -111 -20q-29 0 -53 3q-5 -81 -33 -141q-35 -72 -84 -72t-83 72q-35 72 -35 174t35 174q34 72 83 72q31 0 56 -29q41 29 114 29h471q72 0 113 -29q26 29 57 29q49 0 84 -72q34 -72 34 -174t-34 -174
q-35 -72 -84 -72t-83 72q-30 60 -34 141q-24 -3 -53 -3l-94 17v-1382q17 -6 33 -13q72 -35 72 -84t-72 -83q-59 -29 -138 -34q21 -3 32 -17l54 -50q40 -31 50 -74l5 -28q6 -35 15 -66q0 -116 -139 -116q-116 0 -137 92q27 30 27 63q0 12 -4 25q12 21 43 21h6q43 -3 48 -35
l1 -12q0 -32 -26 -62q0 -14 42 -14q43 0 43 38l-16 64q-10 26 -94 104q-12 13 -12 27v5q4 28 37 34h-13q-101 0 -172 35q-72 34 -72 83z" />
    <glyph glyph-name="Tcaron" unicode="&#x164;" horiz-adv-x="1149" 
d="M328 118q0 49 72 83q19 10 41 17q130 691 8 1382q-56 -9 -111 -20q-29 0 -53 3q-5 -81 -34 -141q-34 -72 -83 -72t-83.5 72t-34.5 174t34.5 174t83.5 72q31 0 56 -29q41 29 114 29h471q72 0 113 -29q26 29 57 29q49 0 83.5 -72t34.5 -174t-34.5 -174t-83.5 -72t-84 72
q-29 60 -33 141q-24 -3 -53 -3l-94 17v-1382q17 -6 33 -14q72 -34 72 -83t-72 -84q-70 -33 -169 -34h-7q-101 0 -172 34q-72 35 -72 84zM722 1939h-296l1 15q0 110 -235 214q-7 6 -7 11q0 12 44 12q62 0 213 -24l132 -63l131 63q151 24 214 24q44 0 44 -12q0 -5 -7 -11
q-235 -104 -235 -214z" />
    <glyph glyph-name="tcaron" unicode="&#x165;" horiz-adv-x="1149" 
d="M328 118q0 49 72 83q19 10 41 17q130 691 8 1382q-56 -9 -111 -20q-29 0 -53 3q-5 -81 -34 -141q-34 -72 -83 -72t-83.5 72t-34.5 174t34.5 174t83.5 72q31 0 56 -29q41 29 114 29h471q72 0 113 -29q26 29 57 29q49 0 83.5 -72t34.5 -174t-34.5 -174t-83.5 -72t-84 72
q-29 60 -33 141q-24 -3 -53 -3l-94 17v-1382q17 -6 33 -14q72 -34 72 -83t-72 -84q-70 -33 -169 -34h-7q-101 0 -172 34q-72 35 -72 84zM722 1939h-296l1 15q0 110 -235 214q-7 6 -7 11q0 12 44 12q62 0 213 -24l132 -63l131 63q151 24 214 24q44 0 44 -12q0 -5 -7 -11
q-235 -104 -235 -214z" />
    <glyph glyph-name="Uring" unicode="&#x16e;" horiz-adv-x="1253" 
d="M120 1744q0 49 72 83.5t174 34.5t174 -34.5t72 -83.5t-72 -84q-16 -7 -33 -13v-1287q0 -126 123 -126q124 0 134 126q90 413 62 744q-27 296 -72 539q-23 7 -43 17q-72 35 -72 84t72 83q70 34 169 35h14q96 -2 165 -35q72 -34 72 -83t-72 -84q-16 -7 -33 -13v-1287
q0 -392 -396 -392q-392 1 -392 392q98 413 69 744q-27 296 -72 539q-23 7 -43 17q-72 35 -72 84zM749 2338q81 0 81 -199q0 -200 -81 -200q-127 69 -237 0q-81 0 -81 200q0 199 81 199q110 -69 237 0zM512 2199q-26 0 -26 -60v-1q0 -60 26 -60q110 74 237 0q26 0 26 60
q0 61 -26 61q-127 -74 -237 0z" />
    <glyph glyph-name="uring" unicode="&#x16f;" horiz-adv-x="1253" 
d="M120 1744q0 49 72 83.5t174 34.5t174 -34.5t72 -83.5t-72 -84q-16 -7 -33 -13v-1287q0 -126 123 -126q124 0 134 126q90 413 62 744q-27 296 -72 539q-23 7 -43 17q-72 35 -72 84t72 83q70 34 169 35h14q96 -2 165 -35q72 -34 72 -83t-72 -84q-16 -7 -33 -13v-1287
q0 -392 -396 -392q-392 1 -392 392q98 413 69 744q-27 296 -72 539q-23 7 -43 17q-72 35 -72 84zM749 2338q81 0 81 -199q0 -200 -81 -200q-127 69 -237 0q-81 0 -81 200q0 199 81 199q110 -69 237 0zM512 2199q-26 0 -26 -60v-1q0 -60 26 -60q110 74 237 0q26 0 26 60
q0 61 -26 61q-127 -74 -237 0z" />
    <glyph glyph-name="Ydieresis" unicode="&#x178;" horiz-adv-x="1257" 
d="M1187 1744q0 -49 -72 -84q-28 -13 -59 -21q-171 -274 -291 -566v-858q16 -6 32 -14q72 -34 72 -83t-72 -83.5t-174 -34.5t-174 34.5t-72 83.5t72 83q20 10 43 17q54 291 64 582l-38 130q-136 368 -347 709q-32 8 -59 21q-72 35 -72 84t72 83.5t173 34.5h13q94 -2 162 -35
q72 -34 72 -83q0 -48 -70 -83l152 -398l150 398q-69 35 -69 83q0 49 72 83.5t174 34.5t174 -34.5t72 -83.5zM538 1989q0 -50 -122 -50t-122 50q42 73 0 144q0 50 122 50t122 -50q-42 -67 0 -144zM934 1989q0 -50 -122 -50t-122 50q42 73 0 144q0 50 122 50t122 -50
q-42 -67 0 -144z" />
    <glyph glyph-name="Zacute" unicode="&#x179;" horiz-adv-x="1031" 
d="M50 1616q0 102 34.5 174t83.5 72q31 0 56 -29q41 29 114 29h470q170 0 170 -160q0 -18 -4 -32q-1 -31 -14 -68l-209 -590q68 -34 68 -81q0 -49 -72 -84q-29 -13 -62 -22l-201 -570q45 -7 125 -2q57 3 133 16q4 87 34 151q35 72 84 72t83.5 -72t34.5 -174q0 -30 -3 -57
q3 -13 3 -29q0 -103 -70 -140q-22 -20 -48 -20q-9 0 -17 2q-17 -2 -35 -2h-470q-170 0 -170 160q0 13 2 25q2 30 14 67l3 8q162 274 277 565q-35 8 -65 22q-72 35 -72 84t72 83q61 30 144 34q88 270 136 555q-53 9 -138 4.5t-203 -27.5q-29 0 -53 3q-5 -81 -34 -141
q-34 -72 -83 -72t-83.5 72t-34.5 174zM619 1961q-299 -46 -250 0q251 109 234 227q26 13 135 -37q142 -65 116 -77z" />
    <glyph glyph-name="zacute" unicode="&#x17a;" horiz-adv-x="1031" 
d="M50 1616q0 102 34.5 174t83.5 72q31 0 56 -29q41 29 114 29h470q170 0 170 -160q0 -18 -4 -32q-1 -31 -14 -68l-209 -590q68 -34 68 -81q0 -49 -72 -84q-29 -13 -62 -22l-201 -570q45 -7 125 -2q57 3 133 16q4 87 34 151q35 72 84 72t83.5 -72t34.5 -174q0 -30 -3 -57
q3 -13 3 -29q0 -103 -70 -140q-22 -20 -48 -20q-9 0 -17 2q-17 -2 -35 -2h-470q-170 0 -170 160q0 13 2 25q2 30 14 67l3 8q162 274 277 565q-35 8 -65 22q-72 35 -72 84t72 83q61 30 144 34q88 270 136 555q-53 9 -138 4.5t-203 -27.5q-29 0 -53 3q-5 -81 -34 -141
q-34 -72 -83 -72t-83.5 72t-34.5 174zM619 1961q-299 -46 -250 0q251 109 234 227q26 13 135 -37q142 -65 116 -77z" />
    <glyph glyph-name="Zdotaccent" unicode="&#x17b;" horiz-adv-x="1031" 
d="M50 1616q0 102 34.5 174t83.5 72q31 0 56 -29q41 29 114 29h470q170 0 170 -160q0 -18 -4 -32q-1 -31 -14 -68l-209 -590q68 -34 68 -81q0 -49 -72 -84q-29 -13 -62 -22l-201 -570q45 -7 125 -2q57 3 133 16q4 87 34 151q35 72 84 72t83.5 -72t34.5 -174q0 -30 -3 -57
q3 -13 3 -29q0 -103 -70 -140q-22 -20 -48 -20q-9 0 -17 2q-17 -2 -35 -2h-470q-170 0 -170 160q0 13 2 25q2 30 14 67l3 8q162 274 277 565q-35 8 -65 22q-72 35 -72 84t72 83q61 30 144 34q88 270 136 555q-53 9 -138 4.5t-203 -27.5q-29 0 -53 3q-5 -81 -34 -141
q-34 -72 -83 -72t-83.5 72t-34.5 174zM696 1989q0 -50 -122 -50t-122 50q42 73 0 144q0 50 122 50t122 -50q-42 -67 0 -144z" />
    <glyph glyph-name="zdotaccent" unicode="&#x17c;" horiz-adv-x="1031" 
d="M50 1616q0 102 34.5 174t83.5 72q31 0 56 -29q41 29 114 29h470q170 0 170 -160q0 -18 -4 -32q-1 -31 -14 -68l-209 -590q68 -34 68 -81q0 -49 -72 -84q-29 -13 -62 -22l-201 -570q45 -7 125 -2q57 3 133 16q4 87 34 151q35 72 84 72t83.5 -72t34.5 -174q0 -30 -3 -57
q3 -13 3 -29q0 -103 -70 -140q-22 -20 -48 -20q-9 0 -17 2q-17 -2 -35 -2h-470q-170 0 -170 160q0 13 2 25q2 30 14 67l3 8q162 274 277 565q-35 8 -65 22q-72 35 -72 84t72 83q61 30 144 34q88 270 136 555q-53 9 -138 4.5t-203 -27.5q-29 0 -53 3q-5 -81 -34 -141
q-34 -72 -83 -72t-83.5 72t-34.5 174zM696 1989q0 -50 -122 -50t-122 50q42 73 0 144q0 50 122 50t122 -50q-42 -67 0 -144z" />
    <glyph glyph-name="Zcaron" unicode="&#x17d;" horiz-adv-x="1031" 
d="M50 1616q0 102 34.5 174t83.5 72q31 0 56 -29q41 29 114 29h470q170 0 170 -160q0 -18 -4 -32q-1 -31 -14 -68l-209 -590q68 -34 68 -81q0 -49 -72 -84q-29 -13 -62 -22l-201 -570q45 -7 125 -2q57 3 133 16q4 87 34 151q35 72 84 72t83.5 -72t34.5 -174q0 -30 -3 -57
q3 -13 3 -29q0 -103 -70 -140q-22 -20 -48 -20q-9 0 -17 2q-17 -2 -35 -2h-470q-170 0 -170 160q0 13 2 25q2 30 14 67l3 8q162 274 277 565q-35 8 -65 22q-72 35 -72 84t72 83q61 30 144 34q88 270 136 555q-53 9 -138 4.5t-203 -27.5q-29 0 -53 3q-5 -81 -34 -141
q-34 -72 -83 -72t-83.5 72t-34.5 174zM721 1939h-296l1 15q0 110 -235 214q-7 6 -7 11q0 12 44 12q62 0 213 -24l132 -63l131 63q151 24 214 24q44 0 44 -12q0 -5 -7 -11q-235 -104 -235 -214z" />
    <glyph glyph-name="zcaron" unicode="&#x17e;" horiz-adv-x="1031" 
d="M50 1616q0 102 34.5 174t83.5 72q31 0 56 -29q41 29 114 29h470q170 0 170 -160q0 -18 -4 -32q-1 -31 -14 -68l-209 -590q68 -34 68 -81q0 -49 -72 -84q-29 -13 -62 -22l-201 -570q45 -7 125 -2q57 3 133 16q4 87 34 151q35 72 84 72t83.5 -72t34.5 -174q0 -30 -3 -57
q3 -13 3 -29q0 -103 -70 -140q-22 -20 -48 -20q-9 0 -17 2q-17 -2 -35 -2h-470q-170 0 -170 160q0 13 2 25q2 30 14 67l3 8q162 274 277 565q-35 8 -65 22q-72 35 -72 84t72 83q61 30 144 34q88 270 136 555q-53 9 -138 4.5t-203 -27.5q-29 0 -53 3q-5 -81 -34 -141
q-34 -72 -83 -72t-83.5 72t-34.5 174zM721 1939h-296l1 15q0 110 -235 214q-7 6 -7 11q0 12 44 12q62 0 213 -24l132 -63l131 63q151 24 214 24q44 0 44 -12q0 -5 -7 -11q-235 -104 -235 -214z" />
    <glyph glyph-name="smileface" unicode="&#x263a;" horiz-adv-x="2257" 
d="M202 742q35 17 81 17h15q115 0 151 -110l2 -15q-32 -41 -32 -81q4 -25 4 -36q-12 -26 -44 -26h-11q-57 6 -57 49v17q0 36 30 81q0 15 -54 17q-44 -6 -44 -45v-2q22 -123 36 -123q0 -11 123 -140q25 -32 45 -177q4 0 4 -23q0 -106 -96 -139q-34 -6 -61 -6h-11
q-117 0 -151 115l-2 10q32 36 32 83q-4 34 -4 37q18 23 40 23h21q47 0 53 -60q0 -43 -31 -85q0 -19 51 -19q46 0 46 47q-18 113 -31 113q-19 35 -122 144q-29 25 -44 156q-2 0 -11 44q0 99 72 134zM1791 691q0 58 53 58h155q33 0 60 -11q8 11 23 11q35 0 45 -98
q-9 -98 -47 -98h-2q-35 0 -45 85l-4 -2h-8l-119 17v-232l100 15q57 -6 57 -38v-17q0 -58 -81 -58h-76v-223q33 -18 38 -28q4 -10 4 -15q-17 -44 -96 -44h-8q-85 5 -92 44q0 28 47 43q26 157 26 281t-30 304v6zM547 689q0 60 57 60h50q28 -56 70 -105l-64 9v-232l95 15
q62 0 62 -49q0 -64 -81 -64h-76v-217l112 17h17q9 74 41 83h10q38 -9 43 -93v-7q-9 -93 -45 -93h-4q-9 0 -21 10q-15 -10 -41 -10h-172q-53 0 -53 61q30 160 30 305q0 138 -30 310zM1191 458q47 5 91 18q5 -12 13 -25v-2q0 -45 -53 -90q-29 -17 -29 -19q51 -158 97 -240
q49 -14 49 -45q0 -21 -59 -40q-25 -2 -36 -2h-9q-64 0 -89 36l-2 13q0 16 31 32q-63 228 -63 234h-30v-228q40 -22 40 -40q-13 -47 -91 -47h-13q-77 0 -91 47q0 20 36 36q15 0 15 38q21 114 21 249q0 39 -3 83q42 -9 86 -11v-11q2 -8 34 -10h19q33 0 40 15v4q-2 3 -4 5z
M1502 611q59 60 95 129q47 -12 47 -40q0 -23 -42 -36v-564q33 -18 38 -28q4 -10 4 -15q-17 -44 -95 -44h-9q-85 5 -91 44q0 28 46 43q26 165 26 281q0 111 -19 230zM1136 642q-32 -2 -34 -10v-100q-49 3 -93 15q-7 66 -20 142q0 60 68 60h19q153 0 166 -26q56 -40 56 -102
q-29 -33 -30 -68q-49 -16 -102 -20v11q0 33 29 83q-6 15 -36 15h-23zM602 981q0 185 111 323q7 4 10 13q15 17 31 33q12 -57 40 -57h11q-126 -130 -126 -312q0 -129 63 -232h-88q-52 105 -52 232zM1536 749q-13 -2 -24 -4q66 105 66 236q0 182 -126 312h15q10 0 18 10
q14 14 21 43q148 -152 148 -365q0 -132 -57 -241q-22 6 -53 9h-8zM1459 1785q-15 -3 -15 -33q9 -96 9 -170v-9q0 -68 -9 -171q-17 13 -35 25q7 107 7 152q0 55 -9 176q0 109 52 109q53 0 53 -115q-10 -75 -10 -158v-34q0 -76 10 -148q0 -37 -6 -63l-6 7q-15 14 -30 27
q3 9 5 26q-10 85 -10 173q0 62 9 176q0 30 -15 30zM644 1830q7 25 18 25h4q21 0 21 -73q1 -129 39 -431v-15q0 -12 -3 -19q-5 -6 -10 -13q-3 -1 -5 -1h-1q-16 0 -21 118h-42q-7 -118 -22 -118h-3q-15 0 -17 42q17 135 27 234q10 111 15 251zM797 1180h43q30 0 42 -37
q4 -18 4 -30v-7q-10 -75 -10 -113q0 -40 10 -113v-8q0 -60 -44 -66h-47q-10 0 -13 23v8q9 93 9 156q0 62 -9 157v4q0 26 15 26zM1390 1180h41q49 0 49 -76q-9 -62 -9 -105v-12q0 -38 9 -109q0 -54 -29 -68q-5 -4 -14 -4h-47q-13 0 -14 31q10 90 10 154q0 65 -10 161
q3 28 14 28zM1530 1818q0 31 18 37h1q16 0 24 -134q18 -183 18 -267h2q0 119 30 386q6 15 11 15h2q18 0 18 -43v-3q-41 -311 -41 -473q-5 -33 -18 -33h-6q-20 0 -20 75q0 120 -39 431v9zM748 1752q0 112 54 112h1q39 0 50 -88v-9q-5 0 -11 -58l2 -18v-12q-5 -18 -16 -18h-1
q-20 0 -20 42v6q0 32 9 61v3q0 9 -14 12q-17 -4 -17 -33q6 -91 20 -119q43 -89 43 -161q2 -26 3 -43q-18 -11 -35 -25q-1 90 -45 181q-14 28 -23 167zM1272 1812q2 43 16 43h5q14 0 16 -46v-191h39v3q0 87 -9 185q2 49 18 49h2q17 -3 17 -40v-369q-15 8 -30 15q2 38 2 75v3
h-39v-63q-14 5 -29 10q2 38 2 71v43q0 84 -10 212zM1037 1187h1q38 0 50 -56v-8q-9 -20 -9 -41v-11l1 -10q-8 -12 -14 -12h-4q-20 3 -20 29v2q0 17 10 47q-6 6 -15 6q-16 -3 -16 -20q0 -68 48 -128q11 -20 18 -92q1 -12 1 -19v-6q-6 -66 -36 -66q0 -2 -10 -2h-13
q-33 0 -44 58v6q9 19 9 41v8q0 5 -1 8q4 15 13 15h9q13 0 16 -29q0 -23 -11 -47q5 -7 12 -7h5q15 0 15 23q0 56 -38 109q-24 39 -24 78q-5 39 -5 52v4q0 46 30 63q10 5 22 5zM1136 1180h2q17 -3 17 -24v-136h40q0 28 -9 136q4 24 16 24h2q19 0 19 -30v-309q0 -35 -17 -35h-5
q-13 0 -15 31q9 91 9 130h-38q-2 -1 -2 -5v-129q0 -27 -15 -27h-6q-13 0 -16 31q11 81 11 156q0 76 -11 154q2 33 18 33zM1138 1815q0 40 14 40h3q19 0 19 -55v-200h2q20 89 42 240q7 15 13 15h2q17 -9 17 -37v-6q0 -16 -48 -233v-3q9 -42 17 -76q-16 2 -33 4v5h-1
q-1 -3 -1 -5q-19 2 -38 2q1 35 1 64v9q0 99 -9 233v3zM1270 1180h60q20 0 20 -28v-7q0 -22 -19 -22q-33 8 -39 8v-117q26 8 35 8q16 -7 16 -16v-13q0 -29 -20 -29h-31v-111l38 11q20 -3 20 -23v-6q0 -29 -19 -29h-59q-17 0 -17 31q8 56 11 154q-3 99 -11 159q2 30 15 30z
M1282 476q-14 33 -14 58v19q99 31 178 110q7 7 14 15q11 -10 33 -17q5 -25 9 -50l-2 -2q-97 -97 -218 -133zM1050 1688q0 -74 -14 -188h1q-16 -3 -31 -7q19 168 19 246q4 110 13 110q0 5 14 6h1q19 0 19 -73q7 -146 21 -276q-14 -1 -29 -3q-12 97 -12 185h-2zM873 1806
q0 49 23 49h61q20 -4 20 -46v-6q0 -30 -20 -33q-7 0 -14 6v-301l-30 -12q2 52 4 116q0 73 -8 197q-11 -6 -18 -6q-18 5 -18 36zM756 609q-17 17 -32 35l59 -8h2l4 2q0 -6 2 -15q13 -70 43 -70h2q30 0 41 54q61 -42 132 -60q4 -43 7 -81q-146 30 -260 143zM931 1180h3
q20 -2 20 -30v-315q0 -29 -17 -29h-3q-17 0 -17 31q9 78 9 140v33q0 57 -9 142q2 28 14 28zM810 663q-40 41 -68 86h15q31 0 60 -11q0 7 21 11q45 -18 45 -98q-2 -25 -6 -44q-35 24 -67 56zM819 1127v-267h14q16 0 16 18v2q-9 72 -9 115q0 37 9 111q0 21 -27 21h-3z
M1414 1127v-267h10q20 0 20 20v2q-10 60 -10 103v14q0 41 10 107q0 21 -28 21h-2zM1128 455h-26v77h26q19 0 38 1q3 -39 25 -75q-31 -3 -63 -3zM913 1463q-2 -50 -5 -89q-34 -20 -65 -46q10 27 10 72q0 5 -2 29q30 19 62 34zM1006 1493q-5 -38 -10 -82q-27 -8 -53 -20v84
q30 11 63 18zM754 1350q-2 11 -4 25l-2 13q11 22 11 60q0 4 -1 31q6 15 11 15h8q18 0 18 -46q-1 -37 -10 -64q0 -3 1 -4q-15 -13 -30 -27zM1034 1421q33 6 68 8q0 -3 1 -5q10 -59 10 -82q0 -30 -17 -39h-3q-15 0 -22 118h-37zM1201 1424q19 -3 36 -7q13 -62 13 -72v-15
q-7 -27 -17 -27h-6q-11 0 -26 121zM1143 1430q15 -1 31 -2v-71q0 -54 -15 -54h-7q-11 0 -14 36v6q3 45 5 85zM1280 1486q-1 -37 -4 -80q-19 7 -39 11q-7 34 -18 83q31 -6 61 -14zM1128 1507q9 0 18 -1q-1 -35 -3 -76h-15q-13 0 -26 -1q-5 38 -9 77q17 1 35 1zM996 1411
q16 5 33 8q-7 -116 -18 -116h-4q-18 4 -18 33v21q3 28 7 54zM1276 1406q17 -5 33 -13v-39q0 -51 -17 -51h-5q-13 0 -15 42q2 32 4 61zM1409 1427l-2 -30q0 -21 4 -46q3 -15 7 -27q-20 18 -42 33v89q17 -9 33 -19zM1346 1461q-1 -41 -5 -83q-16 8 -32 15v83q19 -7 37 -15z
M908 1374q17 9 35 17v-46q-2 -42 -14 -42h-6q-17 0 -17 45q1 12 2 26zM663 1697q0 -94 -13 -197h29q-14 105 -14 197h-2zM1341 1378q18 -10 35 -21v-15q0 -39 -15 -39h-6q-14 0 -16 48q1 13 2 27zM1512 745q-22 -35 -52 -67q-11 10 -11 22q0 32 63 45zM1174 1428v23
q0 6 10 53h2q14 -73 15 -74v-6q-13 2 -27 4zM816 1404v-1q0 -27 -13 -31h-6q-8 0 -11 8q14 13 30 24zM1470 1380q-3 -8 -8 -8h-4q-14 2 -14 28v2q13 -10 26 -22zM810 1298q16 16 33 30q-6 -15 -15 -25q-11 -10 -20 -10h-3zM1418 1324q14 -12 28 -26l6 -5h-1q-21 0 -33 31z
M1064 1503q1 -2 1 -3h-27q13 2 26 3zM1029 1421h5q-2 -1 -5 -2v2z" />
    </font>
</defs>
</svg>
